%TF.GenerationSoftware,KiCad,Pcbnew,10.0.1*%
%TF.CreationDate,2026-08-16T10:39:17+02:00*%
%TF.ProjectId,HBW-Sen-PRESS-4_Platine1,4842572d-5365-46e2-9d50-524553532d34,rev?*%
%TF.SameCoordinates,Original*%
%TF.FileFunction,Copper,L1,Top*%
%TF.FilePolarity,Positive*%
%FSLAX46Y46*%
G04 Gerber Fmt 4.6, Leading zero omitted, Abs format (unit mm)*
G04 Created by KiCad (PCBNEW 10.0.1) date 2026-08-16 10:39:17*
%MOMM*%
%LPD*%
G01*
G04 APERTURE LIST*
G04 Aperture macros list*
%AMRoundRect*
0 Rectangle with rounded corners*
0 $1 Rounding radius*
0 $2 $3 $4 $5 $6 $7 $8 $9 X,Y pos of 4 corners*
0 Add a 4 corners polygon primitive as box body*
4,1,4,$2,$3,$4,$5,$6,$7,$8,$9,$2,$3,0*
0 Add four circle primitives for the rounded corners*
1,1,$1+$1,$2,$3*
1,1,$1+$1,$4,$5*
1,1,$1+$1,$6,$7*
1,1,$1+$1,$8,$9*
0 Add four rect primitives between the rounded corners*
20,1,$1+$1,$2,$3,$4,$5,0*
20,1,$1+$1,$4,$5,$6,$7,0*
20,1,$1+$1,$6,$7,$8,$9,0*
20,1,$1+$1,$8,$9,$2,$3,0*%
G04 Aperture macros list end*
%TA.AperFunction,ComponentPad*%
%ADD10R,1.700000X1.700000*%
%TD*%
%TA.AperFunction,ComponentPad*%
%ADD11O,1.700000X1.700000*%
%TD*%
%TA.AperFunction,ComponentPad*%
%ADD12R,3.000000X3.000000*%
%TD*%
%TA.AperFunction,ComponentPad*%
%ADD13C,3.000000*%
%TD*%
%TA.AperFunction,ComponentPad*%
%ADD14RoundRect,0.250001X0.949999X-0.949999X0.949999X0.949999X-0.949999X0.949999X-0.949999X-0.949999X0*%
%TD*%
%TA.AperFunction,ComponentPad*%
%ADD15C,2.400000*%
%TD*%
%TA.AperFunction,ComponentPad*%
%ADD16R,1.600000X1.600000*%
%TD*%
%TA.AperFunction,ComponentPad*%
%ADD17C,1.600000*%
%TD*%
%TA.AperFunction,ViaPad*%
%ADD18C,1.000000*%
%TD*%
%TA.AperFunction,ViaPad*%
%ADD19C,0.600000*%
%TD*%
%TA.AperFunction,Conductor*%
%ADD20C,0.300000*%
%TD*%
G04 APERTURE END LIST*
D10*
%TO.P,J3,1,Pin_1_1*%
%TO.N,/GND*%
X139620000Y-117000000D03*
D11*
%TO.P,J3,2,Pin_2_2*%
X142160000Y-117000000D03*
%TO.P,J3,3,Pin_3_3*%
%TO.N,/RST*%
X144700000Y-117000000D03*
%TO.P,J3,4,Pin_4_4*%
%TO.N,unconnected-(J3-Pin_4-Pad4)*%
X147240000Y-117000000D03*
%TO.P,J3,5,Pin_5_5*%
%TO.N,unconnected-(J3-Pin_5-Pad5)*%
X149780000Y-117000000D03*
%TO.P,J3,6,Pin_6_6*%
%TO.N,unconnected-(J3-Pin_6-Pad6)*%
X152320000Y-117000000D03*
%TO.P,J3,7,Pin_7_7*%
%TO.N,unconnected-(J3-Pin_7-Pad7)*%
X154860000Y-117000000D03*
%TO.P,J3,8,Pin_8_8*%
%TO.N,unconnected-(J3-Pin_8-Pad8)*%
X157400000Y-117000000D03*
%TD*%
D12*
%TO.P,J5,1,Pin_1_1*%
%TO.N,Net-(IC2-A)*%
X111250000Y-117750000D03*
D13*
%TO.P,J5,2,Pin_2_2*%
%TO.N,Net-(IC2-B)*%
X111250000Y-112670000D03*
%TD*%
D14*
%TO.P,J2,1,Pin_1_1*%
%TO.N,/A3*%
X185500000Y-117889335D03*
D15*
%TO.P,J2,2,Pin_2_2*%
%TO.N,/A2*%
X185500000Y-112809335D03*
%TO.P,J2,3,Pin_3_3*%
%TO.N,/A1*%
X185500000Y-107729335D03*
%TO.P,J2,4,Pin_4_4*%
%TO.N,/A0*%
X185500000Y-102649335D03*
%TO.P,J2,5,Pin_5_5*%
%TO.N,/GND*%
X185500000Y-97569335D03*
%TO.P,J2,6,Pin_6_6*%
%TO.N,/VCC*%
X185500000Y-92489335D03*
%TD*%
D16*
%TO.P,C6,1*%
%TO.N,/VCC*%
X131200000Y-98194888D03*
D17*
%TO.P,C6,2*%
%TO.N,/GND*%
X131200000Y-100694888D03*
%TD*%
D12*
%TO.P,J4,1,Pin_1_1*%
%TO.N,/+24V*%
X111250000Y-97330000D03*
D13*
%TO.P,J4,2,Pin_2_2*%
%TO.N,/GND*%
X111250000Y-92250000D03*
%TD*%
D16*
%TO.P,C9,1*%
%TO.N,Net-(D1-K)*%
X121500000Y-108194888D03*
D17*
%TO.P,C9,2*%
%TO.N,/GND*%
X121500000Y-110694888D03*
%TD*%
D10*
%TO.P,J1,1,Pin_1_1*%
%TO.N,/VCC*%
X139630000Y-93000000D03*
D11*
%TO.P,J1,2,Pin_2_2*%
X142170000Y-93000000D03*
%TO.P,J1,3,Pin_3_3*%
%TO.N,/A6*%
X144710000Y-93000000D03*
%TO.P,J1,4,Pin_4_4*%
%TO.N,/D11*%
X147250000Y-93000000D03*
%TO.P,J1,5,Pin_5_5*%
%TO.N,/D12*%
X149790000Y-93000000D03*
%TO.P,J1,6,Pin_6_6*%
%TO.N,/D13*%
X152330000Y-93000000D03*
%TO.P,J1,7,Pin_7_7*%
%TO.N,unconnected-(J1-Pin_7-Pad7)*%
X154870000Y-93000000D03*
%TO.P,J1,8,Pin_8_8*%
%TO.N,unconnected-(J1-Pin_8-Pad8)*%
X157410000Y-93000000D03*
%TD*%
D10*
%TO.P,J6,1,MISO_1*%
%TO.N,/D12*%
X158500000Y-101260000D03*
D11*
%TO.P,J6,2,VCC_2*%
%TO.N,/VCC*%
X156000000Y-101260000D03*
%TO.P,J6,3,SCK_3*%
%TO.N,/D13*%
X158000000Y-103800000D03*
%TO.P,J6,4,MOSI_4*%
%TO.N,/D11*%
X155500000Y-103800000D03*
%TO.P,J6,5,~{RST}_5*%
%TO.N,/RST*%
X158500000Y-106340000D03*
%TO.P,J6,6,GND_6*%
%TO.N,/GND*%
X156000000Y-106340000D03*
%TD*%
D18*
%TO.N,/VCC*%
X144850000Y-114090000D03*
X143640000Y-105630000D03*
%TO.N,/A6*%
X147550000Y-106300000D03*
X142050000Y-98950000D03*
D19*
%TO.N,Net-(IC1-TC)*%
X124650000Y-100200000D03*
X120200000Y-100200000D03*
%TD*%
%TO.N,/RST*%
D20*
X144700000Y-117000000D02*
X145900000Y-115800000D01*
X145900000Y-115800000D02*
X149040000Y-115800000D01*
X149040000Y-115800000D02*
X158500000Y-106340000D01*
%TO.N,/VCC*%
X131200000Y-98194888D02*
X136204888Y-98194888D01*
X143640000Y-105630000D02*
X144850000Y-106840000D01*
X144850000Y-106840000D02*
X144850000Y-114090000D01*
X136204888Y-98194888D02*
X143640000Y-105630000D01*
%TO.N,/D11*%
X147250000Y-95550000D02*
X147250000Y-93000000D01*
X155500000Y-103800000D02*
X147250000Y-95550000D01*
%TO.N,/D12*%
X158050000Y-101260000D02*
X149790000Y-93000000D01*
X158500000Y-101260000D02*
X158050000Y-101260000D01*
%TO.N,/D13*%
X159700000Y-100060000D02*
X159700000Y-102900000D01*
X152640000Y-93000000D02*
X159700000Y-100060000D01*
X152330000Y-93000000D02*
X152640000Y-93000000D01*
X158800000Y-103800000D02*
X158000000Y-103800000D01*
X159700000Y-102900000D02*
X158800000Y-103800000D01*
%TO.N,/A6*%
X142050000Y-100800000D02*
X142050000Y-98950000D01*
X147550000Y-106300000D02*
X142050000Y-100800000D01*
%TO.N,Net-(IC1-TC)*%
X120200000Y-100200000D02*
X124650000Y-100200000D01*
%TD*%
%TA.AperFunction,Conductor*%
%TO.N,/GND*%
G36*
X141694075Y-116807007D02*
G01*
X141660000Y-116934174D01*
X141660000Y-117065826D01*
X141694075Y-117192993D01*
X141729297Y-117254000D01*
X140050703Y-117254000D01*
X140085925Y-117192993D01*
X140120000Y-117065826D01*
X140120000Y-116934174D01*
X140085925Y-116807007D01*
X140050703Y-116746000D01*
X141729297Y-116746000D01*
X141694075Y-116807007D01*
G37*
%TD.AperFunction*%
%TA.AperFunction,Conductor*%
G36*
X191541621Y-88670502D02*
G01*
X191588114Y-88724158D01*
X191599500Y-88776500D01*
X191599500Y-121223500D01*
X191579498Y-121291621D01*
X191525842Y-121338114D01*
X191473500Y-121349500D01*
X105526500Y-121349500D01*
X105458379Y-121329498D01*
X105411886Y-121275842D01*
X105400500Y-121223500D01*
X105400500Y-116201350D01*
X109241500Y-116201350D01*
X109241500Y-119298649D01*
X109248009Y-119359196D01*
X109248011Y-119359204D01*
X109299110Y-119496202D01*
X109299112Y-119496207D01*
X109386738Y-119613261D01*
X109503792Y-119700887D01*
X109503794Y-119700888D01*
X109503796Y-119700889D01*
X109562875Y-119722924D01*
X109640795Y-119751988D01*
X109640803Y-119751990D01*
X109701350Y-119758499D01*
X109701355Y-119758499D01*
X109701362Y-119758500D01*
X109701368Y-119758500D01*
X112798632Y-119758500D01*
X112798638Y-119758500D01*
X112798645Y-119758499D01*
X112798649Y-119758499D01*
X112859196Y-119751990D01*
X112859199Y-119751989D01*
X112859201Y-119751989D01*
X112996204Y-119700889D01*
X113113261Y-119613261D01*
X113200889Y-119496204D01*
X113251989Y-119359201D01*
X113256958Y-119312986D01*
X113258499Y-119298649D01*
X113258500Y-119298632D01*
X113258500Y-118889887D01*
X183791499Y-118889887D01*
X183802112Y-118993756D01*
X183802112Y-118993758D01*
X183802113Y-118993760D01*
X183857885Y-119162073D01*
X183857886Y-119162074D01*
X183950970Y-119312986D01*
X183950975Y-119312992D01*
X184076342Y-119438359D01*
X184076348Y-119438364D01*
X184076349Y-119438365D01*
X184227262Y-119531450D01*
X184395575Y-119587222D01*
X184423906Y-119590116D01*
X184499448Y-119597835D01*
X184499456Y-119597835D01*
X186500552Y-119597835D01*
X186569798Y-119590759D01*
X186604425Y-119587222D01*
X186772738Y-119531450D01*
X186923651Y-119438365D01*
X187049030Y-119312986D01*
X187142115Y-119162073D01*
X187197887Y-118993760D01*
X187201424Y-118959133D01*
X187208500Y-118889887D01*
X187208500Y-116888782D01*
X187200540Y-116810880D01*
X187197887Y-116784910D01*
X187142115Y-116616597D01*
X187049030Y-116465684D01*
X187049029Y-116465683D01*
X187049024Y-116465677D01*
X186923657Y-116340310D01*
X186923651Y-116340305D01*
X186845590Y-116292156D01*
X186772738Y-116247220D01*
X186604425Y-116191448D01*
X186604423Y-116191447D01*
X186604421Y-116191447D01*
X186500552Y-116180835D01*
X186500544Y-116180835D01*
X184499456Y-116180835D01*
X184499448Y-116180835D01*
X184395578Y-116191447D01*
X184227262Y-116247220D01*
X184227260Y-116247221D01*
X184076348Y-116340305D01*
X184076342Y-116340310D01*
X183950975Y-116465677D01*
X183950970Y-116465683D01*
X183857886Y-116616595D01*
X183857885Y-116616597D01*
X183802112Y-116784913D01*
X183791500Y-116888782D01*
X183791500Y-118889887D01*
X183791499Y-118889887D01*
X113258500Y-118889887D01*
X113258500Y-116201367D01*
X113258499Y-116201350D01*
X113251990Y-116140803D01*
X113251987Y-116140795D01*
X113237294Y-116101402D01*
X138262000Y-116101402D01*
X138262000Y-116746000D01*
X139189297Y-116746000D01*
X139154075Y-116807007D01*
X139120000Y-116934174D01*
X139120000Y-117065826D01*
X139154075Y-117192993D01*
X139189297Y-117254000D01*
X138262000Y-117254000D01*
X138262000Y-117898597D01*
X138268505Y-117959093D01*
X138319555Y-118095964D01*
X138319555Y-118095965D01*
X138407095Y-118212904D01*
X138524034Y-118300444D01*
X138660906Y-118351494D01*
X138721402Y-118357999D01*
X138721415Y-118358000D01*
X139366000Y-118358000D01*
X139366000Y-117430702D01*
X139427007Y-117465925D01*
X139554174Y-117500000D01*
X139685826Y-117500000D01*
X139812993Y-117465925D01*
X139874000Y-117430702D01*
X139874000Y-118358000D01*
X140518585Y-118358000D01*
X140518597Y-118357999D01*
X140579093Y-118351494D01*
X140715964Y-118300444D01*
X140715965Y-118300444D01*
X140832904Y-118212904D01*
X140920444Y-118095965D01*
X140964671Y-117977387D01*
X141007218Y-117920551D01*
X141073738Y-117895740D01*
X141143112Y-117910831D01*
X141171822Y-117932324D01*
X141275320Y-118035822D01*
X141448249Y-118161463D01*
X141638707Y-118258506D01*
X141638713Y-118258509D01*
X141841998Y-118324560D01*
X141906000Y-118334696D01*
X141906000Y-117430702D01*
X141967007Y-117465925D01*
X142094174Y-117500000D01*
X142225826Y-117500000D01*
X142352993Y-117465925D01*
X142414000Y-117430702D01*
X142414000Y-118334696D01*
X142478001Y-118324560D01*
X142681286Y-118258509D01*
X142681292Y-118258506D01*
X142871750Y-118161463D01*
X143044679Y-118035822D01*
X143195822Y-117884679D01*
X143321460Y-117711754D01*
X143322261Y-117710448D01*
X143322695Y-117710054D01*
X143324376Y-117707742D01*
X143324861Y-117708094D01*
X143374900Y-117662807D01*
X143444940Y-117651188D01*
X143510142Y-117679280D01*
X143535097Y-117708075D01*
X143535196Y-117708004D01*
X143536025Y-117709145D01*
X143537136Y-117710427D01*
X143538103Y-117712006D01*
X143613518Y-117815806D01*
X143663794Y-117885004D01*
X143663796Y-117885006D01*
X143663798Y-117885009D01*
X143814990Y-118036201D01*
X143814993Y-118036203D01*
X143814996Y-118036206D01*
X143987991Y-118161894D01*
X144178517Y-118258972D01*
X144381878Y-118325047D01*
X144381879Y-118325047D01*
X144381884Y-118325049D01*
X144593084Y-118358500D01*
X144593087Y-118358500D01*
X144806913Y-118358500D01*
X144806916Y-118358500D01*
X145018116Y-118325049D01*
X145221483Y-118258972D01*
X145412009Y-118161894D01*
X145585004Y-118036206D01*
X145736206Y-117885004D01*
X145861894Y-117712009D01*
X145861899Y-117711997D01*
X145862561Y-117710920D01*
X145862924Y-117710591D01*
X145864804Y-117708004D01*
X145865347Y-117708398D01*
X145915204Y-117663283D01*
X145985244Y-117651670D01*
X146050445Y-117679766D01*
X146075021Y-117708130D01*
X146075196Y-117708004D01*
X146076668Y-117710030D01*
X146077439Y-117710920D01*
X146078104Y-117712006D01*
X146078106Y-117712009D01*
X146203794Y-117885004D01*
X146203796Y-117885006D01*
X146203798Y-117885009D01*
X146354990Y-118036201D01*
X146354993Y-118036203D01*
X146354996Y-118036206D01*
X146527991Y-118161894D01*
X146718517Y-118258972D01*
X146921878Y-118325047D01*
X146921879Y-118325047D01*
X146921884Y-118325049D01*
X147133084Y-118358500D01*
X147133087Y-118358500D01*
X147346913Y-118358500D01*
X147346916Y-118358500D01*
X147558116Y-118325049D01*
X147761483Y-118258972D01*
X147952009Y-118161894D01*
X148125004Y-118036206D01*
X148276206Y-117885004D01*
X148401894Y-117712009D01*
X148401899Y-117711997D01*
X148402561Y-117710920D01*
X148402924Y-117710591D01*
X148404804Y-117708004D01*
X148405347Y-117708398D01*
X148455204Y-117663283D01*
X148525244Y-117651670D01*
X148590445Y-117679766D01*
X148615021Y-117708130D01*
X148615196Y-117708004D01*
X148616668Y-117710030D01*
X148617439Y-117710920D01*
X148618104Y-117712006D01*
X148618106Y-117712009D01*
X148743794Y-117885004D01*
X148743796Y-117885006D01*
X148743798Y-117885009D01*
X148894990Y-118036201D01*
X148894993Y-118036203D01*
X148894996Y-118036206D01*
X149067991Y-118161894D01*
X149258517Y-118258972D01*
X149461878Y-118325047D01*
X149461879Y-118325047D01*
X149461884Y-118325049D01*
X149673084Y-118358500D01*
X149673087Y-118358500D01*
X149886913Y-118358500D01*
X149886916Y-118358500D01*
X150098116Y-118325049D01*
X150301483Y-118258972D01*
X150492009Y-118161894D01*
X150665004Y-118036206D01*
X150816206Y-117885004D01*
X150941894Y-117712009D01*
X150941899Y-117711997D01*
X150942561Y-117710920D01*
X150942924Y-117710591D01*
X150944804Y-117708004D01*
X150945347Y-117708398D01*
X150995204Y-117663283D01*
X151065244Y-117651670D01*
X151130445Y-117679766D01*
X151155021Y-117708130D01*
X151155196Y-117708004D01*
X151156668Y-117710030D01*
X151157439Y-117710920D01*
X151158104Y-117712006D01*
X151158106Y-117712009D01*
X151283794Y-117885004D01*
X151283796Y-117885006D01*
X151283798Y-117885009D01*
X151434990Y-118036201D01*
X151434993Y-118036203D01*
X151434996Y-118036206D01*
X151607991Y-118161894D01*
X151798517Y-118258972D01*
X152001878Y-118325047D01*
X152001879Y-118325047D01*
X152001884Y-118325049D01*
X152213084Y-118358500D01*
X152213087Y-118358500D01*
X152426913Y-118358500D01*
X152426916Y-118358500D01*
X152638116Y-118325049D01*
X152841483Y-118258972D01*
X153032009Y-118161894D01*
X153205004Y-118036206D01*
X153356206Y-117885004D01*
X153481894Y-117712009D01*
X153481899Y-117711997D01*
X153482561Y-117710920D01*
X153482924Y-117710591D01*
X153484804Y-117708004D01*
X153485347Y-117708398D01*
X153535204Y-117663283D01*
X153605244Y-117651670D01*
X153670445Y-117679766D01*
X153695021Y-117708130D01*
X153695196Y-117708004D01*
X153696668Y-117710030D01*
X153697439Y-117710920D01*
X153698104Y-117712006D01*
X153698106Y-117712009D01*
X153823794Y-117885004D01*
X153823796Y-117885006D01*
X153823798Y-117885009D01*
X153974990Y-118036201D01*
X153974993Y-118036203D01*
X153974996Y-118036206D01*
X154147991Y-118161894D01*
X154338517Y-118258972D01*
X154541878Y-118325047D01*
X154541879Y-118325047D01*
X154541884Y-118325049D01*
X154753084Y-118358500D01*
X154753087Y-118358500D01*
X154966913Y-118358500D01*
X154966916Y-118358500D01*
X155178116Y-118325049D01*
X155381483Y-118258972D01*
X155572009Y-118161894D01*
X155745004Y-118036206D01*
X155896206Y-117885004D01*
X156021894Y-117712009D01*
X156021899Y-117711997D01*
X156022561Y-117710920D01*
X156022924Y-117710591D01*
X156024804Y-117708004D01*
X156025347Y-117708398D01*
X156075204Y-117663283D01*
X156145244Y-117651670D01*
X156210445Y-117679766D01*
X156235021Y-117708130D01*
X156235196Y-117708004D01*
X156236668Y-117710030D01*
X156237439Y-117710920D01*
X156238104Y-117712006D01*
X156238106Y-117712009D01*
X156363794Y-117885004D01*
X156363796Y-117885006D01*
X156363798Y-117885009D01*
X156514990Y-118036201D01*
X156514993Y-118036203D01*
X156514996Y-118036206D01*
X156687991Y-118161894D01*
X156878517Y-118258972D01*
X157081878Y-118325047D01*
X157081879Y-118325047D01*
X157081884Y-118325049D01*
X157293084Y-118358500D01*
X157293087Y-118358500D01*
X157506913Y-118358500D01*
X157506916Y-118358500D01*
X157718116Y-118325049D01*
X157921483Y-118258972D01*
X158112009Y-118161894D01*
X158285004Y-118036206D01*
X158436206Y-117885004D01*
X158561894Y-117712009D01*
X158658972Y-117521483D01*
X158725049Y-117318116D01*
X158758500Y-117106916D01*
X158758500Y-116893084D01*
X158725049Y-116681884D01*
X158658972Y-116478517D01*
X158561894Y-116287991D01*
X158436206Y-116114996D01*
X158436203Y-116114993D01*
X158436201Y-116114990D01*
X158285009Y-115963798D01*
X158285006Y-115963796D01*
X158285004Y-115963794D01*
X158112009Y-115838106D01*
X157921483Y-115741028D01*
X157921480Y-115741027D01*
X157921478Y-115741026D01*
X157718120Y-115674952D01*
X157718123Y-115674952D01*
X157657195Y-115665302D01*
X157506916Y-115641500D01*
X157293084Y-115641500D01*
X157083450Y-115674703D01*
X157081878Y-115674952D01*
X156878521Y-115741026D01*
X156878515Y-115741029D01*
X156687987Y-115838108D01*
X156514993Y-115963796D01*
X156514990Y-115963798D01*
X156363798Y-116114990D01*
X156363796Y-116114993D01*
X156238108Y-116287987D01*
X156237434Y-116289088D01*
X156237068Y-116289418D01*
X156235196Y-116291996D01*
X156234654Y-116291602D01*
X156184787Y-116336721D01*
X156114745Y-116348328D01*
X156049547Y-116320226D01*
X156024976Y-116291870D01*
X156024804Y-116291996D01*
X156023341Y-116289982D01*
X156022566Y-116289088D01*
X156021896Y-116287996D01*
X156021894Y-116287991D01*
X155896206Y-116114996D01*
X155896203Y-116114993D01*
X155896201Y-116114990D01*
X155745009Y-115963798D01*
X155745006Y-115963796D01*
X155745004Y-115963794D01*
X155572009Y-115838106D01*
X155381483Y-115741028D01*
X155381480Y-115741027D01*
X155381478Y-115741026D01*
X155178120Y-115674952D01*
X155178123Y-115674952D01*
X155117195Y-115665302D01*
X154966916Y-115641500D01*
X154753084Y-115641500D01*
X154543450Y-115674703D01*
X154541878Y-115674952D01*
X154338521Y-115741026D01*
X154338515Y-115741029D01*
X154147987Y-115838108D01*
X153974993Y-115963796D01*
X153974990Y-115963798D01*
X153823798Y-116114990D01*
X153823796Y-116114993D01*
X153698108Y-116287987D01*
X153697434Y-116289088D01*
X153697068Y-116289418D01*
X153695196Y-116291996D01*
X153694654Y-116291602D01*
X153644787Y-116336721D01*
X153574745Y-116348328D01*
X153509547Y-116320226D01*
X153484976Y-116291870D01*
X153484804Y-116291996D01*
X153483341Y-116289982D01*
X153482566Y-116289088D01*
X153481896Y-116287996D01*
X153481894Y-116287991D01*
X153356206Y-116114996D01*
X153356203Y-116114993D01*
X153356201Y-116114990D01*
X153205009Y-115963798D01*
X153205006Y-115963796D01*
X153205004Y-115963794D01*
X153032009Y-115838106D01*
X152841483Y-115741028D01*
X152841480Y-115741027D01*
X152841478Y-115741026D01*
X152638120Y-115674952D01*
X152638123Y-115674952D01*
X152577195Y-115665302D01*
X152426916Y-115641500D01*
X152213084Y-115641500D01*
X152003450Y-115674703D01*
X152001878Y-115674952D01*
X151798521Y-115741026D01*
X151798515Y-115741029D01*
X151607987Y-115838108D01*
X151434993Y-115963796D01*
X151434990Y-115963798D01*
X151283798Y-116114990D01*
X151283796Y-116114993D01*
X151158108Y-116287987D01*
X151157434Y-116289088D01*
X151157068Y-116289418D01*
X151155196Y-116291996D01*
X151154654Y-116291602D01*
X151104787Y-116336721D01*
X151034745Y-116348328D01*
X150969547Y-116320226D01*
X150944976Y-116291870D01*
X150944804Y-116291996D01*
X150943341Y-116289982D01*
X150942566Y-116289088D01*
X150941896Y-116287996D01*
X150941894Y-116287991D01*
X150816206Y-116114996D01*
X150816203Y-116114993D01*
X150816201Y-116114990D01*
X150665009Y-115963798D01*
X150665006Y-115963796D01*
X150665004Y-115963794D01*
X150492009Y-115838106D01*
X150301483Y-115741028D01*
X150301480Y-115741027D01*
X150301478Y-115741026D01*
X150292294Y-115738042D01*
X150233691Y-115697965D01*
X150206057Y-115632567D01*
X150218168Y-115562611D01*
X150242139Y-115529119D01*
X153073907Y-112697351D01*
X183791500Y-112697351D01*
X183791500Y-112921318D01*
X183820731Y-113143355D01*
X183820733Y-113143362D01*
X183878698Y-113359693D01*
X183964405Y-113566607D01*
X183964406Y-113566608D01*
X183964411Y-113566618D01*
X184076383Y-113760558D01*
X184076386Y-113760563D01*
X184212725Y-113938244D01*
X184212734Y-113938254D01*
X184371080Y-114096600D01*
X184371090Y-114096609D01*
X184371091Y-114096610D01*
X184548772Y-114232949D01*
X184742728Y-114344930D01*
X184949642Y-114430637D01*
X185165973Y-114488602D01*
X185165977Y-114488602D01*
X185165979Y-114488603D01*
X185223204Y-114496136D01*
X185388019Y-114517835D01*
X185388026Y-114517835D01*
X185611974Y-114517835D01*
X185611981Y-114517835D01*
X185812656Y-114491415D01*
X185834020Y-114488603D01*
X185834020Y-114488602D01*
X185834027Y-114488602D01*
X186050358Y-114430637D01*
X186257272Y-114344930D01*
X186451228Y-114232949D01*
X186628909Y-114096610D01*
X186787275Y-113938244D01*
X186923614Y-113760563D01*
X187035595Y-113566607D01*
X187121302Y-113359693D01*
X187179267Y-113143362D01*
X187208500Y-112921316D01*
X187208500Y-112697354D01*
X187179267Y-112475308D01*
X187121302Y-112258977D01*
X187035595Y-112052063D01*
X186923614Y-111858107D01*
X186787275Y-111680426D01*
X186787274Y-111680425D01*
X186787265Y-111680415D01*
X186628919Y-111522069D01*
X186628909Y-111522060D01*
X186451228Y-111385721D01*
X186442062Y-111380429D01*
X186257283Y-111273746D01*
X186257278Y-111273743D01*
X186257272Y-111273740D01*
X186050358Y-111188033D01*
X185834027Y-111130068D01*
X185834020Y-111130066D01*
X185611983Y-111100835D01*
X185611981Y-111100835D01*
X185388019Y-111100835D01*
X185388016Y-111100835D01*
X185165979Y-111130066D01*
X184949642Y-111188033D01*
X184742726Y-111273741D01*
X184742716Y-111273746D01*
X184548776Y-111385718D01*
X184371090Y-111522060D01*
X184371080Y-111522069D01*
X184212734Y-111680415D01*
X184212725Y-111680425D01*
X184076383Y-111858111D01*
X183964411Y-112052051D01*
X183964406Y-112052061D01*
X183878698Y-112258977D01*
X183820731Y-112475314D01*
X183791500Y-112697351D01*
X153073907Y-112697351D01*
X158071161Y-107700096D01*
X158133471Y-107666072D01*
X158179965Y-107664744D01*
X158181877Y-107665046D01*
X158181884Y-107665049D01*
X158393084Y-107698500D01*
X158393087Y-107698500D01*
X158606913Y-107698500D01*
X158606916Y-107698500D01*
X158818116Y-107665049D01*
X158964917Y-107617351D01*
X183791500Y-107617351D01*
X183791500Y-107841318D01*
X183820731Y-108063355D01*
X183820733Y-108063362D01*
X183878698Y-108279693D01*
X183964405Y-108486607D01*
X184076386Y-108680563D01*
X184212725Y-108858244D01*
X184212734Y-108858254D01*
X184371080Y-109016600D01*
X184371090Y-109016609D01*
X184371091Y-109016610D01*
X184548772Y-109152949D01*
X184742728Y-109264930D01*
X184949642Y-109350637D01*
X185165973Y-109408602D01*
X185165977Y-109408602D01*
X185165979Y-109408603D01*
X185223204Y-109416136D01*
X185388019Y-109437835D01*
X185388026Y-109437835D01*
X185611974Y-109437835D01*
X185611981Y-109437835D01*
X185812656Y-109411415D01*
X185834020Y-109408603D01*
X185834020Y-109408602D01*
X185834027Y-109408602D01*
X186050358Y-109350637D01*
X186257272Y-109264930D01*
X186451228Y-109152949D01*
X186628909Y-109016610D01*
X186787275Y-108858244D01*
X186923614Y-108680563D01*
X187035595Y-108486607D01*
X187121302Y-108279693D01*
X187179267Y-108063362D01*
X187208500Y-107841316D01*
X187208500Y-107617354D01*
X187179267Y-107395308D01*
X187121302Y-107178977D01*
X187035595Y-106972063D01*
X186923614Y-106778107D01*
X186787275Y-106600426D01*
X186787274Y-106600425D01*
X186787265Y-106600415D01*
X186628919Y-106442069D01*
X186628909Y-106442060D01*
X186600461Y-106420231D01*
X186451228Y-106305721D01*
X186451223Y-106305718D01*
X186257283Y-106193746D01*
X186257278Y-106193743D01*
X186257272Y-106193740D01*
X186050358Y-106108033D01*
X185834027Y-106050068D01*
X185834020Y-106050066D01*
X185611983Y-106020835D01*
X185611981Y-106020835D01*
X185388019Y-106020835D01*
X185388016Y-106020835D01*
X185165979Y-106050066D01*
X184949642Y-106108033D01*
X184742726Y-106193741D01*
X184742716Y-106193746D01*
X184548776Y-106305718D01*
X184371090Y-106442060D01*
X184371080Y-106442069D01*
X184212734Y-106600415D01*
X184212725Y-106600425D01*
X184076383Y-106778111D01*
X183964411Y-106972051D01*
X183964406Y-106972061D01*
X183964405Y-106972063D01*
X183891246Y-107148684D01*
X183878698Y-107178977D01*
X183820731Y-107395314D01*
X183791500Y-107617351D01*
X158964917Y-107617351D01*
X159021483Y-107598972D01*
X159212009Y-107501894D01*
X159385004Y-107376206D01*
X159536206Y-107225004D01*
X159661894Y-107052009D01*
X159758972Y-106861483D01*
X159825049Y-106658116D01*
X159858500Y-106446916D01*
X159858500Y-106233084D01*
X159825049Y-106021884D01*
X159758972Y-105818517D01*
X159661894Y-105627991D01*
X159536206Y-105454996D01*
X159536203Y-105454993D01*
X159536201Y-105454990D01*
X159385009Y-105303798D01*
X159385006Y-105303796D01*
X159385004Y-105303794D01*
X159212009Y-105178106D01*
X159021483Y-105081028D01*
X159021480Y-105081027D01*
X159021478Y-105081026D01*
X158928940Y-105050959D01*
X158870334Y-105010885D01*
X158842697Y-104945489D01*
X158854804Y-104875532D01*
X158882145Y-104840348D01*
X158881504Y-104839707D01*
X159036201Y-104685009D01*
X159036206Y-104685004D01*
X159161894Y-104512009D01*
X159258972Y-104321483D01*
X159273301Y-104277378D01*
X159304036Y-104227222D01*
X160211490Y-103319769D01*
X160283555Y-103211917D01*
X160333194Y-103092077D01*
X160348198Y-103016647D01*
X160358500Y-102964857D01*
X160358500Y-102537351D01*
X183791500Y-102537351D01*
X183791500Y-102761318D01*
X183820731Y-102983355D01*
X183820733Y-102983362D01*
X183878698Y-103199693D01*
X183964405Y-103406607D01*
X183964406Y-103406608D01*
X183964411Y-103406618D01*
X184007866Y-103481884D01*
X184076386Y-103600563D01*
X184147380Y-103693084D01*
X184212725Y-103778244D01*
X184212734Y-103778254D01*
X184371080Y-103936600D01*
X184371090Y-103936609D01*
X184371091Y-103936610D01*
X184548772Y-104072949D01*
X184742728Y-104184930D01*
X184949642Y-104270637D01*
X185165973Y-104328602D01*
X185165977Y-104328602D01*
X185165979Y-104328603D01*
X185223204Y-104336136D01*
X185388019Y-104357835D01*
X185388026Y-104357835D01*
X185611974Y-104357835D01*
X185611981Y-104357835D01*
X185812656Y-104331415D01*
X185834020Y-104328603D01*
X185834020Y-104328602D01*
X185834027Y-104328602D01*
X186050358Y-104270637D01*
X186257272Y-104184930D01*
X186451228Y-104072949D01*
X186628909Y-103936610D01*
X186787275Y-103778244D01*
X186923614Y-103600563D01*
X187035595Y-103406607D01*
X187121302Y-103199693D01*
X187179267Y-102983362D01*
X187208500Y-102761316D01*
X187208500Y-102537354D01*
X187186801Y-102372539D01*
X187179268Y-102315314D01*
X187179267Y-102315312D01*
X187179267Y-102315308D01*
X187121302Y-102098977D01*
X187035595Y-101892063D01*
X186923614Y-101698107D01*
X186787275Y-101520426D01*
X186787274Y-101520425D01*
X186787265Y-101520415D01*
X186628919Y-101362069D01*
X186628909Y-101362060D01*
X186451228Y-101225721D01*
X186440919Y-101219769D01*
X186257283Y-101113746D01*
X186257278Y-101113743D01*
X186257272Y-101113740D01*
X186050358Y-101028033D01*
X185861499Y-100977429D01*
X185834020Y-100970066D01*
X185611983Y-100940835D01*
X185611981Y-100940835D01*
X185388019Y-100940835D01*
X185388016Y-100940835D01*
X185165979Y-100970066D01*
X184949642Y-101028033D01*
X184742726Y-101113741D01*
X184742716Y-101113746D01*
X184548776Y-101225718D01*
X184371090Y-101362060D01*
X184371080Y-101362069D01*
X184212734Y-101520415D01*
X184212725Y-101520425D01*
X184076383Y-101698111D01*
X183964411Y-101892051D01*
X183964406Y-101892061D01*
X183964405Y-101892063D01*
X183931841Y-101970679D01*
X183878698Y-102098977D01*
X183820731Y-102315314D01*
X183791500Y-102537351D01*
X160358500Y-102537351D01*
X160358500Y-99995143D01*
X160343502Y-99919744D01*
X160333195Y-99867923D01*
X160283555Y-99748083D01*
X160211491Y-99640231D01*
X158028644Y-97457384D01*
X183792000Y-97457384D01*
X183792000Y-97681285D01*
X183821222Y-97903257D01*
X183879173Y-98119531D01*
X183964852Y-98326381D01*
X183964857Y-98326390D01*
X184076800Y-98520281D01*
X184125879Y-98584242D01*
X184125881Y-98584243D01*
X184782495Y-97927628D01*
X184791049Y-97948277D01*
X184878599Y-98079305D01*
X184990030Y-98190736D01*
X185121058Y-98278286D01*
X185141705Y-98286838D01*
X184485090Y-98943453D01*
X184485090Y-98943454D01*
X184549052Y-98992534D01*
X184742944Y-99104477D01*
X184742953Y-99104482D01*
X184949803Y-99190161D01*
X185166077Y-99248112D01*
X185388049Y-99277334D01*
X185388059Y-99277335D01*
X185611941Y-99277335D01*
X185611950Y-99277334D01*
X185833922Y-99248112D01*
X186050196Y-99190161D01*
X186257046Y-99104482D01*
X186257055Y-99104477D01*
X186450953Y-98992530D01*
X186514908Y-98943453D01*
X185858294Y-98286838D01*
X185878942Y-98278286D01*
X186009970Y-98190736D01*
X186121401Y-98079305D01*
X186208951Y-97948277D01*
X186217503Y-97927628D01*
X186874118Y-98584243D01*
X186923195Y-98520288D01*
X187035142Y-98326390D01*
X187035147Y-98326381D01*
X187120826Y-98119531D01*
X187178777Y-97903257D01*
X187207999Y-97681285D01*
X187208000Y-97681276D01*
X187208000Y-97457394D01*
X187207999Y-97457384D01*
X187178777Y-97235412D01*
X187120826Y-97019138D01*
X187035147Y-96812288D01*
X187035142Y-96812279D01*
X186923199Y-96618387D01*
X186874118Y-96554425D01*
X186217503Y-97211040D01*
X186208951Y-97190393D01*
X186121401Y-97059365D01*
X186009970Y-96947934D01*
X185878942Y-96860384D01*
X185858293Y-96851831D01*
X186514908Y-96195216D01*
X186514907Y-96195214D01*
X186450946Y-96146135D01*
X186257055Y-96034192D01*
X186257046Y-96034187D01*
X186050196Y-95948508D01*
X185833922Y-95890557D01*
X185611950Y-95861335D01*
X185388049Y-95861335D01*
X185166077Y-95890557D01*
X184949803Y-95948508D01*
X184742953Y-96034187D01*
X184742944Y-96034192D01*
X184549053Y-96146135D01*
X184485090Y-96195215D01*
X185141706Y-96851831D01*
X185121058Y-96860384D01*
X184990030Y-96947934D01*
X184878599Y-97059365D01*
X184791049Y-97190393D01*
X184782496Y-97211041D01*
X184125880Y-96554425D01*
X184076800Y-96618388D01*
X183964857Y-96812279D01*
X183964852Y-96812288D01*
X183879173Y-97019138D01*
X183821222Y-97235412D01*
X183792000Y-97457384D01*
X158028644Y-97457384D01*
X155111066Y-94539806D01*
X155077040Y-94477494D01*
X155082105Y-94406679D01*
X155124652Y-94349843D01*
X155180449Y-94326263D01*
X155188116Y-94325049D01*
X155391483Y-94258972D01*
X155582009Y-94161894D01*
X155755004Y-94036206D01*
X155906206Y-93885004D01*
X156031894Y-93712009D01*
X156031899Y-93711997D01*
X156032561Y-93710920D01*
X156032924Y-93710591D01*
X156034804Y-93708004D01*
X156035347Y-93708398D01*
X156085204Y-93663283D01*
X156155244Y-93651670D01*
X156220445Y-93679766D01*
X156245021Y-93708130D01*
X156245196Y-93708004D01*
X156246668Y-93710030D01*
X156247439Y-93710920D01*
X156248105Y-93712007D01*
X156248106Y-93712009D01*
X156373794Y-93885004D01*
X156373796Y-93885006D01*
X156373798Y-93885009D01*
X156524990Y-94036201D01*
X156524993Y-94036203D01*
X156524996Y-94036206D01*
X156697991Y-94161894D01*
X156888517Y-94258972D01*
X157091878Y-94325047D01*
X157091879Y-94325047D01*
X157091884Y-94325049D01*
X157303084Y-94358500D01*
X157303087Y-94358500D01*
X157516913Y-94358500D01*
X157516916Y-94358500D01*
X157728116Y-94325049D01*
X157931483Y-94258972D01*
X158122009Y-94161894D01*
X158295004Y-94036206D01*
X158446206Y-93885004D01*
X158571894Y-93712009D01*
X158668972Y-93521483D01*
X158735049Y-93318116D01*
X158768500Y-93106916D01*
X158768500Y-92893084D01*
X158735049Y-92681884D01*
X158668972Y-92478517D01*
X158617425Y-92377351D01*
X183791500Y-92377351D01*
X183791500Y-92601318D01*
X183820731Y-92823355D01*
X183839108Y-92891940D01*
X183878698Y-93039693D01*
X183964405Y-93246607D01*
X183964406Y-93246608D01*
X183964411Y-93246618D01*
X184076383Y-93440558D01*
X184076386Y-93440563D01*
X184138478Y-93521483D01*
X184212725Y-93618244D01*
X184212734Y-93618254D01*
X184371080Y-93776600D01*
X184371090Y-93776609D01*
X184371091Y-93776610D01*
X184548772Y-93912949D01*
X184742728Y-94024930D01*
X184949642Y-94110637D01*
X185165973Y-94168602D01*
X185165977Y-94168602D01*
X185165979Y-94168603D01*
X185223204Y-94176136D01*
X185388019Y-94197835D01*
X185388026Y-94197835D01*
X185611974Y-94197835D01*
X185611981Y-94197835D01*
X185812656Y-94171415D01*
X185834020Y-94168603D01*
X185834020Y-94168602D01*
X185834027Y-94168602D01*
X186050358Y-94110637D01*
X186257272Y-94024930D01*
X186451228Y-93912949D01*
X186628909Y-93776610D01*
X186787275Y-93618244D01*
X186923614Y-93440563D01*
X187035595Y-93246607D01*
X187121302Y-93039693D01*
X187179267Y-92823362D01*
X187208500Y-92601316D01*
X187208500Y-92377354D01*
X187179267Y-92155308D01*
X187121302Y-91938977D01*
X187035595Y-91732063D01*
X186923614Y-91538107D01*
X186787275Y-91360426D01*
X186787274Y-91360425D01*
X186787265Y-91360415D01*
X186628919Y-91202069D01*
X186628909Y-91202060D01*
X186451228Y-91065721D01*
X186451223Y-91065718D01*
X186257283Y-90953746D01*
X186257278Y-90953743D01*
X186257272Y-90953740D01*
X186050358Y-90868033D01*
X185834027Y-90810068D01*
X185834020Y-90810066D01*
X185611983Y-90780835D01*
X185611981Y-90780835D01*
X185388019Y-90780835D01*
X185388016Y-90780835D01*
X185165979Y-90810066D01*
X184949642Y-90868033D01*
X184742726Y-90953741D01*
X184742716Y-90953746D01*
X184548776Y-91065718D01*
X184371090Y-91202060D01*
X184371080Y-91202069D01*
X184212734Y-91360415D01*
X184212725Y-91360425D01*
X184076383Y-91538111D01*
X183964411Y-91732051D01*
X183964406Y-91732061D01*
X183964405Y-91732063D01*
X183960692Y-91741028D01*
X183878698Y-91938977D01*
X183820731Y-92155314D01*
X183791500Y-92377351D01*
X158617425Y-92377351D01*
X158571894Y-92287991D01*
X158446206Y-92114996D01*
X158446203Y-92114993D01*
X158446201Y-92114990D01*
X158295009Y-91963798D01*
X158295006Y-91963796D01*
X158295004Y-91963794D01*
X158122009Y-91838106D01*
X157931483Y-91741028D01*
X157931480Y-91741027D01*
X157931478Y-91741026D01*
X157728120Y-91674952D01*
X157728123Y-91674952D01*
X157688801Y-91668724D01*
X157516916Y-91641500D01*
X157303084Y-91641500D01*
X157091884Y-91674951D01*
X157091878Y-91674952D01*
X156888521Y-91741026D01*
X156888515Y-91741029D01*
X156697987Y-91838108D01*
X156524993Y-91963796D01*
X156524990Y-91963798D01*
X156373798Y-92114990D01*
X156373796Y-92114993D01*
X156248108Y-92287987D01*
X156247434Y-92289088D01*
X156247068Y-92289418D01*
X156245196Y-92291996D01*
X156244654Y-92291602D01*
X156194787Y-92336721D01*
X156124745Y-92348328D01*
X156059547Y-92320226D01*
X156034976Y-92291870D01*
X156034804Y-92291996D01*
X156033341Y-92289982D01*
X156032566Y-92289088D01*
X156031896Y-92287996D01*
X156031894Y-92287991D01*
X155906206Y-92114996D01*
X155906203Y-92114993D01*
X155906201Y-92114990D01*
X155755009Y-91963798D01*
X155755006Y-91963796D01*
X155755004Y-91963794D01*
X155582009Y-91838106D01*
X155391483Y-91741028D01*
X155391480Y-91741027D01*
X155391478Y-91741026D01*
X155188120Y-91674952D01*
X155188123Y-91674952D01*
X155148801Y-91668724D01*
X154976916Y-91641500D01*
X154763084Y-91641500D01*
X154551884Y-91674951D01*
X154551878Y-91674952D01*
X154348521Y-91741026D01*
X154348515Y-91741029D01*
X154157987Y-91838108D01*
X153984993Y-91963796D01*
X153984990Y-91963798D01*
X153833798Y-92114990D01*
X153833796Y-92114993D01*
X153708108Y-92287987D01*
X153707434Y-92289088D01*
X153707068Y-92289418D01*
X153705196Y-92291996D01*
X153704654Y-92291602D01*
X153654787Y-92336721D01*
X153584745Y-92348328D01*
X153519547Y-92320226D01*
X153494976Y-92291870D01*
X153494804Y-92291996D01*
X153493341Y-92289982D01*
X153492566Y-92289088D01*
X153491896Y-92287996D01*
X153491894Y-92287991D01*
X153366206Y-92114996D01*
X153366203Y-92114993D01*
X153366201Y-92114990D01*
X153215009Y-91963798D01*
X153215006Y-91963796D01*
X153215004Y-91963794D01*
X153042009Y-91838106D01*
X152851483Y-91741028D01*
X152851480Y-91741027D01*
X152851478Y-91741026D01*
X152648120Y-91674952D01*
X152648123Y-91674952D01*
X152608801Y-91668724D01*
X152436916Y-91641500D01*
X152223084Y-91641500D01*
X152011884Y-91674951D01*
X152011878Y-91674952D01*
X151808521Y-91741026D01*
X151808515Y-91741029D01*
X151617987Y-91838108D01*
X151444993Y-91963796D01*
X151444990Y-91963798D01*
X151293798Y-92114990D01*
X151293796Y-92114993D01*
X151168108Y-92287987D01*
X151167434Y-92289088D01*
X151167068Y-92289418D01*
X151165196Y-92291996D01*
X151164654Y-92291602D01*
X151114787Y-92336721D01*
X151044745Y-92348328D01*
X150979547Y-92320226D01*
X150954976Y-92291870D01*
X150954804Y-92291996D01*
X150953341Y-92289982D01*
X150952566Y-92289088D01*
X150951896Y-92287996D01*
X150951894Y-92287991D01*
X150826206Y-92114996D01*
X150826203Y-92114993D01*
X150826201Y-92114990D01*
X150675009Y-91963798D01*
X150675006Y-91963796D01*
X150675004Y-91963794D01*
X150502009Y-91838106D01*
X150311483Y-91741028D01*
X150311480Y-91741027D01*
X150311478Y-91741026D01*
X150108120Y-91674952D01*
X150108123Y-91674952D01*
X150068801Y-91668724D01*
X149896916Y-91641500D01*
X149683084Y-91641500D01*
X149471884Y-91674951D01*
X149471878Y-91674952D01*
X149268521Y-91741026D01*
X149268515Y-91741029D01*
X149077987Y-91838108D01*
X148904993Y-91963796D01*
X148904990Y-91963798D01*
X148753798Y-92114990D01*
X148753796Y-92114993D01*
X148628108Y-92287987D01*
X148627434Y-92289088D01*
X148627068Y-92289418D01*
X148625196Y-92291996D01*
X148624654Y-92291602D01*
X148574787Y-92336721D01*
X148504745Y-92348328D01*
X148439547Y-92320226D01*
X148414976Y-92291870D01*
X148414804Y-92291996D01*
X148413341Y-92289982D01*
X148412566Y-92289088D01*
X148411896Y-92287996D01*
X148411894Y-92287991D01*
X148286206Y-92114996D01*
X148286203Y-92114993D01*
X148286201Y-92114990D01*
X148135009Y-91963798D01*
X148135006Y-91963796D01*
X148135004Y-91963794D01*
X147962009Y-91838106D01*
X147771483Y-91741028D01*
X147771480Y-91741027D01*
X147771478Y-91741026D01*
X147568120Y-91674952D01*
X147568123Y-91674952D01*
X147528801Y-91668724D01*
X147356916Y-91641500D01*
X147143084Y-91641500D01*
X146931884Y-91674951D01*
X146931878Y-91674952D01*
X146728521Y-91741026D01*
X146728515Y-91741029D01*
X146537987Y-91838108D01*
X146364993Y-91963796D01*
X146364990Y-91963798D01*
X146213798Y-92114990D01*
X146213796Y-92114993D01*
X146088108Y-92287987D01*
X146087434Y-92289088D01*
X146087068Y-92289418D01*
X146085196Y-92291996D01*
X146084654Y-92291602D01*
X146034787Y-92336721D01*
X145964745Y-92348328D01*
X145899547Y-92320226D01*
X145874976Y-92291870D01*
X145874804Y-92291996D01*
X145873341Y-92289982D01*
X145872566Y-92289088D01*
X145871896Y-92287996D01*
X145871894Y-92287991D01*
X145746206Y-92114996D01*
X145746203Y-92114993D01*
X145746201Y-92114990D01*
X145595009Y-91963798D01*
X145595006Y-91963796D01*
X145595004Y-91963794D01*
X145422009Y-91838106D01*
X145231483Y-91741028D01*
X145231480Y-91741027D01*
X145231478Y-91741026D01*
X145028120Y-91674952D01*
X145028123Y-91674952D01*
X144988801Y-91668724D01*
X144816916Y-91641500D01*
X144603084Y-91641500D01*
X144391884Y-91674951D01*
X144391878Y-91674952D01*
X144188521Y-91741026D01*
X144188515Y-91741029D01*
X143997987Y-91838108D01*
X143824993Y-91963796D01*
X143824990Y-91963798D01*
X143673798Y-92114990D01*
X143673796Y-92114993D01*
X143548108Y-92287987D01*
X143547434Y-92289088D01*
X143547068Y-92289418D01*
X143545196Y-92291996D01*
X143544654Y-92291602D01*
X143494787Y-92336721D01*
X143424745Y-92348328D01*
X143359547Y-92320226D01*
X143334976Y-92291870D01*
X143334804Y-92291996D01*
X143333341Y-92289982D01*
X143332566Y-92289088D01*
X143331896Y-92287996D01*
X143331894Y-92287991D01*
X143206206Y-92114996D01*
X143206203Y-92114993D01*
X143206201Y-92114990D01*
X143055009Y-91963798D01*
X143055006Y-91963796D01*
X143055004Y-91963794D01*
X142882009Y-91838106D01*
X142691483Y-91741028D01*
X142691480Y-91741027D01*
X142691478Y-91741026D01*
X142488120Y-91674952D01*
X142488123Y-91674952D01*
X142448801Y-91668724D01*
X142276916Y-91641500D01*
X142063084Y-91641500D01*
X141851884Y-91674951D01*
X141851878Y-91674952D01*
X141648521Y-91741026D01*
X141648515Y-91741029D01*
X141457987Y-91838108D01*
X141284995Y-91963794D01*
X141182018Y-92066771D01*
X141119706Y-92100796D01*
X141048890Y-92095730D01*
X140992054Y-92053184D01*
X140974871Y-92021715D01*
X140930889Y-91903796D01*
X140930886Y-91903792D01*
X140930886Y-91903791D01*
X140843261Y-91786738D01*
X140726207Y-91699112D01*
X140726202Y-91699110D01*
X140589204Y-91648011D01*
X140589196Y-91648009D01*
X140528649Y-91641500D01*
X140528638Y-91641500D01*
X138731362Y-91641500D01*
X138731350Y-91641500D01*
X138670803Y-91648009D01*
X138670795Y-91648011D01*
X138533797Y-91699110D01*
X138533792Y-91699112D01*
X138416738Y-91786738D01*
X138329112Y-91903792D01*
X138329110Y-91903797D01*
X138278011Y-92040795D01*
X138278009Y-92040803D01*
X138271500Y-92101350D01*
X138271500Y-93898649D01*
X138278009Y-93959196D01*
X138278011Y-93959204D01*
X138329110Y-94096202D01*
X138329112Y-94096207D01*
X138416738Y-94213261D01*
X138533792Y-94300887D01*
X138533794Y-94300888D01*
X138533796Y-94300889D01*
X138592875Y-94322924D01*
X138670795Y-94351988D01*
X138670803Y-94351990D01*
X138731350Y-94358499D01*
X138731355Y-94358499D01*
X138731362Y-94358500D01*
X138731368Y-94358500D01*
X140528632Y-94358500D01*
X140528638Y-94358500D01*
X140528645Y-94358499D01*
X140528649Y-94358499D01*
X140589196Y-94351990D01*
X140589199Y-94351989D01*
X140589201Y-94351989D01*
X140726204Y-94300889D01*
X140782199Y-94258972D01*
X140843261Y-94213261D01*
X140930887Y-94096207D01*
X140930887Y-94096206D01*
X140930889Y-94096204D01*
X140974869Y-93978288D01*
X141017414Y-93921456D01*
X141083934Y-93896645D01*
X141153308Y-93911736D01*
X141182018Y-93933229D01*
X141284990Y-94036201D01*
X141284993Y-94036203D01*
X141284996Y-94036206D01*
X141457991Y-94161894D01*
X141648517Y-94258972D01*
X141851878Y-94325047D01*
X141851879Y-94325047D01*
X141851884Y-94325049D01*
X142063084Y-94358500D01*
X142063087Y-94358500D01*
X142276913Y-94358500D01*
X142276916Y-94358500D01*
X142488116Y-94325049D01*
X142691483Y-94258972D01*
X142882009Y-94161894D01*
X143055004Y-94036206D01*
X143206206Y-93885004D01*
X143331894Y-93712009D01*
X143331899Y-93711997D01*
X143332561Y-93710920D01*
X143332924Y-93710591D01*
X143334804Y-93708004D01*
X143335347Y-93708398D01*
X143385204Y-93663283D01*
X143455244Y-93651670D01*
X143520445Y-93679766D01*
X143545021Y-93708130D01*
X143545196Y-93708004D01*
X143546668Y-93710030D01*
X143547439Y-93710920D01*
X143548105Y-93712007D01*
X143548106Y-93712009D01*
X143673794Y-93885004D01*
X143673796Y-93885006D01*
X143673798Y-93885009D01*
X143824990Y-94036201D01*
X143824993Y-94036203D01*
X143824996Y-94036206D01*
X143997991Y-94161894D01*
X144188517Y-94258972D01*
X144391878Y-94325047D01*
X144391879Y-94325047D01*
X144391884Y-94325049D01*
X144603084Y-94358500D01*
X144603087Y-94358500D01*
X144816913Y-94358500D01*
X144816916Y-94358500D01*
X145028116Y-94325049D01*
X145231483Y-94258972D01*
X145422009Y-94161894D01*
X145595004Y-94036206D01*
X145746206Y-93885004D01*
X145871894Y-93712009D01*
X145871899Y-93711997D01*
X145872561Y-93710920D01*
X145872924Y-93710591D01*
X145874804Y-93708004D01*
X145875347Y-93708398D01*
X145925204Y-93663283D01*
X145995244Y-93651670D01*
X146060445Y-93679766D01*
X146085021Y-93708130D01*
X146085196Y-93708004D01*
X146086668Y-93710030D01*
X146087439Y-93710920D01*
X146088105Y-93712007D01*
X146088106Y-93712009D01*
X146213794Y-93885004D01*
X146213796Y-93885006D01*
X146213798Y-93885009D01*
X146364990Y-94036201D01*
X146364993Y-94036203D01*
X146364996Y-94036206D01*
X146537991Y-94161894D01*
X146537994Y-94161895D01*
X146539561Y-94163034D01*
X146582915Y-94219256D01*
X146591500Y-94264970D01*
X146591500Y-95614860D01*
X146612573Y-95720795D01*
X146616806Y-95742077D01*
X146666445Y-95861917D01*
X146738509Y-95969769D01*
X146738513Y-95969773D01*
X154139901Y-103371161D01*
X154173927Y-103433473D01*
X154175255Y-103479967D01*
X154174951Y-103481881D01*
X154174951Y-103481884D01*
X154141500Y-103693084D01*
X154141500Y-103906916D01*
X154167798Y-104072951D01*
X154174952Y-104118121D01*
X154217350Y-104248610D01*
X154241028Y-104321483D01*
X154325715Y-104487690D01*
X154338108Y-104512012D01*
X154351936Y-104531044D01*
X154463794Y-104685004D01*
X154463796Y-104685006D01*
X154463798Y-104685009D01*
X154614990Y-104836201D01*
X154614993Y-104836203D01*
X154614996Y-104836206D01*
X154787991Y-104961894D01*
X154978517Y-105058972D01*
X155071619Y-105089222D01*
X155130225Y-105129295D01*
X155157863Y-105194691D01*
X155145757Y-105264648D01*
X155118231Y-105300083D01*
X155118823Y-105300675D01*
X154964180Y-105455317D01*
X154964177Y-105455320D01*
X154838536Y-105628249D01*
X154741493Y-105818707D01*
X154741490Y-105818713D01*
X154675440Y-106021995D01*
X154665302Y-106086000D01*
X155569297Y-106086000D01*
X155534075Y-106147007D01*
X155500000Y-106274174D01*
X155500000Y-106405826D01*
X155534075Y-106532993D01*
X155569297Y-106594000D01*
X154665302Y-106594000D01*
X154675440Y-106658004D01*
X154741490Y-106861286D01*
X154741493Y-106861292D01*
X154838536Y-107051750D01*
X154964177Y-107224679D01*
X155115320Y-107375822D01*
X155288249Y-107501463D01*
X155478707Y-107598506D01*
X155478713Y-107598509D01*
X155681998Y-107664560D01*
X155746000Y-107674696D01*
X155746000Y-106770702D01*
X155807007Y-106805925D01*
X155934174Y-106840000D01*
X156065826Y-106840000D01*
X156192993Y-106805925D01*
X156254000Y-106770702D01*
X156254000Y-107602550D01*
X156233998Y-107670671D01*
X156217095Y-107691645D01*
X148804145Y-115104595D01*
X148741833Y-115138621D01*
X148715050Y-115141500D01*
X145835139Y-115141500D01*
X145707922Y-115166806D01*
X145707919Y-115166807D01*
X145588083Y-115216445D01*
X145480232Y-115288508D01*
X145480230Y-115288510D01*
X145128837Y-115639902D01*
X145066525Y-115673927D01*
X145020031Y-115675255D01*
X145018120Y-115674952D01*
X145018116Y-115674951D01*
X144806916Y-115641500D01*
X144593084Y-115641500D01*
X144383450Y-115674703D01*
X144381878Y-115674952D01*
X144178521Y-115741026D01*
X144178515Y-115741029D01*
X143987987Y-115838108D01*
X143814993Y-115963796D01*
X143814990Y-115963798D01*
X143663798Y-116114990D01*
X143663796Y-116114993D01*
X143538100Y-116287998D01*
X143537131Y-116289580D01*
X143536606Y-116290054D01*
X143535196Y-116291996D01*
X143534787Y-116291699D01*
X143484479Y-116337206D01*
X143414437Y-116348807D01*
X143349242Y-116320697D01*
X143324515Y-116292156D01*
X143324376Y-116292258D01*
X143323194Y-116290631D01*
X143322266Y-116289560D01*
X143321460Y-116288244D01*
X143195822Y-116115320D01*
X143044679Y-115964177D01*
X142871750Y-115838536D01*
X142681292Y-115741493D01*
X142681286Y-115741490D01*
X142478004Y-115675440D01*
X142414000Y-115665302D01*
X142414000Y-116569297D01*
X142352993Y-116534075D01*
X142225826Y-116500000D01*
X142094174Y-116500000D01*
X141967007Y-116534075D01*
X141906000Y-116569297D01*
X141906000Y-115665302D01*
X141841995Y-115675440D01*
X141638713Y-115741490D01*
X141638707Y-115741493D01*
X141448249Y-115838536D01*
X141275322Y-115964176D01*
X141171822Y-116067676D01*
X141109510Y-116101701D01*
X141038694Y-116096635D01*
X140981858Y-116054089D01*
X140964671Y-116022612D01*
X140920444Y-115904034D01*
X140832904Y-115787095D01*
X140715965Y-115699555D01*
X140579093Y-115648505D01*
X140518597Y-115642000D01*
X139874000Y-115642000D01*
X139874000Y-116569297D01*
X139812993Y-116534075D01*
X139685826Y-116500000D01*
X139554174Y-116500000D01*
X139427007Y-116534075D01*
X139366000Y-116569297D01*
X139366000Y-115642000D01*
X138721402Y-115642000D01*
X138660906Y-115648505D01*
X138524035Y-115699555D01*
X138524034Y-115699555D01*
X138407095Y-115787095D01*
X138319555Y-115904034D01*
X138319555Y-115904035D01*
X138268505Y-116040906D01*
X138262000Y-116101402D01*
X113237294Y-116101402D01*
X113200889Y-116003796D01*
X113200888Y-116003794D01*
X113200887Y-116003792D01*
X113113261Y-115886738D01*
X112996207Y-115799112D01*
X112996202Y-115799110D01*
X112859204Y-115748011D01*
X112859196Y-115748009D01*
X112798649Y-115741500D01*
X112798638Y-115741500D01*
X109701362Y-115741500D01*
X109701350Y-115741500D01*
X109640803Y-115748009D01*
X109640795Y-115748011D01*
X109503797Y-115799110D01*
X109503792Y-115799112D01*
X109386738Y-115886738D01*
X109299112Y-116003792D01*
X109299110Y-116003797D01*
X109248011Y-116140795D01*
X109248009Y-116140803D01*
X109241500Y-116201350D01*
X105400500Y-116201350D01*
X105400500Y-112538353D01*
X109241500Y-112538353D01*
X109241500Y-112801646D01*
X109275864Y-113062672D01*
X109275865Y-113062678D01*
X109275866Y-113062680D01*
X109344010Y-113316997D01*
X109444766Y-113560243D01*
X109444767Y-113560244D01*
X109444772Y-113560255D01*
X109576407Y-113788253D01*
X109736689Y-113997138D01*
X109736698Y-113997148D01*
X109922851Y-114183301D01*
X109922861Y-114183310D01*
X109922862Y-114183311D01*
X109930707Y-114189331D01*
X110131746Y-114343592D01*
X110359744Y-114475227D01*
X110359748Y-114475228D01*
X110359757Y-114475234D01*
X110603003Y-114575990D01*
X110857320Y-114644134D01*
X110857326Y-114644134D01*
X110857327Y-114644135D01*
X110887281Y-114648078D01*
X111118356Y-114678500D01*
X111118363Y-114678500D01*
X111381637Y-114678500D01*
X111381644Y-114678500D01*
X111642680Y-114644134D01*
X111896997Y-114575990D01*
X112140243Y-114475234D01*
X112368257Y-114343590D01*
X112577138Y-114183311D01*
X112763311Y-113997138D01*
X112923590Y-113788257D01*
X113055234Y-113560243D01*
X113155990Y-113316997D01*
X113224134Y-113062680D01*
X113258500Y-112801644D01*
X113258500Y-112538356D01*
X113224134Y-112277320D01*
X113155990Y-112023003D01*
X113055234Y-111779757D01*
X113055229Y-111779748D01*
X113055227Y-111779744D01*
X112923592Y-111551746D01*
X112900813Y-111522060D01*
X112763311Y-111342862D01*
X112763310Y-111342861D01*
X112763301Y-111342851D01*
X112577148Y-111156698D01*
X112577138Y-111156689D01*
X112368253Y-110996407D01*
X112140255Y-110864772D01*
X112140247Y-110864768D01*
X112140243Y-110864766D01*
X111896997Y-110764010D01*
X111642680Y-110695866D01*
X111642673Y-110695864D01*
X111381646Y-110661500D01*
X111381644Y-110661500D01*
X111118356Y-110661500D01*
X111118353Y-110661500D01*
X110857327Y-110695864D01*
X110603003Y-110764010D01*
X110359755Y-110864767D01*
X110359744Y-110864772D01*
X110131746Y-110996407D01*
X109922861Y-111156689D01*
X109922851Y-111156698D01*
X109736698Y-111342851D01*
X109736689Y-111342861D01*
X109576407Y-111551746D01*
X109444772Y-111779744D01*
X109444767Y-111779755D01*
X109444766Y-111779757D01*
X109443561Y-111782667D01*
X109344010Y-112023003D01*
X109275864Y-112277327D01*
X109241500Y-112538353D01*
X105400500Y-112538353D01*
X105400500Y-107346238D01*
X120191500Y-107346238D01*
X120191500Y-109043537D01*
X120198009Y-109104084D01*
X120198011Y-109104092D01*
X120249110Y-109241090D01*
X120249112Y-109241095D01*
X120336738Y-109358149D01*
X120453792Y-109445775D01*
X120453794Y-109445776D01*
X120453796Y-109445777D01*
X120512875Y-109467812D01*
X120590795Y-109496876D01*
X120590803Y-109496878D01*
X120654717Y-109503749D01*
X120654596Y-109504865D01*
X120717189Y-109526931D01*
X120760756Y-109582989D01*
X120763117Y-109598796D01*
X121459209Y-110294888D01*
X121447339Y-110294888D01*
X121345606Y-110322147D01*
X121254394Y-110374808D01*
X121179920Y-110449282D01*
X121127259Y-110540494D01*
X121100000Y-110642227D01*
X121100000Y-110654097D01*
X120412416Y-109966513D01*
X120381301Y-110009340D01*
X120287829Y-110192788D01*
X120287826Y-110192794D01*
X120224208Y-110388591D01*
X120192000Y-110591949D01*
X120192000Y-110797826D01*
X120224208Y-111001184D01*
X120287826Y-111196981D01*
X120287829Y-111196987D01*
X120381297Y-111380428D01*
X120381298Y-111380429D01*
X120412416Y-111423260D01*
X121100000Y-110735676D01*
X121100000Y-110747549D01*
X121127259Y-110849282D01*
X121179920Y-110940494D01*
X121254394Y-111014968D01*
X121345606Y-111067629D01*
X121447339Y-111094888D01*
X121459210Y-111094888D01*
X120771626Y-111782470D01*
X120771626Y-111782471D01*
X120814454Y-111813587D01*
X120997900Y-111907058D01*
X120997906Y-111907061D01*
X121193705Y-111970679D01*
X121193701Y-111970679D01*
X121397061Y-112002888D01*
X121602939Y-112002888D01*
X121806296Y-111970679D01*
X122002093Y-111907061D01*
X122002099Y-111907058D01*
X122185541Y-111813589D01*
X122228372Y-111782470D01*
X122228372Y-111782469D01*
X121540791Y-111094888D01*
X121552661Y-111094888D01*
X121654394Y-111067629D01*
X121745606Y-111014968D01*
X121820080Y-110940494D01*
X121872741Y-110849282D01*
X121900000Y-110747549D01*
X121900000Y-110735679D01*
X122587581Y-111423260D01*
X122587582Y-111423260D01*
X122618701Y-111380429D01*
X122712170Y-111196987D01*
X122712173Y-111196981D01*
X122775791Y-111001184D01*
X122808000Y-110797826D01*
X122808000Y-110591949D01*
X122775791Y-110388591D01*
X122712173Y-110192794D01*
X122712170Y-110192788D01*
X122618699Y-110009342D01*
X122587583Y-109966514D01*
X122587582Y-109966514D01*
X121900000Y-110654096D01*
X121900000Y-110642227D01*
X121872741Y-110540494D01*
X121820080Y-110449282D01*
X121745606Y-110374808D01*
X121654394Y-110322147D01*
X121552661Y-110294888D01*
X121540790Y-110294888D01*
X122239970Y-109595706D01*
X122245463Y-109569557D01*
X122295304Y-109518996D01*
X122345373Y-109504592D01*
X122345283Y-109503749D01*
X122409196Y-109496878D01*
X122409199Y-109496877D01*
X122409201Y-109496877D01*
X122546204Y-109445777D01*
X122556814Y-109437835D01*
X122663261Y-109358149D01*
X122750887Y-109241095D01*
X122750887Y-109241094D01*
X122750889Y-109241092D01*
X122801989Y-109104089D01*
X122808500Y-109043526D01*
X122808500Y-107346250D01*
X122804442Y-107308500D01*
X122801990Y-107285691D01*
X122801988Y-107285683D01*
X122750889Y-107148685D01*
X122750887Y-107148680D01*
X122663261Y-107031626D01*
X122546207Y-106944000D01*
X122546202Y-106943998D01*
X122409204Y-106892899D01*
X122409196Y-106892897D01*
X122348649Y-106886388D01*
X122348638Y-106886388D01*
X120651362Y-106886388D01*
X120651350Y-106886388D01*
X120590803Y-106892897D01*
X120590795Y-106892899D01*
X120453797Y-106943998D01*
X120453792Y-106944000D01*
X120336738Y-107031626D01*
X120249112Y-107148680D01*
X120249110Y-107148685D01*
X120198011Y-107285683D01*
X120198009Y-107285691D01*
X120191500Y-107346238D01*
X105400500Y-107346238D01*
X105400500Y-100120367D01*
X119391500Y-100120367D01*
X119391500Y-100279632D01*
X119407035Y-100357730D01*
X119422570Y-100435831D01*
X119483517Y-100582968D01*
X119571997Y-100715389D01*
X119571998Y-100715390D01*
X119572003Y-100715396D01*
X119684603Y-100827996D01*
X119684609Y-100828001D01*
X119684611Y-100828003D01*
X119817032Y-100916483D01*
X119964169Y-100977430D01*
X120120370Y-101008500D01*
X120120371Y-101008500D01*
X120279629Y-101008500D01*
X120279630Y-101008500D01*
X120435831Y-100977430D01*
X120582968Y-100916483D01*
X120637968Y-100879733D01*
X120705720Y-100858520D01*
X120707968Y-100858500D01*
X124142032Y-100858500D01*
X124210153Y-100878502D01*
X124212002Y-100879713D01*
X124267032Y-100916483D01*
X124414169Y-100977430D01*
X124570370Y-101008500D01*
X124570371Y-101008500D01*
X124729629Y-101008500D01*
X124729630Y-101008500D01*
X124885831Y-100977430D01*
X125032968Y-100916483D01*
X125165389Y-100828003D01*
X125278003Y-100715389D01*
X125366483Y-100582968D01*
X125427430Y-100435831D01*
X125458500Y-100279630D01*
X125458500Y-100120370D01*
X125427430Y-99964169D01*
X125366483Y-99817032D01*
X125278003Y-99684611D01*
X125278001Y-99684609D01*
X125277996Y-99684603D01*
X125165396Y-99572003D01*
X125165390Y-99571998D01*
X125161737Y-99569557D01*
X125032968Y-99483517D01*
X124885831Y-99422570D01*
X124807730Y-99407035D01*
X124729632Y-99391500D01*
X124729630Y-99391500D01*
X124570370Y-99391500D01*
X124570367Y-99391500D01*
X124453219Y-99414802D01*
X124414169Y-99422570D01*
X124414167Y-99422571D01*
X124267033Y-99483516D01*
X124241993Y-99500247D01*
X124212031Y-99520266D01*
X124144280Y-99541480D01*
X124142032Y-99541500D01*
X120707968Y-99541500D01*
X120639847Y-99521498D01*
X120637997Y-99520286D01*
X120582968Y-99483517D01*
X120435831Y-99422570D01*
X120357730Y-99407035D01*
X120279632Y-99391500D01*
X120279630Y-99391500D01*
X120120370Y-99391500D01*
X120120367Y-99391500D01*
X120003219Y-99414802D01*
X119964169Y-99422570D01*
X119964167Y-99422571D01*
X119817032Y-99483517D01*
X119684609Y-99571998D01*
X119684603Y-99572003D01*
X119572003Y-99684603D01*
X119571998Y-99684609D01*
X119514993Y-99769924D01*
X119483517Y-99817032D01*
X119463816Y-99864595D01*
X119422571Y-99964167D01*
X119422570Y-99964170D01*
X119391500Y-100120367D01*
X105400500Y-100120367D01*
X105400500Y-95781350D01*
X109241500Y-95781350D01*
X109241500Y-98878649D01*
X109248009Y-98939196D01*
X109248011Y-98939204D01*
X109299110Y-99076202D01*
X109299112Y-99076207D01*
X109386738Y-99193261D01*
X109503792Y-99280887D01*
X109503794Y-99280888D01*
X109503796Y-99280889D01*
X109562875Y-99302924D01*
X109640795Y-99331988D01*
X109640803Y-99331990D01*
X109701350Y-99338499D01*
X109701355Y-99338499D01*
X109701362Y-99338500D01*
X109701368Y-99338500D01*
X112798632Y-99338500D01*
X112798638Y-99338500D01*
X112798645Y-99338499D01*
X112798649Y-99338499D01*
X112859196Y-99331990D01*
X112859199Y-99331989D01*
X112859201Y-99331989D01*
X112996204Y-99280889D01*
X113045250Y-99244174D01*
X113113261Y-99193261D01*
X113200887Y-99076207D01*
X113200887Y-99076206D01*
X113200889Y-99076204D01*
X113251989Y-98939201D01*
X113258500Y-98878638D01*
X113258500Y-97346238D01*
X129891500Y-97346238D01*
X129891500Y-99043537D01*
X129898009Y-99104084D01*
X129898011Y-99104092D01*
X129949110Y-99241090D01*
X129949112Y-99241095D01*
X130036738Y-99358149D01*
X130153792Y-99445775D01*
X130153794Y-99445776D01*
X130153796Y-99445777D01*
X130212875Y-99467812D01*
X130290795Y-99496876D01*
X130290803Y-99496878D01*
X130354717Y-99503749D01*
X130354596Y-99504865D01*
X130417189Y-99526931D01*
X130460756Y-99582989D01*
X130463117Y-99598796D01*
X131159209Y-100294888D01*
X131147339Y-100294888D01*
X131045606Y-100322147D01*
X130954394Y-100374808D01*
X130879920Y-100449282D01*
X130827259Y-100540494D01*
X130800000Y-100642227D01*
X130800000Y-100654097D01*
X130112416Y-99966513D01*
X130081301Y-100009340D01*
X129987829Y-100192788D01*
X129987826Y-100192794D01*
X129924208Y-100388591D01*
X129892000Y-100591949D01*
X129892000Y-100797826D01*
X129924208Y-101001184D01*
X129987826Y-101196981D01*
X129987829Y-101196987D01*
X130081297Y-101380428D01*
X130081298Y-101380429D01*
X130112416Y-101423260D01*
X130800000Y-100735676D01*
X130800000Y-100747549D01*
X130827259Y-100849282D01*
X130879920Y-100940494D01*
X130954394Y-101014968D01*
X131045606Y-101067629D01*
X131147339Y-101094888D01*
X131159210Y-101094888D01*
X130471626Y-101782470D01*
X130471626Y-101782471D01*
X130514454Y-101813587D01*
X130697900Y-101907058D01*
X130697906Y-101907061D01*
X130893705Y-101970679D01*
X130893701Y-101970679D01*
X131097061Y-102002888D01*
X131302939Y-102002888D01*
X131506296Y-101970679D01*
X131702093Y-101907061D01*
X131702099Y-101907058D01*
X131885541Y-101813589D01*
X131928372Y-101782470D01*
X131928372Y-101782469D01*
X131240791Y-101094888D01*
X131252661Y-101094888D01*
X131354394Y-101067629D01*
X131445606Y-101014968D01*
X131520080Y-100940494D01*
X131572741Y-100849282D01*
X131600000Y-100747549D01*
X131600000Y-100735679D01*
X132287581Y-101423260D01*
X132287582Y-101423260D01*
X132318701Y-101380429D01*
X132412170Y-101196987D01*
X132412173Y-101196981D01*
X132475791Y-101001184D01*
X132508000Y-100797826D01*
X132508000Y-100591949D01*
X132475791Y-100388591D01*
X132412173Y-100192794D01*
X132412170Y-100192788D01*
X132318699Y-100009342D01*
X132287583Y-99966514D01*
X132287582Y-99966514D01*
X131600000Y-100654096D01*
X131600000Y-100642227D01*
X131572741Y-100540494D01*
X131520080Y-100449282D01*
X131445606Y-100374808D01*
X131354394Y-100322147D01*
X131252661Y-100294888D01*
X131240790Y-100294888D01*
X131939970Y-99595706D01*
X131945463Y-99569557D01*
X131995304Y-99518996D01*
X132045373Y-99504592D01*
X132045283Y-99503749D01*
X132109196Y-99496878D01*
X132109199Y-99496877D01*
X132109201Y-99496877D01*
X132246204Y-99445777D01*
X132318710Y-99391500D01*
X132363261Y-99358149D01*
X132450887Y-99241095D01*
X132450887Y-99241094D01*
X132450889Y-99241092D01*
X132494960Y-99122933D01*
X132501988Y-99104092D01*
X132501990Y-99104084D01*
X132508499Y-99043537D01*
X132508500Y-99043520D01*
X132508500Y-98979388D01*
X132528502Y-98911267D01*
X132582158Y-98864774D01*
X132634500Y-98853388D01*
X135879938Y-98853388D01*
X135948059Y-98873390D01*
X135969033Y-98890293D01*
X142594595Y-105515854D01*
X142628621Y-105578166D01*
X142631500Y-105604949D01*
X142631500Y-105729331D01*
X142649992Y-105822296D01*
X142670256Y-105924169D01*
X142746279Y-106107704D01*
X142856647Y-106272881D01*
X142997119Y-106413353D01*
X143162296Y-106523721D01*
X143345831Y-106599744D01*
X143540671Y-106638500D01*
X143665049Y-106638500D01*
X143733170Y-106658502D01*
X143754144Y-106675404D01*
X144154595Y-107075854D01*
X144188620Y-107138167D01*
X144191500Y-107164950D01*
X144191500Y-113270076D01*
X144171498Y-113338197D01*
X144154595Y-113359171D01*
X144066649Y-113447116D01*
X144066644Y-113447123D01*
X143956279Y-113612296D01*
X143880258Y-113795825D01*
X143880256Y-113795830D01*
X143841500Y-113990668D01*
X143841500Y-114189331D01*
X143872450Y-114344928D01*
X143880256Y-114384169D01*
X143956279Y-114567704D01*
X144066647Y-114732881D01*
X144207119Y-114873353D01*
X144372296Y-114983721D01*
X144555831Y-115059744D01*
X144750671Y-115098500D01*
X144750672Y-115098500D01*
X144949328Y-115098500D01*
X144949329Y-115098500D01*
X145144169Y-115059744D01*
X145327704Y-114983721D01*
X145492881Y-114873353D01*
X145633353Y-114732881D01*
X145743721Y-114567704D01*
X145819744Y-114384169D01*
X145858500Y-114189329D01*
X145858500Y-113990671D01*
X145819744Y-113795831D01*
X145743721Y-113612296D01*
X145633353Y-113447119D01*
X145545405Y-113359171D01*
X145511379Y-113296859D01*
X145508500Y-113270076D01*
X145508500Y-106775142D01*
X145508499Y-106775139D01*
X145501529Y-106740099D01*
X145483194Y-106647923D01*
X145433555Y-106528083D01*
X145361490Y-106420231D01*
X145269769Y-106328510D01*
X144991325Y-106050066D01*
X144685404Y-105744144D01*
X144651379Y-105681832D01*
X144648500Y-105655049D01*
X144648500Y-105530672D01*
X144648499Y-105530668D01*
X144609744Y-105335831D01*
X144533721Y-105152296D01*
X144423353Y-104987119D01*
X144282881Y-104846647D01*
X144117704Y-104736279D01*
X143934169Y-104660256D01*
X143739331Y-104621500D01*
X143739329Y-104621500D01*
X143614949Y-104621500D01*
X143546828Y-104601498D01*
X143525854Y-104584595D01*
X137874836Y-98933576D01*
X137791928Y-98850668D01*
X141041500Y-98850668D01*
X141041500Y-99049331D01*
X141069513Y-99190161D01*
X141080256Y-99244169D01*
X141156279Y-99427704D01*
X141266647Y-99592881D01*
X141266649Y-99592883D01*
X141354595Y-99680829D01*
X141388621Y-99743141D01*
X141391500Y-99769924D01*
X141391500Y-100864860D01*
X141416806Y-100992077D01*
X141416807Y-100992080D01*
X141431699Y-101028033D01*
X141466445Y-101111917D01*
X141538509Y-101219769D01*
X141538513Y-101219773D01*
X146504595Y-106185855D01*
X146538621Y-106248167D01*
X146541500Y-106274950D01*
X146541500Y-106399331D01*
X146566243Y-106523720D01*
X146580256Y-106594169D01*
X146656279Y-106777704D01*
X146766647Y-106942881D01*
X146907119Y-107083353D01*
X147072296Y-107193721D01*
X147255831Y-107269744D01*
X147450671Y-107308500D01*
X147450672Y-107308500D01*
X147649328Y-107308500D01*
X147649329Y-107308500D01*
X147844169Y-107269744D01*
X148027704Y-107193721D01*
X148192881Y-107083353D01*
X148333353Y-106942881D01*
X148443721Y-106777704D01*
X148519744Y-106594169D01*
X148558500Y-106399329D01*
X148558500Y-106200671D01*
X148519744Y-106005831D01*
X148443721Y-105822296D01*
X148333353Y-105657119D01*
X148192881Y-105516647D01*
X148027704Y-105406279D01*
X147844169Y-105330256D01*
X147649331Y-105291500D01*
X147649329Y-105291500D01*
X147524950Y-105291500D01*
X147456829Y-105271498D01*
X147435855Y-105254595D01*
X142745405Y-100564145D01*
X142711379Y-100501833D01*
X142708500Y-100475050D01*
X142708500Y-99769924D01*
X142728502Y-99701803D01*
X142745405Y-99680829D01*
X142786008Y-99640226D01*
X142833353Y-99592881D01*
X142943721Y-99427704D01*
X143019744Y-99244169D01*
X143058500Y-99049329D01*
X143058500Y-98850671D01*
X143019744Y-98655831D01*
X142943721Y-98472296D01*
X142833353Y-98307119D01*
X142692881Y-98166647D01*
X142527704Y-98056279D01*
X142344169Y-97980256D01*
X142149331Y-97941500D01*
X142149329Y-97941500D01*
X141950671Y-97941500D01*
X141950668Y-97941500D01*
X141755830Y-97980256D01*
X141755825Y-97980258D01*
X141572296Y-98056279D01*
X141407123Y-98166644D01*
X141407116Y-98166649D01*
X141266649Y-98307116D01*
X141266644Y-98307123D01*
X141156279Y-98472296D01*
X141080258Y-98655825D01*
X141080256Y-98655830D01*
X141041500Y-98850668D01*
X137791928Y-98850668D01*
X136624661Y-97683401D01*
X136624660Y-97683400D01*
X136624657Y-97683397D01*
X136516805Y-97611333D01*
X136396968Y-97561695D01*
X136396965Y-97561694D01*
X136269748Y-97536388D01*
X136269745Y-97536388D01*
X132634500Y-97536388D01*
X132566379Y-97516386D01*
X132519886Y-97462730D01*
X132508500Y-97410388D01*
X132508500Y-97346255D01*
X132508499Y-97346238D01*
X132501990Y-97285691D01*
X132501988Y-97285683D01*
X132450889Y-97148685D01*
X132450887Y-97148680D01*
X132363261Y-97031626D01*
X132246207Y-96944000D01*
X132246202Y-96943998D01*
X132109204Y-96892899D01*
X132109196Y-96892897D01*
X132048649Y-96886388D01*
X132048638Y-96886388D01*
X130351362Y-96886388D01*
X130351350Y-96886388D01*
X130290803Y-96892897D01*
X130290795Y-96892899D01*
X130153797Y-96943998D01*
X130153792Y-96944000D01*
X130036738Y-97031626D01*
X129949112Y-97148680D01*
X129949110Y-97148685D01*
X129898011Y-97285683D01*
X129898009Y-97285691D01*
X129891500Y-97346238D01*
X113258500Y-97346238D01*
X113258500Y-95781362D01*
X113254277Y-95742077D01*
X113251990Y-95720803D01*
X113251988Y-95720795D01*
X113200889Y-95583797D01*
X113200887Y-95583792D01*
X113113261Y-95466738D01*
X112996207Y-95379112D01*
X112996202Y-95379110D01*
X112859204Y-95328011D01*
X112859196Y-95328009D01*
X112798649Y-95321500D01*
X112798638Y-95321500D01*
X109701362Y-95321500D01*
X109701350Y-95321500D01*
X109640803Y-95328009D01*
X109640795Y-95328011D01*
X109503797Y-95379110D01*
X109503792Y-95379112D01*
X109386738Y-95466738D01*
X109299112Y-95583792D01*
X109299110Y-95583797D01*
X109248011Y-95720795D01*
X109248009Y-95720803D01*
X109241500Y-95781350D01*
X105400500Y-95781350D01*
X105400500Y-92118386D01*
X109242000Y-92118386D01*
X109242000Y-92381613D01*
X109276355Y-92642575D01*
X109344484Y-92896835D01*
X109445216Y-93140023D01*
X109445221Y-93140034D01*
X109576823Y-93367975D01*
X109576827Y-93367981D01*
X109661916Y-93478870D01*
X109661917Y-93478871D01*
X110563110Y-92577677D01*
X110576497Y-92609995D01*
X110659670Y-92734472D01*
X110765528Y-92840330D01*
X110890005Y-92923503D01*
X110922320Y-92936888D01*
X110021127Y-93838081D01*
X110021127Y-93838082D01*
X110132017Y-93923171D01*
X110132024Y-93923176D01*
X110359965Y-94054778D01*
X110359976Y-94054783D01*
X110603164Y-94155515D01*
X110857424Y-94223644D01*
X111118386Y-94257999D01*
X111118396Y-94258000D01*
X111381604Y-94258000D01*
X111381613Y-94257999D01*
X111642575Y-94223644D01*
X111896835Y-94155515D01*
X112140023Y-94054783D01*
X112140034Y-94054778D01*
X112367975Y-93923176D01*
X112367981Y-93923172D01*
X112478871Y-93838082D01*
X112478871Y-93838081D01*
X111577679Y-92936888D01*
X111609995Y-92923503D01*
X111734472Y-92840330D01*
X111840330Y-92734472D01*
X111923503Y-92609995D01*
X111936888Y-92577678D01*
X112838081Y-93478871D01*
X112838082Y-93478871D01*
X112923172Y-93367981D01*
X112923176Y-93367975D01*
X113054778Y-93140034D01*
X113054783Y-93140023D01*
X113155515Y-92896835D01*
X113223644Y-92642575D01*
X113257999Y-92381613D01*
X113258000Y-92381604D01*
X113258000Y-92118396D01*
X113257999Y-92118386D01*
X113257479Y-92114434D01*
X113223644Y-91857424D01*
X113155515Y-91603164D01*
X113054783Y-91359976D01*
X113054778Y-91359965D01*
X112923176Y-91132024D01*
X112923171Y-91132017D01*
X112838081Y-91021127D01*
X111936888Y-91922320D01*
X111923503Y-91890005D01*
X111840330Y-91765528D01*
X111734472Y-91659670D01*
X111609995Y-91576497D01*
X111577678Y-91563111D01*
X112478871Y-90661917D01*
X112478870Y-90661916D01*
X112367981Y-90576827D01*
X112367975Y-90576823D01*
X112140034Y-90445221D01*
X112140023Y-90445216D01*
X111896835Y-90344484D01*
X111642575Y-90276355D01*
X111381613Y-90242000D01*
X111118386Y-90242000D01*
X110857424Y-90276355D01*
X110603164Y-90344484D01*
X110359976Y-90445216D01*
X110359965Y-90445221D01*
X110132024Y-90576823D01*
X110021127Y-90661917D01*
X110922321Y-91563111D01*
X110890005Y-91576497D01*
X110765528Y-91659670D01*
X110659670Y-91765528D01*
X110576497Y-91890005D01*
X110563111Y-91922321D01*
X109661917Y-91021127D01*
X109576823Y-91132024D01*
X109445221Y-91359965D01*
X109445216Y-91359976D01*
X109344484Y-91603164D01*
X109276355Y-91857424D01*
X109242000Y-92118386D01*
X105400500Y-92118386D01*
X105400500Y-88776500D01*
X105420502Y-88708379D01*
X105474158Y-88661886D01*
X105526500Y-88650500D01*
X191473500Y-88650500D01*
X191541621Y-88670502D01*
G37*
%TD.AperFunction*%
%TD*%
M02*
