%TF.GenerationSoftware,KiCad,Pcbnew,10.0.1*%
%TF.CreationDate,2026-08-16T10:39:17+02:00*%
%TF.ProjectId,HBW-Sen-PRESS-4_Platine1,4842572d-5365-46e2-9d50-524553532d34,rev?*%
%TF.SameCoordinates,Original*%
%TF.FileFunction,Soldermask,Bot*%
%TF.FilePolarity,Negative*%
%FSLAX46Y46*%
G04 Gerber Fmt 4.6, Leading zero omitted, Abs format (unit mm)*
G04 Created by KiCad (PCBNEW 10.0.1) date 2026-08-16 10:39:17*
%MOMM*%
%LPD*%
G01*
G04 APERTURE LIST*
G04 Aperture macros list*
%AMRoundRect*
0 Rectangle with rounded corners*
0 $1 Rounding radius*
0 $2 $3 $4 $5 $6 $7 $8 $9 X,Y pos of 4 corners*
0 Add a 4 corners polygon primitive as box body*
4,1,4,$2,$3,$4,$5,$6,$7,$8,$9,$2,$3,0*
0 Add four circle primitives for the rounded corners*
1,1,$1+$1,$2,$3*
1,1,$1+$1,$4,$5*
1,1,$1+$1,$6,$7*
1,1,$1+$1,$8,$9*
0 Add four rect primitives between the rounded corners*
20,1,$1+$1,$2,$3,$4,$5,0*
20,1,$1+$1,$4,$5,$6,$7,0*
20,1,$1+$1,$6,$7,$8,$9,0*
20,1,$1+$1,$8,$9,$2,$3,0*%
G04 Aperture macros list end*
%ADD10R,1.700000X1.700000*%
%ADD11O,1.700000X1.700000*%
%ADD12R,3.000000X3.000000*%
%ADD13C,3.000000*%
%ADD14RoundRect,0.250001X0.949999X-0.949999X0.949999X0.949999X-0.949999X0.949999X-0.949999X-0.949999X0*%
%ADD15C,2.400000*%
%ADD16R,1.600000X1.600000*%
%ADD17C,1.600000*%
%ADD18R,2.950000X2.020000*%
%ADD19R,1.200000X3.700000*%
%ADD20R,3.200000X0.400000*%
%ADD21RoundRect,0.250000X0.450000X-0.350000X0.450000X0.350000X-0.450000X0.350000X-0.450000X-0.350000X0*%
%ADD22RoundRect,0.250000X0.475000X-0.337500X0.475000X0.337500X-0.475000X0.337500X-0.475000X-0.337500X0*%
%ADD23R,1.600000X0.550000*%
%ADD24R,0.550000X1.600000*%
%ADD25RoundRect,0.250000X-0.412500X-1.100000X0.412500X-1.100000X0.412500X1.100000X-0.412500X1.100000X0*%
%ADD26RoundRect,0.150000X-0.150000X0.825000X-0.150000X-0.825000X0.150000X-0.825000X0.150000X0.825000X0*%
%ADD27RoundRect,0.150000X0.825000X0.150000X-0.825000X0.150000X-0.825000X-0.150000X0.825000X-0.150000X0*%
%ADD28RoundRect,0.250000X0.337500X0.475000X-0.337500X0.475000X-0.337500X-0.475000X0.337500X-0.475000X0*%
%ADD29RoundRect,0.250000X0.350000X0.450000X-0.350000X0.450000X-0.350000X-0.450000X0.350000X-0.450000X0*%
%ADD30RoundRect,0.250000X1.100000X-0.412500X1.100000X0.412500X-1.100000X0.412500X-1.100000X-0.412500X0*%
%ADD31RoundRect,0.250000X-0.475000X0.337500X-0.475000X-0.337500X0.475000X-0.337500X0.475000X0.337500X0*%
%ADD32RoundRect,0.250000X-0.450000X0.350000X-0.450000X-0.350000X0.450000X-0.350000X0.450000X0.350000X0*%
%ADD33R,3.500000X1.800000*%
%ADD34RoundRect,0.250000X-0.350000X-0.450000X0.350000X-0.450000X0.350000X0.450000X-0.350000X0.450000X0*%
%ADD35R,1.500000X2.700000*%
G04 APERTURE END LIST*
D10*
%TO.C,J3*%
X139620000Y-117000000D03*
D11*
X142160000Y-117000000D03*
X144700000Y-117000000D03*
X147240000Y-117000000D03*
X149780000Y-117000000D03*
X152320000Y-117000000D03*
X154860000Y-117000000D03*
X157400000Y-117000000D03*
%TD*%
D12*
%TO.C,J5*%
X111250000Y-117750000D03*
D13*
X111250000Y-112670000D03*
%TD*%
D14*
%TO.C,J2*%
X185500000Y-117889335D03*
D15*
X185500000Y-112809335D03*
X185500000Y-107729335D03*
X185500000Y-102649335D03*
X185500000Y-97569335D03*
X185500000Y-92489335D03*
%TD*%
D16*
%TO.C,C6*%
X131200000Y-98194888D03*
D17*
X131200000Y-100694888D03*
%TD*%
D12*
%TO.C,J4*%
X111250000Y-97330000D03*
D13*
X111250000Y-92250000D03*
%TD*%
D16*
%TO.C,C9*%
X121500000Y-108194888D03*
D17*
X121500000Y-110694888D03*
%TD*%
D10*
%TO.C,J1*%
X139630000Y-93000000D03*
D11*
X142170000Y-93000000D03*
X144710000Y-93000000D03*
X147250000Y-93000000D03*
X149790000Y-93000000D03*
X152330000Y-93000000D03*
X154870000Y-93000000D03*
X157410000Y-93000000D03*
%TD*%
D18*
%TO.C,SI1*%
X111250000Y-102500000D03*
X111250000Y-107500000D03*
%TD*%
D19*
%TO.C,L1*%
X129000000Y-95000000D03*
X126200000Y-95000000D03*
%TD*%
D20*
%TO.C,Y1*%
X134340000Y-105630000D03*
X134340000Y-104430000D03*
X134340000Y-103230000D03*
%TD*%
D21*
%TO.C,R3*%
X128000000Y-100400000D03*
X128000000Y-98400000D03*
%TD*%
D22*
%TO.C,C5*%
X133600000Y-100437500D03*
X133600000Y-98362500D03*
%TD*%
%TO.C,C1*%
X131170000Y-106525000D03*
X131170000Y-104450000D03*
%TD*%
D23*
%TO.C,IC3*%
X137370000Y-110430000D03*
X137370000Y-109630000D03*
X137370000Y-108830000D03*
X137370000Y-108030000D03*
X137370000Y-107230000D03*
X137370000Y-106430000D03*
X137370000Y-105630000D03*
X137370000Y-104830000D03*
D24*
X138820000Y-103380000D03*
X139620000Y-103380000D03*
X140420000Y-103380000D03*
X141220000Y-103380000D03*
X142020000Y-103380000D03*
X142820000Y-103380000D03*
X143620000Y-103380000D03*
X144420000Y-103380000D03*
D23*
X145870000Y-104830000D03*
X145870000Y-105630000D03*
X145870000Y-106430000D03*
X145870000Y-107230000D03*
X145870000Y-108030000D03*
X145870000Y-108830000D03*
X145870000Y-109630000D03*
X145870000Y-110430000D03*
D24*
X144420000Y-111880000D03*
X143620000Y-111880000D03*
X142820000Y-111880000D03*
X142020000Y-111880000D03*
X141220000Y-111880000D03*
X140420000Y-111880000D03*
X139620000Y-111880000D03*
X138820000Y-111880000D03*
%TD*%
D25*
%TO.C,C4*%
X131187500Y-95000000D03*
X134312500Y-95000000D03*
%TD*%
D26*
%TO.C,IC1*%
X122095000Y-98725000D03*
X123365000Y-98725000D03*
X124635000Y-98725000D03*
X125905000Y-98725000D03*
X125905000Y-103675000D03*
X124635000Y-103675000D03*
X123365000Y-103675000D03*
X122095000Y-103675000D03*
%TD*%
D27*
%TO.C,IC2*%
X124475000Y-114495000D03*
X124475000Y-115765000D03*
X124475000Y-117035000D03*
X124475000Y-118305000D03*
X119525000Y-118305000D03*
X119525000Y-117035000D03*
X119525000Y-115765000D03*
X119525000Y-114495000D03*
%TD*%
D28*
%TO.C,C13*%
X151105000Y-105160000D03*
X149030000Y-105160000D03*
%TD*%
D10*
%TO.C,J6*%
X158500000Y-101260000D03*
D11*
X156000000Y-101260000D03*
X158000000Y-103800000D03*
X155500000Y-103800000D03*
X158500000Y-106340000D03*
X156000000Y-106340000D03*
%TD*%
D28*
%TO.C,C11*%
X151105000Y-107230000D03*
X149030000Y-107230000D03*
%TD*%
D29*
%TO.C,R8*%
X143250000Y-114090000D03*
X141250000Y-114090000D03*
%TD*%
%TO.C,R5*%
X124000000Y-106000000D03*
X122000000Y-106000000D03*
%TD*%
D30*
%TO.C,C7*%
X119200000Y-104762500D03*
X119200000Y-101637500D03*
%TD*%
D22*
%TO.C,C12*%
X133890000Y-110125000D03*
X133890000Y-108050000D03*
%TD*%
D31*
%TO.C,C10*%
X117000000Y-116962500D03*
X117000000Y-119037500D03*
%TD*%
D32*
%TO.C,R2*%
X127000000Y-115400000D03*
X127000000Y-117400000D03*
%TD*%
D31*
%TO.C,C2*%
X118600000Y-97762500D03*
X118600000Y-99837500D03*
%TD*%
D33*
%TO.C,D2*%
X122500000Y-95000000D03*
X117500000Y-95000000D03*
%TD*%
D31*
%TO.C,C3*%
X119300000Y-110662500D03*
X119300000Y-112737500D03*
%TD*%
D34*
%TO.C,R1*%
X139900000Y-97025000D03*
X141900000Y-97025000D03*
%TD*%
D21*
%TO.C,R4*%
X128000000Y-104200000D03*
X128000000Y-102200000D03*
%TD*%
D22*
%TO.C,C8*%
X117000000Y-115137500D03*
X117000000Y-113062500D03*
%TD*%
D35*
%TO.C,D1*%
X119150000Y-107500000D03*
X114350000Y-107500000D03*
%TD*%
M02*
