M48
; DRILL file {KiCad (6.0.9)} date Wed Apr  3 02:56:35 2024
; FORMAT={-:-/ absolute / inch / decimal}
; #@! TF.CreationDate,2024-04-03T02:56:35+02:00
; #@! TF.GenerationSoftware,Kicad,Pcbnew,(6.0.9)
; #@! TF.FileFunction,Plated,1,2,PTH
FMAT,2
INCH
; #@! TA.AperFunction,Plated,PTH,ViaDrill
T1C0.0118
; #@! TA.AperFunction,Plated,PTH,ViaDrill
T2C0.0236
; #@! TA.AperFunction,Plated,PTH,ComponentDrill
T3C0.0315
; #@! TA.AperFunction,Plated,PTH,ComponentDrill
T4C0.0394
; #@! TA.AperFunction,Plated,PTH,ComponentDrill
T5C0.0598
%
G90
G05
T1
X4.7323Y-3.9449
X4.9075Y-3.9449
T2
X5.6551Y-4.1587
X5.7028Y-4.4917
T3
X4.7835Y-4.2596
X4.7835Y-4.3581
X5.1654Y-3.8659
X5.1654Y-3.9644
T4
X5.4969Y-4.6063
X5.4972Y-3.6614
X5.5969Y-4.6063
X5.5972Y-3.6614
X5.6969Y-4.6063
X5.6972Y-3.6614
X5.7969Y-4.6063
X5.7972Y-3.6614
X5.8969Y-4.6063
X5.8972Y-3.6614
X5.9969Y-4.6063
X5.9972Y-3.6614
X6.0969Y-4.6063
X6.0972Y-3.6614
X6.122Y-4.0866
X6.1417Y-3.9866
X6.1417Y-4.1866
X6.1969Y-4.6063
X6.1972Y-3.6614
X6.2205Y-4.0866
X6.2402Y-3.9866
X6.2402Y-4.1866
X7.4256Y-3.5837
X7.4256Y-3.6837
X7.4256Y-3.7837
X7.4256Y-3.8837
X7.4256Y-3.9837
X7.4256Y-4.0837
X7.4256Y-4.1837
X7.4256Y-4.2837
X7.4256Y-4.3837
X7.4256Y-4.4837
X7.4256Y-4.5837
X7.4256Y-4.6837
T5
X4.3799Y-3.6319
X4.3799Y-3.8319
X4.3799Y-4.4358
X4.3799Y-4.6358
T0
M30
