%TF.GenerationSoftware,KiCad,Pcbnew,(6.0.9)*%
%TF.CreationDate,2024-04-03T02:56:31+02:00*%
%TF.ProjectId,HBW-Sen-PRESS-4_Platine1,4842572d-5365-46e2-9d50-524553532d34,rev?*%
%TF.SameCoordinates,Original*%
%TF.FileFunction,Soldermask,Top*%
%TF.FilePolarity,Negative*%
%FSLAX46Y46*%
G04 Gerber Fmt 4.6, Leading zero omitted, Abs format (unit mm)*
G04 Created by KiCad (PCBNEW (6.0.9)) date 2024-04-03 02:56:31*
%MOMM*%
%LPD*%
G01*
G04 APERTURE LIST*
%ADD10R,1.700000X1.700000*%
%ADD11O,1.700000X1.700000*%
%ADD12R,3.000000X3.000000*%
%ADD13C,3.000000*%
%ADD14R,1.600000X1.600000*%
%ADD15C,1.600000*%
G04 APERTURE END LIST*
D10*
%TO.C,J3*%
X139620000Y-117000000D03*
D11*
X142160000Y-117000000D03*
X144700000Y-117000000D03*
X147240000Y-117000000D03*
X149780000Y-117000000D03*
X152320000Y-117000000D03*
X154860000Y-117000000D03*
X157400000Y-117000000D03*
%TD*%
D12*
%TO.C,J5*%
X111250000Y-117750000D03*
D13*
X111250000Y-112670000D03*
%TD*%
D14*
%TO.C,C6*%
X131200000Y-98194888D03*
D15*
X131200000Y-100694888D03*
%TD*%
D12*
%TO.C,J4*%
X111250000Y-97330000D03*
D13*
X111250000Y-92250000D03*
%TD*%
D14*
%TO.C,C9*%
X121500000Y-108194888D03*
D15*
X121500000Y-110694888D03*
%TD*%
D10*
%TO.C,J1*%
X139630000Y-93000000D03*
D11*
X142170000Y-93000000D03*
X144710000Y-93000000D03*
X147250000Y-93000000D03*
X149790000Y-93000000D03*
X152330000Y-93000000D03*
X154870000Y-93000000D03*
X157410000Y-93000000D03*
%TD*%
D10*
%TO.C,J2*%
X188610000Y-91025000D03*
D11*
X188610000Y-93565000D03*
X188610000Y-96105000D03*
X188610000Y-98645000D03*
X188610000Y-101185000D03*
X188610000Y-103725000D03*
X188610000Y-106265000D03*
X188610000Y-108805000D03*
X188610000Y-111345000D03*
X188610000Y-113885000D03*
X188610000Y-116425000D03*
X188610000Y-118965000D03*
%TD*%
D10*
%TO.C,J6*%
X158500000Y-101260000D03*
D11*
X156000000Y-101260000D03*
X158000000Y-103800000D03*
X155500000Y-103800000D03*
X158500000Y-106340000D03*
X156000000Y-106340000D03*
%TD*%
M02*
