%TF.GenerationSoftware,KiCad,Pcbnew,(6.0.9)*%
%TF.CreationDate,2024-04-03T02:56:31+02:00*%
%TF.ProjectId,HBW-Sen-PRESS-4_Platine1,4842572d-5365-46e2-9d50-524553532d34,rev?*%
%TF.SameCoordinates,Original*%
%TF.FileFunction,Copper,L1,Top*%
%TF.FilePolarity,Positive*%
%FSLAX46Y46*%
G04 Gerber Fmt 4.6, Leading zero omitted, Abs format (unit mm)*
G04 Created by KiCad (PCBNEW (6.0.9)) date 2024-04-03 02:56:31*
%MOMM*%
%LPD*%
G01*
G04 APERTURE LIST*
%TA.AperFunction,ComponentPad*%
%ADD10R,1.700000X1.700000*%
%TD*%
%TA.AperFunction,ComponentPad*%
%ADD11O,1.700000X1.700000*%
%TD*%
%TA.AperFunction,ComponentPad*%
%ADD12R,3.000000X3.000000*%
%TD*%
%TA.AperFunction,ComponentPad*%
%ADD13C,3.000000*%
%TD*%
%TA.AperFunction,ComponentPad*%
%ADD14R,1.600000X1.600000*%
%TD*%
%TA.AperFunction,ComponentPad*%
%ADD15C,1.600000*%
%TD*%
%TA.AperFunction,ViaPad*%
%ADD16C,1.000000*%
%TD*%
%TA.AperFunction,ViaPad*%
%ADD17C,0.600000*%
%TD*%
%TA.AperFunction,Conductor*%
%ADD18C,0.300000*%
%TD*%
G04 APERTURE END LIST*
D10*
%TO.P,J3,1,Pin_1*%
%TO.N,/GND*%
X139620000Y-117000000D03*
D11*
%TO.P,J3,2,Pin_2*%
X142160000Y-117000000D03*
%TO.P,J3,3,Pin_3*%
%TO.N,/RST*%
X144700000Y-117000000D03*
%TO.P,J3,4,Pin_4*%
%TO.N,unconnected-(J3-Pad4)*%
X147240000Y-117000000D03*
%TO.P,J3,5,Pin_5*%
%TO.N,unconnected-(J3-Pad5)*%
X149780000Y-117000000D03*
%TO.P,J3,6,Pin_6*%
%TO.N,unconnected-(J3-Pad6)*%
X152320000Y-117000000D03*
%TO.P,J3,7,Pin_7*%
%TO.N,unconnected-(J3-Pad7)*%
X154860000Y-117000000D03*
%TO.P,J3,8,Pin_8*%
%TO.N,unconnected-(J3-Pad8)*%
X157400000Y-117000000D03*
%TD*%
D12*
%TO.P,J5,1,Pin_1*%
%TO.N,Net-(C10-Pad1)*%
X111250000Y-117750000D03*
D13*
%TO.P,J5,2,Pin_2*%
%TO.N,Net-(C8-Pad1)*%
X111250000Y-112670000D03*
%TD*%
D14*
%TO.P,C6,1*%
%TO.N,/VCC*%
X131200000Y-98194888D03*
D15*
%TO.P,C6,2*%
%TO.N,/GND*%
X131200000Y-100694888D03*
%TD*%
D12*
%TO.P,J4,1,Pin_1*%
%TO.N,/+24V*%
X111250000Y-97330000D03*
D13*
%TO.P,J4,2,Pin_2*%
%TO.N,/GND*%
X111250000Y-92250000D03*
%TD*%
D14*
%TO.P,C9,1*%
%TO.N,Net-(C7-Pad1)*%
X121500000Y-108194888D03*
D15*
%TO.P,C9,2*%
%TO.N,/GND*%
X121500000Y-110694888D03*
%TD*%
D10*
%TO.P,J1,1,Pin_1*%
%TO.N,/VCC*%
X139630000Y-93000000D03*
D11*
%TO.P,J1,2,Pin_2*%
X142170000Y-93000000D03*
%TO.P,J1,3,Pin_3*%
%TO.N,/Button*%
X144710000Y-93000000D03*
%TO.P,J1,4,Pin_4*%
%TO.N,/D11*%
X147250000Y-93000000D03*
%TO.P,J1,5,Pin_5*%
%TO.N,/D12*%
X149790000Y-93000000D03*
%TO.P,J1,6,Pin_6*%
%TO.N,/D13*%
X152330000Y-93000000D03*
%TO.P,J1,7,Pin_7*%
%TO.N,unconnected-(J1-Pad7)*%
X154870000Y-93000000D03*
%TO.P,J1,8,Pin_8*%
%TO.N,unconnected-(J1-Pad8)*%
X157410000Y-93000000D03*
%TD*%
D10*
%TO.P,J2,1,Pin_1*%
%TO.N,/VCC*%
X188610000Y-91025000D03*
D11*
%TO.P,J2,2,Pin_2*%
%TO.N,Net-(R1-Pad1)*%
X188610000Y-93565000D03*
%TO.P,J2,3,Pin_3*%
%TO.N,/GND*%
X188610000Y-96105000D03*
%TO.P,J2,4,Pin_4*%
%TO.N,/VCC*%
X188610000Y-98645000D03*
%TO.P,J2,5,Pin_5*%
%TO.N,Net-(J2-Pad5)*%
X188610000Y-101185000D03*
%TO.P,J2,6,Pin_6*%
%TO.N,/GND*%
X188610000Y-103725000D03*
%TO.P,J2,7,Pin_7*%
%TO.N,/VCC*%
X188610000Y-106265000D03*
%TO.P,J2,8,Pin_8*%
%TO.N,Net-(R10-Pad1)*%
X188610000Y-108805000D03*
%TO.P,J2,9,Pin_9*%
%TO.N,/GND*%
X188610000Y-111345000D03*
%TO.P,J2,10,Pin_10*%
%TO.N,/VCC*%
X188610000Y-113885000D03*
%TO.P,J2,11,Pin_11*%
%TO.N,Net-(J2-Pad11)*%
X188610000Y-116425000D03*
%TO.P,J2,12,Pin_12*%
%TO.N,/GND*%
X188610000Y-118965000D03*
%TD*%
D10*
%TO.P,J6,1,MISO*%
%TO.N,/D12*%
X158500000Y-101260000D03*
D11*
%TO.P,J6,2,VCC*%
%TO.N,/VCC*%
X156000000Y-101260000D03*
%TO.P,J6,3,SCK*%
%TO.N,/D13*%
X158000000Y-103800000D03*
%TO.P,J6,4,MOSI*%
%TO.N,/D11*%
X155500000Y-103800000D03*
%TO.P,J6,5,~{RST}*%
%TO.N,/RST*%
X158500000Y-106340000D03*
%TO.P,J6,6,GND*%
%TO.N,/GND*%
X156000000Y-106340000D03*
%TD*%
D16*
%TO.N,/VCC*%
X144850000Y-114090000D03*
X143640000Y-105630000D03*
D17*
%TO.N,Net-(C2-Pad1)*%
X124650000Y-100200000D03*
X120200000Y-100200000D03*
%TD*%
D18*
%TO.N,/VCC*%
X131200000Y-98194888D02*
X136204888Y-98194888D01*
X143640000Y-105630000D02*
X144850000Y-106840000D01*
X144850000Y-106840000D02*
X144850000Y-114090000D01*
X136204888Y-98194888D02*
X143640000Y-105630000D01*
%TO.N,Net-(C2-Pad1)*%
X120200000Y-100200000D02*
X124650000Y-100200000D01*
%TO.N,/D11*%
X147250000Y-95550000D02*
X147250000Y-93000000D01*
X155500000Y-103800000D02*
X147250000Y-95550000D01*
%TO.N,/D12*%
X158050000Y-101260000D02*
X149790000Y-93000000D01*
X158500000Y-101260000D02*
X158050000Y-101260000D01*
%TO.N,/D13*%
X159700000Y-100060000D02*
X159700000Y-102900000D01*
X152640000Y-93000000D02*
X159700000Y-100060000D01*
X152330000Y-93000000D02*
X152640000Y-93000000D01*
X158800000Y-103800000D02*
X158000000Y-103800000D01*
X159700000Y-102900000D02*
X158800000Y-103800000D01*
%TO.N,/RST*%
X144700000Y-117000000D02*
X145900000Y-115800000D01*
X145900000Y-115800000D02*
X149040000Y-115800000D01*
X149040000Y-115800000D02*
X158500000Y-106340000D01*
%TD*%
%TA.AperFunction,Conductor*%
%TO.N,/GND*%
G36*
X191183621Y-89028502D02*
G01*
X191230114Y-89082158D01*
X191241500Y-89134500D01*
X191241500Y-120865500D01*
X191221498Y-120933621D01*
X191167842Y-120980114D01*
X191115500Y-120991500D01*
X105884500Y-120991500D01*
X105816379Y-120971498D01*
X105769886Y-120917842D01*
X105758500Y-120865500D01*
X105758500Y-119298134D01*
X109241500Y-119298134D01*
X109248255Y-119360316D01*
X109299385Y-119496705D01*
X109386739Y-119613261D01*
X109503295Y-119700615D01*
X109639684Y-119751745D01*
X109701866Y-119758500D01*
X112798134Y-119758500D01*
X112860316Y-119751745D01*
X112996705Y-119700615D01*
X113113261Y-119613261D01*
X113200615Y-119496705D01*
X113251745Y-119360316D01*
X113258500Y-119298134D01*
X113258500Y-119232966D01*
X187278257Y-119232966D01*
X187308565Y-119367446D01*
X187311645Y-119377275D01*
X187391770Y-119574603D01*
X187396413Y-119583794D01*
X187507694Y-119765388D01*
X187513777Y-119773699D01*
X187653213Y-119934667D01*
X187660580Y-119941883D01*
X187824434Y-120077916D01*
X187832881Y-120083831D01*
X188016756Y-120191279D01*
X188026042Y-120195729D01*
X188225001Y-120271703D01*
X188234899Y-120274579D01*
X188338250Y-120295606D01*
X188352299Y-120294410D01*
X188356000Y-120284065D01*
X188356000Y-120283517D01*
X188864000Y-120283517D01*
X188868064Y-120297359D01*
X188881478Y-120299393D01*
X188888184Y-120298534D01*
X188898262Y-120296392D01*
X189102255Y-120235191D01*
X189111842Y-120231433D01*
X189303095Y-120137739D01*
X189311945Y-120132464D01*
X189485328Y-120008792D01*
X189493200Y-120002139D01*
X189644052Y-119851812D01*
X189650730Y-119843965D01*
X189775003Y-119671020D01*
X189780313Y-119662183D01*
X189874670Y-119471267D01*
X189878469Y-119461672D01*
X189940377Y-119257910D01*
X189942555Y-119247837D01*
X189943986Y-119236962D01*
X189941775Y-119222778D01*
X189928617Y-119219000D01*
X188882115Y-119219000D01*
X188866876Y-119223475D01*
X188865671Y-119224865D01*
X188864000Y-119232548D01*
X188864000Y-120283517D01*
X188356000Y-120283517D01*
X188356000Y-119237115D01*
X188351525Y-119221876D01*
X188350135Y-119220671D01*
X188342452Y-119219000D01*
X187293225Y-119219000D01*
X187279694Y-119222973D01*
X187278257Y-119232966D01*
X113258500Y-119232966D01*
X113258500Y-117894669D01*
X138262001Y-117894669D01*
X138262371Y-117901490D01*
X138267895Y-117952352D01*
X138271521Y-117967604D01*
X138316676Y-118088054D01*
X138325214Y-118103649D01*
X138401715Y-118205724D01*
X138414276Y-118218285D01*
X138516351Y-118294786D01*
X138531946Y-118303324D01*
X138652394Y-118348478D01*
X138667649Y-118352105D01*
X138718514Y-118357631D01*
X138725328Y-118358000D01*
X139347885Y-118358000D01*
X139363124Y-118353525D01*
X139364329Y-118352135D01*
X139366000Y-118344452D01*
X139366000Y-118339884D01*
X139874000Y-118339884D01*
X139878475Y-118355123D01*
X139879865Y-118356328D01*
X139887548Y-118357999D01*
X140514669Y-118357999D01*
X140521490Y-118357629D01*
X140572352Y-118352105D01*
X140587604Y-118348479D01*
X140708054Y-118303324D01*
X140723649Y-118294786D01*
X140825724Y-118218285D01*
X140838285Y-118205724D01*
X140914786Y-118103649D01*
X140923325Y-118088052D01*
X140964425Y-117978418D01*
X141007066Y-117921653D01*
X141073628Y-117896953D01*
X141142977Y-117912160D01*
X141177645Y-117940150D01*
X141203219Y-117969674D01*
X141210580Y-117976883D01*
X141374434Y-118112916D01*
X141382881Y-118118831D01*
X141566756Y-118226279D01*
X141576042Y-118230729D01*
X141775001Y-118306703D01*
X141784899Y-118309579D01*
X141888250Y-118330606D01*
X141902299Y-118329410D01*
X141906000Y-118319065D01*
X141906000Y-117272115D01*
X141901525Y-117256876D01*
X141900135Y-117255671D01*
X141892452Y-117254000D01*
X139892115Y-117254000D01*
X139876876Y-117258475D01*
X139875671Y-117259865D01*
X139874000Y-117267548D01*
X139874000Y-118339884D01*
X139366000Y-118339884D01*
X139366000Y-117272115D01*
X139361525Y-117256876D01*
X139360135Y-117255671D01*
X139352452Y-117254000D01*
X138280116Y-117254000D01*
X138264877Y-117258475D01*
X138263672Y-117259865D01*
X138262001Y-117267548D01*
X138262001Y-117894669D01*
X113258500Y-117894669D01*
X113258500Y-116727885D01*
X138262000Y-116727885D01*
X138266475Y-116743124D01*
X138267865Y-116744329D01*
X138275548Y-116746000D01*
X139347885Y-116746000D01*
X139363124Y-116741525D01*
X139364329Y-116740135D01*
X139366000Y-116732452D01*
X139366000Y-116727885D01*
X139874000Y-116727885D01*
X139878475Y-116743124D01*
X139879865Y-116744329D01*
X139887548Y-116746000D01*
X141887885Y-116746000D01*
X141903124Y-116741525D01*
X141904329Y-116740135D01*
X141906000Y-116732452D01*
X141906000Y-115683102D01*
X141902082Y-115669758D01*
X141887806Y-115667771D01*
X141849324Y-115673660D01*
X141839288Y-115676051D01*
X141636868Y-115742212D01*
X141627359Y-115746209D01*
X141438463Y-115844542D01*
X141429738Y-115850036D01*
X141259433Y-115977905D01*
X141251726Y-115984748D01*
X141174094Y-116065985D01*
X141112570Y-116101415D01*
X141041657Y-116097958D01*
X140983871Y-116056712D01*
X140965018Y-116023164D01*
X140923324Y-115911946D01*
X140914786Y-115896351D01*
X140838285Y-115794276D01*
X140825724Y-115781715D01*
X140723649Y-115705214D01*
X140708054Y-115696676D01*
X140587606Y-115651522D01*
X140572351Y-115647895D01*
X140521486Y-115642369D01*
X140514672Y-115642000D01*
X139892115Y-115642000D01*
X139876876Y-115646475D01*
X139875671Y-115647865D01*
X139874000Y-115655548D01*
X139874000Y-116727885D01*
X139366000Y-116727885D01*
X139366000Y-115660116D01*
X139361525Y-115644877D01*
X139360135Y-115643672D01*
X139352452Y-115642001D01*
X138725331Y-115642001D01*
X138718510Y-115642371D01*
X138667648Y-115647895D01*
X138652396Y-115651521D01*
X138531946Y-115696676D01*
X138516351Y-115705214D01*
X138414276Y-115781715D01*
X138401715Y-115794276D01*
X138325214Y-115896351D01*
X138316676Y-115911946D01*
X138271522Y-116032394D01*
X138267895Y-116047649D01*
X138262369Y-116098514D01*
X138262000Y-116105328D01*
X138262000Y-116727885D01*
X113258500Y-116727885D01*
X113258500Y-116201866D01*
X113251745Y-116139684D01*
X113200615Y-116003295D01*
X113113261Y-115886739D01*
X112996705Y-115799385D01*
X112860316Y-115748255D01*
X112798134Y-115741500D01*
X109701866Y-115741500D01*
X109639684Y-115748255D01*
X109503295Y-115799385D01*
X109386739Y-115886739D01*
X109299385Y-116003295D01*
X109248255Y-116139684D01*
X109241500Y-116201866D01*
X109241500Y-119298134D01*
X105758500Y-119298134D01*
X105758500Y-112648918D01*
X109236917Y-112648918D01*
X109252682Y-112922320D01*
X109253507Y-112926525D01*
X109253508Y-112926533D01*
X109279226Y-113057617D01*
X109305405Y-113191053D01*
X109306792Y-113195103D01*
X109306793Y-113195108D01*
X109392591Y-113445702D01*
X109394112Y-113450144D01*
X109517160Y-113694799D01*
X109519586Y-113698328D01*
X109519589Y-113698334D01*
X109621464Y-113846562D01*
X109672274Y-113920490D01*
X109675161Y-113923663D01*
X109675162Y-113923664D01*
X109812607Y-114074715D01*
X109856582Y-114123043D01*
X110066675Y-114298707D01*
X110070316Y-114300991D01*
X110295024Y-114441951D01*
X110295028Y-114441953D01*
X110298664Y-114444234D01*
X110366544Y-114474883D01*
X110544345Y-114555164D01*
X110544349Y-114555166D01*
X110548257Y-114556930D01*
X110552377Y-114558150D01*
X110552376Y-114558150D01*
X110806723Y-114633491D01*
X110806727Y-114633492D01*
X110810836Y-114634709D01*
X110815070Y-114635357D01*
X110815075Y-114635358D01*
X111077298Y-114675483D01*
X111077300Y-114675483D01*
X111081540Y-114676132D01*
X111220912Y-114678322D01*
X111351071Y-114680367D01*
X111351077Y-114680367D01*
X111355362Y-114680434D01*
X111627235Y-114647534D01*
X111892127Y-114578041D01*
X111896087Y-114576401D01*
X111896092Y-114576399D01*
X112070829Y-114504020D01*
X112145136Y-114473241D01*
X112381582Y-114335073D01*
X112597089Y-114166094D01*
X112638809Y-114123043D01*
X112784686Y-113972509D01*
X112787669Y-113969431D01*
X112790202Y-113965983D01*
X112790206Y-113965978D01*
X112947257Y-113752178D01*
X112949795Y-113748723D01*
X112970966Y-113709731D01*
X113078418Y-113511830D01*
X113078419Y-113511828D01*
X113080468Y-113508054D01*
X113177269Y-113251877D01*
X113238407Y-112984933D01*
X113247054Y-112888051D01*
X113262531Y-112714627D01*
X113262531Y-112714625D01*
X113262751Y-112712161D01*
X113263193Y-112670000D01*
X113254348Y-112540248D01*
X113244859Y-112401055D01*
X113244858Y-112401049D01*
X113244567Y-112396778D01*
X113241536Y-112382139D01*
X113189901Y-112132809D01*
X113189032Y-112128612D01*
X113097617Y-111870465D01*
X113051415Y-111780950D01*
X120778493Y-111780950D01*
X120787789Y-111792965D01*
X120838994Y-111828819D01*
X120848489Y-111834302D01*
X121045947Y-111926378D01*
X121056239Y-111930124D01*
X121266688Y-111986513D01*
X121277481Y-111988416D01*
X121494525Y-112007405D01*
X121505475Y-112007405D01*
X121722519Y-111988416D01*
X121733312Y-111986513D01*
X121943761Y-111930124D01*
X121954053Y-111926378D01*
X122151511Y-111834302D01*
X122161006Y-111828819D01*
X122213048Y-111792379D01*
X122221424Y-111781900D01*
X122214356Y-111768454D01*
X121512812Y-111066910D01*
X121498868Y-111059296D01*
X121497035Y-111059427D01*
X121490420Y-111063678D01*
X120784923Y-111769175D01*
X120778493Y-111780950D01*
X113051415Y-111780950D01*
X112972013Y-111627112D01*
X112964880Y-111616962D01*
X112823919Y-111416395D01*
X112814545Y-111403057D01*
X112628125Y-111202445D01*
X112624810Y-111199731D01*
X112624806Y-111199728D01*
X112458585Y-111063678D01*
X112416205Y-111028990D01*
X112182704Y-110885901D01*
X112168054Y-110879470D01*
X111935873Y-110777549D01*
X111935869Y-110777548D01*
X111931945Y-110775825D01*
X111668566Y-110700800D01*
X111665497Y-110700363D01*
X120187483Y-110700363D01*
X120206472Y-110917407D01*
X120208375Y-110928200D01*
X120264764Y-111138649D01*
X120268510Y-111148941D01*
X120360586Y-111346399D01*
X120366069Y-111355894D01*
X120402509Y-111407936D01*
X120412988Y-111416312D01*
X120426434Y-111409244D01*
X121127978Y-110707700D01*
X121134356Y-110696020D01*
X121864408Y-110696020D01*
X121864539Y-110697853D01*
X121868790Y-110704468D01*
X122574287Y-111409965D01*
X122586062Y-111416395D01*
X122598077Y-111407099D01*
X122633931Y-111355894D01*
X122639414Y-111346399D01*
X122731490Y-111148941D01*
X122735236Y-111138649D01*
X122791625Y-110928200D01*
X122793528Y-110917407D01*
X122812517Y-110700363D01*
X122812517Y-110689413D01*
X122793528Y-110472369D01*
X122791625Y-110461576D01*
X122735236Y-110251127D01*
X122731490Y-110240835D01*
X122639414Y-110043377D01*
X122633931Y-110033882D01*
X122597491Y-109981840D01*
X122587012Y-109973464D01*
X122573566Y-109980532D01*
X121872022Y-110682076D01*
X121864408Y-110696020D01*
X121134356Y-110696020D01*
X121135592Y-110693756D01*
X121135461Y-110691923D01*
X121131210Y-110685308D01*
X120425713Y-109979811D01*
X120413938Y-109973381D01*
X120401923Y-109982677D01*
X120366069Y-110033882D01*
X120360586Y-110043377D01*
X120268510Y-110240835D01*
X120264764Y-110251127D01*
X120208375Y-110461576D01*
X120206472Y-110472369D01*
X120187483Y-110689413D01*
X120187483Y-110700363D01*
X111665497Y-110700363D01*
X111664324Y-110700196D01*
X111664318Y-110700195D01*
X111463834Y-110671662D01*
X111397443Y-110662213D01*
X111253589Y-110661460D01*
X111127877Y-110660802D01*
X111127871Y-110660802D01*
X111123591Y-110660780D01*
X111119347Y-110661339D01*
X111119343Y-110661339D01*
X111003250Y-110676623D01*
X110852078Y-110696525D01*
X110847938Y-110697658D01*
X110847936Y-110697658D01*
X110823043Y-110704468D01*
X110587928Y-110768788D01*
X110583980Y-110770472D01*
X110339982Y-110874546D01*
X110339978Y-110874548D01*
X110336030Y-110876232D01*
X110267231Y-110917407D01*
X110104725Y-111014664D01*
X110104721Y-111014667D01*
X110101043Y-111016868D01*
X109887318Y-111188094D01*
X109870717Y-111205588D01*
X109728082Y-111355894D01*
X109698808Y-111386742D01*
X109539002Y-111609136D01*
X109410857Y-111851161D01*
X109409385Y-111855184D01*
X109409383Y-111855188D01*
X109360628Y-111988416D01*
X109316743Y-112108337D01*
X109258404Y-112375907D01*
X109236917Y-112648918D01*
X105758500Y-112648918D01*
X105758500Y-109043022D01*
X120191500Y-109043022D01*
X120198255Y-109105204D01*
X120249385Y-109241593D01*
X120336739Y-109358149D01*
X120453295Y-109445503D01*
X120589684Y-109496633D01*
X120633252Y-109501366D01*
X120648486Y-109503021D01*
X120648489Y-109503021D01*
X120651866Y-109503388D01*
X120655185Y-109503388D01*
X120722110Y-109527041D01*
X120757804Y-109573044D01*
X120759734Y-109572029D01*
X120765442Y-109582888D01*
X120765632Y-109583133D01*
X120765653Y-109583291D01*
X120785644Y-109621322D01*
X121487188Y-110322866D01*
X121501132Y-110330480D01*
X121502965Y-110330349D01*
X121509580Y-110326098D01*
X122215077Y-109620601D01*
X122237871Y-109578859D01*
X122240047Y-109568859D01*
X122290253Y-109518661D01*
X122343814Y-109503437D01*
X122344719Y-109503388D01*
X122348134Y-109503388D01*
X122351530Y-109503019D01*
X122351532Y-109503019D01*
X122363879Y-109501678D01*
X122410316Y-109496633D01*
X122546705Y-109445503D01*
X122663261Y-109358149D01*
X122750615Y-109241593D01*
X122801745Y-109105204D01*
X122808500Y-109043022D01*
X122808500Y-107346754D01*
X122801745Y-107284572D01*
X122750615Y-107148183D01*
X122663261Y-107031627D01*
X122546705Y-106944273D01*
X122410316Y-106893143D01*
X122348134Y-106886388D01*
X120651866Y-106886388D01*
X120589684Y-106893143D01*
X120453295Y-106944273D01*
X120336739Y-107031627D01*
X120249385Y-107148183D01*
X120198255Y-107284572D01*
X120191500Y-107346754D01*
X120191500Y-109043022D01*
X105758500Y-109043022D01*
X105758500Y-101780950D01*
X130478493Y-101780950D01*
X130487789Y-101792965D01*
X130538994Y-101828819D01*
X130548489Y-101834302D01*
X130745947Y-101926378D01*
X130756239Y-101930124D01*
X130966688Y-101986513D01*
X130977481Y-101988416D01*
X131194525Y-102007405D01*
X131205475Y-102007405D01*
X131422519Y-101988416D01*
X131433312Y-101986513D01*
X131643761Y-101930124D01*
X131654053Y-101926378D01*
X131851511Y-101834302D01*
X131861006Y-101828819D01*
X131913048Y-101792379D01*
X131921424Y-101781900D01*
X131914356Y-101768454D01*
X131212812Y-101066910D01*
X131198868Y-101059296D01*
X131197035Y-101059427D01*
X131190420Y-101063678D01*
X130484923Y-101769175D01*
X130478493Y-101780950D01*
X105758500Y-101780950D01*
X105758500Y-100188640D01*
X119386463Y-100188640D01*
X119404163Y-100369160D01*
X119461418Y-100541273D01*
X119465065Y-100547295D01*
X119465066Y-100547297D01*
X119546691Y-100682076D01*
X119555380Y-100696424D01*
X119560269Y-100701487D01*
X119560270Y-100701488D01*
X119607813Y-100750720D01*
X119681382Y-100826902D01*
X119833159Y-100926222D01*
X119839763Y-100928678D01*
X119839765Y-100928679D01*
X119996558Y-100986990D01*
X119996560Y-100986990D01*
X120003168Y-100989448D01*
X120086995Y-101000633D01*
X120175980Y-101012507D01*
X120175984Y-101012507D01*
X120182961Y-101013438D01*
X120189972Y-101012800D01*
X120189976Y-101012800D01*
X120335142Y-100999588D01*
X120363600Y-100996998D01*
X120370302Y-100994820D01*
X120370304Y-100994820D01*
X120529409Y-100943124D01*
X120529412Y-100943123D01*
X120536108Y-100940947D01*
X120644603Y-100876271D01*
X120709120Y-100858500D01*
X124142107Y-100858500D01*
X124211100Y-100879068D01*
X124283159Y-100926222D01*
X124289763Y-100928678D01*
X124289765Y-100928679D01*
X124446558Y-100986990D01*
X124446560Y-100986990D01*
X124453168Y-100989448D01*
X124536995Y-101000633D01*
X124625980Y-101012507D01*
X124625984Y-101012507D01*
X124632961Y-101013438D01*
X124639972Y-101012800D01*
X124639976Y-101012800D01*
X124785142Y-100999588D01*
X124813600Y-100996998D01*
X124820302Y-100994820D01*
X124820304Y-100994820D01*
X124979409Y-100943124D01*
X124979412Y-100943123D01*
X124986108Y-100940947D01*
X125141912Y-100848069D01*
X125273266Y-100722982D01*
X125288294Y-100700363D01*
X129887483Y-100700363D01*
X129906472Y-100917407D01*
X129908375Y-100928200D01*
X129964764Y-101138649D01*
X129968510Y-101148941D01*
X130060586Y-101346399D01*
X130066069Y-101355894D01*
X130102509Y-101407936D01*
X130112988Y-101416312D01*
X130126434Y-101409244D01*
X130827978Y-100707700D01*
X130834356Y-100696020D01*
X131564408Y-100696020D01*
X131564539Y-100697853D01*
X131568790Y-100704468D01*
X132274287Y-101409965D01*
X132286062Y-101416395D01*
X132298077Y-101407099D01*
X132333931Y-101355894D01*
X132339414Y-101346399D01*
X132431490Y-101148941D01*
X132435236Y-101138649D01*
X132491625Y-100928200D01*
X132493528Y-100917407D01*
X132512517Y-100700363D01*
X132512517Y-100689413D01*
X132493528Y-100472369D01*
X132491625Y-100461576D01*
X132435236Y-100251127D01*
X132431490Y-100240835D01*
X132339414Y-100043377D01*
X132333931Y-100033882D01*
X132297491Y-99981840D01*
X132287012Y-99973464D01*
X132273566Y-99980532D01*
X131572022Y-100682076D01*
X131564408Y-100696020D01*
X130834356Y-100696020D01*
X130835592Y-100693756D01*
X130835461Y-100691923D01*
X130831210Y-100685308D01*
X130125713Y-99979811D01*
X130113938Y-99973381D01*
X130101923Y-99982677D01*
X130066069Y-100033882D01*
X130060586Y-100043377D01*
X129968510Y-100240835D01*
X129964764Y-100251127D01*
X129908375Y-100461576D01*
X129906472Y-100472369D01*
X129887483Y-100689413D01*
X129887483Y-100700363D01*
X125288294Y-100700363D01*
X125373643Y-100571902D01*
X125438055Y-100402338D01*
X125439035Y-100395366D01*
X125462748Y-100226639D01*
X125462748Y-100226636D01*
X125463299Y-100222717D01*
X125463616Y-100200000D01*
X125443397Y-100019745D01*
X125441080Y-100013091D01*
X125386064Y-99855106D01*
X125386062Y-99855103D01*
X125383745Y-99848448D01*
X125368723Y-99824408D01*
X125291359Y-99700598D01*
X125287626Y-99694624D01*
X125253266Y-99660023D01*
X125164778Y-99570915D01*
X125164774Y-99570912D01*
X125159815Y-99565918D01*
X125148697Y-99558862D01*
X125060705Y-99503021D01*
X125006666Y-99468727D01*
X124965280Y-99453990D01*
X124842425Y-99410243D01*
X124842420Y-99410242D01*
X124835790Y-99407881D01*
X124828802Y-99407048D01*
X124828799Y-99407047D01*
X124705698Y-99392368D01*
X124655680Y-99386404D01*
X124648677Y-99387140D01*
X124648676Y-99387140D01*
X124482288Y-99404628D01*
X124482286Y-99404629D01*
X124475288Y-99405364D01*
X124385094Y-99436068D01*
X124310249Y-99461547D01*
X124310246Y-99461548D01*
X124303579Y-99463818D01*
X124297581Y-99467508D01*
X124297579Y-99467509D01*
X124207676Y-99522818D01*
X124141654Y-99541500D01*
X120707944Y-99541500D01*
X120640430Y-99521885D01*
X120600639Y-99496633D01*
X120556666Y-99468727D01*
X120515280Y-99453990D01*
X120392425Y-99410243D01*
X120392420Y-99410242D01*
X120385790Y-99407881D01*
X120378802Y-99407048D01*
X120378799Y-99407047D01*
X120255698Y-99392368D01*
X120205680Y-99386404D01*
X120198677Y-99387140D01*
X120198676Y-99387140D01*
X120032288Y-99404628D01*
X120032286Y-99404629D01*
X120025288Y-99405364D01*
X119853579Y-99463818D01*
X119847575Y-99467512D01*
X119705095Y-99555166D01*
X119705092Y-99555168D01*
X119699088Y-99558862D01*
X119694053Y-99563793D01*
X119694050Y-99563795D01*
X119595786Y-99660023D01*
X119569493Y-99685771D01*
X119471235Y-99838238D01*
X119468826Y-99844858D01*
X119468824Y-99844861D01*
X119422016Y-99973464D01*
X119409197Y-100008685D01*
X119386463Y-100188640D01*
X105758500Y-100188640D01*
X105758500Y-98878134D01*
X109241500Y-98878134D01*
X109248255Y-98940316D01*
X109299385Y-99076705D01*
X109386739Y-99193261D01*
X109503295Y-99280615D01*
X109639684Y-99331745D01*
X109701866Y-99338500D01*
X112798134Y-99338500D01*
X112860316Y-99331745D01*
X112996705Y-99280615D01*
X113113261Y-99193261D01*
X113200615Y-99076705D01*
X113213242Y-99043022D01*
X129891500Y-99043022D01*
X129898255Y-99105204D01*
X129949385Y-99241593D01*
X130036739Y-99358149D01*
X130153295Y-99445503D01*
X130289684Y-99496633D01*
X130333252Y-99501366D01*
X130348486Y-99503021D01*
X130348489Y-99503021D01*
X130351866Y-99503388D01*
X130355185Y-99503388D01*
X130422110Y-99527041D01*
X130457804Y-99573044D01*
X130459734Y-99572029D01*
X130465442Y-99582888D01*
X130465632Y-99583133D01*
X130465653Y-99583291D01*
X130485644Y-99621322D01*
X131187188Y-100322866D01*
X131201132Y-100330480D01*
X131202965Y-100330349D01*
X131209580Y-100326098D01*
X131915077Y-99620601D01*
X131937871Y-99578859D01*
X131940047Y-99568859D01*
X131990253Y-99518661D01*
X132043814Y-99503437D01*
X132044719Y-99503388D01*
X132048134Y-99503388D01*
X132051530Y-99503019D01*
X132051532Y-99503019D01*
X132063879Y-99501678D01*
X132110316Y-99496633D01*
X132246705Y-99445503D01*
X132363261Y-99358149D01*
X132450615Y-99241593D01*
X132501745Y-99105204D01*
X132508500Y-99043022D01*
X132508500Y-98979388D01*
X132528502Y-98911267D01*
X132582158Y-98864774D01*
X132634500Y-98853388D01*
X135879938Y-98853388D01*
X135948059Y-98873390D01*
X135969033Y-98890293D01*
X142590685Y-105511945D01*
X142624711Y-105574257D01*
X142626211Y-105603546D01*
X142627492Y-105603564D01*
X142627406Y-105609725D01*
X142626719Y-105615851D01*
X142627235Y-105621995D01*
X142641704Y-105794305D01*
X142643268Y-105812934D01*
X142697783Y-106003050D01*
X142788187Y-106178956D01*
X142911035Y-106333953D01*
X143061650Y-106462136D01*
X143234294Y-106558624D01*
X143422392Y-106619740D01*
X143618777Y-106643158D01*
X143624911Y-106642686D01*
X143624913Y-106642686D01*
X143634360Y-106641959D01*
X143656747Y-106640236D01*
X143726201Y-106654953D01*
X143755509Y-106676769D01*
X144154595Y-107075854D01*
X144188620Y-107138167D01*
X144191500Y-107164950D01*
X144191500Y-113264975D01*
X144171498Y-113333096D01*
X144149719Y-113357317D01*
X144150184Y-113357792D01*
X144145782Y-113362103D01*
X144140975Y-113365968D01*
X144013846Y-113517474D01*
X144010879Y-113522872D01*
X144010875Y-113522877D01*
X144007397Y-113529204D01*
X143918567Y-113690787D01*
X143916706Y-113696654D01*
X143916705Y-113696656D01*
X143869152Y-113846562D01*
X143858765Y-113879306D01*
X143836719Y-114075851D01*
X143837235Y-114081995D01*
X143844452Y-114167939D01*
X143853268Y-114272934D01*
X143861313Y-114300991D01*
X143902388Y-114444234D01*
X143907783Y-114463050D01*
X143927893Y-114502179D01*
X143969141Y-114582438D01*
X143998187Y-114638956D01*
X144121035Y-114793953D01*
X144125728Y-114797947D01*
X144125729Y-114797948D01*
X144192802Y-114855031D01*
X144271650Y-114922136D01*
X144444294Y-115018624D01*
X144632392Y-115079740D01*
X144828777Y-115103158D01*
X144834912Y-115102686D01*
X144834914Y-115102686D01*
X145019830Y-115088457D01*
X145019834Y-115088456D01*
X145025972Y-115087984D01*
X145216463Y-115034798D01*
X145221967Y-115032018D01*
X145221969Y-115032017D01*
X145387495Y-114948404D01*
X145387497Y-114948403D01*
X145392996Y-114945625D01*
X145548847Y-114823861D01*
X145660948Y-114693990D01*
X145674049Y-114678813D01*
X145674050Y-114678811D01*
X145678078Y-114674145D01*
X145775769Y-114502179D01*
X145838197Y-114314513D01*
X145862985Y-114118295D01*
X145863380Y-114090000D01*
X145844080Y-113893167D01*
X145786916Y-113703831D01*
X145694066Y-113529204D01*
X145604428Y-113419297D01*
X145572960Y-113380713D01*
X145572957Y-113380710D01*
X145569065Y-113375938D01*
X145559724Y-113368210D01*
X145554183Y-113363626D01*
X145514446Y-113304792D01*
X145508500Y-113266543D01*
X145508500Y-106922056D01*
X145509059Y-106910200D01*
X145509059Y-106910197D01*
X145510788Y-106902463D01*
X145508562Y-106831631D01*
X145508500Y-106827673D01*
X145508500Y-106798568D01*
X145507944Y-106794168D01*
X145507012Y-106782330D01*
X145506671Y-106771453D01*
X145505562Y-106736169D01*
X145499580Y-106715579D01*
X145495570Y-106696216D01*
X145493875Y-106682796D01*
X145493875Y-106682795D01*
X145492882Y-106674936D01*
X145489966Y-106667571D01*
X145489965Y-106667567D01*
X145475876Y-106631982D01*
X145472031Y-106620753D01*
X145468316Y-106607966D01*
X154668257Y-106607966D01*
X154698565Y-106742446D01*
X154701645Y-106752275D01*
X154781770Y-106949603D01*
X154786413Y-106958794D01*
X154897694Y-107140388D01*
X154903777Y-107148699D01*
X155043213Y-107309667D01*
X155050580Y-107316883D01*
X155214434Y-107452916D01*
X155222881Y-107458831D01*
X155406756Y-107566279D01*
X155416042Y-107570729D01*
X155615001Y-107646703D01*
X155624899Y-107649579D01*
X155728250Y-107670606D01*
X155742299Y-107669410D01*
X155746000Y-107659065D01*
X155746000Y-106612115D01*
X155741525Y-106596876D01*
X155740135Y-106595671D01*
X155732452Y-106594000D01*
X154683225Y-106594000D01*
X154669694Y-106597973D01*
X154668257Y-106607966D01*
X145468316Y-106607966D01*
X145464744Y-106595671D01*
X145459145Y-106576399D01*
X145448230Y-106557943D01*
X145439531Y-106540187D01*
X145439182Y-106539307D01*
X145431635Y-106520244D01*
X145404480Y-106482868D01*
X145397965Y-106472949D01*
X145378492Y-106440023D01*
X145378489Y-106440019D01*
X145374452Y-106433193D01*
X145359291Y-106418032D01*
X145346449Y-106402997D01*
X145333841Y-106385643D01*
X145298242Y-106356193D01*
X145289463Y-106348204D01*
X144689885Y-105748626D01*
X144655859Y-105686314D01*
X144652992Y-105657771D01*
X144653331Y-105633522D01*
X144653331Y-105633519D01*
X144653380Y-105630000D01*
X144634080Y-105433167D01*
X144627512Y-105411411D01*
X144601233Y-105324373D01*
X144576916Y-105243831D01*
X144484066Y-105069204D01*
X144380308Y-104941984D01*
X144362960Y-104920713D01*
X144362957Y-104920710D01*
X144359065Y-104915938D01*
X144354316Y-104912009D01*
X144211425Y-104793799D01*
X144211421Y-104793797D01*
X144206675Y-104789870D01*
X144032701Y-104695802D01*
X143843768Y-104637318D01*
X143837643Y-104636674D01*
X143837642Y-104636674D01*
X143653204Y-104617289D01*
X143653202Y-104617289D01*
X143647075Y-104616645D01*
X143624121Y-104618734D01*
X143554469Y-104604989D01*
X143523607Y-104582348D01*
X140129625Y-101188365D01*
X136728543Y-97787283D01*
X136720553Y-97778503D01*
X136720551Y-97778501D01*
X136716304Y-97771808D01*
X136664630Y-97723283D01*
X136661789Y-97720529D01*
X136641221Y-97699961D01*
X136637714Y-97697241D01*
X136628692Y-97689535D01*
X136600801Y-97663344D01*
X136595021Y-97657916D01*
X136588069Y-97654094D01*
X136576230Y-97647585D01*
X136559706Y-97636731D01*
X136549020Y-97628443D01*
X136542756Y-97623584D01*
X136535484Y-97620437D01*
X136535482Y-97620436D01*
X136500353Y-97605234D01*
X136489693Y-97600012D01*
X136456172Y-97581583D01*
X136456170Y-97581582D01*
X136449225Y-97577764D01*
X136428447Y-97572429D01*
X136409757Y-97566030D01*
X136390064Y-97557508D01*
X136344440Y-97550282D01*
X136332817Y-97547875D01*
X136304816Y-97540686D01*
X136288076Y-97536388D01*
X136266629Y-97536388D01*
X136246919Y-97534837D01*
X136233565Y-97532722D01*
X136225736Y-97531482D01*
X136179747Y-97535829D01*
X136167892Y-97536388D01*
X132634500Y-97536388D01*
X132566379Y-97516386D01*
X132519886Y-97462730D01*
X132508500Y-97410388D01*
X132508500Y-97346754D01*
X132501745Y-97284572D01*
X132450615Y-97148183D01*
X132363261Y-97031627D01*
X132246705Y-96944273D01*
X132110316Y-96893143D01*
X132048134Y-96886388D01*
X130351866Y-96886388D01*
X130289684Y-96893143D01*
X130153295Y-96944273D01*
X130036739Y-97031627D01*
X129949385Y-97148183D01*
X129898255Y-97284572D01*
X129891500Y-97346754D01*
X129891500Y-99043022D01*
X113213242Y-99043022D01*
X113251745Y-98940316D01*
X113258500Y-98878134D01*
X113258500Y-95781866D01*
X113251745Y-95719684D01*
X113200615Y-95583295D01*
X113113261Y-95466739D01*
X112996705Y-95379385D01*
X112860316Y-95328255D01*
X112798134Y-95321500D01*
X109701866Y-95321500D01*
X109639684Y-95328255D01*
X109503295Y-95379385D01*
X109386739Y-95466739D01*
X109299385Y-95583295D01*
X109248255Y-95719684D01*
X109241500Y-95781866D01*
X109241500Y-98878134D01*
X105758500Y-98878134D01*
X105758500Y-93839654D01*
X110025618Y-93839654D01*
X110032673Y-93849627D01*
X110063679Y-93875551D01*
X110070598Y-93880579D01*
X110295272Y-94021515D01*
X110302807Y-94025556D01*
X110544520Y-94134694D01*
X110552551Y-94137680D01*
X110806832Y-94213002D01*
X110815184Y-94214869D01*
X111077340Y-94254984D01*
X111085874Y-94255700D01*
X111351045Y-94259867D01*
X111359596Y-94259418D01*
X111622883Y-94227557D01*
X111631284Y-94225955D01*
X111887824Y-94158653D01*
X111895926Y-94155926D01*
X112140949Y-94054434D01*
X112148617Y-94050628D01*
X112377598Y-93916822D01*
X112384679Y-93912009D01*
X112402375Y-93898134D01*
X138271500Y-93898134D01*
X138278255Y-93960316D01*
X138329385Y-94096705D01*
X138416739Y-94213261D01*
X138533295Y-94300615D01*
X138669684Y-94351745D01*
X138731866Y-94358500D01*
X140528134Y-94358500D01*
X140590316Y-94351745D01*
X140726705Y-94300615D01*
X140843261Y-94213261D01*
X140930615Y-94096705D01*
X140957288Y-94025556D01*
X140974598Y-93979382D01*
X141017240Y-93922618D01*
X141083802Y-93897918D01*
X141153150Y-93913126D01*
X141187817Y-93941114D01*
X141216250Y-93973938D01*
X141388126Y-94116632D01*
X141581000Y-94229338D01*
X141789692Y-94309030D01*
X141794760Y-94310061D01*
X141794763Y-94310062D01*
X141890875Y-94329616D01*
X142008597Y-94353567D01*
X142013772Y-94353757D01*
X142013774Y-94353757D01*
X142226673Y-94361564D01*
X142226677Y-94361564D01*
X142231837Y-94361753D01*
X142236957Y-94361097D01*
X142236959Y-94361097D01*
X142448288Y-94334025D01*
X142448289Y-94334025D01*
X142453416Y-94333368D01*
X142474025Y-94327185D01*
X142662429Y-94270661D01*
X142662434Y-94270659D01*
X142667384Y-94269174D01*
X142867994Y-94170896D01*
X143049860Y-94041173D01*
X143208096Y-93883489D01*
X143232663Y-93849301D01*
X143338453Y-93702077D01*
X143339776Y-93703028D01*
X143386645Y-93659857D01*
X143456580Y-93647625D01*
X143522026Y-93675144D01*
X143549875Y-93706994D01*
X143609987Y-93805088D01*
X143756250Y-93973938D01*
X143928126Y-94116632D01*
X144121000Y-94229338D01*
X144329692Y-94309030D01*
X144334760Y-94310061D01*
X144334763Y-94310062D01*
X144430875Y-94329616D01*
X144548597Y-94353567D01*
X144553772Y-94353757D01*
X144553774Y-94353757D01*
X144766673Y-94361564D01*
X144766677Y-94361564D01*
X144771837Y-94361753D01*
X144776957Y-94361097D01*
X144776959Y-94361097D01*
X144988288Y-94334025D01*
X144988289Y-94334025D01*
X144993416Y-94333368D01*
X145014025Y-94327185D01*
X145202429Y-94270661D01*
X145202434Y-94270659D01*
X145207384Y-94269174D01*
X145407994Y-94170896D01*
X145589860Y-94041173D01*
X145748096Y-93883489D01*
X145772663Y-93849301D01*
X145878453Y-93702077D01*
X145879776Y-93703028D01*
X145926645Y-93659857D01*
X145996580Y-93647625D01*
X146062026Y-93675144D01*
X146089875Y-93706994D01*
X146149987Y-93805088D01*
X146296250Y-93973938D01*
X146468126Y-94116632D01*
X146472583Y-94119236D01*
X146472588Y-94119240D01*
X146529070Y-94152245D01*
X146577794Y-94203883D01*
X146591500Y-94261033D01*
X146591500Y-95467944D01*
X146590941Y-95479800D01*
X146589212Y-95487537D01*
X146589461Y-95495459D01*
X146591438Y-95558369D01*
X146591500Y-95562327D01*
X146591500Y-95591432D01*
X146592056Y-95595832D01*
X146592988Y-95607664D01*
X146594438Y-95653831D01*
X146596650Y-95661444D01*
X146596650Y-95661445D01*
X146600419Y-95674416D01*
X146604430Y-95693782D01*
X146607118Y-95715064D01*
X146610034Y-95722429D01*
X146610035Y-95722433D01*
X146624126Y-95758021D01*
X146627965Y-95769231D01*
X146640855Y-95813600D01*
X146651775Y-95832065D01*
X146660466Y-95849805D01*
X146668365Y-95869756D01*
X146695516Y-95907126D01*
X146702033Y-95917048D01*
X146721507Y-95949977D01*
X146721510Y-95949981D01*
X146725547Y-95956807D01*
X146740711Y-95971971D01*
X146753551Y-95987004D01*
X146766159Y-96004357D01*
X146801752Y-96033802D01*
X146810532Y-96041792D01*
X154142101Y-103373361D01*
X154176127Y-103435673D01*
X154174424Y-103496125D01*
X154160989Y-103544570D01*
X154137251Y-103766695D01*
X154150110Y-103989715D01*
X154151247Y-103994761D01*
X154151248Y-103994767D01*
X154151743Y-103996962D01*
X154199222Y-104207639D01*
X154283266Y-104414616D01*
X154323026Y-104479499D01*
X154397288Y-104600683D01*
X154399987Y-104605088D01*
X154546250Y-104773938D01*
X154570173Y-104793799D01*
X154712558Y-104912009D01*
X154718126Y-104916632D01*
X154911000Y-105029338D01*
X154915820Y-105031179D01*
X154915825Y-105031181D01*
X154999169Y-105063007D01*
X155077441Y-105092896D01*
X155133943Y-105135882D01*
X155158236Y-105202593D01*
X155142606Y-105271848D01*
X155108144Y-105311365D01*
X155099433Y-105317905D01*
X155091726Y-105324748D01*
X154944590Y-105478717D01*
X154938104Y-105486727D01*
X154818098Y-105662649D01*
X154813000Y-105671623D01*
X154723338Y-105864783D01*
X154719775Y-105874470D01*
X154664389Y-106074183D01*
X154665912Y-106082607D01*
X154678292Y-106086000D01*
X156128000Y-106086000D01*
X156196121Y-106106002D01*
X156242614Y-106159658D01*
X156254000Y-106212000D01*
X156254000Y-107602551D01*
X156233998Y-107670672D01*
X156217095Y-107691645D01*
X148804145Y-115104595D01*
X148741833Y-115138621D01*
X148715050Y-115141500D01*
X145982056Y-115141500D01*
X145970200Y-115140941D01*
X145970197Y-115140941D01*
X145962463Y-115139212D01*
X145907446Y-115140941D01*
X145891631Y-115141438D01*
X145887673Y-115141500D01*
X145858568Y-115141500D01*
X145854168Y-115142056D01*
X145842336Y-115142988D01*
X145796169Y-115144438D01*
X145788556Y-115146650D01*
X145788555Y-115146650D01*
X145786404Y-115147275D01*
X145775579Y-115150420D01*
X145756218Y-115154430D01*
X145749230Y-115155312D01*
X145742796Y-115156125D01*
X145742795Y-115156125D01*
X145734936Y-115157118D01*
X145727571Y-115160034D01*
X145727567Y-115160035D01*
X145691979Y-115174126D01*
X145680769Y-115177965D01*
X145636400Y-115190855D01*
X145617943Y-115201771D01*
X145600193Y-115210466D01*
X145580244Y-115218365D01*
X145573833Y-115223023D01*
X145573831Y-115223024D01*
X145542864Y-115245523D01*
X145532946Y-115252038D01*
X145493193Y-115275548D01*
X145478032Y-115290709D01*
X145463000Y-115303548D01*
X145445643Y-115316159D01*
X145440590Y-115322267D01*
X145416194Y-115351757D01*
X145408204Y-115360537D01*
X145127336Y-115641405D01*
X145065024Y-115675431D01*
X145016145Y-115676357D01*
X144833373Y-115643800D01*
X144833367Y-115643799D01*
X144828284Y-115642894D01*
X144754452Y-115641992D01*
X144610081Y-115640228D01*
X144610079Y-115640228D01*
X144604911Y-115640165D01*
X144384091Y-115673955D01*
X144171756Y-115743357D01*
X143973607Y-115846507D01*
X143969474Y-115849610D01*
X143969471Y-115849612D01*
X143799100Y-115977530D01*
X143794965Y-115980635D01*
X143640629Y-116142138D01*
X143533204Y-116299618D01*
X143532898Y-116300066D01*
X143477987Y-116345069D01*
X143407462Y-116353240D01*
X143343715Y-116321986D01*
X143323018Y-116297502D01*
X143242426Y-116172926D01*
X143236136Y-116164757D01*
X143092806Y-116007240D01*
X143085273Y-116000215D01*
X142918139Y-115868222D01*
X142909552Y-115862517D01*
X142723117Y-115759599D01*
X142713705Y-115755369D01*
X142512959Y-115684280D01*
X142502988Y-115681646D01*
X142431837Y-115668972D01*
X142418540Y-115670432D01*
X142414000Y-115684989D01*
X142414000Y-118318517D01*
X142418064Y-118332359D01*
X142431478Y-118334393D01*
X142438184Y-118333534D01*
X142448262Y-118331392D01*
X142652255Y-118270191D01*
X142661842Y-118266433D01*
X142853095Y-118172739D01*
X142861945Y-118167464D01*
X143035328Y-118043792D01*
X143043200Y-118037139D01*
X143194052Y-117886812D01*
X143200730Y-117878965D01*
X143328022Y-117701819D01*
X143329279Y-117702722D01*
X143376373Y-117659362D01*
X143446311Y-117647145D01*
X143511751Y-117674678D01*
X143539579Y-117706511D01*
X143599987Y-117805088D01*
X143746250Y-117973938D01*
X143918126Y-118116632D01*
X144111000Y-118229338D01*
X144319692Y-118309030D01*
X144324760Y-118310061D01*
X144324763Y-118310062D01*
X144402187Y-118325814D01*
X144538597Y-118353567D01*
X144543772Y-118353757D01*
X144543774Y-118353757D01*
X144756673Y-118361564D01*
X144756677Y-118361564D01*
X144761837Y-118361753D01*
X144766957Y-118361097D01*
X144766959Y-118361097D01*
X144978288Y-118334025D01*
X144978289Y-118334025D01*
X144983416Y-118333368D01*
X144988366Y-118331883D01*
X145192429Y-118270661D01*
X145192434Y-118270659D01*
X145197384Y-118269174D01*
X145397994Y-118170896D01*
X145579860Y-118041173D01*
X145738096Y-117883489D01*
X145807608Y-117786753D01*
X145868453Y-117702077D01*
X145869776Y-117703028D01*
X145916645Y-117659857D01*
X145986580Y-117647625D01*
X146052026Y-117675144D01*
X146079875Y-117706994D01*
X146139987Y-117805088D01*
X146286250Y-117973938D01*
X146458126Y-118116632D01*
X146651000Y-118229338D01*
X146859692Y-118309030D01*
X146864760Y-118310061D01*
X146864763Y-118310062D01*
X146942187Y-118325814D01*
X147078597Y-118353567D01*
X147083772Y-118353757D01*
X147083774Y-118353757D01*
X147296673Y-118361564D01*
X147296677Y-118361564D01*
X147301837Y-118361753D01*
X147306957Y-118361097D01*
X147306959Y-118361097D01*
X147518288Y-118334025D01*
X147518289Y-118334025D01*
X147523416Y-118333368D01*
X147528366Y-118331883D01*
X147732429Y-118270661D01*
X147732434Y-118270659D01*
X147737384Y-118269174D01*
X147937994Y-118170896D01*
X148119860Y-118041173D01*
X148278096Y-117883489D01*
X148347608Y-117786753D01*
X148408453Y-117702077D01*
X148409776Y-117703028D01*
X148456645Y-117659857D01*
X148526580Y-117647625D01*
X148592026Y-117675144D01*
X148619875Y-117706994D01*
X148679987Y-117805088D01*
X148826250Y-117973938D01*
X148998126Y-118116632D01*
X149191000Y-118229338D01*
X149399692Y-118309030D01*
X149404760Y-118310061D01*
X149404763Y-118310062D01*
X149482187Y-118325814D01*
X149618597Y-118353567D01*
X149623772Y-118353757D01*
X149623774Y-118353757D01*
X149836673Y-118361564D01*
X149836677Y-118361564D01*
X149841837Y-118361753D01*
X149846957Y-118361097D01*
X149846959Y-118361097D01*
X150058288Y-118334025D01*
X150058289Y-118334025D01*
X150063416Y-118333368D01*
X150068366Y-118331883D01*
X150272429Y-118270661D01*
X150272434Y-118270659D01*
X150277384Y-118269174D01*
X150477994Y-118170896D01*
X150659860Y-118041173D01*
X150818096Y-117883489D01*
X150887608Y-117786753D01*
X150948453Y-117702077D01*
X150949776Y-117703028D01*
X150996645Y-117659857D01*
X151066580Y-117647625D01*
X151132026Y-117675144D01*
X151159875Y-117706994D01*
X151219987Y-117805088D01*
X151366250Y-117973938D01*
X151538126Y-118116632D01*
X151731000Y-118229338D01*
X151939692Y-118309030D01*
X151944760Y-118310061D01*
X151944763Y-118310062D01*
X152022187Y-118325814D01*
X152158597Y-118353567D01*
X152163772Y-118353757D01*
X152163774Y-118353757D01*
X152376673Y-118361564D01*
X152376677Y-118361564D01*
X152381837Y-118361753D01*
X152386957Y-118361097D01*
X152386959Y-118361097D01*
X152598288Y-118334025D01*
X152598289Y-118334025D01*
X152603416Y-118333368D01*
X152608366Y-118331883D01*
X152812429Y-118270661D01*
X152812434Y-118270659D01*
X152817384Y-118269174D01*
X153017994Y-118170896D01*
X153199860Y-118041173D01*
X153358096Y-117883489D01*
X153427608Y-117786753D01*
X153488453Y-117702077D01*
X153489776Y-117703028D01*
X153536645Y-117659857D01*
X153606580Y-117647625D01*
X153672026Y-117675144D01*
X153699875Y-117706994D01*
X153759987Y-117805088D01*
X153906250Y-117973938D01*
X154078126Y-118116632D01*
X154271000Y-118229338D01*
X154479692Y-118309030D01*
X154484760Y-118310061D01*
X154484763Y-118310062D01*
X154562187Y-118325814D01*
X154698597Y-118353567D01*
X154703772Y-118353757D01*
X154703774Y-118353757D01*
X154916673Y-118361564D01*
X154916677Y-118361564D01*
X154921837Y-118361753D01*
X154926957Y-118361097D01*
X154926959Y-118361097D01*
X155138288Y-118334025D01*
X155138289Y-118334025D01*
X155143416Y-118333368D01*
X155148366Y-118331883D01*
X155352429Y-118270661D01*
X155352434Y-118270659D01*
X155357384Y-118269174D01*
X155557994Y-118170896D01*
X155739860Y-118041173D01*
X155898096Y-117883489D01*
X155967608Y-117786753D01*
X156028453Y-117702077D01*
X156029776Y-117703028D01*
X156076645Y-117659857D01*
X156146580Y-117647625D01*
X156212026Y-117675144D01*
X156239875Y-117706994D01*
X156299987Y-117805088D01*
X156446250Y-117973938D01*
X156618126Y-118116632D01*
X156811000Y-118229338D01*
X157019692Y-118309030D01*
X157024760Y-118310061D01*
X157024763Y-118310062D01*
X157102187Y-118325814D01*
X157238597Y-118353567D01*
X157243772Y-118353757D01*
X157243774Y-118353757D01*
X157456673Y-118361564D01*
X157456677Y-118361564D01*
X157461837Y-118361753D01*
X157466957Y-118361097D01*
X157466959Y-118361097D01*
X157678288Y-118334025D01*
X157678289Y-118334025D01*
X157683416Y-118333368D01*
X157688366Y-118331883D01*
X157892429Y-118270661D01*
X157892434Y-118270659D01*
X157897384Y-118269174D01*
X158097994Y-118170896D01*
X158279860Y-118041173D01*
X158438096Y-117883489D01*
X158507608Y-117786753D01*
X158565435Y-117706277D01*
X158568453Y-117702077D01*
X158575784Y-117687245D01*
X158665136Y-117506453D01*
X158665137Y-117506451D01*
X158667430Y-117501811D01*
X158732370Y-117288069D01*
X158761529Y-117066590D01*
X158761611Y-117063240D01*
X158763074Y-117003365D01*
X158763074Y-117003361D01*
X158763156Y-117000000D01*
X158744852Y-116777361D01*
X158690431Y-116560702D01*
X158616944Y-116391695D01*
X187247251Y-116391695D01*
X187247548Y-116396848D01*
X187247548Y-116396851D01*
X187253011Y-116491590D01*
X187260110Y-116614715D01*
X187261247Y-116619761D01*
X187261248Y-116619767D01*
X187281119Y-116707939D01*
X187309222Y-116832639D01*
X187393266Y-117039616D01*
X187509987Y-117230088D01*
X187656250Y-117398938D01*
X187828126Y-117541632D01*
X187901955Y-117584774D01*
X187950679Y-117636412D01*
X187963750Y-117706195D01*
X187937019Y-117771967D01*
X187896562Y-117805327D01*
X187888457Y-117809546D01*
X187879738Y-117815036D01*
X187709433Y-117942905D01*
X187701726Y-117949748D01*
X187554590Y-118103717D01*
X187548104Y-118111727D01*
X187428098Y-118287649D01*
X187423000Y-118296623D01*
X187333338Y-118489783D01*
X187329775Y-118499470D01*
X187274389Y-118699183D01*
X187275912Y-118707607D01*
X187288292Y-118711000D01*
X189928344Y-118711000D01*
X189941875Y-118707027D01*
X189943180Y-118697947D01*
X189901214Y-118530875D01*
X189897894Y-118521124D01*
X189812972Y-118325814D01*
X189808105Y-118316739D01*
X189692426Y-118137926D01*
X189686136Y-118129757D01*
X189542806Y-117972240D01*
X189535273Y-117965215D01*
X189368139Y-117833222D01*
X189359556Y-117827520D01*
X189322602Y-117807120D01*
X189272631Y-117756687D01*
X189257859Y-117687245D01*
X189282975Y-117620839D01*
X189310327Y-117594232D01*
X189333797Y-117577491D01*
X189489860Y-117466173D01*
X189648096Y-117308489D01*
X189659210Y-117293023D01*
X189775435Y-117131277D01*
X189778453Y-117127077D01*
X189808348Y-117066590D01*
X189875136Y-116931453D01*
X189875137Y-116931451D01*
X189877430Y-116926811D01*
X189909900Y-116819940D01*
X189940865Y-116718023D01*
X189940865Y-116718021D01*
X189942370Y-116713069D01*
X189971529Y-116491590D01*
X189971611Y-116488240D01*
X189973074Y-116428365D01*
X189973074Y-116428361D01*
X189973156Y-116425000D01*
X189954852Y-116202361D01*
X189900431Y-115985702D01*
X189811354Y-115780840D01*
X189762429Y-115705214D01*
X189692822Y-115597617D01*
X189692820Y-115597614D01*
X189690014Y-115593277D01*
X189539670Y-115428051D01*
X189535619Y-115424852D01*
X189535615Y-115424848D01*
X189368414Y-115292800D01*
X189368410Y-115292798D01*
X189364359Y-115289598D01*
X189323053Y-115266796D01*
X189273084Y-115216364D01*
X189258312Y-115146921D01*
X189283428Y-115080516D01*
X189310780Y-115053909D01*
X189364462Y-115015618D01*
X189489860Y-114926173D01*
X189648096Y-114768489D01*
X189707594Y-114685689D01*
X189775435Y-114591277D01*
X189778453Y-114587077D01*
X189783731Y-114576399D01*
X189875136Y-114391453D01*
X189875137Y-114391451D01*
X189877430Y-114386811D01*
X189942370Y-114173069D01*
X189971529Y-113951590D01*
X189972807Y-113899301D01*
X189973074Y-113888365D01*
X189973074Y-113888361D01*
X189973156Y-113885000D01*
X189954852Y-113662361D01*
X189900431Y-113445702D01*
X189811354Y-113240840D01*
X189690014Y-113053277D01*
X189539670Y-112888051D01*
X189535619Y-112884852D01*
X189535615Y-112884848D01*
X189368414Y-112752800D01*
X189368410Y-112752798D01*
X189364359Y-112749598D01*
X189322569Y-112726529D01*
X189272598Y-112676097D01*
X189257826Y-112606654D01*
X189282942Y-112540248D01*
X189310294Y-112513641D01*
X189485328Y-112388792D01*
X189493200Y-112382139D01*
X189644052Y-112231812D01*
X189650730Y-112223965D01*
X189775003Y-112051020D01*
X189780313Y-112042183D01*
X189874670Y-111851267D01*
X189878469Y-111841672D01*
X189940377Y-111637910D01*
X189942555Y-111627837D01*
X189943986Y-111616962D01*
X189941775Y-111602778D01*
X189928617Y-111599000D01*
X187293225Y-111599000D01*
X187279694Y-111602973D01*
X187278257Y-111612966D01*
X187308565Y-111747446D01*
X187311645Y-111757275D01*
X187391770Y-111954603D01*
X187396413Y-111963794D01*
X187507694Y-112145388D01*
X187513777Y-112153699D01*
X187653213Y-112314667D01*
X187660580Y-112321883D01*
X187824434Y-112457916D01*
X187832881Y-112463831D01*
X187901969Y-112504203D01*
X187950693Y-112555842D01*
X187963764Y-112625625D01*
X187937033Y-112691396D01*
X187896584Y-112724752D01*
X187883607Y-112731507D01*
X187879474Y-112734610D01*
X187879471Y-112734612D01*
X187855247Y-112752800D01*
X187704965Y-112865635D01*
X187550629Y-113027138D01*
X187424743Y-113211680D01*
X187399277Y-113266543D01*
X187350322Y-113372008D01*
X187330688Y-113414305D01*
X187270989Y-113629570D01*
X187247251Y-113851695D01*
X187247548Y-113856848D01*
X187247548Y-113856851D01*
X187253011Y-113951590D01*
X187260110Y-114074715D01*
X187261247Y-114079761D01*
X187261248Y-114079767D01*
X187270721Y-114121799D01*
X187309222Y-114292639D01*
X187347461Y-114386811D01*
X187381678Y-114471077D01*
X187393266Y-114499616D01*
X187395965Y-114504020D01*
X187503078Y-114678813D01*
X187509987Y-114690088D01*
X187656250Y-114858938D01*
X187828126Y-115001632D01*
X187860463Y-115020528D01*
X187901445Y-115044476D01*
X187950169Y-115096114D01*
X187963240Y-115165897D01*
X187936509Y-115231669D01*
X187896055Y-115265027D01*
X187883607Y-115271507D01*
X187879474Y-115274610D01*
X187879471Y-115274612D01*
X187709100Y-115402530D01*
X187704965Y-115405635D01*
X187550629Y-115567138D01*
X187547715Y-115571410D01*
X187547714Y-115571411D01*
X187465367Y-115692127D01*
X187424743Y-115751680D01*
X187330688Y-115954305D01*
X187270989Y-116169570D01*
X187247251Y-116391695D01*
X158616944Y-116391695D01*
X158601354Y-116355840D01*
X158505403Y-116207522D01*
X158482822Y-116172617D01*
X158482820Y-116172614D01*
X158480014Y-116168277D01*
X158329670Y-116003051D01*
X158325619Y-115999852D01*
X158325615Y-115999848D01*
X158158414Y-115867800D01*
X158158410Y-115867798D01*
X158154359Y-115864598D01*
X158118028Y-115844542D01*
X158036225Y-115799385D01*
X157958789Y-115756638D01*
X157953920Y-115754914D01*
X157953916Y-115754912D01*
X157753087Y-115683795D01*
X157753083Y-115683794D01*
X157748212Y-115682069D01*
X157743119Y-115681162D01*
X157743116Y-115681161D01*
X157533373Y-115643800D01*
X157533367Y-115643799D01*
X157528284Y-115642894D01*
X157454452Y-115641992D01*
X157310081Y-115640228D01*
X157310079Y-115640228D01*
X157304911Y-115640165D01*
X157084091Y-115673955D01*
X156871756Y-115743357D01*
X156673607Y-115846507D01*
X156669474Y-115849610D01*
X156669471Y-115849612D01*
X156499100Y-115977530D01*
X156494965Y-115980635D01*
X156340629Y-116142138D01*
X156233201Y-116299621D01*
X156178293Y-116344621D01*
X156107768Y-116352792D01*
X156044021Y-116321538D01*
X156023324Y-116297054D01*
X155942822Y-116172617D01*
X155942820Y-116172614D01*
X155940014Y-116168277D01*
X155789670Y-116003051D01*
X155785619Y-115999852D01*
X155785615Y-115999848D01*
X155618414Y-115867800D01*
X155618410Y-115867798D01*
X155614359Y-115864598D01*
X155578028Y-115844542D01*
X155496225Y-115799385D01*
X155418789Y-115756638D01*
X155413920Y-115754914D01*
X155413916Y-115754912D01*
X155213087Y-115683795D01*
X155213083Y-115683794D01*
X155208212Y-115682069D01*
X155203119Y-115681162D01*
X155203116Y-115681161D01*
X154993373Y-115643800D01*
X154993367Y-115643799D01*
X154988284Y-115642894D01*
X154914452Y-115641992D01*
X154770081Y-115640228D01*
X154770079Y-115640228D01*
X154764911Y-115640165D01*
X154544091Y-115673955D01*
X154331756Y-115743357D01*
X154133607Y-115846507D01*
X154129474Y-115849610D01*
X154129471Y-115849612D01*
X153959100Y-115977530D01*
X153954965Y-115980635D01*
X153800629Y-116142138D01*
X153693201Y-116299621D01*
X153638293Y-116344621D01*
X153567768Y-116352792D01*
X153504021Y-116321538D01*
X153483324Y-116297054D01*
X153402822Y-116172617D01*
X153402820Y-116172614D01*
X153400014Y-116168277D01*
X153249670Y-116003051D01*
X153245619Y-115999852D01*
X153245615Y-115999848D01*
X153078414Y-115867800D01*
X153078410Y-115867798D01*
X153074359Y-115864598D01*
X153038028Y-115844542D01*
X152956225Y-115799385D01*
X152878789Y-115756638D01*
X152873920Y-115754914D01*
X152873916Y-115754912D01*
X152673087Y-115683795D01*
X152673083Y-115683794D01*
X152668212Y-115682069D01*
X152663119Y-115681162D01*
X152663116Y-115681161D01*
X152453373Y-115643800D01*
X152453367Y-115643799D01*
X152448284Y-115642894D01*
X152374452Y-115641992D01*
X152230081Y-115640228D01*
X152230079Y-115640228D01*
X152224911Y-115640165D01*
X152004091Y-115673955D01*
X151791756Y-115743357D01*
X151593607Y-115846507D01*
X151589474Y-115849610D01*
X151589471Y-115849612D01*
X151419100Y-115977530D01*
X151414965Y-115980635D01*
X151260629Y-116142138D01*
X151153201Y-116299621D01*
X151098293Y-116344621D01*
X151027768Y-116352792D01*
X150964021Y-116321538D01*
X150943324Y-116297054D01*
X150862822Y-116172617D01*
X150862820Y-116172614D01*
X150860014Y-116168277D01*
X150709670Y-116003051D01*
X150705619Y-115999852D01*
X150705615Y-115999848D01*
X150538414Y-115867800D01*
X150538410Y-115867798D01*
X150534359Y-115864598D01*
X150498028Y-115844542D01*
X150416225Y-115799385D01*
X150338789Y-115756638D01*
X150333915Y-115754912D01*
X150333913Y-115754911D01*
X150298051Y-115742212D01*
X150287639Y-115738525D01*
X150230102Y-115696932D01*
X150204186Y-115630834D01*
X150218119Y-115561218D01*
X150240603Y-115530657D01*
X156999564Y-108771695D01*
X187247251Y-108771695D01*
X187247548Y-108776848D01*
X187247548Y-108776851D01*
X187253011Y-108871590D01*
X187260110Y-108994715D01*
X187261247Y-108999761D01*
X187261248Y-108999767D01*
X187271762Y-109046419D01*
X187309222Y-109212639D01*
X187393266Y-109419616D01*
X187509987Y-109610088D01*
X187656250Y-109778938D01*
X187828126Y-109921632D01*
X187901955Y-109964774D01*
X187950679Y-110016412D01*
X187963750Y-110086195D01*
X187937019Y-110151967D01*
X187896562Y-110185327D01*
X187888457Y-110189546D01*
X187879738Y-110195036D01*
X187709433Y-110322905D01*
X187701726Y-110329748D01*
X187554590Y-110483717D01*
X187548104Y-110491727D01*
X187428098Y-110667649D01*
X187423000Y-110676623D01*
X187333338Y-110869783D01*
X187329775Y-110879470D01*
X187274389Y-111079183D01*
X187275912Y-111087607D01*
X187288292Y-111091000D01*
X189928344Y-111091000D01*
X189941875Y-111087027D01*
X189943180Y-111077947D01*
X189901214Y-110910875D01*
X189897894Y-110901124D01*
X189812972Y-110705814D01*
X189808105Y-110696739D01*
X189692426Y-110517926D01*
X189686136Y-110509757D01*
X189542806Y-110352240D01*
X189535273Y-110345215D01*
X189368139Y-110213222D01*
X189359556Y-110207520D01*
X189322602Y-110187120D01*
X189272631Y-110136687D01*
X189257859Y-110067245D01*
X189282975Y-110000839D01*
X189310327Y-109974232D01*
X189333797Y-109957491D01*
X189489860Y-109846173D01*
X189648096Y-109688489D01*
X189707594Y-109605689D01*
X189775435Y-109511277D01*
X189778453Y-109507077D01*
X189811547Y-109440117D01*
X189875136Y-109311453D01*
X189875137Y-109311451D01*
X189877430Y-109306811D01*
X189942370Y-109093069D01*
X189971529Y-108871590D01*
X189973156Y-108805000D01*
X189954852Y-108582361D01*
X189900431Y-108365702D01*
X189811354Y-108160840D01*
X189690014Y-107973277D01*
X189539670Y-107808051D01*
X189535619Y-107804852D01*
X189535615Y-107804848D01*
X189368414Y-107672800D01*
X189368410Y-107672798D01*
X189364359Y-107669598D01*
X189323053Y-107646796D01*
X189273084Y-107596364D01*
X189258312Y-107526921D01*
X189283428Y-107460516D01*
X189310780Y-107433909D01*
X189354603Y-107402650D01*
X189489860Y-107306173D01*
X189648096Y-107148489D01*
X189673771Y-107112759D01*
X189775435Y-106971277D01*
X189778453Y-106967077D01*
X189787062Y-106949659D01*
X189875136Y-106771453D01*
X189875137Y-106771451D01*
X189877430Y-106766811D01*
X189929060Y-106596876D01*
X189940865Y-106558023D01*
X189940865Y-106558021D01*
X189942370Y-106553069D01*
X189971529Y-106331590D01*
X189973156Y-106265000D01*
X189954852Y-106042361D01*
X189900431Y-105825702D01*
X189811354Y-105620840D01*
X189736257Y-105504757D01*
X189692822Y-105437617D01*
X189692820Y-105437614D01*
X189690014Y-105433277D01*
X189539670Y-105268051D01*
X189535619Y-105264852D01*
X189535615Y-105264848D01*
X189368414Y-105132800D01*
X189368410Y-105132798D01*
X189364359Y-105129598D01*
X189322569Y-105106529D01*
X189272598Y-105056097D01*
X189257826Y-104986654D01*
X189282942Y-104920248D01*
X189310294Y-104893641D01*
X189485328Y-104768792D01*
X189493200Y-104762139D01*
X189644052Y-104611812D01*
X189650730Y-104603965D01*
X189775003Y-104431020D01*
X189780313Y-104422183D01*
X189874670Y-104231267D01*
X189878469Y-104221672D01*
X189940377Y-104017910D01*
X189942555Y-104007837D01*
X189943986Y-103996962D01*
X189941775Y-103982778D01*
X189928617Y-103979000D01*
X187293225Y-103979000D01*
X187279694Y-103982973D01*
X187278257Y-103992966D01*
X187308565Y-104127446D01*
X187311645Y-104137275D01*
X187391770Y-104334603D01*
X187396413Y-104343794D01*
X187507694Y-104525388D01*
X187513777Y-104533699D01*
X187653213Y-104694667D01*
X187660580Y-104701883D01*
X187824434Y-104837916D01*
X187832881Y-104843831D01*
X187901969Y-104884203D01*
X187950693Y-104935842D01*
X187963764Y-105005625D01*
X187937033Y-105071396D01*
X187896584Y-105104752D01*
X187883607Y-105111507D01*
X187879474Y-105114610D01*
X187879471Y-105114612D01*
X187709100Y-105242530D01*
X187704965Y-105245635D01*
X187550629Y-105407138D01*
X187547715Y-105411410D01*
X187547714Y-105411411D01*
X187478676Y-105512617D01*
X187424743Y-105591680D01*
X187330688Y-105794305D01*
X187270989Y-106009570D01*
X187247251Y-106231695D01*
X187247548Y-106236848D01*
X187247548Y-106236851D01*
X187253011Y-106331590D01*
X187260110Y-106454715D01*
X187261247Y-106459761D01*
X187261248Y-106459767D01*
X187277012Y-106529715D01*
X187309222Y-106672639D01*
X187370673Y-106823976D01*
X187375904Y-106836857D01*
X187393266Y-106879616D01*
X187402412Y-106894541D01*
X187495396Y-107046277D01*
X187509987Y-107070088D01*
X187656250Y-107238938D01*
X187828126Y-107381632D01*
X187898595Y-107422811D01*
X187901445Y-107424476D01*
X187950169Y-107476114D01*
X187963240Y-107545897D01*
X187936509Y-107611669D01*
X187896055Y-107645027D01*
X187883607Y-107651507D01*
X187879474Y-107654610D01*
X187879471Y-107654612D01*
X187709100Y-107782530D01*
X187704965Y-107785635D01*
X187550629Y-107947138D01*
X187424743Y-108131680D01*
X187330688Y-108334305D01*
X187270989Y-108549570D01*
X187247251Y-108771695D01*
X156999564Y-108771695D01*
X158073927Y-107697332D01*
X158136239Y-107663306D01*
X158188140Y-107662956D01*
X158338597Y-107693567D01*
X158343773Y-107693757D01*
X158343775Y-107693757D01*
X158556673Y-107701564D01*
X158556677Y-107701564D01*
X158561837Y-107701753D01*
X158566957Y-107701097D01*
X158566959Y-107701097D01*
X158778288Y-107674025D01*
X158778289Y-107674025D01*
X158783416Y-107673368D01*
X158804295Y-107667104D01*
X158992429Y-107610661D01*
X158992434Y-107610659D01*
X158997384Y-107609174D01*
X159197994Y-107510896D01*
X159379860Y-107381173D01*
X159414400Y-107346754D01*
X159522593Y-107238938D01*
X159538096Y-107223489D01*
X159595005Y-107144292D01*
X159665435Y-107046277D01*
X159668453Y-107042077D01*
X159703445Y-106971277D01*
X159765136Y-106846453D01*
X159765137Y-106846451D01*
X159767430Y-106841811D01*
X159815743Y-106682796D01*
X159830865Y-106633023D01*
X159830865Y-106633021D01*
X159832370Y-106628069D01*
X159861529Y-106406590D01*
X159862164Y-106380590D01*
X159863074Y-106343365D01*
X159863074Y-106343361D01*
X159863156Y-106340000D01*
X159844852Y-106117361D01*
X159790431Y-105900702D01*
X159701354Y-105695840D01*
X159652834Y-105620840D01*
X159582822Y-105512617D01*
X159582820Y-105512614D01*
X159580014Y-105508277D01*
X159429670Y-105343051D01*
X159425619Y-105339852D01*
X159425615Y-105339848D01*
X159258414Y-105207800D01*
X159258410Y-105207798D01*
X159254359Y-105204598D01*
X159058789Y-105096638D01*
X159053920Y-105094914D01*
X159053916Y-105094912D01*
X158926173Y-105049676D01*
X158868637Y-105008082D01*
X158842721Y-104941984D01*
X158856655Y-104872368D01*
X158880872Y-104842189D01*
X158879860Y-104841173D01*
X158959171Y-104762139D01*
X159038096Y-104683489D01*
X159095240Y-104603965D01*
X159165435Y-104506277D01*
X159168453Y-104502077D01*
X159203572Y-104431020D01*
X159265136Y-104306453D01*
X159265137Y-104306451D01*
X159267430Y-104301811D01*
X159274840Y-104277422D01*
X159306303Y-104224957D01*
X160107605Y-103423655D01*
X160116385Y-103415665D01*
X160116387Y-103415663D01*
X160123080Y-103411416D01*
X160171605Y-103359742D01*
X160174359Y-103356901D01*
X160194927Y-103336333D01*
X160197647Y-103332826D01*
X160205353Y-103323804D01*
X160231544Y-103295913D01*
X160236972Y-103290133D01*
X160241925Y-103281124D01*
X160247303Y-103271342D01*
X160258157Y-103254818D01*
X160266443Y-103244135D01*
X160266444Y-103244134D01*
X160271304Y-103237868D01*
X160289654Y-103195464D01*
X160294869Y-103184819D01*
X160317124Y-103144337D01*
X160319094Y-103136663D01*
X160319097Y-103136656D01*
X160322455Y-103123574D01*
X160328861Y-103104862D01*
X160334233Y-103092448D01*
X160337380Y-103085177D01*
X160338717Y-103076739D01*
X160342501Y-103052841D01*
X160344608Y-103039541D01*
X160347012Y-103027930D01*
X160358500Y-102983188D01*
X160358500Y-102961742D01*
X160360051Y-102942032D01*
X160362166Y-102928678D01*
X160362166Y-102928677D01*
X160363406Y-102920848D01*
X160359059Y-102874859D01*
X160358500Y-102863004D01*
X160358500Y-101151695D01*
X187247251Y-101151695D01*
X187247548Y-101156848D01*
X187247548Y-101156851D01*
X187253011Y-101251590D01*
X187260110Y-101374715D01*
X187261247Y-101379761D01*
X187261248Y-101379767D01*
X187277012Y-101449715D01*
X187309222Y-101592639D01*
X187347461Y-101686811D01*
X187385687Y-101780950D01*
X187393266Y-101799616D01*
X187395965Y-101804020D01*
X187476213Y-101934973D01*
X187509987Y-101990088D01*
X187656250Y-102158938D01*
X187828126Y-102301632D01*
X187901955Y-102344774D01*
X187950679Y-102396412D01*
X187963750Y-102466195D01*
X187937019Y-102531967D01*
X187896562Y-102565327D01*
X187888457Y-102569546D01*
X187879738Y-102575036D01*
X187709433Y-102702905D01*
X187701726Y-102709748D01*
X187554590Y-102863717D01*
X187548104Y-102871727D01*
X187428098Y-103047649D01*
X187423000Y-103056623D01*
X187333338Y-103249783D01*
X187329775Y-103259470D01*
X187274389Y-103459183D01*
X187275912Y-103467607D01*
X187288292Y-103471000D01*
X189928344Y-103471000D01*
X189941875Y-103467027D01*
X189943180Y-103457947D01*
X189901214Y-103290875D01*
X189897894Y-103281124D01*
X189812972Y-103085814D01*
X189808105Y-103076739D01*
X189692426Y-102897926D01*
X189686136Y-102889757D01*
X189542806Y-102732240D01*
X189535273Y-102725215D01*
X189368139Y-102593222D01*
X189359556Y-102587520D01*
X189322602Y-102567120D01*
X189272631Y-102516687D01*
X189257859Y-102447245D01*
X189282975Y-102380839D01*
X189310327Y-102354232D01*
X189333797Y-102337491D01*
X189489860Y-102226173D01*
X189493707Y-102222340D01*
X189644435Y-102072137D01*
X189648096Y-102068489D01*
X189707594Y-101985689D01*
X189775435Y-101891277D01*
X189778453Y-101887077D01*
X189825256Y-101792379D01*
X189875136Y-101691453D01*
X189875137Y-101691451D01*
X189877430Y-101686811D01*
X189942370Y-101473069D01*
X189971529Y-101251590D01*
X189973156Y-101185000D01*
X189954852Y-100962361D01*
X189900431Y-100745702D01*
X189811354Y-100540840D01*
X189717243Y-100395366D01*
X189692822Y-100357617D01*
X189692820Y-100357614D01*
X189690014Y-100353277D01*
X189539670Y-100188051D01*
X189535619Y-100184852D01*
X189535615Y-100184848D01*
X189368414Y-100052800D01*
X189368410Y-100052798D01*
X189364359Y-100049598D01*
X189323053Y-100026796D01*
X189273084Y-99976364D01*
X189258312Y-99906921D01*
X189283428Y-99840516D01*
X189310780Y-99813909D01*
X189361204Y-99777942D01*
X189489860Y-99686173D01*
X189522956Y-99653193D01*
X189593261Y-99583133D01*
X189648096Y-99528489D01*
X189652842Y-99521885D01*
X189775435Y-99351277D01*
X189778453Y-99347077D01*
X189782875Y-99338131D01*
X189875136Y-99151453D01*
X189875137Y-99151451D01*
X189877430Y-99146811D01*
X189942370Y-98933069D01*
X189971529Y-98711590D01*
X189973156Y-98645000D01*
X189954852Y-98422361D01*
X189900431Y-98205702D01*
X189811354Y-98000840D01*
X189690014Y-97813277D01*
X189539670Y-97648051D01*
X189535619Y-97644852D01*
X189535615Y-97644848D01*
X189368414Y-97512800D01*
X189368410Y-97512798D01*
X189364359Y-97509598D01*
X189322569Y-97486529D01*
X189272598Y-97436097D01*
X189257826Y-97366654D01*
X189282942Y-97300248D01*
X189310294Y-97273641D01*
X189485328Y-97148792D01*
X189493200Y-97142139D01*
X189644052Y-96991812D01*
X189650730Y-96983965D01*
X189775003Y-96811020D01*
X189780313Y-96802183D01*
X189874670Y-96611267D01*
X189878469Y-96601672D01*
X189940377Y-96397910D01*
X189942555Y-96387837D01*
X189943986Y-96376962D01*
X189941775Y-96362778D01*
X189928617Y-96359000D01*
X187293225Y-96359000D01*
X187279694Y-96362973D01*
X187278257Y-96372966D01*
X187308565Y-96507446D01*
X187311645Y-96517275D01*
X187391770Y-96714603D01*
X187396413Y-96723794D01*
X187507694Y-96905388D01*
X187513777Y-96913699D01*
X187653213Y-97074667D01*
X187660580Y-97081883D01*
X187824434Y-97217916D01*
X187832881Y-97223831D01*
X187901969Y-97264203D01*
X187950693Y-97315842D01*
X187963764Y-97385625D01*
X187937033Y-97451396D01*
X187896584Y-97484752D01*
X187883607Y-97491507D01*
X187879474Y-97494610D01*
X187879471Y-97494612D01*
X187711889Y-97620436D01*
X187704965Y-97625635D01*
X187550629Y-97787138D01*
X187424743Y-97971680D01*
X187330688Y-98174305D01*
X187270989Y-98389570D01*
X187247251Y-98611695D01*
X187247548Y-98616848D01*
X187247548Y-98616851D01*
X187253011Y-98711590D01*
X187260110Y-98834715D01*
X187261247Y-98839761D01*
X187261248Y-98839767D01*
X187272635Y-98890293D01*
X187309222Y-99052639D01*
X187347461Y-99146811D01*
X187388866Y-99248779D01*
X187393266Y-99259616D01*
X187395965Y-99264020D01*
X187484123Y-99407881D01*
X187509987Y-99450088D01*
X187656250Y-99618938D01*
X187828126Y-99761632D01*
X187875957Y-99789582D01*
X187901445Y-99804476D01*
X187950169Y-99856114D01*
X187963240Y-99925897D01*
X187936509Y-99991669D01*
X187896055Y-100025027D01*
X187883607Y-100031507D01*
X187879474Y-100034610D01*
X187879471Y-100034612D01*
X187752161Y-100130199D01*
X187704965Y-100165635D01*
X187550629Y-100327138D01*
X187547715Y-100331410D01*
X187547714Y-100331411D01*
X187517404Y-100375844D01*
X187424743Y-100511680D01*
X187409003Y-100545590D01*
X187337160Y-100700363D01*
X187330688Y-100714305D01*
X187270989Y-100929570D01*
X187247251Y-101151695D01*
X160358500Y-101151695D01*
X160358500Y-100142059D01*
X160359059Y-100130203D01*
X160360789Y-100122463D01*
X160360288Y-100106507D01*
X160358562Y-100051611D01*
X160358500Y-100047653D01*
X160358500Y-100018568D01*
X160357946Y-100014179D01*
X160357013Y-100002337D01*
X160357005Y-100002066D01*
X160355562Y-99956169D01*
X160349580Y-99935579D01*
X160345570Y-99916216D01*
X160343875Y-99902796D01*
X160343875Y-99902795D01*
X160342882Y-99894936D01*
X160339966Y-99887571D01*
X160339965Y-99887567D01*
X160325874Y-99851979D01*
X160322035Y-99840769D01*
X160309145Y-99796400D01*
X160298225Y-99777935D01*
X160289534Y-99760195D01*
X160281635Y-99740244D01*
X160254482Y-99702871D01*
X160247967Y-99692952D01*
X160228493Y-99660023D01*
X160228490Y-99660019D01*
X160224453Y-99653193D01*
X160209289Y-99638029D01*
X160196448Y-99622995D01*
X160183841Y-99605643D01*
X160148247Y-99576197D01*
X160139468Y-99568208D01*
X155111206Y-94539946D01*
X155077180Y-94477634D01*
X155082245Y-94406819D01*
X155124792Y-94349983D01*
X155164093Y-94330165D01*
X155362429Y-94270661D01*
X155362434Y-94270659D01*
X155367384Y-94269174D01*
X155567994Y-94170896D01*
X155749860Y-94041173D01*
X155908096Y-93883489D01*
X155932663Y-93849301D01*
X156038453Y-93702077D01*
X156039776Y-93703028D01*
X156086645Y-93659857D01*
X156156580Y-93647625D01*
X156222026Y-93675144D01*
X156249875Y-93706994D01*
X156309987Y-93805088D01*
X156456250Y-93973938D01*
X156628126Y-94116632D01*
X156821000Y-94229338D01*
X157029692Y-94309030D01*
X157034760Y-94310061D01*
X157034763Y-94310062D01*
X157130875Y-94329616D01*
X157248597Y-94353567D01*
X157253772Y-94353757D01*
X157253774Y-94353757D01*
X157466673Y-94361564D01*
X157466677Y-94361564D01*
X157471837Y-94361753D01*
X157476957Y-94361097D01*
X157476959Y-94361097D01*
X157688288Y-94334025D01*
X157688289Y-94334025D01*
X157693416Y-94333368D01*
X157714025Y-94327185D01*
X157902429Y-94270661D01*
X157902434Y-94270659D01*
X157907384Y-94269174D01*
X158107994Y-94170896D01*
X158289860Y-94041173D01*
X158448096Y-93883489D01*
X158472663Y-93849301D01*
X158575435Y-93706277D01*
X158578453Y-93702077D01*
X158599320Y-93659857D01*
X158662661Y-93531695D01*
X187247251Y-93531695D01*
X187247548Y-93536848D01*
X187247548Y-93536851D01*
X187255347Y-93672113D01*
X187260110Y-93754715D01*
X187261247Y-93759761D01*
X187261248Y-93759767D01*
X187279252Y-93839654D01*
X187309222Y-93972639D01*
X187359600Y-94096705D01*
X187383647Y-94155926D01*
X187393266Y-94179616D01*
X187422138Y-94226731D01*
X187504987Y-94361928D01*
X187509987Y-94370088D01*
X187656250Y-94538938D01*
X187828126Y-94681632D01*
X187901955Y-94724774D01*
X187950679Y-94776412D01*
X187963750Y-94846195D01*
X187937019Y-94911967D01*
X187896562Y-94945327D01*
X187888457Y-94949546D01*
X187879738Y-94955036D01*
X187709433Y-95082905D01*
X187701726Y-95089748D01*
X187554590Y-95243717D01*
X187548104Y-95251727D01*
X187428098Y-95427649D01*
X187423000Y-95436623D01*
X187333338Y-95629783D01*
X187329775Y-95639470D01*
X187274389Y-95839183D01*
X187275912Y-95847607D01*
X187288292Y-95851000D01*
X189928344Y-95851000D01*
X189941875Y-95847027D01*
X189943180Y-95837947D01*
X189901214Y-95670875D01*
X189897894Y-95661124D01*
X189812972Y-95465814D01*
X189808105Y-95456739D01*
X189692426Y-95277926D01*
X189686136Y-95269757D01*
X189542806Y-95112240D01*
X189535273Y-95105215D01*
X189368139Y-94973222D01*
X189359556Y-94967520D01*
X189322602Y-94947120D01*
X189272631Y-94896687D01*
X189257859Y-94827245D01*
X189282975Y-94760839D01*
X189310327Y-94734232D01*
X189333797Y-94717491D01*
X189489860Y-94606173D01*
X189648096Y-94448489D01*
X189707594Y-94365689D01*
X189775435Y-94271277D01*
X189778453Y-94267077D01*
X189782017Y-94259867D01*
X189875136Y-94071453D01*
X189875137Y-94071451D01*
X189877430Y-94066811D01*
X189912173Y-93952460D01*
X189940865Y-93858023D01*
X189940865Y-93858021D01*
X189942370Y-93853069D01*
X189971529Y-93631590D01*
X189973156Y-93565000D01*
X189954852Y-93342361D01*
X189900431Y-93125702D01*
X189811354Y-92920840D01*
X189716989Y-92774974D01*
X189692822Y-92737617D01*
X189692820Y-92737614D01*
X189690014Y-92733277D01*
X189686532Y-92729450D01*
X189542798Y-92571488D01*
X189511746Y-92507642D01*
X189520141Y-92437143D01*
X189565317Y-92382375D01*
X189591761Y-92368706D01*
X189698297Y-92328767D01*
X189706705Y-92325615D01*
X189823261Y-92238261D01*
X189910615Y-92121705D01*
X189961745Y-91985316D01*
X189968500Y-91923134D01*
X189968500Y-90126866D01*
X189961745Y-90064684D01*
X189910615Y-89928295D01*
X189823261Y-89811739D01*
X189706705Y-89724385D01*
X189570316Y-89673255D01*
X189508134Y-89666500D01*
X187711866Y-89666500D01*
X187649684Y-89673255D01*
X187513295Y-89724385D01*
X187396739Y-89811739D01*
X187309385Y-89928295D01*
X187258255Y-90064684D01*
X187251500Y-90126866D01*
X187251500Y-91923134D01*
X187258255Y-91985316D01*
X187309385Y-92121705D01*
X187396739Y-92238261D01*
X187513295Y-92325615D01*
X187521704Y-92328767D01*
X187521705Y-92328768D01*
X187630451Y-92369535D01*
X187687216Y-92412176D01*
X187711916Y-92478738D01*
X187696709Y-92548087D01*
X187677316Y-92574568D01*
X187550629Y-92707138D01*
X187547715Y-92711410D01*
X187547714Y-92711411D01*
X187468494Y-92827544D01*
X187424743Y-92891680D01*
X187409003Y-92925590D01*
X187335552Y-93083827D01*
X187330688Y-93094305D01*
X187270989Y-93309570D01*
X187247251Y-93531695D01*
X158662661Y-93531695D01*
X158675136Y-93506453D01*
X158675137Y-93506451D01*
X158677430Y-93501811D01*
X158734277Y-93314707D01*
X158740865Y-93293023D01*
X158740865Y-93293021D01*
X158742370Y-93288069D01*
X158771529Y-93066590D01*
X158772331Y-93033779D01*
X158773074Y-93003365D01*
X158773074Y-93003361D01*
X158773156Y-93000000D01*
X158754852Y-92777361D01*
X158700431Y-92560702D01*
X158611354Y-92355840D01*
X158568551Y-92289677D01*
X158492822Y-92172617D01*
X158492820Y-92172614D01*
X158490014Y-92168277D01*
X158339670Y-92003051D01*
X158335619Y-91999852D01*
X158335615Y-91999848D01*
X158168414Y-91867800D01*
X158168410Y-91867798D01*
X158164359Y-91864598D01*
X157968789Y-91756638D01*
X157963920Y-91754914D01*
X157963916Y-91754912D01*
X157763087Y-91683795D01*
X157763083Y-91683794D01*
X157758212Y-91682069D01*
X157753119Y-91681162D01*
X157753116Y-91681161D01*
X157543373Y-91643800D01*
X157543367Y-91643799D01*
X157538284Y-91642894D01*
X157464452Y-91641992D01*
X157320081Y-91640228D01*
X157320079Y-91640228D01*
X157314911Y-91640165D01*
X157094091Y-91673955D01*
X156881756Y-91743357D01*
X156683607Y-91846507D01*
X156679474Y-91849610D01*
X156679471Y-91849612D01*
X156509100Y-91977530D01*
X156504965Y-91980635D01*
X156501393Y-91984373D01*
X156393729Y-92097037D01*
X156350629Y-92142138D01*
X156243201Y-92299621D01*
X156188293Y-92344621D01*
X156117768Y-92352792D01*
X156054021Y-92321538D01*
X156033324Y-92297054D01*
X155952822Y-92172617D01*
X155952820Y-92172614D01*
X155950014Y-92168277D01*
X155799670Y-92003051D01*
X155795619Y-91999852D01*
X155795615Y-91999848D01*
X155628414Y-91867800D01*
X155628410Y-91867798D01*
X155624359Y-91864598D01*
X155428789Y-91756638D01*
X155423920Y-91754914D01*
X155423916Y-91754912D01*
X155223087Y-91683795D01*
X155223083Y-91683794D01*
X155218212Y-91682069D01*
X155213119Y-91681162D01*
X155213116Y-91681161D01*
X155003373Y-91643800D01*
X155003367Y-91643799D01*
X154998284Y-91642894D01*
X154924452Y-91641992D01*
X154780081Y-91640228D01*
X154780079Y-91640228D01*
X154774911Y-91640165D01*
X154554091Y-91673955D01*
X154341756Y-91743357D01*
X154143607Y-91846507D01*
X154139474Y-91849610D01*
X154139471Y-91849612D01*
X153969100Y-91977530D01*
X153964965Y-91980635D01*
X153961393Y-91984373D01*
X153853729Y-92097037D01*
X153810629Y-92142138D01*
X153703201Y-92299621D01*
X153648293Y-92344621D01*
X153577768Y-92352792D01*
X153514021Y-92321538D01*
X153493324Y-92297054D01*
X153412822Y-92172617D01*
X153412820Y-92172614D01*
X153410014Y-92168277D01*
X153259670Y-92003051D01*
X153255619Y-91999852D01*
X153255615Y-91999848D01*
X153088414Y-91867800D01*
X153088410Y-91867798D01*
X153084359Y-91864598D01*
X152888789Y-91756638D01*
X152883920Y-91754914D01*
X152883916Y-91754912D01*
X152683087Y-91683795D01*
X152683083Y-91683794D01*
X152678212Y-91682069D01*
X152673119Y-91681162D01*
X152673116Y-91681161D01*
X152463373Y-91643800D01*
X152463367Y-91643799D01*
X152458284Y-91642894D01*
X152384452Y-91641992D01*
X152240081Y-91640228D01*
X152240079Y-91640228D01*
X152234911Y-91640165D01*
X152014091Y-91673955D01*
X151801756Y-91743357D01*
X151603607Y-91846507D01*
X151599474Y-91849610D01*
X151599471Y-91849612D01*
X151429100Y-91977530D01*
X151424965Y-91980635D01*
X151421393Y-91984373D01*
X151313729Y-92097037D01*
X151270629Y-92142138D01*
X151163201Y-92299621D01*
X151108293Y-92344621D01*
X151037768Y-92352792D01*
X150974021Y-92321538D01*
X150953324Y-92297054D01*
X150872822Y-92172617D01*
X150872820Y-92172614D01*
X150870014Y-92168277D01*
X150719670Y-92003051D01*
X150715619Y-91999852D01*
X150715615Y-91999848D01*
X150548414Y-91867800D01*
X150548410Y-91867798D01*
X150544359Y-91864598D01*
X150348789Y-91756638D01*
X150343920Y-91754914D01*
X150343916Y-91754912D01*
X150143087Y-91683795D01*
X150143083Y-91683794D01*
X150138212Y-91682069D01*
X150133119Y-91681162D01*
X150133116Y-91681161D01*
X149923373Y-91643800D01*
X149923367Y-91643799D01*
X149918284Y-91642894D01*
X149844452Y-91641992D01*
X149700081Y-91640228D01*
X149700079Y-91640228D01*
X149694911Y-91640165D01*
X149474091Y-91673955D01*
X149261756Y-91743357D01*
X149063607Y-91846507D01*
X149059474Y-91849610D01*
X149059471Y-91849612D01*
X148889100Y-91977530D01*
X148884965Y-91980635D01*
X148881393Y-91984373D01*
X148773729Y-92097037D01*
X148730629Y-92142138D01*
X148623201Y-92299621D01*
X148568293Y-92344621D01*
X148497768Y-92352792D01*
X148434021Y-92321538D01*
X148413324Y-92297054D01*
X148332822Y-92172617D01*
X148332820Y-92172614D01*
X148330014Y-92168277D01*
X148179670Y-92003051D01*
X148175619Y-91999852D01*
X148175615Y-91999848D01*
X148008414Y-91867800D01*
X148008410Y-91867798D01*
X148004359Y-91864598D01*
X147808789Y-91756638D01*
X147803920Y-91754914D01*
X147803916Y-91754912D01*
X147603087Y-91683795D01*
X147603083Y-91683794D01*
X147598212Y-91682069D01*
X147593119Y-91681162D01*
X147593116Y-91681161D01*
X147383373Y-91643800D01*
X147383367Y-91643799D01*
X147378284Y-91642894D01*
X147304452Y-91641992D01*
X147160081Y-91640228D01*
X147160079Y-91640228D01*
X147154911Y-91640165D01*
X146934091Y-91673955D01*
X146721756Y-91743357D01*
X146523607Y-91846507D01*
X146519474Y-91849610D01*
X146519471Y-91849612D01*
X146349100Y-91977530D01*
X146344965Y-91980635D01*
X146341393Y-91984373D01*
X146233729Y-92097037D01*
X146190629Y-92142138D01*
X146083201Y-92299621D01*
X146028293Y-92344621D01*
X145957768Y-92352792D01*
X145894021Y-92321538D01*
X145873324Y-92297054D01*
X145792822Y-92172617D01*
X145792820Y-92172614D01*
X145790014Y-92168277D01*
X145639670Y-92003051D01*
X145635619Y-91999852D01*
X145635615Y-91999848D01*
X145468414Y-91867800D01*
X145468410Y-91867798D01*
X145464359Y-91864598D01*
X145268789Y-91756638D01*
X145263920Y-91754914D01*
X145263916Y-91754912D01*
X145063087Y-91683795D01*
X145063083Y-91683794D01*
X145058212Y-91682069D01*
X145053119Y-91681162D01*
X145053116Y-91681161D01*
X144843373Y-91643800D01*
X144843367Y-91643799D01*
X144838284Y-91642894D01*
X144764452Y-91641992D01*
X144620081Y-91640228D01*
X144620079Y-91640228D01*
X144614911Y-91640165D01*
X144394091Y-91673955D01*
X144181756Y-91743357D01*
X143983607Y-91846507D01*
X143979474Y-91849610D01*
X143979471Y-91849612D01*
X143809100Y-91977530D01*
X143804965Y-91980635D01*
X143801393Y-91984373D01*
X143693729Y-92097037D01*
X143650629Y-92142138D01*
X143543201Y-92299621D01*
X143488293Y-92344621D01*
X143417768Y-92352792D01*
X143354021Y-92321538D01*
X143333324Y-92297054D01*
X143252822Y-92172617D01*
X143252820Y-92172614D01*
X143250014Y-92168277D01*
X143099670Y-92003051D01*
X143095619Y-91999852D01*
X143095615Y-91999848D01*
X142928414Y-91867800D01*
X142928410Y-91867798D01*
X142924359Y-91864598D01*
X142728789Y-91756638D01*
X142723920Y-91754914D01*
X142723916Y-91754912D01*
X142523087Y-91683795D01*
X142523083Y-91683794D01*
X142518212Y-91682069D01*
X142513119Y-91681162D01*
X142513116Y-91681161D01*
X142303373Y-91643800D01*
X142303367Y-91643799D01*
X142298284Y-91642894D01*
X142224452Y-91641992D01*
X142080081Y-91640228D01*
X142080079Y-91640228D01*
X142074911Y-91640165D01*
X141854091Y-91673955D01*
X141641756Y-91743357D01*
X141443607Y-91846507D01*
X141439474Y-91849610D01*
X141439471Y-91849612D01*
X141269100Y-91977530D01*
X141264965Y-91980635D01*
X141208537Y-92039684D01*
X141184283Y-92065064D01*
X141122759Y-92100494D01*
X141051846Y-92097037D01*
X140994060Y-92055791D01*
X140975207Y-92022243D01*
X140933767Y-91911703D01*
X140930615Y-91903295D01*
X140843261Y-91786739D01*
X140726705Y-91699385D01*
X140590316Y-91648255D01*
X140528134Y-91641500D01*
X138731866Y-91641500D01*
X138669684Y-91648255D01*
X138533295Y-91699385D01*
X138416739Y-91786739D01*
X138329385Y-91903295D01*
X138278255Y-92039684D01*
X138271500Y-92101866D01*
X138271500Y-93898134D01*
X112402375Y-93898134D01*
X112464655Y-93849301D01*
X112473125Y-93837442D01*
X112466608Y-93825818D01*
X111262812Y-92622022D01*
X111248868Y-92614408D01*
X111247035Y-92614539D01*
X111240420Y-92618790D01*
X110032910Y-93826300D01*
X110025618Y-93839654D01*
X105758500Y-93839654D01*
X105758500Y-92233204D01*
X109237665Y-92233204D01*
X109252932Y-92497969D01*
X109254005Y-92506470D01*
X109305065Y-92766722D01*
X109307276Y-92774974D01*
X109393184Y-93025894D01*
X109396499Y-93033779D01*
X109515664Y-93270713D01*
X109520020Y-93278079D01*
X109649347Y-93466250D01*
X109659601Y-93474594D01*
X109673342Y-93467448D01*
X110877978Y-92262812D01*
X110884356Y-92251132D01*
X111614408Y-92251132D01*
X111614539Y-92252965D01*
X111618790Y-92259580D01*
X112825730Y-93466520D01*
X112837939Y-93473187D01*
X112849439Y-93464497D01*
X112946831Y-93331913D01*
X112951418Y-93324685D01*
X113077962Y-93091621D01*
X113081530Y-93083827D01*
X113175271Y-92835750D01*
X113177748Y-92827544D01*
X113236954Y-92569038D01*
X113238294Y-92560577D01*
X113262031Y-92294616D01*
X113262277Y-92289677D01*
X113262666Y-92252485D01*
X113262523Y-92247519D01*
X113244362Y-91981123D01*
X113243201Y-91972649D01*
X113189419Y-91712944D01*
X113187120Y-91704709D01*
X113098588Y-91454705D01*
X113095191Y-91446854D01*
X112973550Y-91211178D01*
X112969122Y-91203866D01*
X112850031Y-91034417D01*
X112839509Y-91026037D01*
X112826121Y-91033089D01*
X111622022Y-92237188D01*
X111614408Y-92251132D01*
X110884356Y-92251132D01*
X110885592Y-92248868D01*
X110885461Y-92247035D01*
X110881210Y-92240420D01*
X109673814Y-91033024D01*
X109661804Y-91026466D01*
X109650064Y-91035434D01*
X109541935Y-91185911D01*
X109537418Y-91193196D01*
X109413325Y-91427567D01*
X109409839Y-91435395D01*
X109318700Y-91684446D01*
X109316311Y-91692670D01*
X109259812Y-91951795D01*
X109258563Y-91960250D01*
X109237754Y-92224653D01*
X109237665Y-92233204D01*
X105758500Y-92233204D01*
X105758500Y-90662500D01*
X110026584Y-90662500D01*
X110032980Y-90673770D01*
X111237188Y-91877978D01*
X111251132Y-91885592D01*
X111252965Y-91885461D01*
X111259580Y-91881210D01*
X112466604Y-90674186D01*
X112473795Y-90661017D01*
X112466473Y-90650780D01*
X112419233Y-90612115D01*
X112412261Y-90607160D01*
X112186122Y-90468582D01*
X112178552Y-90464624D01*
X111935704Y-90358022D01*
X111927644Y-90355120D01*
X111672592Y-90282467D01*
X111664214Y-90280685D01*
X111401656Y-90243318D01*
X111393111Y-90242691D01*
X111127908Y-90241302D01*
X111119374Y-90241839D01*
X110856433Y-90276456D01*
X110848035Y-90278149D01*
X110592238Y-90348127D01*
X110584143Y-90350946D01*
X110340199Y-90454997D01*
X110332577Y-90458881D01*
X110105013Y-90595075D01*
X110097981Y-90599962D01*
X110035053Y-90650377D01*
X110026584Y-90662500D01*
X105758500Y-90662500D01*
X105758500Y-89134500D01*
X105778502Y-89066379D01*
X105832158Y-89019886D01*
X105884500Y-89008500D01*
X191115500Y-89008500D01*
X191183621Y-89028502D01*
G37*
%TD.AperFunction*%
%TD*%
M02*
