%TF.GenerationSoftware,KiCad,Pcbnew,(6.0.9)*%
%TF.CreationDate,2024-04-03T02:56:31+02:00*%
%TF.ProjectId,HBW-Sen-PRESS-4_Platine1,4842572d-5365-46e2-9d50-524553532d34,rev?*%
%TF.SameCoordinates,Original*%
%TF.FileFunction,Legend,Top*%
%TF.FilePolarity,Positive*%
%FSLAX46Y46*%
G04 Gerber Fmt 4.6, Leading zero omitted, Abs format (unit mm)*
G04 Created by KiCad (PCBNEW (6.0.9)) date 2024-04-03 02:56:31*
%MOMM*%
%LPD*%
G01*
G04 APERTURE LIST*
%ADD10C,0.150000*%
%ADD11C,0.120000*%
G04 APERTURE END LIST*
D10*
X183628095Y-118460000D02*
X183532857Y-118412380D01*
X183390000Y-118412380D01*
X183247142Y-118460000D01*
X183151904Y-118555238D01*
X183104285Y-118650476D01*
X183056666Y-118840952D01*
X183056666Y-118983809D01*
X183104285Y-119174285D01*
X183151904Y-119269523D01*
X183247142Y-119364761D01*
X183390000Y-119412380D01*
X183485238Y-119412380D01*
X183628095Y-119364761D01*
X183675714Y-119317142D01*
X183675714Y-118983809D01*
X183485238Y-118983809D01*
X184104285Y-119412380D02*
X184104285Y-118412380D01*
X184675714Y-119412380D01*
X184675714Y-118412380D01*
X185151904Y-119412380D02*
X185151904Y-118412380D01*
X185390000Y-118412380D01*
X185532857Y-118460000D01*
X185628095Y-118555238D01*
X185675714Y-118650476D01*
X185723333Y-118840952D01*
X185723333Y-118983809D01*
X185675714Y-119174285D01*
X185628095Y-119269523D01*
X185532857Y-119364761D01*
X185390000Y-119412380D01*
X185151904Y-119412380D01*
X139528571Y-96252380D02*
X139528571Y-95252380D01*
X139528571Y-95728571D02*
X140100000Y-95728571D01*
X140100000Y-96252380D02*
X140100000Y-95252380D01*
X140909523Y-95728571D02*
X141052380Y-95776190D01*
X141100000Y-95823809D01*
X141147619Y-95919047D01*
X141147619Y-96061904D01*
X141100000Y-96157142D01*
X141052380Y-96204761D01*
X140957142Y-96252380D01*
X140576190Y-96252380D01*
X140576190Y-95252380D01*
X140909523Y-95252380D01*
X141004761Y-95300000D01*
X141052380Y-95347619D01*
X141100000Y-95442857D01*
X141100000Y-95538095D01*
X141052380Y-95633333D01*
X141004761Y-95680952D01*
X140909523Y-95728571D01*
X140576190Y-95728571D01*
X141480952Y-95252380D02*
X141719047Y-96252380D01*
X141909523Y-95538095D01*
X142100000Y-96252380D01*
X142338095Y-95252380D01*
X142719047Y-95871428D02*
X143480952Y-95871428D01*
X143909523Y-96204761D02*
X144052380Y-96252380D01*
X144290476Y-96252380D01*
X144385714Y-96204761D01*
X144433333Y-96157142D01*
X144480952Y-96061904D01*
X144480952Y-95966666D01*
X144433333Y-95871428D01*
X144385714Y-95823809D01*
X144290476Y-95776190D01*
X144100000Y-95728571D01*
X144004761Y-95680952D01*
X143957142Y-95633333D01*
X143909523Y-95538095D01*
X143909523Y-95442857D01*
X143957142Y-95347619D01*
X144004761Y-95300000D01*
X144100000Y-95252380D01*
X144338095Y-95252380D01*
X144480952Y-95300000D01*
X145290476Y-96204761D02*
X145195238Y-96252380D01*
X145004761Y-96252380D01*
X144909523Y-96204761D01*
X144861904Y-96109523D01*
X144861904Y-95728571D01*
X144909523Y-95633333D01*
X145004761Y-95585714D01*
X145195238Y-95585714D01*
X145290476Y-95633333D01*
X145338095Y-95728571D01*
X145338095Y-95823809D01*
X144861904Y-95919047D01*
X145766666Y-95585714D02*
X145766666Y-96252380D01*
X145766666Y-95680952D02*
X145814285Y-95633333D01*
X145909523Y-95585714D01*
X146052380Y-95585714D01*
X146147619Y-95633333D01*
X146195238Y-95728571D01*
X146195238Y-96252380D01*
X146671428Y-95871428D02*
X147433333Y-95871428D01*
X147909523Y-96252380D02*
X147909523Y-95252380D01*
X148290476Y-95252380D01*
X148385714Y-95300000D01*
X148433333Y-95347619D01*
X148480952Y-95442857D01*
X148480952Y-95585714D01*
X148433333Y-95680952D01*
X148385714Y-95728571D01*
X148290476Y-95776190D01*
X147909523Y-95776190D01*
X149480952Y-96252380D02*
X149147619Y-95776190D01*
X148909523Y-96252380D02*
X148909523Y-95252380D01*
X149290476Y-95252380D01*
X149385714Y-95300000D01*
X149433333Y-95347619D01*
X149480952Y-95442857D01*
X149480952Y-95585714D01*
X149433333Y-95680952D01*
X149385714Y-95728571D01*
X149290476Y-95776190D01*
X148909523Y-95776190D01*
X149909523Y-95728571D02*
X150242857Y-95728571D01*
X150385714Y-96252380D02*
X149909523Y-96252380D01*
X149909523Y-95252380D01*
X150385714Y-95252380D01*
X150766666Y-96204761D02*
X150909523Y-96252380D01*
X151147619Y-96252380D01*
X151242857Y-96204761D01*
X151290476Y-96157142D01*
X151338095Y-96061904D01*
X151338095Y-95966666D01*
X151290476Y-95871428D01*
X151242857Y-95823809D01*
X151147619Y-95776190D01*
X150957142Y-95728571D01*
X150861904Y-95680952D01*
X150814285Y-95633333D01*
X150766666Y-95538095D01*
X150766666Y-95442857D01*
X150814285Y-95347619D01*
X150861904Y-95300000D01*
X150957142Y-95252380D01*
X151195238Y-95252380D01*
X151338095Y-95300000D01*
X151719047Y-96204761D02*
X151861904Y-96252380D01*
X152100000Y-96252380D01*
X152195238Y-96204761D01*
X152242857Y-96157142D01*
X152290476Y-96061904D01*
X152290476Y-95966666D01*
X152242857Y-95871428D01*
X152195238Y-95823809D01*
X152100000Y-95776190D01*
X151909523Y-95728571D01*
X151814285Y-95680952D01*
X151766666Y-95633333D01*
X151719047Y-95538095D01*
X151719047Y-95442857D01*
X151766666Y-95347619D01*
X151814285Y-95300000D01*
X151909523Y-95252380D01*
X152147619Y-95252380D01*
X152290476Y-95300000D01*
X152719047Y-95871428D02*
X153480952Y-95871428D01*
X154385714Y-95585714D02*
X154385714Y-96252380D01*
X154147619Y-95204761D02*
X153909523Y-95919047D01*
X154528571Y-95919047D01*
X154909523Y-95871428D02*
X155671428Y-95871428D01*
X156147619Y-96252380D02*
X156147619Y-95252380D01*
X156385714Y-95252380D01*
X156528571Y-95300000D01*
X156623809Y-95395238D01*
X156671428Y-95490476D01*
X156719047Y-95680952D01*
X156719047Y-95823809D01*
X156671428Y-96014285D01*
X156623809Y-96109523D01*
X156528571Y-96204761D01*
X156385714Y-96252380D01*
X156147619Y-96252380D01*
X157719047Y-96252380D02*
X157385714Y-95776190D01*
X157147619Y-96252380D02*
X157147619Y-95252380D01*
X157528571Y-95252380D01*
X157623809Y-95300000D01*
X157671428Y-95347619D01*
X157719047Y-95442857D01*
X157719047Y-95585714D01*
X157671428Y-95680952D01*
X157623809Y-95728571D01*
X157528571Y-95776190D01*
X157147619Y-95776190D01*
X117762380Y-95857976D02*
X117850000Y-95945595D01*
X117937619Y-96120833D01*
X117937619Y-96558928D01*
X117850000Y-96734166D01*
X117762380Y-96821785D01*
X117587142Y-96909404D01*
X117411904Y-96909404D01*
X117149047Y-96821785D01*
X116097619Y-95770357D01*
X116097619Y-96909404D01*
X117324285Y-98486547D02*
X116097619Y-98486547D01*
X118025238Y-98048452D02*
X116710952Y-97610357D01*
X116710952Y-98749404D01*
X117937619Y-99187500D02*
X116097619Y-99800833D01*
X117937619Y-100414166D01*
X182271904Y-101604761D02*
X182414761Y-101652380D01*
X182652857Y-101652380D01*
X182748095Y-101604761D01*
X182795714Y-101557142D01*
X182843333Y-101461904D01*
X182843333Y-101366666D01*
X182795714Y-101271428D01*
X182748095Y-101223809D01*
X182652857Y-101176190D01*
X182462380Y-101128571D01*
X182367142Y-101080952D01*
X182319523Y-101033333D01*
X182271904Y-100938095D01*
X182271904Y-100842857D01*
X182319523Y-100747619D01*
X182367142Y-100700000D01*
X182462380Y-100652380D01*
X182700476Y-100652380D01*
X182843333Y-100700000D01*
X183271904Y-101128571D02*
X183605238Y-101128571D01*
X183748095Y-101652380D02*
X183271904Y-101652380D01*
X183271904Y-100652380D01*
X183748095Y-100652380D01*
X184176666Y-101652380D02*
X184176666Y-100652380D01*
X184748095Y-101652380D01*
X184748095Y-100652380D01*
X185176666Y-100747619D02*
X185224285Y-100700000D01*
X185319523Y-100652380D01*
X185557619Y-100652380D01*
X185652857Y-100700000D01*
X185700476Y-100747619D01*
X185748095Y-100842857D01*
X185748095Y-100938095D01*
X185700476Y-101080952D01*
X185129047Y-101652380D01*
X185748095Y-101652380D01*
X183076666Y-113342380D02*
X183410000Y-114342380D01*
X183743333Y-113342380D01*
X184648095Y-114247142D02*
X184600476Y-114294761D01*
X184457619Y-114342380D01*
X184362380Y-114342380D01*
X184219523Y-114294761D01*
X184124285Y-114199523D01*
X184076666Y-114104285D01*
X184029047Y-113913809D01*
X184029047Y-113770952D01*
X184076666Y-113580476D01*
X184124285Y-113485238D01*
X184219523Y-113390000D01*
X184362380Y-113342380D01*
X184457619Y-113342380D01*
X184600476Y-113390000D01*
X184648095Y-113437619D01*
X185648095Y-114247142D02*
X185600476Y-114294761D01*
X185457619Y-114342380D01*
X185362380Y-114342380D01*
X185219523Y-114294761D01*
X185124285Y-114199523D01*
X185076666Y-114104285D01*
X185029047Y-113913809D01*
X185029047Y-113770952D01*
X185076666Y-113580476D01*
X185124285Y-113485238D01*
X185219523Y-113390000D01*
X185362380Y-113342380D01*
X185457619Y-113342380D01*
X185600476Y-113390000D01*
X185648095Y-113437619D01*
X182271904Y-109204761D02*
X182414761Y-109252380D01*
X182652857Y-109252380D01*
X182748095Y-109204761D01*
X182795714Y-109157142D01*
X182843333Y-109061904D01*
X182843333Y-108966666D01*
X182795714Y-108871428D01*
X182748095Y-108823809D01*
X182652857Y-108776190D01*
X182462380Y-108728571D01*
X182367142Y-108680952D01*
X182319523Y-108633333D01*
X182271904Y-108538095D01*
X182271904Y-108442857D01*
X182319523Y-108347619D01*
X182367142Y-108300000D01*
X182462380Y-108252380D01*
X182700476Y-108252380D01*
X182843333Y-108300000D01*
X183271904Y-108728571D02*
X183605238Y-108728571D01*
X183748095Y-109252380D02*
X183271904Y-109252380D01*
X183271904Y-108252380D01*
X183748095Y-108252380D01*
X184176666Y-109252380D02*
X184176666Y-108252380D01*
X184748095Y-109252380D01*
X184748095Y-108252380D01*
X185129047Y-108252380D02*
X185748095Y-108252380D01*
X185414761Y-108633333D01*
X185557619Y-108633333D01*
X185652857Y-108680952D01*
X185700476Y-108728571D01*
X185748095Y-108823809D01*
X185748095Y-109061904D01*
X185700476Y-109157142D01*
X185652857Y-109204761D01*
X185557619Y-109252380D01*
X185271904Y-109252380D01*
X185176666Y-109204761D01*
X185129047Y-109157142D01*
X183628095Y-110830000D02*
X183532857Y-110782380D01*
X183390000Y-110782380D01*
X183247142Y-110830000D01*
X183151904Y-110925238D01*
X183104285Y-111020476D01*
X183056666Y-111210952D01*
X183056666Y-111353809D01*
X183104285Y-111544285D01*
X183151904Y-111639523D01*
X183247142Y-111734761D01*
X183390000Y-111782380D01*
X183485238Y-111782380D01*
X183628095Y-111734761D01*
X183675714Y-111687142D01*
X183675714Y-111353809D01*
X183485238Y-111353809D01*
X184104285Y-111782380D02*
X184104285Y-110782380D01*
X184675714Y-111782380D01*
X184675714Y-110782380D01*
X185151904Y-111782380D02*
X185151904Y-110782380D01*
X185390000Y-110782380D01*
X185532857Y-110830000D01*
X185628095Y-110925238D01*
X185675714Y-111020476D01*
X185723333Y-111210952D01*
X185723333Y-111353809D01*
X185675714Y-111544285D01*
X185628095Y-111639523D01*
X185532857Y-111734761D01*
X185390000Y-111782380D01*
X185151904Y-111782380D01*
X182261904Y-93974761D02*
X182404761Y-94022380D01*
X182642857Y-94022380D01*
X182738095Y-93974761D01*
X182785714Y-93927142D01*
X182833333Y-93831904D01*
X182833333Y-93736666D01*
X182785714Y-93641428D01*
X182738095Y-93593809D01*
X182642857Y-93546190D01*
X182452380Y-93498571D01*
X182357142Y-93450952D01*
X182309523Y-93403333D01*
X182261904Y-93308095D01*
X182261904Y-93212857D01*
X182309523Y-93117619D01*
X182357142Y-93070000D01*
X182452380Y-93022380D01*
X182690476Y-93022380D01*
X182833333Y-93070000D01*
X183261904Y-93498571D02*
X183595238Y-93498571D01*
X183738095Y-94022380D02*
X183261904Y-94022380D01*
X183261904Y-93022380D01*
X183738095Y-93022380D01*
X184166666Y-94022380D02*
X184166666Y-93022380D01*
X184738095Y-94022380D01*
X184738095Y-93022380D01*
X185738095Y-94022380D02*
X185166666Y-94022380D01*
X185452380Y-94022380D02*
X185452380Y-93022380D01*
X185357142Y-93165238D01*
X185261904Y-93260476D01*
X185166666Y-93308095D01*
X183126666Y-90432380D02*
X183460000Y-91432380D01*
X183793333Y-90432380D01*
X184698095Y-91337142D02*
X184650476Y-91384761D01*
X184507619Y-91432380D01*
X184412380Y-91432380D01*
X184269523Y-91384761D01*
X184174285Y-91289523D01*
X184126666Y-91194285D01*
X184079047Y-91003809D01*
X184079047Y-90860952D01*
X184126666Y-90670476D01*
X184174285Y-90575238D01*
X184269523Y-90480000D01*
X184412380Y-90432380D01*
X184507619Y-90432380D01*
X184650476Y-90480000D01*
X184698095Y-90527619D01*
X185698095Y-91337142D02*
X185650476Y-91384761D01*
X185507619Y-91432380D01*
X185412380Y-91432380D01*
X185269523Y-91384761D01*
X185174285Y-91289523D01*
X185126666Y-91194285D01*
X185079047Y-91003809D01*
X185079047Y-90860952D01*
X185126666Y-90670476D01*
X185174285Y-90575238D01*
X185269523Y-90480000D01*
X185412380Y-90432380D01*
X185507619Y-90432380D01*
X185650476Y-90480000D01*
X185698095Y-90527619D01*
X117051428Y-112648928D02*
X116963809Y-112911785D01*
X116876190Y-112999404D01*
X116700952Y-113087023D01*
X116438095Y-113087023D01*
X116262857Y-112999404D01*
X116175238Y-112911785D01*
X116087619Y-112736547D01*
X116087619Y-112035595D01*
X117927619Y-112035595D01*
X117927619Y-112648928D01*
X117840000Y-112824166D01*
X117752380Y-112911785D01*
X117577142Y-112999404D01*
X117401904Y-112999404D01*
X117226666Y-112911785D01*
X117139047Y-112824166D01*
X117051428Y-112648928D01*
X117051428Y-112035595D01*
X183638095Y-95570000D02*
X183542857Y-95522380D01*
X183400000Y-95522380D01*
X183257142Y-95570000D01*
X183161904Y-95665238D01*
X183114285Y-95760476D01*
X183066666Y-95950952D01*
X183066666Y-96093809D01*
X183114285Y-96284285D01*
X183161904Y-96379523D01*
X183257142Y-96474761D01*
X183400000Y-96522380D01*
X183495238Y-96522380D01*
X183638095Y-96474761D01*
X183685714Y-96427142D01*
X183685714Y-96093809D01*
X183495238Y-96093809D01*
X184114285Y-96522380D02*
X184114285Y-95522380D01*
X184685714Y-96522380D01*
X184685714Y-95522380D01*
X185161904Y-96522380D02*
X185161904Y-95522380D01*
X185400000Y-95522380D01*
X185542857Y-95570000D01*
X185638095Y-95665238D01*
X185685714Y-95760476D01*
X185733333Y-95950952D01*
X185733333Y-96093809D01*
X185685714Y-96284285D01*
X185638095Y-96379523D01*
X185542857Y-96474761D01*
X185400000Y-96522380D01*
X185161904Y-96522380D01*
X117840000Y-90499404D02*
X117927619Y-90324166D01*
X117927619Y-90061309D01*
X117840000Y-89798452D01*
X117664761Y-89623214D01*
X117489523Y-89535595D01*
X117139047Y-89447976D01*
X116876190Y-89447976D01*
X116525714Y-89535595D01*
X116350476Y-89623214D01*
X116175238Y-89798452D01*
X116087619Y-90061309D01*
X116087619Y-90236547D01*
X116175238Y-90499404D01*
X116262857Y-90587023D01*
X116876190Y-90587023D01*
X116876190Y-90236547D01*
X116087619Y-91375595D02*
X117927619Y-91375595D01*
X116087619Y-92427023D01*
X117927619Y-92427023D01*
X116087619Y-93303214D02*
X117927619Y-93303214D01*
X117927619Y-93741309D01*
X117840000Y-94004166D01*
X117664761Y-94179404D01*
X117489523Y-94267023D01*
X117139047Y-94354642D01*
X116876190Y-94354642D01*
X116525714Y-94267023D01*
X116350476Y-94179404D01*
X116175238Y-94004166D01*
X116087619Y-93741309D01*
X116087619Y-93303214D01*
X116613333Y-117447976D02*
X116613333Y-118324166D01*
X116087619Y-117272738D02*
X117927619Y-117886071D01*
X116087619Y-118499404D01*
X182271904Y-116844761D02*
X182414761Y-116892380D01*
X182652857Y-116892380D01*
X182748095Y-116844761D01*
X182795714Y-116797142D01*
X182843333Y-116701904D01*
X182843333Y-116606666D01*
X182795714Y-116511428D01*
X182748095Y-116463809D01*
X182652857Y-116416190D01*
X182462380Y-116368571D01*
X182367142Y-116320952D01*
X182319523Y-116273333D01*
X182271904Y-116178095D01*
X182271904Y-116082857D01*
X182319523Y-115987619D01*
X182367142Y-115940000D01*
X182462380Y-115892380D01*
X182700476Y-115892380D01*
X182843333Y-115940000D01*
X183271904Y-116368571D02*
X183605238Y-116368571D01*
X183748095Y-116892380D02*
X183271904Y-116892380D01*
X183271904Y-115892380D01*
X183748095Y-115892380D01*
X184176666Y-116892380D02*
X184176666Y-115892380D01*
X184748095Y-116892380D01*
X184748095Y-115892380D01*
X185652857Y-116225714D02*
X185652857Y-116892380D01*
X185414761Y-115844761D02*
X185176666Y-116559047D01*
X185795714Y-116559047D01*
X183116666Y-105702380D02*
X183450000Y-106702380D01*
X183783333Y-105702380D01*
X184688095Y-106607142D02*
X184640476Y-106654761D01*
X184497619Y-106702380D01*
X184402380Y-106702380D01*
X184259523Y-106654761D01*
X184164285Y-106559523D01*
X184116666Y-106464285D01*
X184069047Y-106273809D01*
X184069047Y-106130952D01*
X184116666Y-105940476D01*
X184164285Y-105845238D01*
X184259523Y-105750000D01*
X184402380Y-105702380D01*
X184497619Y-105702380D01*
X184640476Y-105750000D01*
X184688095Y-105797619D01*
X185688095Y-106607142D02*
X185640476Y-106654761D01*
X185497619Y-106702380D01*
X185402380Y-106702380D01*
X185259523Y-106654761D01*
X185164285Y-106559523D01*
X185116666Y-106464285D01*
X185069047Y-106273809D01*
X185069047Y-106130952D01*
X185116666Y-105940476D01*
X185164285Y-105845238D01*
X185259523Y-105750000D01*
X185402380Y-105702380D01*
X185497619Y-105702380D01*
X185640476Y-105750000D01*
X185688095Y-105797619D01*
X150604761Y-97852380D02*
X150604761Y-97185714D01*
X150604761Y-97280952D02*
X150652380Y-97233333D01*
X150747619Y-97185714D01*
X150890476Y-97185714D01*
X150985714Y-97233333D01*
X151033333Y-97328571D01*
X151033333Y-97852380D01*
X151033333Y-97328571D02*
X151080952Y-97233333D01*
X151176190Y-97185714D01*
X151319047Y-97185714D01*
X151414285Y-97233333D01*
X151461904Y-97328571D01*
X151461904Y-97852380D01*
X152366666Y-97852380D02*
X152366666Y-97328571D01*
X152319047Y-97233333D01*
X152223809Y-97185714D01*
X152033333Y-97185714D01*
X151938095Y-97233333D01*
X152366666Y-97804761D02*
X152271428Y-97852380D01*
X152033333Y-97852380D01*
X151938095Y-97804761D01*
X151890476Y-97709523D01*
X151890476Y-97614285D01*
X151938095Y-97519047D01*
X152033333Y-97471428D01*
X152271428Y-97471428D01*
X152366666Y-97423809D01*
X152747619Y-97852380D02*
X153271428Y-97185714D01*
X152747619Y-97185714D02*
X153271428Y-97852380D01*
X153557142Y-97852380D02*
X154080952Y-97185714D01*
X153557142Y-97185714D02*
X154080952Y-97852380D01*
X154366666Y-96852380D02*
X154985714Y-96852380D01*
X154652380Y-97233333D01*
X154795238Y-97233333D01*
X154890476Y-97280952D01*
X154938095Y-97328571D01*
X154985714Y-97423809D01*
X154985714Y-97661904D01*
X154938095Y-97757142D01*
X154890476Y-97804761D01*
X154795238Y-97852380D01*
X154509523Y-97852380D01*
X154414285Y-97804761D01*
X154366666Y-97757142D01*
X155938095Y-97852380D02*
X155366666Y-97852380D01*
X155652380Y-97852380D02*
X155652380Y-96852380D01*
X155557142Y-96995238D01*
X155461904Y-97090476D01*
X155366666Y-97138095D01*
X156557142Y-96852380D02*
X156652380Y-96852380D01*
X156747619Y-96900000D01*
X156795238Y-96947619D01*
X156842857Y-97042857D01*
X156890476Y-97233333D01*
X156890476Y-97471428D01*
X156842857Y-97661904D01*
X156795238Y-97757142D01*
X156747619Y-97804761D01*
X156652380Y-97852380D01*
X156557142Y-97852380D01*
X156461904Y-97804761D01*
X156414285Y-97757142D01*
X156366666Y-97661904D01*
X156319047Y-97471428D01*
X156319047Y-97233333D01*
X156366666Y-97042857D01*
X156414285Y-96947619D01*
X156461904Y-96900000D01*
X156557142Y-96852380D01*
X157795238Y-96852380D02*
X157319047Y-96852380D01*
X157271428Y-97328571D01*
X157319047Y-97280952D01*
X157414285Y-97233333D01*
X157652380Y-97233333D01*
X157747619Y-97280952D01*
X157795238Y-97328571D01*
X157842857Y-97423809D01*
X157842857Y-97661904D01*
X157795238Y-97757142D01*
X157747619Y-97804761D01*
X157652380Y-97852380D01*
X157414285Y-97852380D01*
X157319047Y-97804761D01*
X157271428Y-97757142D01*
X183658095Y-103230000D02*
X183562857Y-103182380D01*
X183420000Y-103182380D01*
X183277142Y-103230000D01*
X183181904Y-103325238D01*
X183134285Y-103420476D01*
X183086666Y-103610952D01*
X183086666Y-103753809D01*
X183134285Y-103944285D01*
X183181904Y-104039523D01*
X183277142Y-104134761D01*
X183420000Y-104182380D01*
X183515238Y-104182380D01*
X183658095Y-104134761D01*
X183705714Y-104087142D01*
X183705714Y-103753809D01*
X183515238Y-103753809D01*
X184134285Y-104182380D02*
X184134285Y-103182380D01*
X184705714Y-104182380D01*
X184705714Y-103182380D01*
X185181904Y-104182380D02*
X185181904Y-103182380D01*
X185420000Y-103182380D01*
X185562857Y-103230000D01*
X185658095Y-103325238D01*
X185705714Y-103420476D01*
X185753333Y-103610952D01*
X185753333Y-103753809D01*
X185705714Y-103944285D01*
X185658095Y-104039523D01*
X185562857Y-104134761D01*
X185420000Y-104182380D01*
X185181904Y-104182380D01*
X183106666Y-98092380D02*
X183440000Y-99092380D01*
X183773333Y-98092380D01*
X184678095Y-98997142D02*
X184630476Y-99044761D01*
X184487619Y-99092380D01*
X184392380Y-99092380D01*
X184249523Y-99044761D01*
X184154285Y-98949523D01*
X184106666Y-98854285D01*
X184059047Y-98663809D01*
X184059047Y-98520952D01*
X184106666Y-98330476D01*
X184154285Y-98235238D01*
X184249523Y-98140000D01*
X184392380Y-98092380D01*
X184487619Y-98092380D01*
X184630476Y-98140000D01*
X184678095Y-98187619D01*
X185678095Y-98997142D02*
X185630476Y-99044761D01*
X185487619Y-99092380D01*
X185392380Y-99092380D01*
X185249523Y-99044761D01*
X185154285Y-98949523D01*
X185106666Y-98854285D01*
X185059047Y-98663809D01*
X185059047Y-98520952D01*
X185106666Y-98330476D01*
X185154285Y-98235238D01*
X185249523Y-98140000D01*
X185392380Y-98092380D01*
X185487619Y-98092380D01*
X185630476Y-98140000D01*
X185678095Y-98187619D01*
X139476190Y-96852380D02*
X139809523Y-97852380D01*
X140142857Y-96852380D01*
X141000000Y-97852380D02*
X140428571Y-97852380D01*
X140714285Y-97852380D02*
X140714285Y-96852380D01*
X140619047Y-96995238D01*
X140523809Y-97090476D01*
X140428571Y-97138095D01*
X141428571Y-97757142D02*
X141476190Y-97804761D01*
X141428571Y-97852380D01*
X141380952Y-97804761D01*
X141428571Y-97757142D01*
X141428571Y-97852380D01*
X142095238Y-96852380D02*
X142190476Y-96852380D01*
X142285714Y-96900000D01*
X142333333Y-96947619D01*
X142380952Y-97042857D01*
X142428571Y-97233333D01*
X142428571Y-97471428D01*
X142380952Y-97661904D01*
X142333333Y-97757142D01*
X142285714Y-97804761D01*
X142190476Y-97852380D01*
X142095238Y-97852380D01*
X142000000Y-97804761D01*
X141952380Y-97757142D01*
X141904761Y-97661904D01*
X141857142Y-97471428D01*
X141857142Y-97233333D01*
X141904761Y-97042857D01*
X141952380Y-96947619D01*
X142000000Y-96900000D01*
X142095238Y-96852380D01*
%TO.C,C6*%
X135307142Y-99611554D02*
X135354761Y-99659173D01*
X135402380Y-99802030D01*
X135402380Y-99897268D01*
X135354761Y-100040126D01*
X135259523Y-100135364D01*
X135164285Y-100182983D01*
X134973809Y-100230602D01*
X134830952Y-100230602D01*
X134640476Y-100182983D01*
X134545238Y-100135364D01*
X134450000Y-100040126D01*
X134402380Y-99897268D01*
X134402380Y-99802030D01*
X134450000Y-99659173D01*
X134497619Y-99611554D01*
X134402380Y-98754411D02*
X134402380Y-98944888D01*
X134450000Y-99040126D01*
X134497619Y-99087745D01*
X134640476Y-99182983D01*
X134830952Y-99230602D01*
X135211904Y-99230602D01*
X135307142Y-99182983D01*
X135354761Y-99135364D01*
X135402380Y-99040126D01*
X135402380Y-98849649D01*
X135354761Y-98754411D01*
X135307142Y-98706792D01*
X135211904Y-98659173D01*
X134973809Y-98659173D01*
X134878571Y-98706792D01*
X134830952Y-98754411D01*
X134783333Y-98849649D01*
X134783333Y-99040126D01*
X134830952Y-99135364D01*
X134878571Y-99182983D01*
X134973809Y-99230602D01*
%TO.C,C9*%
X125607142Y-109611554D02*
X125654761Y-109659173D01*
X125702380Y-109802030D01*
X125702380Y-109897268D01*
X125654761Y-110040126D01*
X125559523Y-110135364D01*
X125464285Y-110182983D01*
X125273809Y-110230602D01*
X125130952Y-110230602D01*
X124940476Y-110182983D01*
X124845238Y-110135364D01*
X124750000Y-110040126D01*
X124702380Y-109897268D01*
X124702380Y-109802030D01*
X124750000Y-109659173D01*
X124797619Y-109611554D01*
X125702380Y-109135364D02*
X125702380Y-108944888D01*
X125654761Y-108849649D01*
X125607142Y-108802030D01*
X125464285Y-108706792D01*
X125273809Y-108659173D01*
X124892857Y-108659173D01*
X124797619Y-108706792D01*
X124750000Y-108754411D01*
X124702380Y-108849649D01*
X124702380Y-109040126D01*
X124750000Y-109135364D01*
X124797619Y-109182983D01*
X124892857Y-109230602D01*
X125130952Y-109230602D01*
X125226190Y-109182983D01*
X125273809Y-109135364D01*
X125321428Y-109040126D01*
X125321428Y-108849649D01*
X125273809Y-108754411D01*
X125226190Y-108706792D01*
X125130952Y-108659173D01*
D11*
%TO.C,J3*%
X140890000Y-115670000D02*
X158730000Y-115670000D01*
X138290000Y-118330000D02*
X138290000Y-117000000D01*
X158730000Y-118330000D02*
X158730000Y-115670000D01*
X140890000Y-118330000D02*
X158730000Y-118330000D01*
X139620000Y-118330000D02*
X138290000Y-118330000D01*
X140890000Y-118330000D02*
X140890000Y-115670000D01*
%TO.C,J5*%
X115060000Y-110130000D02*
X107440000Y-110130000D01*
X107440000Y-110130000D02*
X107440000Y-120290000D01*
X107440000Y-120290000D02*
X115060000Y-120290000D01*
X113790000Y-110130000D02*
X113790000Y-120290000D01*
X115060000Y-120290000D02*
X115060000Y-110130000D01*
%TO.C,C6*%
X133204000Y-101085888D02*
X132240000Y-101085888D01*
X130160000Y-101445888D02*
X129547000Y-101445888D01*
X133598000Y-100405888D02*
X132240000Y-100405888D01*
X133728000Y-99964888D02*
X132240000Y-99964888D01*
X130160000Y-100725888D02*
X128953000Y-100725888D01*
X130160000Y-101045888D02*
X129165000Y-101045888D01*
X130160000Y-101125888D02*
X129229000Y-101125888D01*
X130160000Y-101525888D02*
X129646000Y-101525888D01*
X130160000Y-100445888D02*
X128818000Y-100445888D01*
X130160000Y-100004888D02*
X128680000Y-100004888D01*
X133548000Y-100525888D02*
X132240000Y-100525888D01*
X130160000Y-100205888D02*
X128732000Y-100205888D01*
X130160000Y-99924888D02*
X128664000Y-99924888D01*
X130160000Y-101285888D02*
X129374000Y-101285888D01*
X132985000Y-101325888D02*
X132240000Y-101325888D01*
X132519000Y-101685888D02*
X132240000Y-101685888D01*
X133322000Y-100925888D02*
X132240000Y-100925888D01*
X133468000Y-100685888D02*
X132240000Y-100685888D01*
X130160000Y-101405888D02*
X129501000Y-101405888D01*
X132583000Y-101645888D02*
X132240000Y-101645888D01*
X130160000Y-100525888D02*
X128852000Y-100525888D01*
X133711000Y-100044888D02*
X132240000Y-100044888D01*
X130160000Y-101365888D02*
X129457000Y-101365888D01*
X130160000Y-101085888D02*
X129196000Y-101085888D01*
X130160000Y-100124888D02*
X128709000Y-100124888D01*
X133691000Y-100124888D02*
X132240000Y-100124888D01*
X130160000Y-99724888D02*
X128635000Y-99724888D01*
X130160000Y-101565888D02*
X129700000Y-101565888D01*
X133101000Y-101205888D02*
X132240000Y-101205888D01*
X132115000Y-101885888D02*
X130285000Y-101885888D01*
X130160000Y-101245888D02*
X129336000Y-101245888D01*
X133750000Y-99844888D02*
X132240000Y-99844888D01*
X130160000Y-101645888D02*
X129817000Y-101645888D01*
X130160000Y-100565888D02*
X128871000Y-100565888D01*
X133265000Y-101005888D02*
X132240000Y-101005888D01*
X133720000Y-100004888D02*
X132240000Y-100004888D01*
X130160000Y-100245888D02*
X128745000Y-100245888D01*
X133295000Y-100965888D02*
X132240000Y-100965888D01*
X130160000Y-101325888D02*
X129415000Y-101325888D01*
X130160000Y-100885888D02*
X129051000Y-100885888D01*
X130160000Y-101165888D02*
X129263000Y-101165888D01*
X133769000Y-99684888D02*
X132240000Y-99684888D01*
X130160000Y-99684888D02*
X128631000Y-99684888D01*
X130160000Y-99884888D02*
X128657000Y-99884888D01*
X133565000Y-100485888D02*
X132240000Y-100485888D01*
X133776000Y-99604888D02*
X128624000Y-99604888D01*
X133736000Y-99924888D02*
X132240000Y-99924888D01*
X133064000Y-101245888D02*
X132240000Y-101245888D01*
X130160000Y-100765888D02*
X128976000Y-100765888D01*
X133756000Y-99804888D02*
X132240000Y-99804888D01*
X133614000Y-100365888D02*
X132240000Y-100365888D01*
X130160000Y-100925888D02*
X129078000Y-100925888D01*
X133510000Y-100605888D02*
X132240000Y-100605888D01*
X130160000Y-100845888D02*
X129025000Y-100845888D01*
X132298000Y-101805888D02*
X130102000Y-101805888D01*
X132675000Y-96640113D02*
X132675000Y-97140113D01*
X130160000Y-100325888D02*
X128772000Y-100325888D01*
X130160000Y-101005888D02*
X129135000Y-101005888D01*
X130160000Y-99964888D02*
X128672000Y-99964888D01*
X132451000Y-101725888D02*
X132240000Y-101725888D01*
X130160000Y-100084888D02*
X128699000Y-100084888D01*
X133780000Y-99444888D02*
X128620000Y-99444888D01*
X130160000Y-100685888D02*
X128932000Y-100685888D01*
X130160000Y-101205888D02*
X129299000Y-101205888D01*
X130160000Y-100645888D02*
X128910000Y-100645888D01*
X133628000Y-100325888D02*
X132240000Y-100325888D01*
X133424000Y-100765888D02*
X132240000Y-100765888D01*
X133490000Y-100645888D02*
X132240000Y-100645888D01*
X133680000Y-100165888D02*
X132240000Y-100165888D01*
X133743000Y-99884888D02*
X132240000Y-99884888D01*
X130160000Y-99804888D02*
X128644000Y-99804888D01*
X132754000Y-101525888D02*
X132240000Y-101525888D01*
X131718000Y-102005888D02*
X130682000Y-102005888D01*
X130160000Y-100405888D02*
X128802000Y-100405888D01*
X132943000Y-101365888D02*
X132240000Y-101365888D01*
X130160000Y-100285888D02*
X128758000Y-100285888D01*
X132378000Y-101765888D02*
X130022000Y-101765888D01*
X132643000Y-101605888D02*
X132240000Y-101605888D01*
X132805000Y-101485888D02*
X132240000Y-101485888D01*
X133655000Y-100245888D02*
X132240000Y-100245888D01*
X130160000Y-100965888D02*
X129105000Y-100965888D01*
X131484000Y-102045888D02*
X130916000Y-102045888D01*
X130160000Y-101485888D02*
X129595000Y-101485888D01*
X132899000Y-101405888D02*
X132240000Y-101405888D01*
X133668000Y-100205888D02*
X132240000Y-100205888D01*
X130160000Y-101685888D02*
X129881000Y-101685888D01*
X133780000Y-99484888D02*
X128620000Y-99484888D01*
X132211000Y-101845888D02*
X130189000Y-101845888D01*
X130160000Y-100044888D02*
X128689000Y-100044888D01*
X133235000Y-101045888D02*
X132240000Y-101045888D01*
X130160000Y-101725888D02*
X129949000Y-101725888D01*
X133778000Y-99564888D02*
X128622000Y-99564888D01*
X133779000Y-99524888D02*
X128621000Y-99524888D01*
X130160000Y-100365888D02*
X128786000Y-100365888D01*
X131877000Y-101965888D02*
X130523000Y-101965888D01*
X130160000Y-100605888D02*
X128890000Y-100605888D01*
X133582000Y-100445888D02*
X132240000Y-100445888D01*
X133773000Y-99644888D02*
X128627000Y-99644888D01*
X132005000Y-101925888D02*
X130395000Y-101925888D01*
X133171000Y-101125888D02*
X132240000Y-101125888D01*
X130160000Y-99844888D02*
X128650000Y-99844888D01*
X130160000Y-99764888D02*
X128639000Y-99764888D01*
X133642000Y-100285888D02*
X132240000Y-100285888D01*
X130160000Y-100805888D02*
X129000000Y-100805888D01*
X133400000Y-100805888D02*
X132240000Y-100805888D01*
X133765000Y-99724888D02*
X132240000Y-99724888D01*
X130160000Y-101605888D02*
X129757000Y-101605888D01*
X132853000Y-101445888D02*
X132240000Y-101445888D01*
X133349000Y-100885888D02*
X132240000Y-100885888D01*
X133137000Y-101165888D02*
X132240000Y-101165888D01*
X133761000Y-99764888D02*
X132240000Y-99764888D01*
X132925000Y-96890113D02*
X132425000Y-96890113D01*
X130160000Y-100485888D02*
X128835000Y-100485888D01*
X132700000Y-101565888D02*
X132240000Y-101565888D01*
X133447000Y-100725888D02*
X132240000Y-100725888D01*
X133375000Y-100845888D02*
X132240000Y-100845888D01*
X133026000Y-101285888D02*
X132240000Y-101285888D01*
X133701000Y-100084888D02*
X132240000Y-100084888D01*
X133529000Y-100565888D02*
X132240000Y-100565888D01*
X130160000Y-100165888D02*
X128720000Y-100165888D01*
X133820000Y-99444888D02*
G75*
G03*
X133820000Y-99444888I-2620000J0D01*
G01*
%TO.C,J4*%
X107440000Y-99870000D02*
X115060000Y-99870000D01*
X107440000Y-89710000D02*
X107440000Y-99870000D01*
X115060000Y-89710000D02*
X107440000Y-89710000D01*
X115060000Y-99870000D02*
X115060000Y-89710000D01*
X113790000Y-89710000D02*
X113790000Y-99870000D01*
%TO.C,C9*%
X123000000Y-111565888D02*
X122540000Y-111565888D01*
X122511000Y-111845888D02*
X120489000Y-111845888D01*
X124073000Y-109644888D02*
X118927000Y-109644888D01*
X124078000Y-109564888D02*
X118922000Y-109564888D01*
X123153000Y-111445888D02*
X122540000Y-111445888D01*
X120460000Y-111005888D02*
X119435000Y-111005888D01*
X123437000Y-111165888D02*
X122540000Y-111165888D01*
X124036000Y-109924888D02*
X122540000Y-109924888D01*
X123724000Y-110765888D02*
X122540000Y-110765888D01*
X123747000Y-110725888D02*
X122540000Y-110725888D01*
X123980000Y-110165888D02*
X122540000Y-110165888D01*
X120460000Y-110485888D02*
X119135000Y-110485888D01*
X120460000Y-111565888D02*
X120000000Y-111565888D01*
X120460000Y-110965888D02*
X119405000Y-110965888D01*
X123565000Y-111005888D02*
X122540000Y-111005888D01*
X124069000Y-109684888D02*
X122540000Y-109684888D01*
X120460000Y-111685888D02*
X120181000Y-111685888D01*
X120460000Y-110165888D02*
X119020000Y-110165888D01*
X123914000Y-110365888D02*
X122540000Y-110365888D01*
X123595000Y-110965888D02*
X122540000Y-110965888D01*
X120460000Y-111405888D02*
X119801000Y-111405888D01*
X120460000Y-110805888D02*
X119300000Y-110805888D01*
X120460000Y-109724888D02*
X118935000Y-109724888D01*
X124061000Y-109764888D02*
X122540000Y-109764888D01*
X124080000Y-109444888D02*
X118920000Y-109444888D01*
X120460000Y-109844888D02*
X118950000Y-109844888D01*
X124043000Y-109884888D02*
X122540000Y-109884888D01*
X124076000Y-109604888D02*
X118924000Y-109604888D01*
X120460000Y-110325888D02*
X119072000Y-110325888D01*
X121784000Y-112045888D02*
X121216000Y-112045888D01*
X120460000Y-110285888D02*
X119058000Y-110285888D01*
X123942000Y-110285888D02*
X122540000Y-110285888D01*
X122177000Y-111965888D02*
X120823000Y-111965888D01*
X122883000Y-111645888D02*
X122540000Y-111645888D01*
X120460000Y-111725888D02*
X120249000Y-111725888D01*
X120460000Y-110645888D02*
X119210000Y-110645888D01*
X123898000Y-110405888D02*
X122540000Y-110405888D01*
X122305000Y-111925888D02*
X120695000Y-111925888D01*
X122018000Y-112005888D02*
X120982000Y-112005888D01*
X122415000Y-111885888D02*
X120585000Y-111885888D01*
X123968000Y-110205888D02*
X122540000Y-110205888D01*
X124020000Y-110004888D02*
X122540000Y-110004888D01*
X120460000Y-109764888D02*
X118939000Y-109764888D01*
X120460000Y-111365888D02*
X119757000Y-111365888D01*
X120460000Y-110765888D02*
X119276000Y-110765888D01*
X122943000Y-111605888D02*
X122540000Y-111605888D01*
X123848000Y-110525888D02*
X122540000Y-110525888D01*
X123243000Y-111365888D02*
X122540000Y-111365888D01*
X123199000Y-111405888D02*
X122540000Y-111405888D01*
X120460000Y-110725888D02*
X119253000Y-110725888D01*
X120460000Y-109804888D02*
X118944000Y-109804888D01*
X123054000Y-111525888D02*
X122540000Y-111525888D01*
X124050000Y-109844888D02*
X122540000Y-109844888D01*
X123285000Y-111325888D02*
X122540000Y-111325888D01*
X120460000Y-111245888D02*
X119636000Y-111245888D01*
X120460000Y-110084888D02*
X118999000Y-110084888D01*
X123955000Y-110245888D02*
X122540000Y-110245888D01*
X123700000Y-110805888D02*
X122540000Y-110805888D01*
X122598000Y-111805888D02*
X120402000Y-111805888D01*
X120460000Y-110365888D02*
X119086000Y-110365888D01*
X123810000Y-110605888D02*
X122540000Y-110605888D01*
X120460000Y-109964888D02*
X118972000Y-109964888D01*
X120460000Y-110405888D02*
X119102000Y-110405888D01*
X124001000Y-110084888D02*
X122540000Y-110084888D01*
X120460000Y-110685888D02*
X119232000Y-110685888D01*
X120460000Y-111205888D02*
X119599000Y-111205888D01*
X120460000Y-110245888D02*
X119045000Y-110245888D01*
X123622000Y-110925888D02*
X122540000Y-110925888D01*
X120460000Y-111525888D02*
X119946000Y-111525888D01*
X120460000Y-111085888D02*
X119496000Y-111085888D01*
X120460000Y-109884888D02*
X118957000Y-109884888D01*
X123364000Y-111245888D02*
X122540000Y-111245888D01*
X120460000Y-110205888D02*
X119032000Y-110205888D01*
X120460000Y-109684888D02*
X118931000Y-109684888D01*
X122678000Y-111765888D02*
X120322000Y-111765888D01*
X122975000Y-106640113D02*
X122975000Y-107140113D01*
X120460000Y-111485888D02*
X119895000Y-111485888D01*
X120460000Y-109924888D02*
X118964000Y-109924888D01*
X120460000Y-110525888D02*
X119152000Y-110525888D01*
X123535000Y-111045888D02*
X122540000Y-111045888D01*
X120460000Y-111605888D02*
X120057000Y-111605888D01*
X123504000Y-111085888D02*
X122540000Y-111085888D01*
X122819000Y-111685888D02*
X122540000Y-111685888D01*
X123928000Y-110325888D02*
X122540000Y-110325888D01*
X123675000Y-110845888D02*
X122540000Y-110845888D01*
X124011000Y-110044888D02*
X122540000Y-110044888D01*
X123768000Y-110685888D02*
X122540000Y-110685888D01*
X124079000Y-109524888D02*
X118921000Y-109524888D01*
X124056000Y-109804888D02*
X122540000Y-109804888D01*
X120460000Y-110565888D02*
X119171000Y-110565888D01*
X123326000Y-111285888D02*
X122540000Y-111285888D01*
X124080000Y-109484888D02*
X118920000Y-109484888D01*
X123829000Y-110565888D02*
X122540000Y-110565888D01*
X120460000Y-110925888D02*
X119378000Y-110925888D01*
X123790000Y-110645888D02*
X122540000Y-110645888D01*
X123991000Y-110124888D02*
X122540000Y-110124888D01*
X120460000Y-110605888D02*
X119190000Y-110605888D01*
X123882000Y-110445888D02*
X122540000Y-110445888D01*
X120460000Y-110845888D02*
X119325000Y-110845888D01*
X123401000Y-111205888D02*
X122540000Y-111205888D01*
X120460000Y-111445888D02*
X119847000Y-111445888D01*
X120460000Y-111325888D02*
X119715000Y-111325888D01*
X123865000Y-110485888D02*
X122540000Y-110485888D01*
X120460000Y-111165888D02*
X119563000Y-111165888D01*
X124028000Y-109964888D02*
X122540000Y-109964888D01*
X120460000Y-111645888D02*
X120117000Y-111645888D01*
X122751000Y-111725888D02*
X122540000Y-111725888D01*
X120460000Y-110124888D02*
X119009000Y-110124888D01*
X120460000Y-110885888D02*
X119351000Y-110885888D01*
X120460000Y-111285888D02*
X119674000Y-111285888D01*
X123225000Y-106890113D02*
X122725000Y-106890113D01*
X123471000Y-111125888D02*
X122540000Y-111125888D01*
X123105000Y-111485888D02*
X122540000Y-111485888D01*
X123649000Y-110885888D02*
X122540000Y-110885888D01*
X120460000Y-111045888D02*
X119465000Y-111045888D01*
X124065000Y-109724888D02*
X122540000Y-109724888D01*
X120460000Y-110044888D02*
X118989000Y-110044888D01*
X120460000Y-110004888D02*
X118980000Y-110004888D01*
X120460000Y-110445888D02*
X119118000Y-110445888D01*
X120460000Y-111125888D02*
X119529000Y-111125888D01*
X124120000Y-109444888D02*
G75*
G03*
X124120000Y-109444888I-2620000J0D01*
G01*
%TO.C,J1*%
X158740000Y-94330000D02*
X158740000Y-91670000D01*
X140900000Y-91670000D02*
X158740000Y-91670000D01*
X140900000Y-94330000D02*
X140900000Y-91670000D01*
X139630000Y-94330000D02*
X138300000Y-94330000D01*
X140900000Y-94330000D02*
X158740000Y-94330000D01*
X138300000Y-94330000D02*
X138300000Y-93000000D01*
%TO.C,J2*%
X187280000Y-92295000D02*
X187280000Y-120295000D01*
X187280000Y-92295000D02*
X189940000Y-92295000D01*
X187280000Y-91025000D02*
X187280000Y-89695000D01*
X187280000Y-120295000D02*
X189940000Y-120295000D01*
X187280000Y-89695000D02*
X188610000Y-89695000D01*
X189940000Y-92295000D02*
X189940000Y-120295000D01*
%TD*%
M02*
