%TF.GenerationSoftware,KiCad,Pcbnew,10.0.1*%
%TF.CreationDate,2026-08-16T10:39:17+02:00*%
%TF.ProjectId,HBW-Sen-PRESS-4_Platine1,4842572d-5365-46e2-9d50-524553532d34,rev?*%
%TF.SameCoordinates,Original*%
%TF.FileFunction,Copper,L2,Bot*%
%TF.FilePolarity,Positive*%
%FSLAX46Y46*%
G04 Gerber Fmt 4.6, Leading zero omitted, Abs format (unit mm)*
G04 Created by KiCad (PCBNEW 10.0.1) date 2026-08-16 10:39:17*
%MOMM*%
%LPD*%
G01*
G04 APERTURE LIST*
G04 Aperture macros list*
%AMRoundRect*
0 Rectangle with rounded corners*
0 $1 Rounding radius*
0 $2 $3 $4 $5 $6 $7 $8 $9 X,Y pos of 4 corners*
0 Add a 4 corners polygon primitive as box body*
4,1,4,$2,$3,$4,$5,$6,$7,$8,$9,$2,$3,0*
0 Add four circle primitives for the rounded corners*
1,1,$1+$1,$2,$3*
1,1,$1+$1,$4,$5*
1,1,$1+$1,$6,$7*
1,1,$1+$1,$8,$9*
0 Add four rect primitives between the rounded corners*
20,1,$1+$1,$2,$3,$4,$5,0*
20,1,$1+$1,$4,$5,$6,$7,0*
20,1,$1+$1,$6,$7,$8,$9,0*
20,1,$1+$1,$8,$9,$2,$3,0*%
G04 Aperture macros list end*
%TA.AperFunction,ComponentPad*%
%ADD10R,1.700000X1.700000*%
%TD*%
%TA.AperFunction,ComponentPad*%
%ADD11O,1.700000X1.700000*%
%TD*%
%TA.AperFunction,ComponentPad*%
%ADD12R,3.000000X3.000000*%
%TD*%
%TA.AperFunction,ComponentPad*%
%ADD13C,3.000000*%
%TD*%
%TA.AperFunction,ComponentPad*%
%ADD14RoundRect,0.250001X0.949999X-0.949999X0.949999X0.949999X-0.949999X0.949999X-0.949999X-0.949999X0*%
%TD*%
%TA.AperFunction,ComponentPad*%
%ADD15C,2.400000*%
%TD*%
%TA.AperFunction,ComponentPad*%
%ADD16R,1.600000X1.600000*%
%TD*%
%TA.AperFunction,ComponentPad*%
%ADD17C,1.600000*%
%TD*%
%TA.AperFunction,SMDPad,CuDef*%
%ADD18R,2.950000X2.020000*%
%TD*%
%TA.AperFunction,SMDPad,CuDef*%
%ADD19R,1.200000X3.700000*%
%TD*%
%TA.AperFunction,SMDPad,CuDef*%
%ADD20R,3.200000X0.400000*%
%TD*%
%TA.AperFunction,SMDPad,CuDef*%
%ADD21RoundRect,0.250000X0.450000X-0.350000X0.450000X0.350000X-0.450000X0.350000X-0.450000X-0.350000X0*%
%TD*%
%TA.AperFunction,SMDPad,CuDef*%
%ADD22RoundRect,0.250000X0.475000X-0.337500X0.475000X0.337500X-0.475000X0.337500X-0.475000X-0.337500X0*%
%TD*%
%TA.AperFunction,SMDPad,CuDef*%
%ADD23R,1.600000X0.550000*%
%TD*%
%TA.AperFunction,SMDPad,CuDef*%
%ADD24R,0.550000X1.600000*%
%TD*%
%TA.AperFunction,SMDPad,CuDef*%
%ADD25RoundRect,0.250000X-0.412500X-1.100000X0.412500X-1.100000X0.412500X1.100000X-0.412500X1.100000X0*%
%TD*%
%TA.AperFunction,SMDPad,CuDef*%
%ADD26RoundRect,0.150000X-0.150000X0.825000X-0.150000X-0.825000X0.150000X-0.825000X0.150000X0.825000X0*%
%TD*%
%TA.AperFunction,SMDPad,CuDef*%
%ADD27RoundRect,0.150000X0.825000X0.150000X-0.825000X0.150000X-0.825000X-0.150000X0.825000X-0.150000X0*%
%TD*%
%TA.AperFunction,SMDPad,CuDef*%
%ADD28RoundRect,0.250000X0.337500X0.475000X-0.337500X0.475000X-0.337500X-0.475000X0.337500X-0.475000X0*%
%TD*%
%TA.AperFunction,SMDPad,CuDef*%
%ADD29RoundRect,0.250000X0.350000X0.450000X-0.350000X0.450000X-0.350000X-0.450000X0.350000X-0.450000X0*%
%TD*%
%TA.AperFunction,SMDPad,CuDef*%
%ADD30RoundRect,0.250000X1.100000X-0.412500X1.100000X0.412500X-1.100000X0.412500X-1.100000X-0.412500X0*%
%TD*%
%TA.AperFunction,SMDPad,CuDef*%
%ADD31RoundRect,0.250000X-0.475000X0.337500X-0.475000X-0.337500X0.475000X-0.337500X0.475000X0.337500X0*%
%TD*%
%TA.AperFunction,SMDPad,CuDef*%
%ADD32RoundRect,0.250000X-0.450000X0.350000X-0.450000X-0.350000X0.450000X-0.350000X0.450000X0.350000X0*%
%TD*%
%TA.AperFunction,SMDPad,CuDef*%
%ADD33R,3.500000X1.800000*%
%TD*%
%TA.AperFunction,SMDPad,CuDef*%
%ADD34RoundRect,0.250000X-0.350000X-0.450000X0.350000X-0.450000X0.350000X0.450000X-0.350000X0.450000X0*%
%TD*%
%TA.AperFunction,SMDPad,CuDef*%
%ADD35R,1.500000X2.700000*%
%TD*%
%TA.AperFunction,ViaPad*%
%ADD36C,1.000000*%
%TD*%
%TA.AperFunction,ViaPad*%
%ADD37C,0.600000*%
%TD*%
%TA.AperFunction,Conductor*%
%ADD38C,0.300000*%
%TD*%
%TA.AperFunction,Conductor*%
%ADD39C,1.000000*%
%TD*%
%TA.AperFunction,Conductor*%
%ADD40C,1.200000*%
%TD*%
G04 APERTURE END LIST*
D10*
%TO.P,J3,1,Pin_1_1*%
%TO.N,/GND*%
X139620000Y-117000000D03*
D11*
%TO.P,J3,2,Pin_2_2*%
X142160000Y-117000000D03*
%TO.P,J3,3,Pin_3_3*%
%TO.N,/RST*%
X144700000Y-117000000D03*
%TO.P,J3,4,Pin_4_4*%
%TO.N,unconnected-(J3-Pin_4-Pad4)*%
X147240000Y-117000000D03*
%TO.P,J3,5,Pin_5_5*%
%TO.N,unconnected-(J3-Pin_5-Pad5)*%
X149780000Y-117000000D03*
%TO.P,J3,6,Pin_6_6*%
%TO.N,unconnected-(J3-Pin_6-Pad6)*%
X152320000Y-117000000D03*
%TO.P,J3,7,Pin_7_7*%
%TO.N,unconnected-(J3-Pin_7-Pad7)*%
X154860000Y-117000000D03*
%TO.P,J3,8,Pin_8_8*%
%TO.N,unconnected-(J3-Pin_8-Pad8)*%
X157400000Y-117000000D03*
%TD*%
D12*
%TO.P,J5,1,Pin_1_1*%
%TO.N,Net-(IC2-A)*%
X111250000Y-117750000D03*
D13*
%TO.P,J5,2,Pin_2_2*%
%TO.N,Net-(IC2-B)*%
X111250000Y-112670000D03*
%TD*%
D14*
%TO.P,J2,1,Pin_1_1*%
%TO.N,/A3*%
X185500000Y-117889335D03*
D15*
%TO.P,J2,2,Pin_2_2*%
%TO.N,/A2*%
X185500000Y-112809335D03*
%TO.P,J2,3,Pin_3_3*%
%TO.N,/A1*%
X185500000Y-107729335D03*
%TO.P,J2,4,Pin_4_4*%
%TO.N,/A0*%
X185500000Y-102649335D03*
%TO.P,J2,5,Pin_5_5*%
%TO.N,/GND*%
X185500000Y-97569335D03*
%TO.P,J2,6,Pin_6_6*%
%TO.N,/VCC*%
X185500000Y-92489335D03*
%TD*%
D16*
%TO.P,C6,1*%
%TO.N,/VCC*%
X131200000Y-98194888D03*
D17*
%TO.P,C6,2*%
%TO.N,/GND*%
X131200000Y-100694888D03*
%TD*%
D12*
%TO.P,J4,1,Pin_1_1*%
%TO.N,/+24V*%
X111250000Y-97330000D03*
D13*
%TO.P,J4,2,Pin_2_2*%
%TO.N,/GND*%
X111250000Y-92250000D03*
%TD*%
D16*
%TO.P,C9,1*%
%TO.N,Net-(D1-K)*%
X121500000Y-108194888D03*
D17*
%TO.P,C9,2*%
%TO.N,/GND*%
X121500000Y-110694888D03*
%TD*%
D10*
%TO.P,J1,1,Pin_1_1*%
%TO.N,/VCC*%
X139630000Y-93000000D03*
D11*
%TO.P,J1,2,Pin_2_2*%
X142170000Y-93000000D03*
%TO.P,J1,3,Pin_3_3*%
%TO.N,/A6*%
X144710000Y-93000000D03*
%TO.P,J1,4,Pin_4_4*%
%TO.N,/D11*%
X147250000Y-93000000D03*
%TO.P,J1,5,Pin_5_5*%
%TO.N,/D12*%
X149790000Y-93000000D03*
%TO.P,J1,6,Pin_6_6*%
%TO.N,/D13*%
X152330000Y-93000000D03*
%TO.P,J1,7,Pin_7_7*%
%TO.N,unconnected-(J1-Pin_7-Pad7)*%
X154870000Y-93000000D03*
%TO.P,J1,8,Pin_8_8*%
%TO.N,unconnected-(J1-Pin_8-Pad8)*%
X157410000Y-93000000D03*
%TD*%
D18*
%TO.P,SI1,1*%
%TO.N,/+24V*%
X111250000Y-102500000D03*
%TO.P,SI1,2*%
%TO.N,Net-(D1-A)*%
X111250000Y-107500000D03*
%TD*%
D19*
%TO.P,L1,1,1_1*%
%TO.N,/VCC*%
X129000000Y-95000000D03*
%TO.P,L1,2,2_2*%
%TO.N,Net-(D2-K)*%
X126200000Y-95000000D03*
%TD*%
D20*
%TO.P,Y1,1,1_1*%
%TO.N,/XTAL1*%
X134340000Y-105630000D03*
%TO.P,Y1,2,2_2*%
%TO.N,/GND*%
X134340000Y-104430000D03*
%TO.P,Y1,3,3_3*%
%TO.N,/XTAL2*%
X134340000Y-103230000D03*
%TD*%
D21*
%TO.P,R3,1*%
%TO.N,Net-(IC1-Vfb)*%
X128000000Y-100400000D03*
%TO.P,R3,2*%
%TO.N,/GND*%
X128000000Y-98400000D03*
%TD*%
D22*
%TO.P,C5,1*%
%TO.N,/GND*%
X133600000Y-100437500D03*
%TO.P,C5,2*%
%TO.N,/VCC*%
X133600000Y-98362500D03*
%TD*%
%TO.P,C1,1*%
%TO.N,/VCC*%
X131170000Y-106525000D03*
%TO.P,C1,2*%
%TO.N,/GND*%
X131170000Y-104450000D03*
%TD*%
D23*
%TO.P,IC3,1,PD3_1*%
%TO.N,/D3*%
X137370000Y-110430000D03*
%TO.P,IC3,2,PD4_2*%
%TO.N,/D4*%
X137370000Y-109630000D03*
%TO.P,IC3,3,GND_3*%
%TO.N,/GND*%
X137370000Y-108830000D03*
%TO.P,IC3,4,VCC_4*%
%TO.N,/VCC*%
X137370000Y-108030000D03*
%TO.P,IC3,5,GND_5*%
%TO.N,/GND*%
X137370000Y-107230000D03*
%TO.P,IC3,6,VCC_6*%
%TO.N,/VCC*%
X137370000Y-106430000D03*
%TO.P,IC3,7,XTAL1/PB6_7*%
%TO.N,/XTAL1*%
X137370000Y-105630000D03*
%TO.P,IC3,8,XTAL2/PB7_8*%
%TO.N,/XTAL2*%
X137370000Y-104830000D03*
D24*
%TO.P,IC3,9,PD5_9*%
%TO.N,/D5*%
X138820000Y-103380000D03*
%TO.P,IC3,10,PD6_10*%
%TO.N,/D6*%
X139620000Y-103380000D03*
%TO.P,IC3,11,PD7_11*%
%TO.N,/D7*%
X140420000Y-103380000D03*
%TO.P,IC3,12,PB0_12*%
%TO.N,/D8*%
X141220000Y-103380000D03*
%TO.P,IC3,13,PB1_13*%
%TO.N,/D9*%
X142020000Y-103380000D03*
%TO.P,IC3,14,PB2_14*%
%TO.N,/D10*%
X142820000Y-103380000D03*
%TO.P,IC3,15,PB3_15*%
%TO.N,/D11*%
X143620000Y-103380000D03*
%TO.P,IC3,16,PB4_16*%
%TO.N,/D12*%
X144420000Y-103380000D03*
D23*
%TO.P,IC3,17,PB5_17*%
%TO.N,/D13*%
X145870000Y-104830000D03*
%TO.P,IC3,18,AVCC_18*%
%TO.N,/VCC*%
X145870000Y-105630000D03*
%TO.P,IC3,19,ADC6_19*%
%TO.N,/A6*%
X145870000Y-106430000D03*
%TO.P,IC3,20,AREF_20*%
%TO.N,Net-(IC3-AREF)*%
X145870000Y-107230000D03*
%TO.P,IC3,21,GND_21*%
%TO.N,/GND*%
X145870000Y-108030000D03*
%TO.P,IC3,22,ADC7_22*%
%TO.N,/A7*%
X145870000Y-108830000D03*
%TO.P,IC3,23,PC0_23*%
%TO.N,/A0*%
X145870000Y-109630000D03*
%TO.P,IC3,24,PC1_24*%
%TO.N,/A1*%
X145870000Y-110430000D03*
D24*
%TO.P,IC3,25,PC2_25*%
%TO.N,/A2*%
X144420000Y-111880000D03*
%TO.P,IC3,26,PC3_26*%
%TO.N,/A3*%
X143620000Y-111880000D03*
%TO.P,IC3,27,PC4_27*%
%TO.N,/A4*%
X142820000Y-111880000D03*
%TO.P,IC3,28,PC5_28*%
%TO.N,/A5*%
X142020000Y-111880000D03*
%TO.P,IC3,29,~{RESET}/PC6_29*%
%TO.N,/RST*%
X141220000Y-111880000D03*
%TO.P,IC3,30,PD0_30*%
%TO.N,/RXD*%
X140420000Y-111880000D03*
%TO.P,IC3,31,PD1_31*%
%TO.N,/TXD*%
X139620000Y-111880000D03*
%TO.P,IC3,32,PD2_32*%
%TO.N,/D2*%
X138820000Y-111880000D03*
%TD*%
D25*
%TO.P,C4,1*%
%TO.N,/VCC*%
X131187500Y-95000000D03*
%TO.P,C4,2*%
%TO.N,/GND*%
X134312500Y-95000000D03*
%TD*%
D26*
%TO.P,IC1,1,SwC_1*%
%TO.N,Net-(IC1-DC)*%
X122095000Y-98725000D03*
%TO.P,IC1,2,SwE_2*%
%TO.N,Net-(D2-K)*%
X123365000Y-98725000D03*
%TO.P,IC1,3,TC_3*%
%TO.N,Net-(IC1-TC)*%
X124635000Y-98725000D03*
%TO.P,IC1,4,GND_4*%
%TO.N,/GND*%
X125905000Y-98725000D03*
%TO.P,IC1,5,Vfb_5*%
%TO.N,Net-(IC1-Vfb)*%
X125905000Y-103675000D03*
%TO.P,IC1,6,Vin_6*%
%TO.N,Net-(D1-K)*%
X124635000Y-103675000D03*
%TO.P,IC1,7,Ipk_7*%
%TO.N,Net-(IC1-DC)*%
X123365000Y-103675000D03*
%TO.P,IC1,8,DC_8*%
X122095000Y-103675000D03*
%TD*%
D27*
%TO.P,IC2,1,RO_1*%
%TO.N,/RXD*%
X124475000Y-114495000D03*
%TO.P,IC2,2,~{RE}_2*%
%TO.N,/GND*%
X124475000Y-115765000D03*
%TO.P,IC2,3,DE_3*%
%TO.N,/D2*%
X124475000Y-117035000D03*
%TO.P,IC2,4,DI_4*%
%TO.N,/TXD*%
X124475000Y-118305000D03*
%TO.P,IC2,5,GND_5*%
%TO.N,/GND*%
X119525000Y-118305000D03*
%TO.P,IC2,6,A_6*%
%TO.N,Net-(IC2-A)*%
X119525000Y-117035000D03*
%TO.P,IC2,7,B_7*%
%TO.N,Net-(IC2-B)*%
X119525000Y-115765000D03*
%TO.P,IC2,8,VCC_8*%
%TO.N,/VCC*%
X119525000Y-114495000D03*
%TD*%
D28*
%TO.P,C13,1*%
%TO.N,/GND*%
X151105000Y-105160000D03*
%TO.P,C13,2*%
%TO.N,/VCC*%
X149030000Y-105160000D03*
%TD*%
D10*
%TO.P,J6,1,MISO_1*%
%TO.N,/D12*%
X158500000Y-101260000D03*
D11*
%TO.P,J6,2,VCC_2*%
%TO.N,/VCC*%
X156000000Y-101260000D03*
%TO.P,J6,3,SCK_3*%
%TO.N,/D13*%
X158000000Y-103800000D03*
%TO.P,J6,4,MOSI_4*%
%TO.N,/D11*%
X155500000Y-103800000D03*
%TO.P,J6,5,~{RST}_5*%
%TO.N,/RST*%
X158500000Y-106340000D03*
%TO.P,J6,6,GND_6*%
%TO.N,/GND*%
X156000000Y-106340000D03*
%TD*%
D28*
%TO.P,C11,1*%
%TO.N,/GND*%
X151105000Y-107230000D03*
%TO.P,C11,2*%
%TO.N,Net-(IC3-AREF)*%
X149030000Y-107230000D03*
%TD*%
D29*
%TO.P,R8,1*%
%TO.N,/VCC*%
X143250000Y-114090000D03*
%TO.P,R8,2*%
%TO.N,/RST*%
X141250000Y-114090000D03*
%TD*%
%TO.P,R5,1*%
%TO.N,Net-(D1-K)*%
X124000000Y-106000000D03*
%TO.P,R5,2*%
%TO.N,Net-(IC1-DC)*%
X122000000Y-106000000D03*
%TD*%
D30*
%TO.P,C7,1*%
%TO.N,Net-(D1-K)*%
X119200000Y-104762500D03*
%TO.P,C7,2*%
%TO.N,/GND*%
X119200000Y-101637500D03*
%TD*%
D22*
%TO.P,C12,1*%
%TO.N,/GND*%
X133890000Y-110125000D03*
%TO.P,C12,2*%
%TO.N,/VCC*%
X133890000Y-108050000D03*
%TD*%
D31*
%TO.P,C10,1*%
%TO.N,Net-(IC2-A)*%
X117000000Y-116962500D03*
%TO.P,C10,2*%
%TO.N,/GND*%
X117000000Y-119037500D03*
%TD*%
D32*
%TO.P,R2,1*%
%TO.N,/GND*%
X127000000Y-115400000D03*
%TO.P,R2,2*%
%TO.N,/D2*%
X127000000Y-117400000D03*
%TD*%
D31*
%TO.P,C2,1*%
%TO.N,Net-(IC1-TC)*%
X118600000Y-97762500D03*
%TO.P,C2,2*%
%TO.N,/GND*%
X118600000Y-99837500D03*
%TD*%
D33*
%TO.P,D2,1,K_1*%
%TO.N,Net-(D2-K)*%
X122500000Y-95000000D03*
%TO.P,D2,2,A_2*%
%TO.N,/GND*%
X117500000Y-95000000D03*
%TD*%
D31*
%TO.P,C3,1*%
%TO.N,/GND*%
X119300000Y-110662500D03*
%TO.P,C3,2*%
%TO.N,/VCC*%
X119300000Y-112737500D03*
%TD*%
D34*
%TO.P,R1,1*%
%TO.N,/VCC*%
X139900000Y-97025000D03*
%TO.P,R1,2*%
%TO.N,/A6*%
X141900000Y-97025000D03*
%TD*%
D21*
%TO.P,R4,1*%
%TO.N,/VCC*%
X128000000Y-104200000D03*
%TO.P,R4,2*%
%TO.N,Net-(IC1-Vfb)*%
X128000000Y-102200000D03*
%TD*%
D22*
%TO.P,C8,1*%
%TO.N,Net-(IC2-B)*%
X117000000Y-115137500D03*
%TO.P,C8,2*%
%TO.N,/GND*%
X117000000Y-113062500D03*
%TD*%
D35*
%TO.P,D1,1,K_1*%
%TO.N,Net-(D1-K)*%
X119150000Y-107500000D03*
%TO.P,D1,2,A_2*%
%TO.N,Net-(D1-A)*%
X114350000Y-107500000D03*
%TD*%
D36*
%TO.N,/VCC*%
X144850000Y-114090000D03*
X143640000Y-105630000D03*
%TO.N,/A6*%
X147550000Y-106300000D03*
X142050000Y-98950000D03*
D37*
%TO.N,Net-(IC1-TC)*%
X124650000Y-100200000D03*
X120200000Y-100200000D03*
%TD*%
%TO.N,/GND*%
D38*
X125905000Y-98725000D02*
X127675000Y-98725000D01*
X135185000Y-108830000D02*
X133890000Y-110125000D01*
X124475000Y-115765000D02*
X126635000Y-115765000D01*
X127570000Y-97970000D02*
X127570000Y-95860000D01*
X140130000Y-108830000D02*
X140940000Y-108020000D01*
X140950000Y-108030000D02*
X145870000Y-108030000D01*
X134340000Y-104430000D02*
X131190000Y-104430000D01*
X148140000Y-108030000D02*
X148540000Y-108430000D01*
X140940000Y-108020000D02*
X140950000Y-108030000D01*
X137370000Y-108830000D02*
X135185000Y-108830000D01*
X137370000Y-107230000D02*
X140150000Y-107230000D01*
X127675000Y-98725000D02*
X128000000Y-98400000D01*
X145870000Y-108030000D02*
X148140000Y-108030000D01*
X148540000Y-108430000D02*
X149905000Y-108430000D01*
X140150000Y-107230000D02*
X140940000Y-108020000D01*
X137370000Y-108830000D02*
X140130000Y-108830000D01*
X128000000Y-98400000D02*
X127570000Y-97970000D01*
X149905000Y-108430000D02*
X151105000Y-107230000D01*
%TO.N,/RST*%
X141250000Y-114090000D02*
X144160000Y-117000000D01*
X141220000Y-111880000D02*
X141220000Y-114060000D01*
%TO.N,Net-(IC2-A)*%
X112037500Y-116962500D02*
X117000000Y-116962500D01*
X119525000Y-117035000D02*
X117072500Y-117035000D01*
%TO.N,Net-(IC2-B)*%
X119525000Y-115765000D02*
X117627500Y-115765000D01*
X117000000Y-115137500D02*
X113717500Y-115137500D01*
X117627500Y-115765000D02*
X117000000Y-115137500D01*
X113717500Y-115137500D02*
X111250000Y-112670000D01*
%TO.N,/A3*%
X143620000Y-111880000D02*
X143620000Y-112855000D01*
X143620000Y-112855000D02*
X143795000Y-113030000D01*
X180530000Y-113030000D02*
X185389335Y-117889335D01*
X143795000Y-113030000D02*
X180530000Y-113030000D01*
X185389335Y-117889335D02*
X185500000Y-117889335D01*
%TO.N,/A2*%
X184570665Y-111880000D02*
X185500000Y-112809335D01*
X144420000Y-111880000D02*
X184570665Y-111880000D01*
%TO.N,/A1*%
X145870000Y-110430000D02*
X182799335Y-110430000D01*
X182799335Y-110430000D02*
X185500000Y-107729335D01*
%TO.N,/A0*%
X145870000Y-109630000D02*
X178519335Y-109630000D01*
X178519335Y-109630000D02*
X185500000Y-102649335D01*
%TO.N,/VCC*%
X137370000Y-108030000D02*
X133910000Y-108030000D01*
X143250000Y-114090000D02*
X144850000Y-114090000D01*
X129600000Y-99794888D02*
X129600000Y-102600000D01*
X119525000Y-114495000D02*
X119525000Y-112962500D01*
X128000000Y-105821234D02*
X121083734Y-112737500D01*
D39*
X139630000Y-93000000D02*
X142170000Y-93000000D01*
X183770665Y-90760000D02*
X185500000Y-92489335D01*
D38*
X137370000Y-106430000D02*
X131265000Y-106430000D01*
D39*
X135537500Y-98362500D02*
X139630000Y-94270000D01*
D38*
X147017918Y-105630000D02*
X147487918Y-105160000D01*
D40*
X131200000Y-95012500D02*
X131200000Y-98194888D01*
D39*
X144410000Y-90760000D02*
X183770665Y-90760000D01*
D38*
X139900000Y-97025000D02*
X139900000Y-95270000D01*
D40*
X129000000Y-95000000D02*
X131187500Y-95000000D01*
D38*
X131295000Y-106525000D02*
X132870000Y-108100000D01*
X149020000Y-105150000D02*
X149030000Y-105160000D01*
X131200000Y-98194888D02*
X129600000Y-99794888D01*
D39*
X133600000Y-98362500D02*
X135537500Y-98362500D01*
D38*
X130325000Y-106525000D02*
X131170000Y-106525000D01*
X128000000Y-104200000D02*
X128000000Y-105821234D01*
X149030000Y-105160000D02*
X152930000Y-101260000D01*
X132870000Y-108100000D02*
X133840000Y-108100000D01*
D39*
X139630000Y-94270000D02*
X139630000Y-93000000D01*
D38*
X145870000Y-105630000D02*
X147017918Y-105630000D01*
D39*
X131200000Y-98194888D02*
X133432388Y-98194888D01*
D38*
X129600000Y-102600000D02*
X128000000Y-104200000D01*
X152930000Y-101260000D02*
X156000000Y-101260000D01*
X121083734Y-112737500D02*
X119300000Y-112737500D01*
X128000000Y-104200000D02*
X130325000Y-106525000D01*
X147487918Y-105160000D02*
X149030000Y-105160000D01*
D39*
X142170000Y-93000000D02*
X144410000Y-90760000D01*
D38*
X139900000Y-95270000D02*
X142170000Y-93000000D01*
X143640000Y-105630000D02*
X145870000Y-105630000D01*
%TO.N,/+24V*%
D40*
X111250000Y-102500000D02*
X111250000Y-97330000D01*
%TO.N,Net-(D1-K)*%
X122805112Y-108194888D02*
X124000000Y-107000000D01*
D38*
X124635000Y-105365000D02*
X124000000Y-106000000D01*
D40*
X121500000Y-108194888D02*
X119844888Y-108194888D01*
X121500000Y-108194888D02*
X122805112Y-108194888D01*
X124000000Y-107000000D02*
X124000000Y-106000000D01*
D38*
X124635000Y-103675000D02*
X124635000Y-105365000D01*
X119844888Y-108194888D02*
X119150000Y-107500000D01*
D40*
X119200000Y-104762500D02*
X119200000Y-107450000D01*
%TO.N,/D11*%
D38*
X143620000Y-96630000D02*
X147250000Y-93000000D01*
X143620000Y-103380000D02*
X143620000Y-96630000D01*
%TO.N,/D12*%
X144420000Y-103380000D02*
X144420000Y-98370000D01*
X144420000Y-98370000D02*
X149790000Y-93000000D01*
%TO.N,/D13*%
X145870000Y-99460000D02*
X152330000Y-93000000D01*
X145870000Y-104830000D02*
X145870000Y-99460000D01*
%TO.N,Net-(D1-A)*%
D40*
X111250000Y-107500000D02*
X114350000Y-107500000D01*
%TO.N,Net-(D2-K)*%
X122500000Y-95000000D02*
X126200000Y-95000000D01*
D38*
X123365000Y-95865000D02*
X123365000Y-98725000D01*
X122500000Y-95000000D02*
X123365000Y-95865000D01*
%TO.N,/XTAL1*%
X134340000Y-105630000D02*
X137370000Y-105630000D01*
%TO.N,/XTAL2*%
X137370000Y-104830000D02*
X135770000Y-103230000D01*
%TO.N,Net-(IC1-Vfb)*%
X128000000Y-102200000D02*
X127380000Y-102200000D01*
X128000000Y-100400000D02*
X128000000Y-102200000D01*
X127380000Y-102200000D02*
X125905000Y-103675000D01*
%TO.N,/A6*%
X141900000Y-97025000D02*
X141900000Y-98800000D01*
X141900000Y-95810000D02*
X141900000Y-97025000D01*
X144710000Y-93000000D02*
X141900000Y-95810000D01*
X145870000Y-106430000D02*
X147420000Y-106430000D01*
X141900000Y-98800000D02*
X142050000Y-98950000D01*
X147420000Y-106430000D02*
X147550000Y-106300000D01*
%TO.N,Net-(IC3-AREF)*%
X145870000Y-107230000D02*
X149030000Y-107230000D01*
%TO.N,/RXD*%
X139535000Y-113765000D02*
X134000000Y-119300000D01*
X122700000Y-114800000D02*
X123000000Y-114500000D01*
X139535000Y-113740000D02*
X139535000Y-113765000D01*
X123200000Y-119300000D02*
X122700000Y-118800000D01*
X123000000Y-114500000D02*
X124057893Y-114500000D01*
X134000000Y-119300000D02*
X123200000Y-119300000D01*
X122700000Y-118800000D02*
X122700000Y-114800000D01*
X140420000Y-112855000D02*
X139535000Y-113740000D01*
X140420000Y-111880000D02*
X140420000Y-112855000D01*
%TO.N,/TXD*%
X124520000Y-118350000D02*
X134125000Y-118350000D01*
X134125000Y-118350000D02*
X139620000Y-112855000D01*
X139620000Y-112855000D02*
X139620000Y-111880000D01*
%TO.N,/D2*%
X134190000Y-117400000D02*
X138820000Y-112770000D01*
X124475000Y-117035000D02*
X126635000Y-117035000D01*
X138820000Y-112770000D02*
X138820000Y-111880000D01*
X127000000Y-117400000D02*
X134190000Y-117400000D01*
%TO.N,Net-(IC1-DC)*%
X122095000Y-103675000D02*
X123365000Y-103675000D01*
X122095000Y-98725000D02*
X122095000Y-105905000D01*
%TO.N,Net-(IC1-TC)*%
X124635000Y-98725000D02*
X124635000Y-100185000D01*
X118600000Y-97762500D02*
X120200000Y-99362500D01*
X120200000Y-99362500D02*
X120200000Y-100200000D01*
X124635000Y-100185000D02*
X124650000Y-100200000D01*
%TD*%
%TA.AperFunction,Conductor*%
%TO.N,/GND*%
G36*
X141694075Y-116807007D02*
G01*
X141660000Y-116934174D01*
X141660000Y-117065826D01*
X141694075Y-117192993D01*
X141729297Y-117254000D01*
X140050703Y-117254000D01*
X140085925Y-117192993D01*
X140120000Y-117065826D01*
X140120000Y-116934174D01*
X140085925Y-116807007D01*
X140050703Y-116746000D01*
X141729297Y-116746000D01*
X141694075Y-116807007D01*
G37*
%TD.AperFunction*%
%TA.AperFunction,Conductor*%
G36*
X140059533Y-114275894D02*
G01*
X140116368Y-114318441D01*
X140141179Y-114384961D01*
X140141500Y-114393949D01*
X140141500Y-114590544D01*
X140152112Y-114694425D01*
X140207885Y-114862738D01*
X140300970Y-115013652D01*
X140300975Y-115013658D01*
X140426341Y-115139024D01*
X140426347Y-115139029D01*
X140426348Y-115139030D01*
X140577262Y-115232115D01*
X140745574Y-115287887D01*
X140849455Y-115298500D01*
X141475049Y-115298499D01*
X141504964Y-115307282D01*
X141535434Y-115313911D01*
X141540529Y-115317725D01*
X141543170Y-115318501D01*
X141564144Y-115335404D01*
X141743540Y-115514800D01*
X141777566Y-115577112D01*
X141772501Y-115647927D01*
X141729954Y-115704763D01*
X141693382Y-115723728D01*
X141638710Y-115741492D01*
X141638707Y-115741493D01*
X141448249Y-115838536D01*
X141275322Y-115964176D01*
X141171822Y-116067676D01*
X141109510Y-116101701D01*
X141038694Y-116096635D01*
X140981858Y-116054089D01*
X140964671Y-116022612D01*
X140920444Y-115904034D01*
X140832904Y-115787095D01*
X140715965Y-115699555D01*
X140579093Y-115648505D01*
X140518597Y-115642000D01*
X139874000Y-115642000D01*
X139874000Y-116569297D01*
X139812993Y-116534075D01*
X139685826Y-116500000D01*
X139554174Y-116500000D01*
X139427007Y-116534075D01*
X139366000Y-116569297D01*
X139366000Y-115642000D01*
X138893449Y-115642000D01*
X138825328Y-115621998D01*
X138778835Y-115568342D01*
X138768731Y-115498068D01*
X138798225Y-115433488D01*
X138804340Y-115426919D01*
X139926405Y-114304855D01*
X139988717Y-114270829D01*
X140059533Y-114275894D01*
G37*
%TD.AperFunction*%
%TA.AperFunction,Conductor*%
G36*
X121100000Y-110747549D02*
G01*
X121127259Y-110849282D01*
X121179920Y-110940494D01*
X121254394Y-111014968D01*
X121345606Y-111067629D01*
X121447339Y-111094888D01*
X121459210Y-111094888D01*
X120771626Y-111782470D01*
X120814458Y-111813589D01*
X120814459Y-111813590D01*
X120833451Y-111823267D01*
X120854230Y-111842892D01*
X120877114Y-111860022D01*
X120879696Y-111866944D01*
X120885066Y-111872016D01*
X120891935Y-111899757D01*
X120901927Y-111926542D01*
X120900356Y-111933761D01*
X120902132Y-111940930D01*
X120892912Y-111967983D01*
X120886837Y-111995916D01*
X120880516Y-112004360D01*
X120879231Y-112008132D01*
X120865346Y-112024627D01*
X120847881Y-112042093D01*
X120785570Y-112076120D01*
X120758783Y-112079000D01*
X120538510Y-112079000D01*
X120470389Y-112058998D01*
X120431269Y-112019147D01*
X120405646Y-111977606D01*
X120374030Y-111926348D01*
X120374029Y-111926347D01*
X120374024Y-111926341D01*
X120248657Y-111800974D01*
X120245547Y-111798515D01*
X120243967Y-111796284D01*
X120243463Y-111795780D01*
X120243549Y-111795693D01*
X120204518Y-111740575D01*
X120201326Y-111669650D01*
X120230993Y-111614342D01*
X120341106Y-111494723D01*
X120342228Y-111494048D01*
X120344714Y-111490964D01*
X120371342Y-111464336D01*
X120371342Y-111464335D01*
X121100000Y-110735677D01*
X121100000Y-110747549D01*
G37*
%TD.AperFunction*%
%TA.AperFunction,Conductor*%
G36*
X120300795Y-109323390D02*
G01*
X120333540Y-109353877D01*
X120336737Y-109358148D01*
X120453792Y-109445775D01*
X120453794Y-109445776D01*
X120453796Y-109445777D01*
X120505265Y-109464974D01*
X120590795Y-109496876D01*
X120590803Y-109496878D01*
X120654717Y-109503749D01*
X120654596Y-109504865D01*
X120717189Y-109526931D01*
X120760756Y-109582989D01*
X120763117Y-109598796D01*
X121459209Y-110294888D01*
X121447339Y-110294888D01*
X121345606Y-110322147D01*
X121254394Y-110374808D01*
X121179920Y-110449282D01*
X121127259Y-110540494D01*
X121100000Y-110642227D01*
X121100000Y-110654097D01*
X120377102Y-109931199D01*
X120343076Y-109868887D01*
X120340197Y-109842104D01*
X120340197Y-109818222D01*
X120248345Y-109726370D01*
X120248339Y-109726365D01*
X120097525Y-109633342D01*
X119986379Y-109596513D01*
X119928008Y-109556099D01*
X119900752Y-109490542D01*
X119913265Y-109420657D01*
X119961575Y-109368631D01*
X119984512Y-109357939D01*
X119998168Y-109353175D01*
X120009201Y-109351989D01*
X120119430Y-109310875D01*
X120120738Y-109310419D01*
X120124236Y-109310243D01*
X120162238Y-109303388D01*
X120232674Y-109303388D01*
X120300795Y-109323390D01*
G37*
%TD.AperFunction*%
%TA.AperFunction,Conductor*%
G36*
X123546724Y-109117298D02*
G01*
X123596205Y-109168211D01*
X123610306Y-109237793D01*
X123584550Y-109303953D01*
X123573863Y-109316109D01*
X122829741Y-110060231D01*
X122767429Y-110094257D01*
X122696614Y-110089192D01*
X122639778Y-110046645D01*
X122628379Y-110028339D01*
X122618702Y-110009347D01*
X122618701Y-110009346D01*
X122587582Y-109966514D01*
X121900000Y-110654097D01*
X121900000Y-110642227D01*
X121872741Y-110540494D01*
X121820080Y-110449282D01*
X121745606Y-110374808D01*
X121654394Y-110322147D01*
X121552661Y-110294888D01*
X121540790Y-110294888D01*
X122239970Y-109595706D01*
X122245463Y-109569557D01*
X122295304Y-109518996D01*
X122345373Y-109504592D01*
X122345283Y-109503749D01*
X122409196Y-109496878D01*
X122409199Y-109496877D01*
X122409201Y-109496877D01*
X122546204Y-109445777D01*
X122556814Y-109437835D01*
X122604071Y-109402457D01*
X122663261Y-109358149D01*
X122663418Y-109357939D01*
X122666460Y-109353877D01*
X122723296Y-109311331D01*
X122767326Y-109303388D01*
X122892350Y-109303388D01*
X122892353Y-109303388D01*
X123064686Y-109276093D01*
X123230629Y-109222176D01*
X123386093Y-109142962D01*
X123410706Y-109125079D01*
X123477572Y-109101220D01*
X123546724Y-109117298D01*
G37*
%TD.AperFunction*%
%TA.AperFunction,Conductor*%
G36*
X139296350Y-104688499D02*
G01*
X139296355Y-104688499D01*
X139296362Y-104688500D01*
X139296368Y-104688500D01*
X139943632Y-104688500D01*
X139943638Y-104688500D01*
X139943645Y-104688499D01*
X139943649Y-104688499D01*
X140006532Y-104681739D01*
X140033468Y-104681739D01*
X140096350Y-104688499D01*
X140096355Y-104688499D01*
X140096362Y-104688500D01*
X140096368Y-104688500D01*
X140743632Y-104688500D01*
X140743638Y-104688500D01*
X140743645Y-104688499D01*
X140743649Y-104688499D01*
X140806532Y-104681739D01*
X140833468Y-104681739D01*
X140896350Y-104688499D01*
X140896355Y-104688499D01*
X140896362Y-104688500D01*
X140896368Y-104688500D01*
X141543632Y-104688500D01*
X141543638Y-104688500D01*
X141543645Y-104688499D01*
X141543649Y-104688499D01*
X141606532Y-104681739D01*
X141633468Y-104681739D01*
X141696350Y-104688499D01*
X141696355Y-104688499D01*
X141696362Y-104688500D01*
X141696368Y-104688500D01*
X142343632Y-104688500D01*
X142343638Y-104688500D01*
X142343645Y-104688499D01*
X142343649Y-104688499D01*
X142406532Y-104681739D01*
X142433468Y-104681739D01*
X142496350Y-104688499D01*
X142496355Y-104688499D01*
X142496362Y-104688500D01*
X142496368Y-104688500D01*
X142851076Y-104688500D01*
X142919197Y-104708502D01*
X142965690Y-104762158D01*
X142975794Y-104832432D01*
X142946300Y-104897012D01*
X142940171Y-104903595D01*
X142856649Y-104987116D01*
X142856644Y-104987123D01*
X142746279Y-105152296D01*
X142670258Y-105335825D01*
X142670256Y-105335830D01*
X142631500Y-105530668D01*
X142631500Y-105729331D01*
X142667986Y-105912755D01*
X142670256Y-105924169D01*
X142746279Y-106107704D01*
X142856647Y-106272881D01*
X142997119Y-106413353D01*
X143162296Y-106523721D01*
X143345831Y-106599744D01*
X143540671Y-106638500D01*
X143540672Y-106638500D01*
X143739328Y-106638500D01*
X143739329Y-106638500D01*
X143934169Y-106599744D01*
X144117704Y-106523721D01*
X144282881Y-106413353D01*
X144346405Y-106349829D01*
X144408717Y-106315803D01*
X144479532Y-106320868D01*
X144536368Y-106363415D01*
X144561179Y-106429935D01*
X144561500Y-106438924D01*
X144561500Y-106753649D01*
X144568261Y-106816532D01*
X144568261Y-106843468D01*
X144561500Y-106906350D01*
X144561500Y-107553632D01*
X144561501Y-107553652D01*
X144568513Y-107618884D01*
X144568513Y-107645818D01*
X144562001Y-107706394D01*
X144562000Y-107706414D01*
X144562000Y-107776000D01*
X144574602Y-107776000D01*
X144642723Y-107796002D01*
X144660307Y-107809639D01*
X144668651Y-107817382D01*
X144706739Y-107868261D01*
X144793368Y-107933111D01*
X144798248Y-107937639D01*
X144813147Y-107962655D01*
X144830599Y-107985968D01*
X144831085Y-107992774D01*
X144834577Y-107998636D01*
X144833586Y-108027739D01*
X144835663Y-108056784D01*
X144832393Y-108062772D01*
X144832161Y-108069592D01*
X144815593Y-108093538D01*
X144801638Y-108119096D01*
X144792333Y-108127158D01*
X144791767Y-108127977D01*
X144791038Y-108128280D01*
X144788052Y-108130868D01*
X144706738Y-108191738D01*
X144675470Y-108233509D01*
X144618634Y-108276056D01*
X144574602Y-108284000D01*
X144562000Y-108284000D01*
X144562000Y-108353585D01*
X144562001Y-108353605D01*
X144568513Y-108414182D01*
X144568513Y-108441116D01*
X144561501Y-108506347D01*
X144561500Y-108506367D01*
X144561500Y-109153649D01*
X144568261Y-109216532D01*
X144568261Y-109243468D01*
X144561500Y-109306350D01*
X144561500Y-109953649D01*
X144568261Y-110016532D01*
X144568261Y-110043468D01*
X144561500Y-110106350D01*
X144561500Y-110445500D01*
X144541498Y-110513621D01*
X144487842Y-110560114D01*
X144435500Y-110571500D01*
X144096350Y-110571500D01*
X144033468Y-110578261D01*
X144006532Y-110578261D01*
X143943649Y-110571500D01*
X143943638Y-110571500D01*
X143296362Y-110571500D01*
X143296350Y-110571500D01*
X143233468Y-110578261D01*
X143206532Y-110578261D01*
X143143649Y-110571500D01*
X143143638Y-110571500D01*
X142496362Y-110571500D01*
X142496350Y-110571500D01*
X142433468Y-110578261D01*
X142406532Y-110578261D01*
X142343649Y-110571500D01*
X142343638Y-110571500D01*
X141696362Y-110571500D01*
X141696350Y-110571500D01*
X141633468Y-110578261D01*
X141606532Y-110578261D01*
X141543649Y-110571500D01*
X141543638Y-110571500D01*
X140896362Y-110571500D01*
X140896350Y-110571500D01*
X140833468Y-110578261D01*
X140806532Y-110578261D01*
X140743649Y-110571500D01*
X140743638Y-110571500D01*
X140096362Y-110571500D01*
X140096350Y-110571500D01*
X140033468Y-110578261D01*
X140006532Y-110578261D01*
X139943649Y-110571500D01*
X139943638Y-110571500D01*
X139296362Y-110571500D01*
X139296350Y-110571500D01*
X139233468Y-110578261D01*
X139206532Y-110578261D01*
X139143649Y-110571500D01*
X139143638Y-110571500D01*
X138804500Y-110571500D01*
X138736379Y-110551498D01*
X138689886Y-110497842D01*
X138678500Y-110445500D01*
X138678500Y-110106367D01*
X138678499Y-110106350D01*
X138671739Y-110043468D01*
X138671739Y-110016532D01*
X138678499Y-109953649D01*
X138678500Y-109953632D01*
X138678500Y-109306367D01*
X138678499Y-109306352D01*
X138674046Y-109264930D01*
X138671989Y-109245799D01*
X138671988Y-109245797D01*
X138671485Y-109241114D01*
X138671485Y-109214173D01*
X138677999Y-109153592D01*
X138678000Y-109153585D01*
X138678000Y-109084000D01*
X138665398Y-109084000D01*
X138597277Y-109063998D01*
X138579693Y-109050362D01*
X138571351Y-109042621D01*
X138533261Y-108991739D01*
X138446620Y-108926880D01*
X138441751Y-108922362D01*
X138426851Y-108897344D01*
X138409400Y-108874033D01*
X138408913Y-108867225D01*
X138405422Y-108861364D01*
X138406412Y-108832266D01*
X138404335Y-108803217D01*
X138407605Y-108797226D01*
X138407838Y-108790409D01*
X138424403Y-108766464D01*
X138438360Y-108740905D01*
X138447662Y-108732844D01*
X138448231Y-108732023D01*
X138448961Y-108731719D01*
X138451947Y-108729132D01*
X138533261Y-108668261D01*
X138564530Y-108626491D01*
X138621366Y-108583944D01*
X138665398Y-108576000D01*
X138678000Y-108576000D01*
X138678000Y-108506414D01*
X138677999Y-108506404D01*
X138671485Y-108445821D01*
X138671485Y-108418880D01*
X138671987Y-108414204D01*
X138671989Y-108414201D01*
X138678500Y-108353638D01*
X138678500Y-107706362D01*
X138671989Y-107645799D01*
X138671988Y-107645797D01*
X138671485Y-107641114D01*
X138671485Y-107614173D01*
X138677999Y-107553592D01*
X138678000Y-107553585D01*
X138678000Y-107484000D01*
X138665398Y-107484000D01*
X138597277Y-107463998D01*
X138579693Y-107450362D01*
X138571351Y-107442621D01*
X138533261Y-107391739D01*
X138446620Y-107326880D01*
X138441751Y-107322362D01*
X138426851Y-107297344D01*
X138409400Y-107274033D01*
X138408913Y-107267225D01*
X138405422Y-107261364D01*
X138406412Y-107232266D01*
X138404335Y-107203217D01*
X138407605Y-107197226D01*
X138407838Y-107190409D01*
X138424403Y-107166464D01*
X138438360Y-107140905D01*
X138447662Y-107132844D01*
X138448231Y-107132023D01*
X138448961Y-107131719D01*
X138451947Y-107129132D01*
X138533261Y-107068261D01*
X138564530Y-107026491D01*
X138621366Y-106983944D01*
X138665398Y-106976000D01*
X138678000Y-106976000D01*
X138678000Y-106906414D01*
X138677999Y-106906404D01*
X138671485Y-106845821D01*
X138671485Y-106818880D01*
X138671987Y-106814204D01*
X138671989Y-106814201D01*
X138678500Y-106753638D01*
X138678500Y-106106362D01*
X138678499Y-106106350D01*
X138671739Y-106043468D01*
X138671739Y-106016532D01*
X138678499Y-105953649D01*
X138678500Y-105953632D01*
X138678500Y-105306367D01*
X138678499Y-105306350D01*
X138671739Y-105243468D01*
X138671739Y-105216532D01*
X138678499Y-105153649D01*
X138678500Y-105153632D01*
X138678500Y-104814500D01*
X138698502Y-104746379D01*
X138752158Y-104699886D01*
X138804500Y-104688500D01*
X139143632Y-104688500D01*
X139143638Y-104688500D01*
X139143645Y-104688499D01*
X139143649Y-104688499D01*
X139206532Y-104681739D01*
X139233468Y-104681739D01*
X139296350Y-104688499D01*
G37*
%TD.AperFunction*%
%TA.AperFunction,Conductor*%
G36*
X138709532Y-96720866D02*
G01*
X138766368Y-96763413D01*
X138791179Y-96829933D01*
X138791500Y-96838922D01*
X138791500Y-97525544D01*
X138802112Y-97629425D01*
X138857885Y-97797738D01*
X138950970Y-97948652D01*
X138950975Y-97948658D01*
X139076341Y-98074024D01*
X139076347Y-98074029D01*
X139076348Y-98074030D01*
X139227262Y-98167115D01*
X139395574Y-98222887D01*
X139499455Y-98233500D01*
X140300544Y-98233499D01*
X140404426Y-98222887D01*
X140572738Y-98167115D01*
X140723652Y-98074030D01*
X140758350Y-98039332D01*
X140810905Y-97986778D01*
X140873217Y-97952752D01*
X140944032Y-97957817D01*
X140989095Y-97986778D01*
X141076341Y-98074024D01*
X141076345Y-98074027D01*
X141076348Y-98074030D01*
X141181647Y-98138979D01*
X141188580Y-98146687D01*
X141198012Y-98150995D01*
X141211918Y-98172633D01*
X141229125Y-98191763D01*
X141231812Y-98203588D01*
X141236396Y-98210721D01*
X141241500Y-98246219D01*
X141241500Y-98306532D01*
X141221498Y-98374653D01*
X141220265Y-98376534D01*
X141156279Y-98472296D01*
X141080258Y-98655825D01*
X141080256Y-98655830D01*
X141041500Y-98850668D01*
X141041500Y-99049331D01*
X141080256Y-99244169D01*
X141080258Y-99244174D01*
X141086671Y-99259655D01*
X141156279Y-99427704D01*
X141266647Y-99592881D01*
X141407119Y-99733353D01*
X141572296Y-99843721D01*
X141755831Y-99919744D01*
X141950671Y-99958500D01*
X141950672Y-99958500D01*
X142149328Y-99958500D01*
X142149329Y-99958500D01*
X142344169Y-99919744D01*
X142527704Y-99843721D01*
X142692881Y-99733353D01*
X142746405Y-99679829D01*
X142808717Y-99645803D01*
X142879532Y-99650868D01*
X142936368Y-99693415D01*
X142961179Y-99759935D01*
X142961500Y-99768924D01*
X142961500Y-101945500D01*
X142941498Y-102013621D01*
X142887842Y-102060114D01*
X142835500Y-102071500D01*
X142496350Y-102071500D01*
X142433468Y-102078261D01*
X142406532Y-102078261D01*
X142343649Y-102071500D01*
X142343638Y-102071500D01*
X141696362Y-102071500D01*
X141696350Y-102071500D01*
X141633468Y-102078261D01*
X141606532Y-102078261D01*
X141543649Y-102071500D01*
X141543638Y-102071500D01*
X140896362Y-102071500D01*
X140896350Y-102071500D01*
X140833468Y-102078261D01*
X140806532Y-102078261D01*
X140743649Y-102071500D01*
X140743638Y-102071500D01*
X140096362Y-102071500D01*
X140096350Y-102071500D01*
X140033468Y-102078261D01*
X140006532Y-102078261D01*
X139943649Y-102071500D01*
X139943638Y-102071500D01*
X139296362Y-102071500D01*
X139296350Y-102071500D01*
X139233468Y-102078261D01*
X139206532Y-102078261D01*
X139143649Y-102071500D01*
X139143638Y-102071500D01*
X138496362Y-102071500D01*
X138496350Y-102071500D01*
X138435803Y-102078009D01*
X138435795Y-102078011D01*
X138298797Y-102129110D01*
X138298792Y-102129112D01*
X138181738Y-102216738D01*
X138094112Y-102333792D01*
X138094110Y-102333797D01*
X138043011Y-102470795D01*
X138043009Y-102470803D01*
X138036500Y-102531350D01*
X138036500Y-103920500D01*
X138016498Y-103988621D01*
X137962842Y-104035114D01*
X137910500Y-104046500D01*
X137569950Y-104046500D01*
X137501829Y-104026498D01*
X137480855Y-104009595D01*
X136479435Y-103008175D01*
X136445409Y-102945863D01*
X136443252Y-102932554D01*
X136441989Y-102920799D01*
X136390889Y-102783796D01*
X136390886Y-102783792D01*
X136390886Y-102783791D01*
X136303261Y-102666738D01*
X136186207Y-102579112D01*
X136186202Y-102579110D01*
X136049204Y-102528011D01*
X136049196Y-102528009D01*
X135988649Y-102521500D01*
X135988638Y-102521500D01*
X132691362Y-102521500D01*
X132691350Y-102521500D01*
X132630803Y-102528009D01*
X132630795Y-102528011D01*
X132493797Y-102579110D01*
X132493792Y-102579112D01*
X132376738Y-102666738D01*
X132289112Y-102783792D01*
X132289110Y-102783797D01*
X132238011Y-102920795D01*
X132238009Y-102920803D01*
X132231500Y-102981350D01*
X132231500Y-103357905D01*
X132211498Y-103426026D01*
X132157842Y-103472519D01*
X132087568Y-103482623D01*
X132039354Y-103465146D01*
X131967527Y-103420843D01*
X131799321Y-103365106D01*
X131799318Y-103365105D01*
X131695516Y-103354500D01*
X131424000Y-103354500D01*
X131424000Y-104196000D01*
X132448809Y-104196000D01*
X132516930Y-104216002D01*
X132534299Y-104230000D01*
X134214000Y-104230000D01*
X134222825Y-104232591D01*
X134231932Y-104231282D01*
X134256357Y-104242437D01*
X134282121Y-104250002D01*
X134288145Y-104256955D01*
X134296512Y-104260776D01*
X134311026Y-104283361D01*
X134328614Y-104303658D01*
X134330938Y-104314344D01*
X134334896Y-104320502D01*
X134340000Y-104356000D01*
X134340000Y-104504000D01*
X134319998Y-104572121D01*
X134266342Y-104618614D01*
X134214000Y-104630000D01*
X132534999Y-104630000D01*
X132498095Y-104666904D01*
X132494807Y-104663616D01*
X132461342Y-104692614D01*
X132409000Y-104704000D01*
X129937000Y-104704000D01*
X129937000Y-104838009D01*
X129942847Y-104895244D01*
X129929871Y-104965045D01*
X129881218Y-105016750D01*
X129812335Y-105033943D01*
X129745091Y-105011166D01*
X129728404Y-104997144D01*
X129245404Y-104514144D01*
X129211378Y-104451832D01*
X129208499Y-104425049D01*
X129208499Y-104061983D01*
X129937000Y-104061983D01*
X129937000Y-104196000D01*
X130916000Y-104196000D01*
X130916000Y-103354500D01*
X130644483Y-103354500D01*
X130540681Y-103365105D01*
X130540678Y-103365106D01*
X130372474Y-103420842D01*
X130221660Y-103513865D01*
X130221654Y-103513870D01*
X130096370Y-103639154D01*
X130096365Y-103639160D01*
X130003342Y-103789974D01*
X129947606Y-103958178D01*
X129947605Y-103958181D01*
X129937000Y-104061983D01*
X129208499Y-104061983D01*
X129208499Y-103974951D01*
X129228501Y-103906830D01*
X129245404Y-103885856D01*
X129669412Y-103461847D01*
X130111491Y-103019769D01*
X130183555Y-102911917D01*
X130233195Y-102792077D01*
X130233196Y-102792071D01*
X130233197Y-102792070D01*
X130254300Y-102685970D01*
X130254301Y-102685963D01*
X130258500Y-102664857D01*
X130258500Y-101874914D01*
X130278502Y-101806793D01*
X130332158Y-101760300D01*
X130402432Y-101750196D01*
X130458562Y-101772978D01*
X130514458Y-101813589D01*
X130697900Y-101907058D01*
X130697906Y-101907061D01*
X130893705Y-101970679D01*
X130893701Y-101970679D01*
X131097061Y-102002888D01*
X131302939Y-102002888D01*
X131506296Y-101970679D01*
X131702093Y-101907061D01*
X131702099Y-101907058D01*
X131885541Y-101813589D01*
X131928372Y-101782470D01*
X131240789Y-101094888D01*
X131252661Y-101094888D01*
X131354394Y-101067629D01*
X131445606Y-101014968D01*
X131520080Y-100940494D01*
X131572741Y-100849282D01*
X131600000Y-100747549D01*
X131600000Y-100735679D01*
X132287581Y-101423260D01*
X132287582Y-101423260D01*
X132318703Y-101380427D01*
X132354649Y-101309879D01*
X132403397Y-101258263D01*
X132472311Y-101241197D01*
X132539513Y-101264097D01*
X132556011Y-101277986D01*
X132651654Y-101373629D01*
X132651660Y-101373634D01*
X132802474Y-101466657D01*
X132970678Y-101522393D01*
X132970681Y-101522394D01*
X133074483Y-101532999D01*
X133074483Y-101533000D01*
X133346000Y-101533000D01*
X133854000Y-101533000D01*
X134125517Y-101533000D01*
X134125516Y-101532999D01*
X134229318Y-101522394D01*
X134229321Y-101522393D01*
X134397525Y-101466657D01*
X134548339Y-101373634D01*
X134548345Y-101373629D01*
X134673629Y-101248345D01*
X134673634Y-101248339D01*
X134766657Y-101097525D01*
X134822393Y-100929321D01*
X134822394Y-100929318D01*
X134832999Y-100825516D01*
X134833000Y-100825516D01*
X134833000Y-100691500D01*
X133854000Y-100691500D01*
X133854000Y-101533000D01*
X133346000Y-101533000D01*
X133346000Y-100563500D01*
X133366002Y-100495379D01*
X133419658Y-100448886D01*
X133472000Y-100437500D01*
X133600000Y-100437500D01*
X133600000Y-100309500D01*
X133620002Y-100241379D01*
X133673658Y-100194886D01*
X133726000Y-100183500D01*
X134833000Y-100183500D01*
X134833000Y-100049483D01*
X134822394Y-99945681D01*
X134822393Y-99945678D01*
X134766657Y-99777474D01*
X134673634Y-99626660D01*
X134673629Y-99626654D01*
X134633070Y-99586095D01*
X134599044Y-99523783D01*
X134604109Y-99452968D01*
X134646656Y-99396132D01*
X134713176Y-99371321D01*
X134722165Y-99371000D01*
X135636828Y-99371000D01*
X135636829Y-99371000D01*
X135831669Y-99332244D01*
X136015204Y-99256221D01*
X136180381Y-99145853D01*
X136320853Y-99005381D01*
X138576407Y-96749825D01*
X138638717Y-96715802D01*
X138709532Y-96720866D01*
G37*
%TD.AperFunction*%
%TA.AperFunction,Conductor*%
G36*
X126101121Y-98745002D02*
G01*
X126147614Y-98798658D01*
X126159000Y-98851000D01*
X126159000Y-100204991D01*
X126318399Y-100158681D01*
X126461500Y-100074052D01*
X126576404Y-99959148D01*
X126638716Y-99925123D01*
X126709532Y-99930187D01*
X126766368Y-99972734D01*
X126791179Y-100039254D01*
X126791500Y-100048243D01*
X126791500Y-100800544D01*
X126802112Y-100904425D01*
X126857885Y-101072738D01*
X126954823Y-101229898D01*
X126953197Y-101230900D01*
X126976107Y-101287695D01*
X126962853Y-101357444D01*
X126954747Y-101370055D01*
X126954823Y-101370102D01*
X126950971Y-101376346D01*
X126950970Y-101376348D01*
X126910876Y-101441350D01*
X126857885Y-101527262D01*
X126802113Y-101695572D01*
X126802112Y-101695579D01*
X126791500Y-101799446D01*
X126791500Y-101805049D01*
X126771498Y-101873170D01*
X126754599Y-101894139D01*
X126588625Y-102060114D01*
X126440475Y-102208264D01*
X126378163Y-102242289D01*
X126316228Y-102240165D01*
X126158832Y-102194438D01*
X126158828Y-102194437D01*
X126121511Y-102191500D01*
X126121502Y-102191500D01*
X125688498Y-102191500D01*
X125688489Y-102191500D01*
X125651171Y-102194437D01*
X125651170Y-102194437D01*
X125491394Y-102240856D01*
X125348197Y-102325543D01*
X125347225Y-102326298D01*
X125346323Y-102326652D01*
X125341369Y-102329582D01*
X125340896Y-102328782D01*
X125281139Y-102352244D01*
X125211517Y-102338342D01*
X125192775Y-102326298D01*
X125191802Y-102325543D01*
X125048605Y-102240856D01*
X124888829Y-102194437D01*
X124851511Y-102191500D01*
X124851502Y-102191500D01*
X124418498Y-102191500D01*
X124418489Y-102191500D01*
X124381171Y-102194437D01*
X124381170Y-102194437D01*
X124221394Y-102240856D01*
X124078197Y-102325543D01*
X124077225Y-102326298D01*
X124076323Y-102326652D01*
X124071369Y-102329582D01*
X124070896Y-102328782D01*
X124011139Y-102352244D01*
X123941517Y-102338342D01*
X123922775Y-102326298D01*
X123921802Y-102325543D01*
X123778605Y-102240856D01*
X123618829Y-102194437D01*
X123581511Y-102191500D01*
X123581502Y-102191500D01*
X123148498Y-102191500D01*
X123148489Y-102191500D01*
X123111171Y-102194437D01*
X123111170Y-102194437D01*
X122951396Y-102240856D01*
X122943637Y-102245445D01*
X122874821Y-102262903D01*
X122807490Y-102240385D01*
X122763022Y-102185040D01*
X122753500Y-102136990D01*
X122753500Y-100263009D01*
X122773502Y-100194888D01*
X122827158Y-100148395D01*
X122897432Y-100138291D01*
X122943642Y-100154557D01*
X122951399Y-100159145D01*
X123111169Y-100205562D01*
X123148488Y-100208499D01*
X123148489Y-100208500D01*
X123148498Y-100208500D01*
X123581511Y-100208500D01*
X123581511Y-100208499D01*
X123618831Y-100205562D01*
X123683479Y-100186780D01*
X123754473Y-100186983D01*
X123814089Y-100225537D01*
X123842209Y-100283195D01*
X123847424Y-100309410D01*
X123872570Y-100435831D01*
X123933517Y-100582968D01*
X124021997Y-100715389D01*
X124021998Y-100715390D01*
X124022003Y-100715396D01*
X124134603Y-100827996D01*
X124134609Y-100828001D01*
X124134611Y-100828003D01*
X124267032Y-100916483D01*
X124414169Y-100977430D01*
X124570370Y-101008500D01*
X124570371Y-101008500D01*
X124729629Y-101008500D01*
X124729630Y-101008500D01*
X124885831Y-100977430D01*
X125032968Y-100916483D01*
X125165389Y-100828003D01*
X125278003Y-100715389D01*
X125366483Y-100582968D01*
X125427430Y-100435831D01*
X125456250Y-100290940D01*
X125489156Y-100228033D01*
X125550851Y-100192901D01*
X125614982Y-100194527D01*
X125651000Y-100204991D01*
X125651000Y-98851000D01*
X125671002Y-98782879D01*
X125724658Y-98736386D01*
X125777000Y-98725000D01*
X126033000Y-98725000D01*
X126101121Y-98745002D01*
G37*
%TD.AperFunction*%
%TA.AperFunction,Conductor*%
G36*
X132533197Y-99229755D02*
G01*
X132552413Y-99228381D01*
X132567838Y-99236618D01*
X132583944Y-99239809D01*
X132610977Y-99259655D01*
X132613050Y-99260762D01*
X132613869Y-99261551D01*
X132651348Y-99299030D01*
X132655304Y-99301470D01*
X132663723Y-99309581D01*
X132678381Y-99335275D01*
X132695481Y-99359422D01*
X132695765Y-99365749D01*
X132698903Y-99371249D01*
X132697342Y-99400791D01*
X132698673Y-99430347D01*
X132695492Y-99435821D01*
X132695159Y-99442146D01*
X132677873Y-99466156D01*
X132663014Y-99491739D01*
X132654454Y-99499157D01*
X132651654Y-99501370D01*
X132526370Y-99626654D01*
X132526365Y-99626660D01*
X132433341Y-99777477D01*
X132399645Y-99879164D01*
X132359231Y-99937535D01*
X132293674Y-99964790D01*
X132289240Y-99964856D01*
X131600000Y-100654096D01*
X131600000Y-100642227D01*
X131572741Y-100540494D01*
X131520080Y-100449282D01*
X131445606Y-100374808D01*
X131354394Y-100322147D01*
X131252661Y-100294888D01*
X131240790Y-100294888D01*
X131939970Y-99595707D01*
X131945463Y-99569557D01*
X131995304Y-99518996D01*
X132045373Y-99504592D01*
X132045283Y-99503749D01*
X132109196Y-99496878D01*
X132109199Y-99496877D01*
X132109201Y-99496877D01*
X132246204Y-99445777D01*
X132251055Y-99442146D01*
X132363261Y-99358149D01*
X132382654Y-99332243D01*
X132424762Y-99275992D01*
X132438342Y-99265826D01*
X132448255Y-99252058D01*
X132466176Y-99244990D01*
X132481597Y-99233447D01*
X132498517Y-99232236D01*
X132514301Y-99226012D01*
X132533197Y-99229755D01*
G37*
%TD.AperFunction*%
%TA.AperFunction,Conductor*%
G36*
X129854593Y-97376371D02*
G01*
X129888620Y-97438683D01*
X129891500Y-97465469D01*
X129891500Y-98519937D01*
X129871498Y-98588058D01*
X129854595Y-98609032D01*
X129393960Y-99069667D01*
X129331648Y-99103693D01*
X129260833Y-99098628D01*
X129203997Y-99056081D01*
X129179186Y-98989561D01*
X129185261Y-98940939D01*
X129197392Y-98904330D01*
X129197394Y-98904318D01*
X129207999Y-98800516D01*
X129208000Y-98800516D01*
X129208000Y-98654000D01*
X128126000Y-98654000D01*
X128057879Y-98633998D01*
X128011386Y-98580342D01*
X128000000Y-98528000D01*
X128000000Y-98272000D01*
X128020002Y-98203879D01*
X128073658Y-98157386D01*
X128126000Y-98146000D01*
X129208000Y-98146000D01*
X129208000Y-97999483D01*
X129197394Y-97895681D01*
X129197393Y-97895678D01*
X129141657Y-97727474D01*
X129048634Y-97576660D01*
X129048629Y-97576654D01*
X129045570Y-97573595D01*
X129044140Y-97570976D01*
X129044082Y-97570903D01*
X129044094Y-97570893D01*
X129011544Y-97511283D01*
X129016609Y-97440468D01*
X129059156Y-97383632D01*
X129125676Y-97358821D01*
X129134665Y-97358500D01*
X129648632Y-97358500D01*
X129648638Y-97358500D01*
X129648645Y-97358499D01*
X129648649Y-97358499D01*
X129709196Y-97351990D01*
X129709196Y-97351989D01*
X129709201Y-97351989D01*
X129721467Y-97347413D01*
X129792280Y-97342348D01*
X129854593Y-97376371D01*
G37*
%TD.AperFunction*%
%TA.AperFunction,Conductor*%
G36*
X191541621Y-88670502D02*
G01*
X191588114Y-88724158D01*
X191599500Y-88776500D01*
X191599500Y-121223500D01*
X191579498Y-121291621D01*
X191525842Y-121338114D01*
X191473500Y-121349500D01*
X105526500Y-121349500D01*
X105458379Y-121329498D01*
X105411886Y-121275842D01*
X105400500Y-121223500D01*
X105400500Y-112538353D01*
X109241500Y-112538353D01*
X109241500Y-112801646D01*
X109275864Y-113062672D01*
X109275865Y-113062678D01*
X109275866Y-113062680D01*
X109344010Y-113316997D01*
X109444766Y-113560243D01*
X109444767Y-113560244D01*
X109444772Y-113560255D01*
X109576407Y-113788253D01*
X109576409Y-113788256D01*
X109576410Y-113788257D01*
X109691456Y-113938189D01*
X109736689Y-113997138D01*
X109736698Y-113997148D01*
X109922851Y-114183301D01*
X109922861Y-114183310D01*
X109922862Y-114183311D01*
X110109271Y-114326347D01*
X110131746Y-114343592D01*
X110359744Y-114475227D01*
X110359748Y-114475228D01*
X110359757Y-114475234D01*
X110603003Y-114575990D01*
X110857320Y-114644134D01*
X110857326Y-114644134D01*
X110857327Y-114644135D01*
X110887281Y-114648078D01*
X111118356Y-114678500D01*
X111118363Y-114678500D01*
X111381637Y-114678500D01*
X111381644Y-114678500D01*
X111642680Y-114644134D01*
X111896997Y-114575990D01*
X112050962Y-114512215D01*
X112121546Y-114504627D01*
X112185033Y-114536406D01*
X112188270Y-114539530D01*
X113297731Y-115648991D01*
X113405583Y-115721055D01*
X113525423Y-115770694D01*
X113652643Y-115796000D01*
X113782357Y-115796000D01*
X115761490Y-115796000D01*
X115768539Y-115798070D01*
X115775778Y-115796813D01*
X115802147Y-115807938D01*
X115829611Y-115816002D01*
X115836022Y-115822229D01*
X115841191Y-115824410D01*
X115857847Y-115843427D01*
X115865457Y-115850818D01*
X115867153Y-115853296D01*
X115925970Y-115948652D01*
X115946489Y-115969171D01*
X115953094Y-115978818D01*
X115960610Y-116001905D01*
X115972248Y-116023217D01*
X115971401Y-116035049D01*
X115975073Y-116046326D01*
X115968915Y-116069809D01*
X115967183Y-116094032D01*
X115959381Y-116106171D01*
X115957066Y-116115001D01*
X115948861Y-116122540D01*
X115938222Y-116139095D01*
X115925975Y-116151341D01*
X115925970Y-116151347D01*
X115895128Y-116201350D01*
X115877804Y-116229438D01*
X115868731Y-116244147D01*
X115815945Y-116291625D01*
X115761490Y-116304000D01*
X113382715Y-116304000D01*
X113314594Y-116283998D01*
X113268101Y-116230342D01*
X113257437Y-116191468D01*
X113251990Y-116140803D01*
X113251988Y-116140795D01*
X113222924Y-116062875D01*
X113200889Y-116003796D01*
X113200888Y-116003794D01*
X113200887Y-116003792D01*
X113113261Y-115886738D01*
X112996207Y-115799112D01*
X112996202Y-115799110D01*
X112859204Y-115748011D01*
X112859196Y-115748009D01*
X112798649Y-115741500D01*
X112798638Y-115741500D01*
X109701362Y-115741500D01*
X109701350Y-115741500D01*
X109640803Y-115748009D01*
X109640795Y-115748011D01*
X109503797Y-115799110D01*
X109503792Y-115799112D01*
X109386738Y-115886738D01*
X109299112Y-116003792D01*
X109299110Y-116003797D01*
X109248011Y-116140795D01*
X109248009Y-116140803D01*
X109241500Y-116201350D01*
X109241500Y-119298649D01*
X109248009Y-119359196D01*
X109248011Y-119359204D01*
X109299110Y-119496202D01*
X109299112Y-119496207D01*
X109386738Y-119613261D01*
X109503792Y-119700887D01*
X109503794Y-119700888D01*
X109503796Y-119700889D01*
X109562875Y-119722924D01*
X109640795Y-119751988D01*
X109640803Y-119751990D01*
X109701350Y-119758499D01*
X109701355Y-119758499D01*
X109701362Y-119758500D01*
X109701368Y-119758500D01*
X112798632Y-119758500D01*
X112798638Y-119758500D01*
X112798645Y-119758499D01*
X112798649Y-119758499D01*
X112859196Y-119751990D01*
X112859199Y-119751989D01*
X112859201Y-119751989D01*
X112996204Y-119700889D01*
X113113261Y-119613261D01*
X113200889Y-119496204D01*
X113227255Y-119425516D01*
X115767000Y-119425516D01*
X115777605Y-119529318D01*
X115777606Y-119529321D01*
X115833342Y-119697525D01*
X115926365Y-119848339D01*
X115926370Y-119848345D01*
X116051654Y-119973629D01*
X116051660Y-119973634D01*
X116202474Y-120066657D01*
X116370678Y-120122393D01*
X116370681Y-120122394D01*
X116474483Y-120132999D01*
X116474483Y-120133000D01*
X116746000Y-120133000D01*
X117254000Y-120133000D01*
X117525517Y-120133000D01*
X117525516Y-120132999D01*
X117629318Y-120122394D01*
X117629321Y-120122393D01*
X117797525Y-120066657D01*
X117948339Y-119973634D01*
X117948345Y-119973629D01*
X118073629Y-119848345D01*
X118073634Y-119848339D01*
X118166657Y-119697525D01*
X118222393Y-119529321D01*
X118222394Y-119529318D01*
X118232999Y-119425516D01*
X118233000Y-119425516D01*
X118233000Y-119291500D01*
X117254000Y-119291500D01*
X117254000Y-120133000D01*
X116746000Y-120133000D01*
X116746000Y-119291500D01*
X115767000Y-119291500D01*
X115767000Y-119425516D01*
X113227255Y-119425516D01*
X113251989Y-119359201D01*
X113256958Y-119312986D01*
X113258499Y-119298649D01*
X113258500Y-119298632D01*
X113258500Y-117747000D01*
X113278502Y-117678879D01*
X113332158Y-117632386D01*
X113384500Y-117621000D01*
X115761490Y-117621000D01*
X115829611Y-117641002D01*
X115868730Y-117680852D01*
X115887791Y-117711754D01*
X115925970Y-117773652D01*
X115925975Y-117773658D01*
X116051345Y-117899028D01*
X116054450Y-117901483D01*
X116056027Y-117903710D01*
X116056537Y-117904220D01*
X116056449Y-117904307D01*
X116095481Y-117959422D01*
X116098673Y-118030347D01*
X116063014Y-118091739D01*
X116054454Y-118099157D01*
X116051654Y-118101370D01*
X115926370Y-118226654D01*
X115926365Y-118226660D01*
X115833342Y-118377474D01*
X115777606Y-118545678D01*
X115777605Y-118545681D01*
X115767000Y-118649483D01*
X115767000Y-118783500D01*
X118239000Y-118783500D01*
X118307121Y-118803502D01*
X118353614Y-118857158D01*
X118365000Y-118909500D01*
X118365000Y-119021337D01*
X118436597Y-119063680D01*
X118596251Y-119110065D01*
X118596249Y-119110065D01*
X118633543Y-119112999D01*
X119271000Y-119112999D01*
X119779000Y-119112999D01*
X120416456Y-119112999D01*
X120453750Y-119110065D01*
X120613400Y-119063681D01*
X120756501Y-118979051D01*
X120756503Y-118979050D01*
X120874050Y-118861503D01*
X120874051Y-118861501D01*
X120958681Y-118718401D01*
X121004993Y-118559000D01*
X119779000Y-118559000D01*
X119779000Y-119112999D01*
X119271000Y-119112999D01*
X119271000Y-118431000D01*
X119291002Y-118362879D01*
X119344658Y-118316386D01*
X119397000Y-118305000D01*
X119525000Y-118305000D01*
X119525000Y-118177000D01*
X119545002Y-118108879D01*
X119598658Y-118062386D01*
X119651000Y-118051000D01*
X121004992Y-118051000D01*
X120958681Y-117891598D01*
X120874053Y-117748500D01*
X120873385Y-117747639D01*
X120873071Y-117746840D01*
X120870019Y-117741679D01*
X120870851Y-117741186D01*
X120847437Y-117681554D01*
X120861336Y-117611931D01*
X120873390Y-117593176D01*
X120874444Y-117591815D01*
X120874453Y-117591807D01*
X120959145Y-117448601D01*
X121005562Y-117288831D01*
X121008499Y-117251511D01*
X121008500Y-117251511D01*
X121008500Y-116818489D01*
X121008499Y-116818488D01*
X121007595Y-116807007D01*
X121005562Y-116781169D01*
X120959145Y-116621399D01*
X120959143Y-116621397D01*
X120959143Y-116621394D01*
X120874456Y-116478198D01*
X120874455Y-116478197D01*
X120874453Y-116478193D01*
X120874449Y-116478189D01*
X120873708Y-116477233D01*
X120873356Y-116476337D01*
X120870418Y-116471369D01*
X120871219Y-116470895D01*
X120847756Y-116411150D01*
X120861652Y-116341526D01*
X120873708Y-116322767D01*
X120874445Y-116321814D01*
X120874453Y-116321807D01*
X120947708Y-116197940D01*
X120959143Y-116178605D01*
X120959143Y-116178603D01*
X120959145Y-116178601D01*
X121005562Y-116018831D01*
X121008499Y-115981511D01*
X121008500Y-115981511D01*
X121008500Y-115548489D01*
X121008499Y-115548488D01*
X121005562Y-115511171D01*
X121005562Y-115511170D01*
X121005562Y-115511169D01*
X120959145Y-115351399D01*
X120959143Y-115351397D01*
X120959143Y-115351394D01*
X120874456Y-115208198D01*
X120874455Y-115208197D01*
X120874453Y-115208193D01*
X120874449Y-115208189D01*
X120873708Y-115207233D01*
X120873356Y-115206337D01*
X120870418Y-115201369D01*
X120871219Y-115200895D01*
X120847756Y-115141150D01*
X120861652Y-115071526D01*
X120873708Y-115052767D01*
X120874445Y-115051814D01*
X120874453Y-115051807D01*
X120925598Y-114965325D01*
X120959143Y-114908605D01*
X120959143Y-114908603D01*
X120959145Y-114908601D01*
X121005562Y-114748831D01*
X121008499Y-114711511D01*
X121008500Y-114711511D01*
X121008500Y-114278489D01*
X121008499Y-114278488D01*
X121005562Y-114241171D01*
X121005562Y-114241170D01*
X121003174Y-114232949D01*
X120959145Y-114081399D01*
X120959143Y-114081397D01*
X120959143Y-114081394D01*
X120874455Y-113938196D01*
X120874450Y-113938189D01*
X120756810Y-113820549D01*
X120756803Y-113820544D01*
X120613605Y-113735856D01*
X120471538Y-113694582D01*
X120449707Y-113680640D01*
X120425954Y-113670319D01*
X120420289Y-113661853D01*
X120411702Y-113656369D01*
X120400874Y-113632837D01*
X120386472Y-113611313D01*
X120386283Y-113601127D01*
X120382025Y-113591872D01*
X120385637Y-113566223D01*
X120385159Y-113540329D01*
X120391265Y-113526276D01*
X120391928Y-113521570D01*
X120399446Y-113507445D01*
X120431270Y-113455852D01*
X120484057Y-113408374D01*
X120538510Y-113396000D01*
X121148591Y-113396000D01*
X121275811Y-113370694D01*
X121395651Y-113321055D01*
X121503503Y-113248991D01*
X124239478Y-110513016D01*
X132657000Y-110513016D01*
X132667605Y-110616818D01*
X132667606Y-110616821D01*
X132723342Y-110785025D01*
X132816365Y-110935839D01*
X132816370Y-110935845D01*
X132941654Y-111061129D01*
X132941660Y-111061134D01*
X133092474Y-111154157D01*
X133260678Y-111209893D01*
X133260681Y-111209894D01*
X133364483Y-111220499D01*
X133364483Y-111220500D01*
X133636000Y-111220500D01*
X134144000Y-111220500D01*
X134415517Y-111220500D01*
X134415516Y-111220499D01*
X134519318Y-111209894D01*
X134519321Y-111209893D01*
X134687525Y-111154157D01*
X134838339Y-111061134D01*
X134838345Y-111061129D01*
X134963629Y-110935845D01*
X134963634Y-110935839D01*
X135056657Y-110785025D01*
X135112393Y-110616821D01*
X135112394Y-110616818D01*
X135122999Y-110513016D01*
X135123000Y-110513016D01*
X135123000Y-110379000D01*
X134144000Y-110379000D01*
X134144000Y-111220500D01*
X133636000Y-111220500D01*
X133636000Y-110379000D01*
X132657000Y-110379000D01*
X132657000Y-110513016D01*
X124239478Y-110513016D01*
X128511491Y-106241003D01*
X128583555Y-106133151D01*
X128633194Y-106013311D01*
X128633194Y-106013309D01*
X128633919Y-106011560D01*
X128678467Y-105956279D01*
X128745830Y-105933858D01*
X128814622Y-105951416D01*
X128839423Y-105970683D01*
X129905226Y-107036487D01*
X129905230Y-107036490D01*
X129931359Y-107053949D01*
X129976887Y-107108426D01*
X129980962Y-107119081D01*
X129996664Y-107166464D01*
X130002885Y-107185238D01*
X130061551Y-107280350D01*
X130095970Y-107336152D01*
X130095975Y-107336158D01*
X130221341Y-107461524D01*
X130221347Y-107461529D01*
X130221348Y-107461530D01*
X130372262Y-107554615D01*
X130540574Y-107610387D01*
X130644455Y-107621000D01*
X131407548Y-107620999D01*
X131475669Y-107641001D01*
X131496643Y-107657903D01*
X131932279Y-108093538D01*
X132358510Y-108519769D01*
X132450231Y-108611490D01*
X132558083Y-108683555D01*
X132677923Y-108733194D01*
X132691470Y-108735888D01*
X132754379Y-108768794D01*
X132774130Y-108793320D01*
X132815968Y-108861150D01*
X132815975Y-108861158D01*
X132941345Y-108986528D01*
X132944450Y-108988983D01*
X132946027Y-108991210D01*
X132946537Y-108991720D01*
X132946449Y-108991807D01*
X132985481Y-109046922D01*
X132988673Y-109117847D01*
X132953014Y-109179239D01*
X132944454Y-109186657D01*
X132941654Y-109188870D01*
X132816370Y-109314154D01*
X132816365Y-109314160D01*
X132723342Y-109464974D01*
X132667606Y-109633178D01*
X132667605Y-109633181D01*
X132657000Y-109736983D01*
X132657000Y-109871000D01*
X135123000Y-109871000D01*
X135123000Y-109736983D01*
X135112394Y-109633181D01*
X135112393Y-109633178D01*
X135056657Y-109464974D01*
X134963634Y-109314160D01*
X134963629Y-109314154D01*
X134838344Y-109188869D01*
X134835551Y-109186661D01*
X134834131Y-109184656D01*
X134833150Y-109183675D01*
X134833317Y-109183507D01*
X134794519Y-109128722D01*
X134791325Y-109057798D01*
X134826983Y-108996405D01*
X134835554Y-108988978D01*
X134838639Y-108986537D01*
X134838652Y-108986530D01*
X134964030Y-108861152D01*
X135033605Y-108748352D01*
X135086391Y-108700875D01*
X135140846Y-108688500D01*
X136191838Y-108688500D01*
X136213427Y-108694839D01*
X136235868Y-108696444D01*
X136255618Y-108707227D01*
X136259959Y-108708502D01*
X136267340Y-108713627D01*
X136288051Y-108729130D01*
X136330598Y-108785964D01*
X136335664Y-108856780D01*
X136301640Y-108919093D01*
X136288053Y-108930866D01*
X136206739Y-108991737D01*
X136175470Y-109033509D01*
X136118634Y-109076056D01*
X136074602Y-109084000D01*
X136062000Y-109084000D01*
X136062000Y-109153585D01*
X136062001Y-109153605D01*
X136068513Y-109214182D01*
X136068513Y-109241116D01*
X136061501Y-109306347D01*
X136061500Y-109306367D01*
X136061500Y-109953649D01*
X136068261Y-110016532D01*
X136068261Y-110043468D01*
X136061500Y-110106350D01*
X136061500Y-110753649D01*
X136068009Y-110814196D01*
X136068011Y-110814204D01*
X136119110Y-110951202D01*
X136119112Y-110951207D01*
X136206738Y-111068261D01*
X136323792Y-111155887D01*
X136323794Y-111155888D01*
X136323796Y-111155889D01*
X136382875Y-111177924D01*
X136460795Y-111206988D01*
X136460803Y-111206990D01*
X136521350Y-111213499D01*
X136521355Y-111213499D01*
X136521362Y-111213500D01*
X137910500Y-111213500D01*
X137978621Y-111233502D01*
X138025114Y-111287158D01*
X138036500Y-111339500D01*
X138036500Y-112570050D01*
X138016498Y-112638171D01*
X137999595Y-112659145D01*
X133954145Y-116704595D01*
X133891833Y-116738621D01*
X133865050Y-116741500D01*
X128221220Y-116741500D01*
X128153099Y-116721498D01*
X128113979Y-116681647D01*
X128049030Y-116576348D01*
X128049029Y-116576347D01*
X128049024Y-116576341D01*
X127961424Y-116488741D01*
X127927398Y-116426429D01*
X127932463Y-116355614D01*
X127961424Y-116310551D01*
X128048629Y-116223345D01*
X128048634Y-116223339D01*
X128141657Y-116072525D01*
X128197393Y-115904321D01*
X128197394Y-115904318D01*
X128207999Y-115800516D01*
X128208000Y-115800516D01*
X128208000Y-115654000D01*
X127126000Y-115654000D01*
X127057879Y-115633998D01*
X127011386Y-115580342D01*
X127000000Y-115528000D01*
X127000000Y-115400000D01*
X126872000Y-115400000D01*
X126803879Y-115379998D01*
X126757386Y-115326342D01*
X126746000Y-115274000D01*
X126746000Y-115146000D01*
X127254000Y-115146000D01*
X128208000Y-115146000D01*
X128208000Y-114999483D01*
X128197394Y-114895681D01*
X128197393Y-114895678D01*
X128141657Y-114727474D01*
X128048634Y-114576660D01*
X128048629Y-114576654D01*
X127923345Y-114451370D01*
X127923339Y-114451365D01*
X127772525Y-114358342D01*
X127604321Y-114302606D01*
X127604318Y-114302605D01*
X127500516Y-114292000D01*
X127254000Y-114292000D01*
X127254000Y-115146000D01*
X126746000Y-115146000D01*
X126746000Y-114292000D01*
X126499483Y-114292000D01*
X126395681Y-114302605D01*
X126395678Y-114302606D01*
X126227472Y-114358343D01*
X126150646Y-114405730D01*
X126082167Y-114424467D01*
X126014428Y-114403207D01*
X125968937Y-114348700D01*
X125958500Y-114298489D01*
X125958500Y-114278489D01*
X125958499Y-114278488D01*
X125955562Y-114241171D01*
X125955562Y-114241170D01*
X125953174Y-114232949D01*
X125909145Y-114081399D01*
X125909143Y-114081397D01*
X125909143Y-114081394D01*
X125824455Y-113938196D01*
X125824450Y-113938189D01*
X125706810Y-113820549D01*
X125706803Y-113820544D01*
X125563605Y-113735856D01*
X125403829Y-113689437D01*
X125366511Y-113686500D01*
X125366502Y-113686500D01*
X123583498Y-113686500D01*
X123583489Y-113686500D01*
X123546171Y-113689437D01*
X123546170Y-113689437D01*
X123386396Y-113735856D01*
X123237434Y-113823953D01*
X123173294Y-113841500D01*
X122935139Y-113841500D01*
X122807922Y-113866806D01*
X122807919Y-113866807D01*
X122688082Y-113916445D01*
X122580232Y-113988508D01*
X122580226Y-113988513D01*
X122188511Y-114380228D01*
X122188506Y-114380235D01*
X122125029Y-114475235D01*
X122116447Y-114488079D01*
X122116446Y-114488080D01*
X122066807Y-114607919D01*
X122066806Y-114607922D01*
X122041500Y-114735139D01*
X122041500Y-118864860D01*
X122050380Y-118909500D01*
X122066806Y-118992077D01*
X122116445Y-119111917D01*
X122188509Y-119219769D01*
X122780231Y-119811491D01*
X122888083Y-119883555D01*
X123007923Y-119933194D01*
X123135143Y-119958500D01*
X134064857Y-119958500D01*
X134192077Y-119933194D01*
X134311917Y-119883555D01*
X134419769Y-119811491D01*
X138046907Y-116184352D01*
X138109217Y-116150328D01*
X138180032Y-116155393D01*
X138236868Y-116197940D01*
X138261679Y-116264460D01*
X138262000Y-116273449D01*
X138262000Y-116746000D01*
X139189297Y-116746000D01*
X139154075Y-116807007D01*
X139120000Y-116934174D01*
X139120000Y-117065826D01*
X139154075Y-117192993D01*
X139189297Y-117254000D01*
X138262000Y-117254000D01*
X138262000Y-117898597D01*
X138268505Y-117959093D01*
X138319555Y-118095964D01*
X138319555Y-118095965D01*
X138407095Y-118212904D01*
X138524034Y-118300444D01*
X138660906Y-118351494D01*
X138721402Y-118357999D01*
X138721415Y-118358000D01*
X139366000Y-118358000D01*
X139366000Y-117430702D01*
X139427007Y-117465925D01*
X139554174Y-117500000D01*
X139685826Y-117500000D01*
X139812993Y-117465925D01*
X139874000Y-117430702D01*
X139874000Y-118358000D01*
X140518585Y-118358000D01*
X140518597Y-118357999D01*
X140579093Y-118351494D01*
X140715964Y-118300444D01*
X140715965Y-118300444D01*
X140832904Y-118212904D01*
X140920444Y-118095965D01*
X140964671Y-117977387D01*
X141007218Y-117920551D01*
X141073738Y-117895740D01*
X141143112Y-117910831D01*
X141171822Y-117932324D01*
X141275320Y-118035822D01*
X141448249Y-118161463D01*
X141638707Y-118258506D01*
X141638713Y-118258509D01*
X141841998Y-118324560D01*
X141906000Y-118334696D01*
X141906000Y-117430702D01*
X141967007Y-117465925D01*
X142094174Y-117500000D01*
X142225826Y-117500000D01*
X142352993Y-117465925D01*
X142414000Y-117430702D01*
X142414000Y-118334696D01*
X142478001Y-118324560D01*
X142681286Y-118258509D01*
X142681292Y-118258506D01*
X142871750Y-118161463D01*
X143044679Y-118035822D01*
X143195822Y-117884679D01*
X143321460Y-117711754D01*
X143322261Y-117710448D01*
X143322695Y-117710054D01*
X143324376Y-117707742D01*
X143324861Y-117708094D01*
X143374900Y-117662807D01*
X143444940Y-117651188D01*
X143510142Y-117679280D01*
X143535097Y-117708075D01*
X143535196Y-117708004D01*
X143536025Y-117709145D01*
X143537136Y-117710427D01*
X143538103Y-117712006D01*
X143597781Y-117794145D01*
X143663794Y-117885004D01*
X143663796Y-117885006D01*
X143663798Y-117885009D01*
X143814990Y-118036201D01*
X143814993Y-118036203D01*
X143814996Y-118036206D01*
X143987991Y-118161894D01*
X144178517Y-118258972D01*
X144381878Y-118325047D01*
X144381879Y-118325047D01*
X144381884Y-118325049D01*
X144593084Y-118358500D01*
X144593087Y-118358500D01*
X144806913Y-118358500D01*
X144806916Y-118358500D01*
X145018116Y-118325049D01*
X145221483Y-118258972D01*
X145412009Y-118161894D01*
X145585004Y-118036206D01*
X145736206Y-117885004D01*
X145861894Y-117712009D01*
X145861899Y-117711997D01*
X145862561Y-117710920D01*
X145862924Y-117710591D01*
X145864804Y-117708004D01*
X145865347Y-117708398D01*
X145915204Y-117663283D01*
X145985244Y-117651670D01*
X146050445Y-117679766D01*
X146075021Y-117708130D01*
X146075196Y-117708004D01*
X146076668Y-117710030D01*
X146077439Y-117710920D01*
X146078104Y-117712006D01*
X146078106Y-117712009D01*
X146203794Y-117885004D01*
X146203796Y-117885006D01*
X146203798Y-117885009D01*
X146354990Y-118036201D01*
X146354993Y-118036203D01*
X146354996Y-118036206D01*
X146527991Y-118161894D01*
X146718517Y-118258972D01*
X146921878Y-118325047D01*
X146921879Y-118325047D01*
X146921884Y-118325049D01*
X147133084Y-118358500D01*
X147133087Y-118358500D01*
X147346913Y-118358500D01*
X147346916Y-118358500D01*
X147558116Y-118325049D01*
X147761483Y-118258972D01*
X147952009Y-118161894D01*
X148125004Y-118036206D01*
X148276206Y-117885004D01*
X148401894Y-117712009D01*
X148401899Y-117711997D01*
X148402561Y-117710920D01*
X148402924Y-117710591D01*
X148404804Y-117708004D01*
X148405347Y-117708398D01*
X148455204Y-117663283D01*
X148525244Y-117651670D01*
X148590445Y-117679766D01*
X148615021Y-117708130D01*
X148615196Y-117708004D01*
X148616668Y-117710030D01*
X148617439Y-117710920D01*
X148618104Y-117712006D01*
X148618106Y-117712009D01*
X148743794Y-117885004D01*
X148743796Y-117885006D01*
X148743798Y-117885009D01*
X148894990Y-118036201D01*
X148894993Y-118036203D01*
X148894996Y-118036206D01*
X149067991Y-118161894D01*
X149258517Y-118258972D01*
X149461878Y-118325047D01*
X149461879Y-118325047D01*
X149461884Y-118325049D01*
X149673084Y-118358500D01*
X149673087Y-118358500D01*
X149886913Y-118358500D01*
X149886916Y-118358500D01*
X150098116Y-118325049D01*
X150301483Y-118258972D01*
X150492009Y-118161894D01*
X150665004Y-118036206D01*
X150816206Y-117885004D01*
X150941894Y-117712009D01*
X150941899Y-117711997D01*
X150942561Y-117710920D01*
X150942924Y-117710591D01*
X150944804Y-117708004D01*
X150945347Y-117708398D01*
X150995204Y-117663283D01*
X151065244Y-117651670D01*
X151130445Y-117679766D01*
X151155021Y-117708130D01*
X151155196Y-117708004D01*
X151156668Y-117710030D01*
X151157439Y-117710920D01*
X151158104Y-117712006D01*
X151158106Y-117712009D01*
X151283794Y-117885004D01*
X151283796Y-117885006D01*
X151283798Y-117885009D01*
X151434990Y-118036201D01*
X151434993Y-118036203D01*
X151434996Y-118036206D01*
X151607991Y-118161894D01*
X151798517Y-118258972D01*
X152001878Y-118325047D01*
X152001879Y-118325047D01*
X152001884Y-118325049D01*
X152213084Y-118358500D01*
X152213087Y-118358500D01*
X152426913Y-118358500D01*
X152426916Y-118358500D01*
X152638116Y-118325049D01*
X152841483Y-118258972D01*
X153032009Y-118161894D01*
X153205004Y-118036206D01*
X153356206Y-117885004D01*
X153481894Y-117712009D01*
X153481899Y-117711997D01*
X153482561Y-117710920D01*
X153482924Y-117710591D01*
X153484804Y-117708004D01*
X153485347Y-117708398D01*
X153535204Y-117663283D01*
X153605244Y-117651670D01*
X153670445Y-117679766D01*
X153695021Y-117708130D01*
X153695196Y-117708004D01*
X153696668Y-117710030D01*
X153697439Y-117710920D01*
X153698104Y-117712006D01*
X153698106Y-117712009D01*
X153823794Y-117885004D01*
X153823796Y-117885006D01*
X153823798Y-117885009D01*
X153974990Y-118036201D01*
X153974993Y-118036203D01*
X153974996Y-118036206D01*
X154147991Y-118161894D01*
X154338517Y-118258972D01*
X154541878Y-118325047D01*
X154541879Y-118325047D01*
X154541884Y-118325049D01*
X154753084Y-118358500D01*
X154753087Y-118358500D01*
X154966913Y-118358500D01*
X154966916Y-118358500D01*
X155178116Y-118325049D01*
X155381483Y-118258972D01*
X155572009Y-118161894D01*
X155745004Y-118036206D01*
X155896206Y-117885004D01*
X156021894Y-117712009D01*
X156021899Y-117711997D01*
X156022561Y-117710920D01*
X156022924Y-117710591D01*
X156024804Y-117708004D01*
X156025347Y-117708398D01*
X156075204Y-117663283D01*
X156145244Y-117651670D01*
X156210445Y-117679766D01*
X156235021Y-117708130D01*
X156235196Y-117708004D01*
X156236668Y-117710030D01*
X156237439Y-117710920D01*
X156238104Y-117712006D01*
X156238106Y-117712009D01*
X156363794Y-117885004D01*
X156363796Y-117885006D01*
X156363798Y-117885009D01*
X156514990Y-118036201D01*
X156514993Y-118036203D01*
X156514996Y-118036206D01*
X156687991Y-118161894D01*
X156878517Y-118258972D01*
X157081878Y-118325047D01*
X157081879Y-118325047D01*
X157081884Y-118325049D01*
X157293084Y-118358500D01*
X157293087Y-118358500D01*
X157506913Y-118358500D01*
X157506916Y-118358500D01*
X157718116Y-118325049D01*
X157921483Y-118258972D01*
X158112009Y-118161894D01*
X158285004Y-118036206D01*
X158436206Y-117885004D01*
X158561894Y-117712009D01*
X158658972Y-117521483D01*
X158725049Y-117318116D01*
X158758500Y-117106916D01*
X158758500Y-116893084D01*
X158725049Y-116681884D01*
X158658972Y-116478517D01*
X158561894Y-116287991D01*
X158436206Y-116114996D01*
X158436203Y-116114993D01*
X158436201Y-116114990D01*
X158285009Y-115963798D01*
X158285006Y-115963796D01*
X158285004Y-115963794D01*
X158112009Y-115838106D01*
X157921483Y-115741028D01*
X157921480Y-115741027D01*
X157921478Y-115741026D01*
X157718120Y-115674952D01*
X157718123Y-115674952D01*
X157678801Y-115668724D01*
X157506916Y-115641500D01*
X157293084Y-115641500D01*
X157081884Y-115674951D01*
X157081878Y-115674952D01*
X156878521Y-115741026D01*
X156878515Y-115741029D01*
X156687987Y-115838108D01*
X156514993Y-115963796D01*
X156514990Y-115963798D01*
X156363798Y-116114990D01*
X156363796Y-116114993D01*
X156238108Y-116287987D01*
X156237434Y-116289088D01*
X156237068Y-116289418D01*
X156235196Y-116291996D01*
X156234654Y-116291602D01*
X156184787Y-116336721D01*
X156114745Y-116348328D01*
X156049547Y-116320226D01*
X156024976Y-116291870D01*
X156024804Y-116291996D01*
X156023341Y-116289982D01*
X156022566Y-116289088D01*
X156021896Y-116287996D01*
X156021894Y-116287991D01*
X155896206Y-116114996D01*
X155896203Y-116114993D01*
X155896201Y-116114990D01*
X155745009Y-115963798D01*
X155745006Y-115963796D01*
X155745004Y-115963794D01*
X155572009Y-115838106D01*
X155381483Y-115741028D01*
X155381480Y-115741027D01*
X155381478Y-115741026D01*
X155178120Y-115674952D01*
X155178123Y-115674952D01*
X155138801Y-115668724D01*
X154966916Y-115641500D01*
X154753084Y-115641500D01*
X154541884Y-115674951D01*
X154541878Y-115674952D01*
X154338521Y-115741026D01*
X154338515Y-115741029D01*
X154147987Y-115838108D01*
X153974993Y-115963796D01*
X153974990Y-115963798D01*
X153823798Y-116114990D01*
X153823796Y-116114993D01*
X153698108Y-116287987D01*
X153697434Y-116289088D01*
X153697068Y-116289418D01*
X153695196Y-116291996D01*
X153694654Y-116291602D01*
X153644787Y-116336721D01*
X153574745Y-116348328D01*
X153509547Y-116320226D01*
X153484976Y-116291870D01*
X153484804Y-116291996D01*
X153483341Y-116289982D01*
X153482566Y-116289088D01*
X153481896Y-116287996D01*
X153481894Y-116287991D01*
X153356206Y-116114996D01*
X153356203Y-116114993D01*
X153356201Y-116114990D01*
X153205009Y-115963798D01*
X153205006Y-115963796D01*
X153205004Y-115963794D01*
X153032009Y-115838106D01*
X152841483Y-115741028D01*
X152841480Y-115741027D01*
X152841478Y-115741026D01*
X152638120Y-115674952D01*
X152638123Y-115674952D01*
X152598801Y-115668724D01*
X152426916Y-115641500D01*
X152213084Y-115641500D01*
X152001884Y-115674951D01*
X152001878Y-115674952D01*
X151798521Y-115741026D01*
X151798515Y-115741029D01*
X151607987Y-115838108D01*
X151434993Y-115963796D01*
X151434990Y-115963798D01*
X151283798Y-116114990D01*
X151283796Y-116114993D01*
X151158108Y-116287987D01*
X151157434Y-116289088D01*
X151157068Y-116289418D01*
X151155196Y-116291996D01*
X151154654Y-116291602D01*
X151104787Y-116336721D01*
X151034745Y-116348328D01*
X150969547Y-116320226D01*
X150944976Y-116291870D01*
X150944804Y-116291996D01*
X150943341Y-116289982D01*
X150942566Y-116289088D01*
X150941896Y-116287996D01*
X150941894Y-116287991D01*
X150816206Y-116114996D01*
X150816203Y-116114993D01*
X150816201Y-116114990D01*
X150665009Y-115963798D01*
X150665006Y-115963796D01*
X150665004Y-115963794D01*
X150492009Y-115838106D01*
X150301483Y-115741028D01*
X150301480Y-115741027D01*
X150301478Y-115741026D01*
X150098120Y-115674952D01*
X150098123Y-115674952D01*
X150058801Y-115668724D01*
X149886916Y-115641500D01*
X149673084Y-115641500D01*
X149461884Y-115674951D01*
X149461878Y-115674952D01*
X149258521Y-115741026D01*
X149258515Y-115741029D01*
X149067987Y-115838108D01*
X148894993Y-115963796D01*
X148894990Y-115963798D01*
X148743798Y-116114990D01*
X148743796Y-116114993D01*
X148618108Y-116287987D01*
X148617434Y-116289088D01*
X148617068Y-116289418D01*
X148615196Y-116291996D01*
X148614654Y-116291602D01*
X148564787Y-116336721D01*
X148494745Y-116348328D01*
X148429547Y-116320226D01*
X148404976Y-116291870D01*
X148404804Y-116291996D01*
X148403341Y-116289982D01*
X148402566Y-116289088D01*
X148401896Y-116287996D01*
X148401894Y-116287991D01*
X148276206Y-116114996D01*
X148276203Y-116114993D01*
X148276201Y-116114990D01*
X148125009Y-115963798D01*
X148125006Y-115963796D01*
X148125004Y-115963794D01*
X147952009Y-115838106D01*
X147761483Y-115741028D01*
X147761480Y-115741027D01*
X147761478Y-115741026D01*
X147558120Y-115674952D01*
X147558123Y-115674952D01*
X147518801Y-115668724D01*
X147346916Y-115641500D01*
X147133084Y-115641500D01*
X146921884Y-115674951D01*
X146921878Y-115674952D01*
X146718521Y-115741026D01*
X146718515Y-115741029D01*
X146527987Y-115838108D01*
X146354993Y-115963796D01*
X146354990Y-115963798D01*
X146203798Y-116114990D01*
X146203796Y-116114993D01*
X146078108Y-116287987D01*
X146077434Y-116289088D01*
X146077068Y-116289418D01*
X146075196Y-116291996D01*
X146074654Y-116291602D01*
X146024787Y-116336721D01*
X145954745Y-116348328D01*
X145889547Y-116320226D01*
X145864976Y-116291870D01*
X145864804Y-116291996D01*
X145863341Y-116289982D01*
X145862566Y-116289088D01*
X145861896Y-116287996D01*
X145861894Y-116287991D01*
X145736206Y-116114996D01*
X145736203Y-116114993D01*
X145736201Y-116114990D01*
X145585009Y-115963798D01*
X145585006Y-115963796D01*
X145585004Y-115963794D01*
X145412009Y-115838106D01*
X145221483Y-115741028D01*
X145221480Y-115741027D01*
X145221478Y-115741026D01*
X145018120Y-115674952D01*
X145018123Y-115674952D01*
X144978801Y-115668724D01*
X144806916Y-115641500D01*
X144593084Y-115641500D01*
X144381884Y-115674951D01*
X144381878Y-115674952D01*
X144178521Y-115741026D01*
X144178509Y-115741031D01*
X144030718Y-115816334D01*
X143960941Y-115829438D01*
X143895157Y-115802737D01*
X143884421Y-115793162D01*
X143601425Y-115510166D01*
X143567399Y-115447854D01*
X143572464Y-115377039D01*
X143615011Y-115320203D01*
X143677715Y-115295723D01*
X143754426Y-115287887D01*
X143922738Y-115232115D01*
X144073652Y-115139030D01*
X144199030Y-115013652D01*
X144199035Y-115013643D01*
X144202271Y-115009552D01*
X144260210Y-114968520D01*
X144331135Y-114965325D01*
X144366733Y-114981002D01*
X144366839Y-114980804D01*
X144369440Y-114982194D01*
X144371115Y-114982932D01*
X144372296Y-114983721D01*
X144555831Y-115059744D01*
X144750671Y-115098500D01*
X144750672Y-115098500D01*
X144949328Y-115098500D01*
X144949329Y-115098500D01*
X145144169Y-115059744D01*
X145327704Y-114983721D01*
X145492881Y-114873353D01*
X145633353Y-114732881D01*
X145743721Y-114567704D01*
X145819744Y-114384169D01*
X145858500Y-114189329D01*
X145858500Y-113990671D01*
X145828347Y-113839081D01*
X145834675Y-113768368D01*
X145878229Y-113712300D01*
X145945182Y-113688681D01*
X145951926Y-113688500D01*
X180205050Y-113688500D01*
X180273171Y-113708502D01*
X180294145Y-113725405D01*
X183754595Y-117185854D01*
X183788621Y-117248166D01*
X183791500Y-117274949D01*
X183791500Y-118889887D01*
X183791499Y-118889887D01*
X183802112Y-118993756D01*
X183802112Y-118993758D01*
X183802113Y-118993760D01*
X183857885Y-119162073D01*
X183893473Y-119219769D01*
X183950970Y-119312986D01*
X183950975Y-119312992D01*
X184076342Y-119438359D01*
X184076348Y-119438364D01*
X184076349Y-119438365D01*
X184227262Y-119531450D01*
X184395575Y-119587222D01*
X184423906Y-119590116D01*
X184499448Y-119597835D01*
X184499456Y-119597835D01*
X186500552Y-119597835D01*
X186569798Y-119590759D01*
X186604425Y-119587222D01*
X186772738Y-119531450D01*
X186923651Y-119438365D01*
X187049030Y-119312986D01*
X187142115Y-119162073D01*
X187197887Y-118993760D01*
X187201424Y-118959133D01*
X187208500Y-118889887D01*
X187208500Y-116888782D01*
X187200540Y-116810880D01*
X187197887Y-116784910D01*
X187142115Y-116616597D01*
X187049030Y-116465684D01*
X187049029Y-116465683D01*
X187049024Y-116465677D01*
X186923657Y-116340310D01*
X186923651Y-116340305D01*
X186893661Y-116321807D01*
X186772738Y-116247220D01*
X186604425Y-116191448D01*
X186604423Y-116191447D01*
X186604421Y-116191447D01*
X186500552Y-116180835D01*
X186500544Y-116180835D01*
X184664284Y-116180835D01*
X184596163Y-116160833D01*
X184575189Y-116143930D01*
X181184855Y-112753595D01*
X181150829Y-112691283D01*
X181155894Y-112620467D01*
X181198441Y-112563632D01*
X181264961Y-112538821D01*
X181273950Y-112538500D01*
X183668738Y-112538500D01*
X183736859Y-112558502D01*
X183783352Y-112612158D01*
X183793660Y-112680943D01*
X183792299Y-112691283D01*
X183791501Y-112697351D01*
X183791500Y-112697361D01*
X183791500Y-112921318D01*
X183820731Y-113143355D01*
X183833363Y-113190500D01*
X183878698Y-113359693D01*
X183964405Y-113566607D01*
X183964406Y-113566608D01*
X183964411Y-113566618D01*
X184034780Y-113688500D01*
X184076386Y-113760563D01*
X184195998Y-113916445D01*
X184212725Y-113938244D01*
X184212734Y-113938254D01*
X184371080Y-114096600D01*
X184371090Y-114096609D01*
X184371091Y-114096610D01*
X184548772Y-114232949D01*
X184742728Y-114344930D01*
X184949642Y-114430637D01*
X185165973Y-114488602D01*
X185165977Y-114488602D01*
X185165979Y-114488603D01*
X185223204Y-114496136D01*
X185388019Y-114517835D01*
X185388026Y-114517835D01*
X185611974Y-114517835D01*
X185611981Y-114517835D01*
X185812656Y-114491415D01*
X185834020Y-114488603D01*
X185834020Y-114488602D01*
X185834027Y-114488602D01*
X186050358Y-114430637D01*
X186257272Y-114344930D01*
X186451228Y-114232949D01*
X186628909Y-114096610D01*
X186787275Y-113938244D01*
X186923614Y-113760563D01*
X187035595Y-113566607D01*
X187121302Y-113359693D01*
X187179267Y-113143362D01*
X187208500Y-112921316D01*
X187208500Y-112697354D01*
X187179267Y-112475308D01*
X187121302Y-112258977D01*
X187035595Y-112052063D01*
X186923614Y-111858107D01*
X186787275Y-111680426D01*
X186787274Y-111680425D01*
X186787265Y-111680415D01*
X186628919Y-111522069D01*
X186628909Y-111522060D01*
X186451228Y-111385721D01*
X186451223Y-111385718D01*
X186257283Y-111273746D01*
X186257278Y-111273743D01*
X186257272Y-111273740D01*
X186050358Y-111188033D01*
X185834027Y-111130068D01*
X185834020Y-111130066D01*
X185611983Y-111100835D01*
X185611981Y-111100835D01*
X185388019Y-111100835D01*
X185388016Y-111100835D01*
X185165979Y-111130066D01*
X185066587Y-111156698D01*
X184949642Y-111188033D01*
X184949640Y-111188033D01*
X184949639Y-111188034D01*
X184828459Y-111238227D01*
X184757869Y-111245816D01*
X184755660Y-111245397D01*
X184635525Y-111221500D01*
X184635522Y-111221500D01*
X183215406Y-111221500D01*
X183147285Y-111201498D01*
X183100792Y-111147842D01*
X183090688Y-111077568D01*
X183120182Y-111012988D01*
X183145401Y-110990737D01*
X183219104Y-110941491D01*
X184791341Y-109369252D01*
X184853650Y-109335230D01*
X184924465Y-109340294D01*
X184928585Y-109341915D01*
X184949642Y-109350637D01*
X185165973Y-109408602D01*
X185165977Y-109408602D01*
X185165979Y-109408603D01*
X185223204Y-109416136D01*
X185388019Y-109437835D01*
X185388026Y-109437835D01*
X185611974Y-109437835D01*
X185611981Y-109437835D01*
X185812656Y-109411415D01*
X185834020Y-109408603D01*
X185834020Y-109408602D01*
X185834027Y-109408602D01*
X186050358Y-109350637D01*
X186257272Y-109264930D01*
X186451228Y-109152949D01*
X186628909Y-109016610D01*
X186787275Y-108858244D01*
X186923614Y-108680563D01*
X187035595Y-108486607D01*
X187121302Y-108279693D01*
X187179267Y-108063362D01*
X187208500Y-107841316D01*
X187208500Y-107617354D01*
X187183244Y-107425517D01*
X187179268Y-107395314D01*
X187179267Y-107395312D01*
X187179267Y-107395308D01*
X187121302Y-107178977D01*
X187035595Y-106972063D01*
X186923614Y-106778107D01*
X186787275Y-106600426D01*
X186787274Y-106600425D01*
X186787265Y-106600415D01*
X186628919Y-106442069D01*
X186628909Y-106442060D01*
X186613107Y-106429935D01*
X186451228Y-106305721D01*
X186451223Y-106305718D01*
X186257283Y-106193746D01*
X186257278Y-106193743D01*
X186257272Y-106193740D01*
X186050358Y-106108033D01*
X185834027Y-106050068D01*
X185834020Y-106050066D01*
X185611983Y-106020835D01*
X185611981Y-106020835D01*
X185388019Y-106020835D01*
X185388016Y-106020835D01*
X185165979Y-106050066D01*
X184949642Y-106108033D01*
X184742726Y-106193741D01*
X184742716Y-106193746D01*
X184548776Y-106305718D01*
X184371090Y-106442060D01*
X184371080Y-106442069D01*
X184212734Y-106600415D01*
X184212725Y-106600425D01*
X184076383Y-106778111D01*
X183964411Y-106972051D01*
X183964406Y-106972061D01*
X183964405Y-106972063D01*
X183916175Y-107088500D01*
X183878698Y-107178977D01*
X183820731Y-107395314D01*
X183791500Y-107617351D01*
X183791500Y-107841318D01*
X183820731Y-108063355D01*
X183820733Y-108063362D01*
X183878698Y-108279693D01*
X183887393Y-108300684D01*
X183894981Y-108371274D01*
X183863200Y-108434760D01*
X183860079Y-108437995D01*
X182563478Y-109734596D01*
X182501168Y-109768620D01*
X182474385Y-109771500D01*
X179613285Y-109771500D01*
X179545164Y-109751498D01*
X179498671Y-109697842D01*
X179488567Y-109627568D01*
X179518061Y-109562988D01*
X179524190Y-109556405D01*
X180828701Y-108251894D01*
X184791340Y-104289253D01*
X184853650Y-104255229D01*
X184924465Y-104260294D01*
X184928585Y-104261915D01*
X184949642Y-104270637D01*
X185165973Y-104328602D01*
X185165977Y-104328602D01*
X185165979Y-104328603D01*
X185223204Y-104336136D01*
X185388019Y-104357835D01*
X185388026Y-104357835D01*
X185611974Y-104357835D01*
X185611981Y-104357835D01*
X185812656Y-104331415D01*
X185834020Y-104328603D01*
X185834020Y-104328602D01*
X185834027Y-104328602D01*
X186050358Y-104270637D01*
X186257272Y-104184930D01*
X186451228Y-104072949D01*
X186628909Y-103936610D01*
X186787275Y-103778244D01*
X186923614Y-103600563D01*
X187035595Y-103406607D01*
X187121302Y-103199693D01*
X187179267Y-102983362D01*
X187208500Y-102761316D01*
X187208500Y-102537354D01*
X187186800Y-102372525D01*
X187179268Y-102315314D01*
X187179267Y-102315312D01*
X187179267Y-102315308D01*
X187121302Y-102098977D01*
X187035595Y-101892063D01*
X186923614Y-101698107D01*
X186787275Y-101520426D01*
X186787274Y-101520425D01*
X186787265Y-101520415D01*
X186628919Y-101362069D01*
X186628909Y-101362060D01*
X186560905Y-101309879D01*
X186451228Y-101225721D01*
X186451223Y-101225718D01*
X186257283Y-101113746D01*
X186257278Y-101113743D01*
X186257272Y-101113740D01*
X186050358Y-101028033D01*
X185900985Y-100988009D01*
X185834020Y-100970066D01*
X185611983Y-100940835D01*
X185611981Y-100940835D01*
X185388019Y-100940835D01*
X185388016Y-100940835D01*
X185165979Y-100970066D01*
X185022541Y-101008500D01*
X184949642Y-101028033D01*
X184781875Y-101097525D01*
X184742726Y-101113741D01*
X184742716Y-101113746D01*
X184548776Y-101225718D01*
X184371090Y-101362060D01*
X184371080Y-101362069D01*
X184212734Y-101520415D01*
X184212725Y-101520425D01*
X184076383Y-101698111D01*
X183964411Y-101892051D01*
X183964406Y-101892061D01*
X183964405Y-101892063D01*
X183931841Y-101970679D01*
X183878698Y-102098977D01*
X183820731Y-102315314D01*
X183791500Y-102537351D01*
X183791500Y-102761318D01*
X183820731Y-102983355D01*
X183830488Y-103019767D01*
X183878698Y-103199693D01*
X183887393Y-103220684D01*
X183894981Y-103291274D01*
X183863200Y-103354760D01*
X183860078Y-103357995D01*
X178283480Y-108934595D01*
X178221168Y-108968621D01*
X178194385Y-108971500D01*
X147304500Y-108971500D01*
X147236379Y-108951498D01*
X147189886Y-108897842D01*
X147178500Y-108845500D01*
X147178500Y-108506367D01*
X147178499Y-108506352D01*
X147171485Y-108441114D01*
X147171485Y-108414173D01*
X147177999Y-108353592D01*
X147178000Y-108353585D01*
X147178000Y-108284000D01*
X147165398Y-108284000D01*
X147163579Y-108283465D01*
X147161746Y-108283947D01*
X147129656Y-108273505D01*
X147097277Y-108263998D01*
X147095462Y-108262379D01*
X147094233Y-108261979D01*
X147083711Y-108251894D01*
X147067822Y-108237717D01*
X147066122Y-108235637D01*
X147033261Y-108191739D01*
X146951946Y-108130867D01*
X146909400Y-108074031D01*
X146904336Y-108003215D01*
X146938361Y-107940903D01*
X146951941Y-107929135D01*
X146972657Y-107913629D01*
X146978746Y-107911357D01*
X146983143Y-107906572D01*
X147011607Y-107899103D01*
X147039178Y-107888821D01*
X147048162Y-107888500D01*
X147863261Y-107888500D01*
X147931382Y-107908502D01*
X147977875Y-107962158D01*
X147982865Y-107974867D01*
X148000383Y-108027734D01*
X148000384Y-108027736D01*
X148000385Y-108027738D01*
X148064278Y-108131324D01*
X148093470Y-108178652D01*
X148093475Y-108178658D01*
X148218841Y-108304024D01*
X148218847Y-108304029D01*
X148218848Y-108304030D01*
X148369762Y-108397115D01*
X148538074Y-108452887D01*
X148641955Y-108463500D01*
X149418044Y-108463499D01*
X149521926Y-108452887D01*
X149690238Y-108397115D01*
X149841152Y-108304030D01*
X149966530Y-108178652D01*
X149966537Y-108178639D01*
X149968978Y-108175554D01*
X149971209Y-108173973D01*
X149971720Y-108173463D01*
X149971807Y-108173550D01*
X150026916Y-108134521D01*
X150097840Y-108131324D01*
X150159234Y-108166980D01*
X150166661Y-108175551D01*
X150168869Y-108178344D01*
X150294154Y-108303629D01*
X150294160Y-108303634D01*
X150444974Y-108396657D01*
X150613178Y-108452393D01*
X150613181Y-108452394D01*
X150716983Y-108462999D01*
X150716983Y-108463000D01*
X150851000Y-108463000D01*
X151359000Y-108463000D01*
X151493017Y-108463000D01*
X151493016Y-108462999D01*
X151596818Y-108452394D01*
X151596821Y-108452393D01*
X151765025Y-108396657D01*
X151915839Y-108303634D01*
X151915845Y-108303629D01*
X152041129Y-108178345D01*
X152041134Y-108178339D01*
X152134157Y-108027525D01*
X152189893Y-107859321D01*
X152189894Y-107859318D01*
X152200499Y-107755516D01*
X152200500Y-107755516D01*
X152200500Y-107484000D01*
X151359000Y-107484000D01*
X151359000Y-108463000D01*
X150851000Y-108463000D01*
X150851000Y-106976000D01*
X151359000Y-106976000D01*
X152200500Y-106976000D01*
X152200500Y-106704483D01*
X152189894Y-106600681D01*
X152189892Y-106600671D01*
X152188335Y-106595971D01*
X152188334Y-106595969D01*
X152134159Y-106432478D01*
X152041134Y-106281660D01*
X152036582Y-106275903D01*
X152038340Y-106274512D01*
X152009548Y-106221806D01*
X152014600Y-106150989D01*
X152037727Y-106115002D01*
X152036582Y-106114097D01*
X152041134Y-106108339D01*
X152134157Y-105957525D01*
X152189893Y-105789321D01*
X152189894Y-105789318D01*
X152200499Y-105685516D01*
X152200500Y-105685516D01*
X152200500Y-105414000D01*
X151359000Y-105414000D01*
X151359000Y-106976000D01*
X150851000Y-106976000D01*
X150851000Y-105286000D01*
X150871002Y-105217879D01*
X150924658Y-105171386D01*
X150977000Y-105160000D01*
X151105000Y-105160000D01*
X151105000Y-105032000D01*
X151125002Y-104963879D01*
X151178658Y-104917386D01*
X151231000Y-104906000D01*
X152200500Y-104906000D01*
X152200500Y-104634483D01*
X152189894Y-104530681D01*
X152189893Y-104530678D01*
X152134157Y-104362474D01*
X152041134Y-104211660D01*
X152041129Y-104211654D01*
X151915845Y-104086370D01*
X151915839Y-104086365D01*
X151765025Y-103993342D01*
X151596821Y-103937606D01*
X151596818Y-103937605D01*
X151493017Y-103927000D01*
X151491935Y-103926945D01*
X151491710Y-103926866D01*
X151489816Y-103926673D01*
X151489862Y-103926220D01*
X151424919Y-103903506D01*
X151381214Y-103847556D01*
X151374695Y-103776860D01*
X151407433Y-103713862D01*
X151409129Y-103712129D01*
X153165857Y-101955402D01*
X153228167Y-101921379D01*
X153254950Y-101918500D01*
X154735029Y-101918500D01*
X154803150Y-101938502D01*
X154836965Y-101970439D01*
X154838106Y-101972009D01*
X154963794Y-102145004D01*
X154963796Y-102145006D01*
X154963798Y-102145009D01*
X155118496Y-102299707D01*
X155117478Y-102300724D01*
X155152756Y-102354745D01*
X155153275Y-102425739D01*
X155115329Y-102485745D01*
X155071060Y-102510959D01*
X155032959Y-102523339D01*
X154978517Y-102541028D01*
X154978515Y-102541028D01*
X154978515Y-102541029D01*
X154787987Y-102638108D01*
X154614993Y-102763796D01*
X154614990Y-102763798D01*
X154463798Y-102914990D01*
X154463796Y-102914993D01*
X154338108Y-103087987D01*
X154241029Y-103278515D01*
X154241026Y-103278521D01*
X154174952Y-103481878D01*
X154174951Y-103481883D01*
X154174951Y-103481884D01*
X154141500Y-103693084D01*
X154141500Y-103906916D01*
X154169922Y-104086365D01*
X154174952Y-104118121D01*
X154238708Y-104314344D01*
X154241028Y-104321483D01*
X154335229Y-104506362D01*
X154338108Y-104512012D01*
X154348857Y-104526806D01*
X154463794Y-104685004D01*
X154463796Y-104685006D01*
X154463798Y-104685009D01*
X154614990Y-104836201D01*
X154614993Y-104836203D01*
X154614996Y-104836206D01*
X154787991Y-104961894D01*
X154978517Y-105058972D01*
X155071619Y-105089222D01*
X155130225Y-105129295D01*
X155157863Y-105194691D01*
X155145757Y-105264648D01*
X155118231Y-105300083D01*
X155118823Y-105300675D01*
X154964180Y-105455317D01*
X154964177Y-105455320D01*
X154838536Y-105628249D01*
X154741493Y-105818707D01*
X154741490Y-105818713D01*
X154675440Y-106021995D01*
X154665302Y-106086000D01*
X155569297Y-106086000D01*
X155534075Y-106147007D01*
X155500000Y-106274174D01*
X155500000Y-106405826D01*
X155534075Y-106532993D01*
X155569297Y-106594000D01*
X154665302Y-106594000D01*
X154675440Y-106658004D01*
X154741490Y-106861286D01*
X154741493Y-106861292D01*
X154838536Y-107051750D01*
X154964177Y-107224679D01*
X155115320Y-107375822D01*
X155288249Y-107501463D01*
X155478707Y-107598506D01*
X155478713Y-107598509D01*
X155681998Y-107664560D01*
X155746000Y-107674696D01*
X155746000Y-106770702D01*
X155807007Y-106805925D01*
X155934174Y-106840000D01*
X156065826Y-106840000D01*
X156192993Y-106805925D01*
X156254000Y-106770702D01*
X156254000Y-107674696D01*
X156318001Y-107664560D01*
X156521286Y-107598509D01*
X156521292Y-107598506D01*
X156711750Y-107501463D01*
X156884679Y-107375822D01*
X157035819Y-107224682D01*
X157035821Y-107224679D01*
X157147754Y-107070618D01*
X157203976Y-107027264D01*
X157274712Y-107021189D01*
X157337504Y-107054320D01*
X157351626Y-107070618D01*
X157364618Y-107088500D01*
X157463794Y-107225004D01*
X157463796Y-107225006D01*
X157463798Y-107225009D01*
X157614990Y-107376201D01*
X157614993Y-107376203D01*
X157614996Y-107376206D01*
X157787991Y-107501894D01*
X157978517Y-107598972D01*
X158181878Y-107665047D01*
X158181879Y-107665047D01*
X158181884Y-107665049D01*
X158393084Y-107698500D01*
X158393087Y-107698500D01*
X158606913Y-107698500D01*
X158606916Y-107698500D01*
X158818116Y-107665049D01*
X159021483Y-107598972D01*
X159212009Y-107501894D01*
X159385004Y-107376206D01*
X159536206Y-107225004D01*
X159661894Y-107052009D01*
X159758972Y-106861483D01*
X159825049Y-106658116D01*
X159858500Y-106446916D01*
X159858500Y-106233084D01*
X159825049Y-106021884D01*
X159758972Y-105818517D01*
X159661894Y-105627991D01*
X159536206Y-105454996D01*
X159536203Y-105454993D01*
X159536201Y-105454990D01*
X159385009Y-105303798D01*
X159385006Y-105303796D01*
X159385004Y-105303794D01*
X159212009Y-105178106D01*
X159021483Y-105081028D01*
X159021480Y-105081027D01*
X159021478Y-105081026D01*
X158928940Y-105050959D01*
X158870334Y-105010885D01*
X158842697Y-104945489D01*
X158854804Y-104875532D01*
X158882145Y-104840348D01*
X158881504Y-104839707D01*
X159036201Y-104685009D01*
X159036206Y-104685004D01*
X159161894Y-104512009D01*
X159258972Y-104321483D01*
X159325049Y-104118116D01*
X159358500Y-103906916D01*
X159358500Y-103693084D01*
X159325049Y-103481884D01*
X159258972Y-103278517D01*
X159161894Y-103087991D01*
X159036206Y-102914996D01*
X159036203Y-102914993D01*
X159036201Y-102914990D01*
X158954806Y-102833595D01*
X158920780Y-102771283D01*
X158925845Y-102700468D01*
X158968392Y-102643632D01*
X159034912Y-102618821D01*
X159043901Y-102618500D01*
X159398632Y-102618500D01*
X159398638Y-102618500D01*
X159398645Y-102618499D01*
X159398649Y-102618499D01*
X159459196Y-102611990D01*
X159459199Y-102611989D01*
X159459201Y-102611989D01*
X159463325Y-102610451D01*
X159478045Y-102604960D01*
X159596204Y-102560889D01*
X159612033Y-102549040D01*
X159713261Y-102473261D01*
X159800887Y-102356207D01*
X159800887Y-102356206D01*
X159800889Y-102356204D01*
X159851989Y-102219201D01*
X159854652Y-102194438D01*
X159858499Y-102158649D01*
X159858500Y-102158632D01*
X159858500Y-100361367D01*
X159858499Y-100361350D01*
X159851990Y-100300803D01*
X159851988Y-100300795D01*
X159817563Y-100208500D01*
X159800889Y-100163796D01*
X159800888Y-100163794D01*
X159800887Y-100163792D01*
X159713261Y-100046738D01*
X159596207Y-99959112D01*
X159596202Y-99959110D01*
X159459204Y-99908011D01*
X159459196Y-99908009D01*
X159398649Y-99901500D01*
X159398638Y-99901500D01*
X157601362Y-99901500D01*
X157601350Y-99901500D01*
X157540803Y-99908009D01*
X157540795Y-99908011D01*
X157403797Y-99959110D01*
X157403792Y-99959112D01*
X157286738Y-100046738D01*
X157199112Y-100163792D01*
X157199111Y-100163795D01*
X157165997Y-100252575D01*
X157123450Y-100309410D01*
X157056929Y-100334220D01*
X156987555Y-100319128D01*
X156958847Y-100297636D01*
X156885009Y-100223798D01*
X156885006Y-100223796D01*
X156885004Y-100223794D01*
X156712009Y-100098106D01*
X156521483Y-100001028D01*
X156521480Y-100001027D01*
X156521478Y-100001026D01*
X156318120Y-99934952D01*
X156318123Y-99934952D01*
X156278801Y-99928724D01*
X156106916Y-99901500D01*
X155893084Y-99901500D01*
X155711963Y-99930187D01*
X155681878Y-99934952D01*
X155478521Y-100001026D01*
X155478515Y-100001029D01*
X155287987Y-100098108D01*
X155114993Y-100223796D01*
X155114990Y-100223798D01*
X154963798Y-100374990D01*
X154963796Y-100374993D01*
X154836965Y-100549561D01*
X154780743Y-100592915D01*
X154735029Y-100601500D01*
X152865139Y-100601500D01*
X152773300Y-100619768D01*
X152773300Y-100619769D01*
X152764455Y-100621528D01*
X152737920Y-100626806D01*
X152737919Y-100626807D01*
X152618082Y-100676445D01*
X152510229Y-100748510D01*
X152510223Y-100748515D01*
X149369143Y-103889595D01*
X149306831Y-103923621D01*
X149280048Y-103926500D01*
X148641955Y-103926500D01*
X148538074Y-103937112D01*
X148369761Y-103992885D01*
X148218847Y-104085970D01*
X148218841Y-104085975D01*
X148093475Y-104211341D01*
X148093470Y-104211347D01*
X148000383Y-104362265D01*
X147982865Y-104415133D01*
X147942451Y-104473504D01*
X147876895Y-104500760D01*
X147863261Y-104501500D01*
X147423057Y-104501500D01*
X147313836Y-104523226D01*
X147243122Y-104516898D01*
X147187054Y-104473344D01*
X147171199Y-104443680D01*
X147120889Y-104308796D01*
X147120887Y-104308792D01*
X147033261Y-104191738D01*
X146916207Y-104104112D01*
X146916202Y-104104110D01*
X146779204Y-104053011D01*
X146779196Y-104053009D01*
X146718649Y-104046500D01*
X146718638Y-104046500D01*
X146654500Y-104046500D01*
X146586379Y-104026498D01*
X146539886Y-103972842D01*
X146528500Y-103920500D01*
X146528500Y-99784949D01*
X146548502Y-99716828D01*
X146565400Y-99695859D01*
X148803875Y-97457384D01*
X183792000Y-97457384D01*
X183792000Y-97681285D01*
X183821222Y-97903257D01*
X183879173Y-98119531D01*
X183964852Y-98326381D01*
X183964857Y-98326390D01*
X184076800Y-98520281D01*
X184125879Y-98584242D01*
X184125881Y-98584243D01*
X184782495Y-97927628D01*
X184791049Y-97948277D01*
X184878599Y-98079305D01*
X184990030Y-98190736D01*
X185121058Y-98278286D01*
X185141705Y-98286838D01*
X184485090Y-98943453D01*
X184485090Y-98943454D01*
X184549052Y-98992534D01*
X184742944Y-99104477D01*
X184742953Y-99104482D01*
X184949803Y-99190161D01*
X185166077Y-99248112D01*
X185388049Y-99277334D01*
X185388059Y-99277335D01*
X185611941Y-99277335D01*
X185611950Y-99277334D01*
X185833922Y-99248112D01*
X186050196Y-99190161D01*
X186257046Y-99104482D01*
X186257055Y-99104477D01*
X186450953Y-98992530D01*
X186514908Y-98943453D01*
X185858294Y-98286838D01*
X185878942Y-98278286D01*
X186009970Y-98190736D01*
X186121401Y-98079305D01*
X186208951Y-97948277D01*
X186217503Y-97927628D01*
X186874118Y-98584243D01*
X186923195Y-98520288D01*
X187035142Y-98326390D01*
X187035147Y-98326381D01*
X187120826Y-98119531D01*
X187178777Y-97903257D01*
X187207999Y-97681285D01*
X187208000Y-97681276D01*
X187208000Y-97457394D01*
X187207999Y-97457384D01*
X187178777Y-97235412D01*
X187120826Y-97019138D01*
X187035147Y-96812288D01*
X187035142Y-96812279D01*
X186923199Y-96618387D01*
X186874118Y-96554425D01*
X186217503Y-97211040D01*
X186208951Y-97190393D01*
X186121401Y-97059365D01*
X186009970Y-96947934D01*
X185878942Y-96860384D01*
X185858293Y-96851831D01*
X186514908Y-96195216D01*
X186514907Y-96195214D01*
X186450946Y-96146135D01*
X186257055Y-96034192D01*
X186257046Y-96034187D01*
X186050196Y-95948508D01*
X185833922Y-95890557D01*
X185611950Y-95861335D01*
X185388049Y-95861335D01*
X185166077Y-95890557D01*
X184949803Y-95948508D01*
X184742953Y-96034187D01*
X184742944Y-96034192D01*
X184549053Y-96146135D01*
X184485090Y-96195215D01*
X185141706Y-96851831D01*
X185121058Y-96860384D01*
X184990030Y-96947934D01*
X184878599Y-97059365D01*
X184791049Y-97190393D01*
X184782496Y-97211041D01*
X184125880Y-96554425D01*
X184076800Y-96618388D01*
X183964857Y-96812279D01*
X183964852Y-96812288D01*
X183879173Y-97019138D01*
X183821222Y-97235412D01*
X183792000Y-97457384D01*
X148803875Y-97457384D01*
X151901162Y-94360096D01*
X151963472Y-94326073D01*
X152009966Y-94324744D01*
X152011876Y-94325046D01*
X152011884Y-94325049D01*
X152223084Y-94358500D01*
X152223087Y-94358500D01*
X152436913Y-94358500D01*
X152436916Y-94358500D01*
X152648116Y-94325049D01*
X152851483Y-94258972D01*
X153042009Y-94161894D01*
X153215004Y-94036206D01*
X153366206Y-93885004D01*
X153491894Y-93712009D01*
X153491899Y-93711997D01*
X153492561Y-93710920D01*
X153492924Y-93710591D01*
X153494804Y-93708004D01*
X153495347Y-93708398D01*
X153545204Y-93663283D01*
X153615244Y-93651670D01*
X153680445Y-93679766D01*
X153705021Y-93708130D01*
X153705196Y-93708004D01*
X153706668Y-93710030D01*
X153707439Y-93710920D01*
X153708105Y-93712007D01*
X153708106Y-93712009D01*
X153833794Y-93885004D01*
X153833796Y-93885006D01*
X153833798Y-93885009D01*
X153984990Y-94036201D01*
X153984993Y-94036203D01*
X153984996Y-94036206D01*
X154157991Y-94161894D01*
X154348517Y-94258972D01*
X154551878Y-94325047D01*
X154551879Y-94325047D01*
X154551884Y-94325049D01*
X154763084Y-94358500D01*
X154763087Y-94358500D01*
X154976913Y-94358500D01*
X154976916Y-94358500D01*
X155188116Y-94325049D01*
X155391483Y-94258972D01*
X155582009Y-94161894D01*
X155755004Y-94036206D01*
X155906206Y-93885004D01*
X156031894Y-93712009D01*
X156031899Y-93711997D01*
X156032561Y-93710920D01*
X156032924Y-93710591D01*
X156034804Y-93708004D01*
X156035347Y-93708398D01*
X156085204Y-93663283D01*
X156155244Y-93651670D01*
X156220445Y-93679766D01*
X156245021Y-93708130D01*
X156245196Y-93708004D01*
X156246668Y-93710030D01*
X156247439Y-93710920D01*
X156248105Y-93712007D01*
X156248106Y-93712009D01*
X156373794Y-93885004D01*
X156373796Y-93885006D01*
X156373798Y-93885009D01*
X156524990Y-94036201D01*
X156524993Y-94036203D01*
X156524996Y-94036206D01*
X156697991Y-94161894D01*
X156888517Y-94258972D01*
X157091878Y-94325047D01*
X157091879Y-94325047D01*
X157091884Y-94325049D01*
X157303084Y-94358500D01*
X157303087Y-94358500D01*
X157516913Y-94358500D01*
X157516916Y-94358500D01*
X157728116Y-94325049D01*
X157931483Y-94258972D01*
X158122009Y-94161894D01*
X158295004Y-94036206D01*
X158446206Y-93885004D01*
X158571894Y-93712009D01*
X158668972Y-93521483D01*
X158735049Y-93318116D01*
X158768500Y-93106916D01*
X158768500Y-92893084D01*
X158735049Y-92681884D01*
X158668972Y-92478517D01*
X158571894Y-92287991D01*
X158446206Y-92114996D01*
X158446203Y-92114993D01*
X158446201Y-92114990D01*
X158314806Y-91983595D01*
X158280780Y-91921283D01*
X158285845Y-91850468D01*
X158328392Y-91793632D01*
X158394912Y-91768821D01*
X158403901Y-91768500D01*
X183300741Y-91768500D01*
X183368862Y-91788502D01*
X183389836Y-91805405D01*
X183767372Y-92182941D01*
X183801398Y-92245253D01*
X183803199Y-92288480D01*
X183791500Y-92377346D01*
X183791500Y-92601318D01*
X183820731Y-92823355D01*
X183839108Y-92891940D01*
X183878698Y-93039693D01*
X183964405Y-93246607D01*
X183964406Y-93246608D01*
X183964411Y-93246618D01*
X184068359Y-93426660D01*
X184076386Y-93440563D01*
X184181278Y-93577261D01*
X184212725Y-93618244D01*
X184212734Y-93618254D01*
X184371080Y-93776600D01*
X184371090Y-93776609D01*
X184371091Y-93776610D01*
X184548772Y-93912949D01*
X184742728Y-94024930D01*
X184949642Y-94110637D01*
X185165973Y-94168602D01*
X185165977Y-94168602D01*
X185165979Y-94168603D01*
X185223204Y-94176136D01*
X185388019Y-94197835D01*
X185388026Y-94197835D01*
X185611974Y-94197835D01*
X185611981Y-94197835D01*
X185812656Y-94171415D01*
X185834020Y-94168603D01*
X185834020Y-94168602D01*
X185834027Y-94168602D01*
X186050358Y-94110637D01*
X186257272Y-94024930D01*
X186451228Y-93912949D01*
X186628909Y-93776610D01*
X186787275Y-93618244D01*
X186923614Y-93440563D01*
X187035595Y-93246607D01*
X187121302Y-93039693D01*
X187179267Y-92823362D01*
X187208500Y-92601316D01*
X187208500Y-92377354D01*
X187179267Y-92155308D01*
X187121302Y-91938977D01*
X187035595Y-91732063D01*
X186923614Y-91538107D01*
X186787275Y-91360426D01*
X186787274Y-91360425D01*
X186787265Y-91360415D01*
X186628919Y-91202069D01*
X186628909Y-91202060D01*
X186451228Y-91065721D01*
X186451223Y-91065718D01*
X186257283Y-90953746D01*
X186257278Y-90953743D01*
X186257272Y-90953740D01*
X186050358Y-90868033D01*
X185834027Y-90810068D01*
X185834020Y-90810066D01*
X185611983Y-90780835D01*
X185611981Y-90780835D01*
X185388019Y-90780835D01*
X185388011Y-90780835D01*
X185299145Y-90792534D01*
X185228997Y-90781594D01*
X185193606Y-90756707D01*
X184413548Y-89976649D01*
X184413546Y-89976647D01*
X184248369Y-89866279D01*
X184064834Y-89790256D01*
X183869996Y-89751500D01*
X183869994Y-89751500D01*
X144310671Y-89751500D01*
X144310668Y-89751500D01*
X144115830Y-89790256D01*
X144115825Y-89790258D01*
X143932296Y-89866279D01*
X143767123Y-89976644D01*
X143767116Y-89976649D01*
X142138482Y-91605283D01*
X142076170Y-91639309D01*
X142067941Y-91640523D01*
X142067974Y-91640726D01*
X142063087Y-91641500D01*
X142063084Y-91641500D01*
X141851884Y-91674951D01*
X141851878Y-91674952D01*
X141648521Y-91741026D01*
X141648515Y-91741029D01*
X141457987Y-91838108D01*
X141280991Y-91966704D01*
X141279732Y-91964971D01*
X141263794Y-91972113D01*
X141241571Y-91986396D01*
X141227365Y-91988438D01*
X141223118Y-91990342D01*
X141206073Y-91991500D01*
X141051084Y-91991500D01*
X140982963Y-91971498D01*
X140936470Y-91917842D01*
X140933029Y-91909533D01*
X140930889Y-91903797D01*
X140930887Y-91903792D01*
X140843261Y-91786738D01*
X140726207Y-91699112D01*
X140726202Y-91699110D01*
X140589204Y-91648011D01*
X140589196Y-91648009D01*
X140528649Y-91641500D01*
X140528638Y-91641500D01*
X138731362Y-91641500D01*
X138731350Y-91641500D01*
X138670803Y-91648009D01*
X138670795Y-91648011D01*
X138533797Y-91699110D01*
X138533792Y-91699112D01*
X138416738Y-91786738D01*
X138329112Y-91903792D01*
X138329110Y-91903797D01*
X138278011Y-92040795D01*
X138278009Y-92040803D01*
X138271500Y-92101350D01*
X138271500Y-93898649D01*
X138278009Y-93959196D01*
X138278010Y-93959197D01*
X138278010Y-93959199D01*
X138278011Y-93959201D01*
X138312386Y-94051362D01*
X138313975Y-94055622D01*
X138319040Y-94126438D01*
X138285015Y-94188750D01*
X138285014Y-94188750D01*
X135156671Y-97317095D01*
X135094359Y-97351120D01*
X135067576Y-97354000D01*
X134467705Y-97354000D01*
X134401556Y-97335240D01*
X134397740Y-97332886D01*
X134397739Y-97332885D01*
X134397738Y-97332885D01*
X134229426Y-97277113D01*
X134229420Y-97277112D01*
X134125553Y-97266500D01*
X134125545Y-97266500D01*
X133851462Y-97266500D01*
X133803244Y-97256909D01*
X133798903Y-97255111D01*
X133726557Y-97225144D01*
X133531719Y-97186388D01*
X133531717Y-97186388D01*
X132542185Y-97186388D01*
X132540130Y-97185784D01*
X132538059Y-97186320D01*
X132506239Y-97175833D01*
X132474064Y-97166386D01*
X132472021Y-97164556D01*
X132470630Y-97164098D01*
X132458779Y-97152696D01*
X132444310Y-97139738D01*
X132442771Y-97137840D01*
X132363261Y-97031627D01*
X132346473Y-97019060D01*
X132336625Y-97006912D01*
X132328726Y-96988000D01*
X132316443Y-96971592D01*
X132312314Y-96948709D01*
X132309262Y-96941400D01*
X132310121Y-96936552D01*
X132308500Y-96927562D01*
X132308500Y-96393622D01*
X132314895Y-96353990D01*
X132315923Y-96350889D01*
X132347887Y-96254426D01*
X132353936Y-96195215D01*
X132358500Y-96150553D01*
X132358500Y-96150516D01*
X133142000Y-96150516D01*
X133152605Y-96254318D01*
X133152606Y-96254321D01*
X133208342Y-96422525D01*
X133301365Y-96573339D01*
X133301370Y-96573345D01*
X133426654Y-96698629D01*
X133426660Y-96698634D01*
X133577474Y-96791657D01*
X133745678Y-96847393D01*
X133745681Y-96847394D01*
X133849483Y-96857999D01*
X133849483Y-96858000D01*
X134058500Y-96858000D01*
X134566500Y-96858000D01*
X134775517Y-96858000D01*
X134775516Y-96857999D01*
X134879318Y-96847394D01*
X134879321Y-96847393D01*
X135047525Y-96791657D01*
X135198339Y-96698634D01*
X135198345Y-96698629D01*
X135323629Y-96573345D01*
X135323634Y-96573339D01*
X135416657Y-96422525D01*
X135472393Y-96254321D01*
X135472394Y-96254318D01*
X135482999Y-96150516D01*
X135483000Y-96150516D01*
X135483000Y-95254000D01*
X134566500Y-95254000D01*
X134566500Y-96858000D01*
X134058500Y-96858000D01*
X134058500Y-95254000D01*
X133142000Y-95254000D01*
X133142000Y-96150516D01*
X132358500Y-96150516D01*
X132358500Y-95201809D01*
X132358499Y-93849483D01*
X133142000Y-93849483D01*
X133142000Y-94746000D01*
X134058500Y-94746000D01*
X134566500Y-94746000D01*
X135483000Y-94746000D01*
X135483000Y-93849483D01*
X135472394Y-93745681D01*
X135472393Y-93745678D01*
X135416657Y-93577474D01*
X135323634Y-93426660D01*
X135323629Y-93426654D01*
X135198345Y-93301370D01*
X135198339Y-93301365D01*
X135047525Y-93208342D01*
X134879321Y-93152606D01*
X134879318Y-93152605D01*
X134775516Y-93142000D01*
X134566500Y-93142000D01*
X134566500Y-94746000D01*
X134058500Y-94746000D01*
X134058500Y-93142000D01*
X133849483Y-93142000D01*
X133745681Y-93152605D01*
X133745678Y-93152606D01*
X133577474Y-93208342D01*
X133426660Y-93301365D01*
X133426654Y-93301370D01*
X133301370Y-93426654D01*
X133301365Y-93426660D01*
X133208342Y-93577474D01*
X133152606Y-93745678D01*
X133152605Y-93745681D01*
X133142000Y-93849483D01*
X132358499Y-93849483D01*
X132358499Y-93849455D01*
X132347887Y-93745574D01*
X132335568Y-93708398D01*
X132292115Y-93577262D01*
X132199030Y-93426348D01*
X132199029Y-93426347D01*
X132199024Y-93426341D01*
X132073658Y-93300975D01*
X132073652Y-93300970D01*
X132070264Y-93298880D01*
X131922738Y-93207885D01*
X131838582Y-93179999D01*
X131754427Y-93152113D01*
X131754420Y-93152112D01*
X131650553Y-93141500D01*
X130724455Y-93141500D01*
X130620574Y-93152112D01*
X130452261Y-93207885D01*
X130300647Y-93301402D01*
X130232167Y-93320139D01*
X130164428Y-93298880D01*
X130118937Y-93244372D01*
X130108500Y-93194161D01*
X130108500Y-93101367D01*
X130108499Y-93101350D01*
X130101990Y-93040803D01*
X130101988Y-93040795D01*
X130050889Y-92903797D01*
X130050887Y-92903792D01*
X129963261Y-92786738D01*
X129846207Y-92699112D01*
X129846202Y-92699110D01*
X129709204Y-92648011D01*
X129709196Y-92648009D01*
X129648649Y-92641500D01*
X129648638Y-92641500D01*
X128351362Y-92641500D01*
X128351350Y-92641500D01*
X128290803Y-92648009D01*
X128290795Y-92648011D01*
X128153797Y-92699110D01*
X128153792Y-92699112D01*
X128036738Y-92786738D01*
X127949112Y-92903792D01*
X127949110Y-92903797D01*
X127898011Y-93040795D01*
X127898009Y-93040803D01*
X127891500Y-93101350D01*
X127891500Y-96898649D01*
X127898009Y-96959196D01*
X127898011Y-96959204D01*
X127949110Y-97096202D01*
X127953432Y-97104118D01*
X127950508Y-97105714D01*
X127969644Y-97156992D01*
X127954563Y-97226368D01*
X127904369Y-97276578D01*
X127843966Y-97292000D01*
X127499483Y-97292000D01*
X127395681Y-97302605D01*
X127395671Y-97302607D01*
X127378736Y-97308219D01*
X127307781Y-97310658D01*
X127246771Y-97274349D01*
X127215077Y-97210820D01*
X127222761Y-97140240D01*
X127238236Y-97113105D01*
X127250889Y-97096204D01*
X127301989Y-96959201D01*
X127302447Y-96954949D01*
X127308499Y-96898649D01*
X127308500Y-96898632D01*
X127308500Y-93101367D01*
X127308499Y-93101350D01*
X127301990Y-93040803D01*
X127301988Y-93040795D01*
X127250889Y-92903797D01*
X127250887Y-92903792D01*
X127163261Y-92786738D01*
X127046207Y-92699112D01*
X127046202Y-92699110D01*
X126909204Y-92648011D01*
X126909196Y-92648009D01*
X126848649Y-92641500D01*
X126848638Y-92641500D01*
X125551362Y-92641500D01*
X125551350Y-92641500D01*
X125490803Y-92648009D01*
X125490795Y-92648011D01*
X125353797Y-92699110D01*
X125353792Y-92699112D01*
X125236738Y-92786738D01*
X125149112Y-92903792D01*
X125149110Y-92903797D01*
X125098011Y-93040795D01*
X125098009Y-93040803D01*
X125091500Y-93101350D01*
X125091500Y-93765500D01*
X125088908Y-93774325D01*
X125090218Y-93783432D01*
X125079062Y-93807857D01*
X125071498Y-93833621D01*
X125064544Y-93839645D01*
X125060724Y-93848012D01*
X125038138Y-93862526D01*
X125017842Y-93880114D01*
X125007155Y-93882438D01*
X125000998Y-93886396D01*
X124965500Y-93891500D01*
X124792185Y-93891500D01*
X124724064Y-93871498D01*
X124691317Y-93841009D01*
X124613261Y-93736738D01*
X124496207Y-93649112D01*
X124496202Y-93649110D01*
X124359204Y-93598011D01*
X124359196Y-93598009D01*
X124298649Y-93591500D01*
X124298638Y-93591500D01*
X120701362Y-93591500D01*
X120701350Y-93591500D01*
X120640803Y-93598009D01*
X120640795Y-93598011D01*
X120503797Y-93649110D01*
X120503792Y-93649112D01*
X120386738Y-93736738D01*
X120299112Y-93853792D01*
X120299110Y-93853797D01*
X120248011Y-93990795D01*
X120248009Y-93990803D01*
X120241500Y-94051350D01*
X120241500Y-95948649D01*
X120248009Y-96009196D01*
X120248011Y-96009204D01*
X120299110Y-96146202D01*
X120299112Y-96146207D01*
X120386738Y-96263261D01*
X120503792Y-96350887D01*
X120503794Y-96350888D01*
X120503796Y-96350889D01*
X120562875Y-96372924D01*
X120640795Y-96401988D01*
X120640803Y-96401990D01*
X120701350Y-96408499D01*
X120701355Y-96408499D01*
X120701362Y-96408500D01*
X122580500Y-96408500D01*
X122648621Y-96428502D01*
X122695114Y-96482158D01*
X122706500Y-96534500D01*
X122706500Y-97186990D01*
X122686498Y-97255111D01*
X122632842Y-97301604D01*
X122562568Y-97311708D01*
X122516363Y-97295445D01*
X122508603Y-97290856D01*
X122508602Y-97290855D01*
X122508601Y-97290855D01*
X122424770Y-97266500D01*
X122348829Y-97244437D01*
X122311511Y-97241500D01*
X122311502Y-97241500D01*
X121878498Y-97241500D01*
X121878489Y-97241500D01*
X121841171Y-97244437D01*
X121841170Y-97244437D01*
X121681394Y-97290856D01*
X121538196Y-97375544D01*
X121538189Y-97375549D01*
X121420549Y-97493189D01*
X121420544Y-97493196D01*
X121335856Y-97636394D01*
X121289437Y-97796170D01*
X121289437Y-97796171D01*
X121286500Y-97833488D01*
X121286500Y-99616511D01*
X121289437Y-99653828D01*
X121289437Y-99653829D01*
X121335856Y-99813603D01*
X121337884Y-99817032D01*
X121413965Y-99945678D01*
X121418953Y-99954111D01*
X121436500Y-100018251D01*
X121436500Y-102381748D01*
X121418953Y-102445887D01*
X121335856Y-102586394D01*
X121289437Y-102746170D01*
X121289437Y-102746171D01*
X121286500Y-102783488D01*
X121286500Y-104134840D01*
X121266498Y-104202961D01*
X121212842Y-104249454D01*
X121142568Y-104259558D01*
X121077988Y-104230064D01*
X121040895Y-104174473D01*
X121017580Y-104104112D01*
X120992115Y-104027262D01*
X120899030Y-103876348D01*
X120899029Y-103876347D01*
X120899024Y-103876341D01*
X120773658Y-103750975D01*
X120773652Y-103750970D01*
X120622738Y-103657885D01*
X120538582Y-103629999D01*
X120454427Y-103602113D01*
X120454420Y-103602112D01*
X120350553Y-103591500D01*
X118049455Y-103591500D01*
X117945574Y-103602112D01*
X117777261Y-103657885D01*
X117626347Y-103750970D01*
X117626341Y-103750975D01*
X117500975Y-103876341D01*
X117500970Y-103876347D01*
X117407885Y-104027262D01*
X117352113Y-104195572D01*
X117352112Y-104195579D01*
X117341500Y-104299446D01*
X117341500Y-105225544D01*
X117352112Y-105329425D01*
X117407885Y-105497738D01*
X117500970Y-105648652D01*
X117500975Y-105648658D01*
X117626341Y-105774024D01*
X117626347Y-105774029D01*
X117626348Y-105774030D01*
X117777262Y-105867115D01*
X117818268Y-105880702D01*
X117876639Y-105921116D01*
X117903895Y-105986672D01*
X117898141Y-106032735D01*
X117899823Y-106033133D01*
X117898009Y-106040804D01*
X117891500Y-106101350D01*
X117891500Y-108898649D01*
X117898009Y-108959196D01*
X117898011Y-108959204D01*
X117949110Y-109096202D01*
X117949112Y-109096207D01*
X118036738Y-109213261D01*
X118153792Y-109300887D01*
X118153794Y-109300888D01*
X118153796Y-109300889D01*
X118189377Y-109314160D01*
X118290795Y-109351988D01*
X118290803Y-109351990D01*
X118351350Y-109358499D01*
X118351355Y-109358499D01*
X118351362Y-109358500D01*
X118351368Y-109358500D01*
X118551076Y-109358500D01*
X118619197Y-109378502D01*
X118665690Y-109432158D01*
X118675794Y-109502432D01*
X118646300Y-109567012D01*
X118590709Y-109604105D01*
X118502474Y-109633342D01*
X118351660Y-109726365D01*
X118351654Y-109726370D01*
X118226370Y-109851654D01*
X118226365Y-109851660D01*
X118133342Y-110002474D01*
X118077606Y-110170678D01*
X118077605Y-110170681D01*
X118067000Y-110274483D01*
X118067000Y-110408500D01*
X119174000Y-110408500D01*
X119242121Y-110428502D01*
X119288614Y-110482158D01*
X119300000Y-110534500D01*
X119300000Y-110790500D01*
X119279998Y-110858621D01*
X119226342Y-110905114D01*
X119174000Y-110916500D01*
X118067000Y-110916500D01*
X118067000Y-111050516D01*
X118077605Y-111154318D01*
X118077606Y-111154321D01*
X118133342Y-111322525D01*
X118226365Y-111473339D01*
X118226370Y-111473345D01*
X118351657Y-111598632D01*
X118354446Y-111600837D01*
X118355863Y-111602838D01*
X118356850Y-111603825D01*
X118356681Y-111603993D01*
X118395479Y-111658775D01*
X118398674Y-111729700D01*
X118363017Y-111791093D01*
X118354457Y-111798511D01*
X118351345Y-111800971D01*
X118225975Y-111926341D01*
X118225970Y-111926347D01*
X118183060Y-111995916D01*
X118132885Y-112077262D01*
X118132884Y-112077263D01*
X118129033Y-112083508D01*
X118127488Y-112082555D01*
X118086789Y-112128771D01*
X118018510Y-112148226D01*
X117953374Y-112129471D01*
X117797525Y-112033342D01*
X117629321Y-111977606D01*
X117629318Y-111977605D01*
X117525516Y-111967000D01*
X117254000Y-111967000D01*
X117254000Y-112936500D01*
X117233998Y-113004621D01*
X117180342Y-113051114D01*
X117128000Y-113062500D01*
X117000000Y-113062500D01*
X117000000Y-113190500D01*
X116979998Y-113258621D01*
X116926342Y-113305114D01*
X116874000Y-113316500D01*
X115767000Y-113316500D01*
X115767000Y-113450516D01*
X115777605Y-113554318D01*
X115777606Y-113554321D01*
X115833342Y-113722525D01*
X115926365Y-113873339D01*
X115926370Y-113873345D01*
X116051657Y-113998632D01*
X116054446Y-114000837D01*
X116055863Y-114002838D01*
X116056850Y-114003825D01*
X116056681Y-114003993D01*
X116095479Y-114058775D01*
X116098674Y-114129700D01*
X116063017Y-114191093D01*
X116054457Y-114198511D01*
X116051345Y-114200971D01*
X115925975Y-114326341D01*
X115925970Y-114326347D01*
X115868731Y-114419147D01*
X115815945Y-114466625D01*
X115761490Y-114479000D01*
X114042450Y-114479000D01*
X113974329Y-114458998D01*
X113953355Y-114442095D01*
X113119530Y-113608270D01*
X113085504Y-113545958D01*
X113090569Y-113475143D01*
X113092180Y-113471046D01*
X113155990Y-113316997D01*
X113224134Y-113062680D01*
X113258500Y-112801644D01*
X113258500Y-112674483D01*
X115767000Y-112674483D01*
X115767000Y-112808500D01*
X116746000Y-112808500D01*
X116746000Y-111967000D01*
X116474483Y-111967000D01*
X116370681Y-111977605D01*
X116370678Y-111977606D01*
X116202474Y-112033342D01*
X116051660Y-112126365D01*
X116051654Y-112126370D01*
X115926370Y-112251654D01*
X115926365Y-112251660D01*
X115833342Y-112402474D01*
X115777606Y-112570678D01*
X115777605Y-112570681D01*
X115767000Y-112674483D01*
X113258500Y-112674483D01*
X113258500Y-112538356D01*
X113224134Y-112277320D01*
X113155990Y-112023003D01*
X113055234Y-111779757D01*
X113055228Y-111779748D01*
X113055227Y-111779744D01*
X112923592Y-111551746D01*
X112900813Y-111522060D01*
X112763311Y-111342862D01*
X112763310Y-111342861D01*
X112763301Y-111342851D01*
X112577148Y-111156698D01*
X112577138Y-111156689D01*
X112455292Y-111063194D01*
X112368257Y-110996410D01*
X112368256Y-110996409D01*
X112368253Y-110996407D01*
X112140255Y-110864772D01*
X112140247Y-110864768D01*
X112140243Y-110864766D01*
X111896997Y-110764010D01*
X111642680Y-110695866D01*
X111642678Y-110695865D01*
X111642672Y-110695864D01*
X111381646Y-110661500D01*
X111381644Y-110661500D01*
X111118356Y-110661500D01*
X111118353Y-110661500D01*
X110857327Y-110695864D01*
X110857320Y-110695866D01*
X110603003Y-110764010D01*
X110374593Y-110858621D01*
X110359755Y-110864767D01*
X110359744Y-110864772D01*
X110131746Y-110996407D01*
X109922861Y-111156689D01*
X109922851Y-111156698D01*
X109736698Y-111342851D01*
X109736689Y-111342861D01*
X109576407Y-111551746D01*
X109444772Y-111779744D01*
X109444767Y-111779755D01*
X109444766Y-111779757D01*
X109438165Y-111795693D01*
X109344010Y-112023003D01*
X109275864Y-112277327D01*
X109241500Y-112538353D01*
X105400500Y-112538353D01*
X105400500Y-106441350D01*
X109266500Y-106441350D01*
X109266500Y-108558649D01*
X109273009Y-108619196D01*
X109273011Y-108619204D01*
X109324110Y-108756202D01*
X109324112Y-108756207D01*
X109411738Y-108873261D01*
X109528792Y-108960887D01*
X109528794Y-108960888D01*
X109528796Y-108960889D01*
X109557245Y-108971500D01*
X109665795Y-109011988D01*
X109665803Y-109011990D01*
X109726350Y-109018499D01*
X109726355Y-109018499D01*
X109726362Y-109018500D01*
X109726368Y-109018500D01*
X112773632Y-109018500D01*
X112773638Y-109018500D01*
X112773645Y-109018499D01*
X112773649Y-109018499D01*
X112834196Y-109011990D01*
X112834199Y-109011989D01*
X112834201Y-109011989D01*
X112965021Y-108963194D01*
X113035836Y-108958129D01*
X113098149Y-108992154D01*
X113127109Y-109037216D01*
X113149111Y-109096204D01*
X113149112Y-109096207D01*
X113236738Y-109213261D01*
X113353792Y-109300887D01*
X113353794Y-109300888D01*
X113353796Y-109300889D01*
X113389377Y-109314160D01*
X113490795Y-109351988D01*
X113490803Y-109351990D01*
X113551350Y-109358499D01*
X113551355Y-109358499D01*
X113551362Y-109358500D01*
X113551368Y-109358500D01*
X115148632Y-109358500D01*
X115148638Y-109358500D01*
X115148645Y-109358499D01*
X115148649Y-109358499D01*
X115209196Y-109351990D01*
X115209199Y-109351989D01*
X115209201Y-109351989D01*
X115212829Y-109350636D01*
X115254133Y-109335230D01*
X115346204Y-109300889D01*
X115379328Y-109276093D01*
X115463261Y-109213261D01*
X115550887Y-109096207D01*
X115550887Y-109096206D01*
X115550889Y-109096204D01*
X115597402Y-108971500D01*
X115601988Y-108959204D01*
X115601990Y-108959196D01*
X115608499Y-108898649D01*
X115608500Y-108898632D01*
X115608500Y-106101367D01*
X115608499Y-106101350D01*
X115601990Y-106040803D01*
X115601988Y-106040795D01*
X115572890Y-105962783D01*
X115550889Y-105903796D01*
X115550888Y-105903794D01*
X115550887Y-105903792D01*
X115463261Y-105786738D01*
X115346207Y-105699112D01*
X115346202Y-105699110D01*
X115209204Y-105648011D01*
X115209196Y-105648009D01*
X115148649Y-105641500D01*
X115148638Y-105641500D01*
X113551362Y-105641500D01*
X113551350Y-105641500D01*
X113490803Y-105648009D01*
X113490795Y-105648011D01*
X113353797Y-105699110D01*
X113353792Y-105699112D01*
X113236738Y-105786738D01*
X113149112Y-105903792D01*
X113149111Y-105903795D01*
X113127109Y-105962783D01*
X113084561Y-106019618D01*
X113018041Y-106044428D01*
X112965021Y-106036805D01*
X112834201Y-105988011D01*
X112834199Y-105988010D01*
X112834197Y-105988010D01*
X112834196Y-105988009D01*
X112773649Y-105981500D01*
X112773638Y-105981500D01*
X109726362Y-105981500D01*
X109726350Y-105981500D01*
X109665803Y-105988009D01*
X109665795Y-105988011D01*
X109528797Y-106039110D01*
X109528792Y-106039112D01*
X109411738Y-106126738D01*
X109324112Y-106243792D01*
X109324110Y-106243797D01*
X109273011Y-106380795D01*
X109273009Y-106380803D01*
X109266500Y-106441350D01*
X105400500Y-106441350D01*
X105400500Y-95781350D01*
X109241500Y-95781350D01*
X109241500Y-98878649D01*
X109248009Y-98939196D01*
X109248011Y-98939204D01*
X109299110Y-99076202D01*
X109299112Y-99076207D01*
X109386738Y-99193261D01*
X109503792Y-99280887D01*
X109503794Y-99280888D01*
X109503796Y-99280889D01*
X109560699Y-99302113D01*
X109640795Y-99331988D01*
X109640803Y-99331990D01*
X109701350Y-99338499D01*
X109701355Y-99338499D01*
X109701362Y-99338500D01*
X110015500Y-99338500D01*
X110083621Y-99358502D01*
X110130114Y-99412158D01*
X110141500Y-99464500D01*
X110141500Y-100855500D01*
X110121498Y-100923621D01*
X110067842Y-100970114D01*
X110015500Y-100981500D01*
X109726350Y-100981500D01*
X109665803Y-100988009D01*
X109665795Y-100988011D01*
X109528797Y-101039110D01*
X109528792Y-101039112D01*
X109411738Y-101126738D01*
X109324112Y-101243792D01*
X109324110Y-101243797D01*
X109273011Y-101380795D01*
X109273009Y-101380803D01*
X109266500Y-101441350D01*
X109266500Y-103558649D01*
X109273009Y-103619196D01*
X109273011Y-103619204D01*
X109324110Y-103756202D01*
X109324112Y-103756207D01*
X109411738Y-103873261D01*
X109528792Y-103960887D01*
X109528794Y-103960888D01*
X109528796Y-103960889D01*
X109587875Y-103982924D01*
X109665795Y-104011988D01*
X109665803Y-104011990D01*
X109726350Y-104018499D01*
X109726355Y-104018499D01*
X109726362Y-104018500D01*
X109726368Y-104018500D01*
X112773632Y-104018500D01*
X112773638Y-104018500D01*
X112773645Y-104018499D01*
X112773649Y-104018499D01*
X112834196Y-104011990D01*
X112834199Y-104011989D01*
X112834201Y-104011989D01*
X112840620Y-104009595D01*
X112896852Y-103988621D01*
X112971204Y-103960889D01*
X112974822Y-103958181D01*
X113088261Y-103873261D01*
X113175887Y-103756207D01*
X113175887Y-103756206D01*
X113175889Y-103756204D01*
X113226989Y-103619201D01*
X113228827Y-103602112D01*
X113233499Y-103558649D01*
X113233500Y-103558632D01*
X113233500Y-102100516D01*
X117342000Y-102100516D01*
X117352605Y-102204318D01*
X117352606Y-102204321D01*
X117408342Y-102372525D01*
X117501365Y-102523339D01*
X117501370Y-102523345D01*
X117626654Y-102648629D01*
X117626660Y-102648634D01*
X117777474Y-102741657D01*
X117945678Y-102797393D01*
X117945681Y-102797394D01*
X118049483Y-102807999D01*
X118049483Y-102808000D01*
X118946000Y-102808000D01*
X119454000Y-102808000D01*
X120350517Y-102808000D01*
X120350516Y-102807999D01*
X120454318Y-102797394D01*
X120454321Y-102797393D01*
X120622525Y-102741657D01*
X120773339Y-102648634D01*
X120773345Y-102648629D01*
X120898629Y-102523345D01*
X120898634Y-102523339D01*
X120991657Y-102372525D01*
X121047393Y-102204321D01*
X121047394Y-102204318D01*
X121057999Y-102100516D01*
X121058000Y-102100516D01*
X121058000Y-101891500D01*
X119454000Y-101891500D01*
X119454000Y-102808000D01*
X118946000Y-102808000D01*
X118946000Y-101891500D01*
X117342000Y-101891500D01*
X117342000Y-102100516D01*
X113233500Y-102100516D01*
X113233500Y-101441367D01*
X113233499Y-101441350D01*
X113226990Y-101380803D01*
X113226988Y-101380795D01*
X113181285Y-101258263D01*
X113175889Y-101243796D01*
X113175886Y-101243792D01*
X113124002Y-101174483D01*
X117342000Y-101174483D01*
X117342000Y-101383500D01*
X121058000Y-101383500D01*
X121058000Y-101174483D01*
X121047394Y-101070681D01*
X121047393Y-101070678D01*
X120991657Y-100902474D01*
X120895575Y-100746701D01*
X120876838Y-100678221D01*
X120898050Y-100610554D01*
X120916483Y-100582968D01*
X120977430Y-100435831D01*
X121008500Y-100279630D01*
X121008500Y-100120370D01*
X120977430Y-99964169D01*
X120916483Y-99817032D01*
X120914191Y-99813601D01*
X120879734Y-99762031D01*
X120858520Y-99694278D01*
X120858500Y-99692031D01*
X120858500Y-99297644D01*
X120858499Y-99297639D01*
X120855167Y-99280889D01*
X120850261Y-99256221D01*
X120833195Y-99170423D01*
X120833192Y-99170415D01*
X120783557Y-99050587D01*
X120783555Y-99050583D01*
X120744765Y-98992530D01*
X120711491Y-98942731D01*
X119870404Y-98101644D01*
X119836378Y-98039332D01*
X119833499Y-98012549D01*
X119833499Y-97374455D01*
X119822887Y-97270574D01*
X119817054Y-97252972D01*
X119767115Y-97102262D01*
X119674030Y-96951348D01*
X119674029Y-96951347D01*
X119674024Y-96951341D01*
X119548658Y-96825975D01*
X119548652Y-96825970D01*
X119526455Y-96812279D01*
X119397738Y-96732885D01*
X119313582Y-96704999D01*
X119229427Y-96677113D01*
X119229420Y-96677112D01*
X119125553Y-96666500D01*
X118074455Y-96666500D01*
X117970574Y-96677112D01*
X117802261Y-96732885D01*
X117651347Y-96825970D01*
X117651341Y-96825975D01*
X117525975Y-96951341D01*
X117525970Y-96951347D01*
X117432885Y-97102262D01*
X117377113Y-97270572D01*
X117377112Y-97270579D01*
X117366500Y-97374446D01*
X117366500Y-98150544D01*
X117377112Y-98254425D01*
X117432885Y-98422738D01*
X117525970Y-98573652D01*
X117525975Y-98573658D01*
X117651345Y-98699028D01*
X117654450Y-98701483D01*
X117656027Y-98703710D01*
X117656537Y-98704220D01*
X117656449Y-98704307D01*
X117695481Y-98759422D01*
X117698673Y-98830347D01*
X117663014Y-98891739D01*
X117654454Y-98899157D01*
X117651654Y-98901370D01*
X117526370Y-99026654D01*
X117526365Y-99026660D01*
X117433342Y-99177474D01*
X117377606Y-99345678D01*
X117377605Y-99345681D01*
X117367000Y-99449483D01*
X117367000Y-99583500D01*
X118474000Y-99583500D01*
X118542121Y-99603502D01*
X118588614Y-99657158D01*
X118600000Y-99709500D01*
X118600000Y-99965500D01*
X118579998Y-100033621D01*
X118526342Y-100080114D01*
X118474000Y-100091500D01*
X117367000Y-100091500D01*
X117367000Y-100225516D01*
X117377605Y-100329318D01*
X117377606Y-100329321D01*
X117433342Y-100497525D01*
X117504930Y-100613587D01*
X117523667Y-100682067D01*
X117504930Y-100745880D01*
X117408343Y-100902472D01*
X117352606Y-101070678D01*
X117352605Y-101070681D01*
X117342000Y-101174483D01*
X113124002Y-101174483D01*
X113088261Y-101126738D01*
X112971207Y-101039112D01*
X112971202Y-101039110D01*
X112834204Y-100988011D01*
X112834196Y-100988009D01*
X112773649Y-100981500D01*
X112773638Y-100981500D01*
X112484500Y-100981500D01*
X112416379Y-100961498D01*
X112369886Y-100907842D01*
X112358500Y-100855500D01*
X112358500Y-99464500D01*
X112378502Y-99396379D01*
X112432158Y-99349886D01*
X112484500Y-99338500D01*
X112798632Y-99338500D01*
X112798638Y-99338500D01*
X112798645Y-99338499D01*
X112798649Y-99338499D01*
X112859196Y-99331990D01*
X112859199Y-99331989D01*
X112859201Y-99331989D01*
X112996204Y-99280889D01*
X113002745Y-99275993D01*
X113113261Y-99193261D01*
X113200887Y-99076207D01*
X113200887Y-99076206D01*
X113200889Y-99076204D01*
X113251989Y-98939201D01*
X113258500Y-98878638D01*
X113258500Y-95948597D01*
X115242000Y-95948597D01*
X115248505Y-96009093D01*
X115299555Y-96145964D01*
X115299555Y-96145965D01*
X115387095Y-96262904D01*
X115504034Y-96350444D01*
X115640906Y-96401494D01*
X115701402Y-96407999D01*
X115701415Y-96408000D01*
X117246000Y-96408000D01*
X117754000Y-96408000D01*
X119298585Y-96408000D01*
X119298597Y-96407999D01*
X119359093Y-96401494D01*
X119495964Y-96350444D01*
X119495965Y-96350444D01*
X119612904Y-96262904D01*
X119700444Y-96145965D01*
X119700444Y-96145964D01*
X119751494Y-96009093D01*
X119757999Y-95948597D01*
X119758000Y-95948585D01*
X119758000Y-95254000D01*
X117754000Y-95254000D01*
X117754000Y-96408000D01*
X117246000Y-96408000D01*
X117246000Y-95254000D01*
X115242000Y-95254000D01*
X115242000Y-95948597D01*
X113258500Y-95948597D01*
X113258500Y-95781362D01*
X113258499Y-95781350D01*
X113251990Y-95720803D01*
X113251988Y-95720795D01*
X113200889Y-95583797D01*
X113200887Y-95583792D01*
X113113261Y-95466738D01*
X112996207Y-95379112D01*
X112996202Y-95379110D01*
X112859204Y-95328011D01*
X112859196Y-95328009D01*
X112850612Y-95327087D01*
X112798649Y-95321500D01*
X112798638Y-95321500D01*
X109701362Y-95321500D01*
X109701350Y-95321500D01*
X109640803Y-95328009D01*
X109640795Y-95328011D01*
X109503797Y-95379110D01*
X109503792Y-95379112D01*
X109386738Y-95466738D01*
X109299112Y-95583792D01*
X109299110Y-95583797D01*
X109248011Y-95720795D01*
X109248009Y-95720803D01*
X109241500Y-95781350D01*
X105400500Y-95781350D01*
X105400500Y-92118386D01*
X109242000Y-92118386D01*
X109242000Y-92381613D01*
X109276355Y-92642575D01*
X109344484Y-92896835D01*
X109445216Y-93140023D01*
X109445221Y-93140034D01*
X109576823Y-93367975D01*
X109576827Y-93367981D01*
X109661916Y-93478870D01*
X109661917Y-93478871D01*
X110563110Y-92577677D01*
X110576497Y-92609995D01*
X110659670Y-92734472D01*
X110765528Y-92840330D01*
X110890005Y-92923503D01*
X110922320Y-92936888D01*
X110021127Y-93838081D01*
X110021127Y-93838082D01*
X110132017Y-93923171D01*
X110132024Y-93923176D01*
X110359965Y-94054778D01*
X110359976Y-94054783D01*
X110603164Y-94155515D01*
X110857424Y-94223644D01*
X111118386Y-94257999D01*
X111118396Y-94258000D01*
X111381604Y-94258000D01*
X111381613Y-94257999D01*
X111642575Y-94223644D01*
X111896835Y-94155515D01*
X112140023Y-94054783D01*
X112140034Y-94054778D01*
X112145881Y-94051402D01*
X115242000Y-94051402D01*
X115242000Y-94746000D01*
X117246000Y-94746000D01*
X117754000Y-94746000D01*
X119758000Y-94746000D01*
X119758000Y-94051414D01*
X119757999Y-94051402D01*
X119751494Y-93990906D01*
X119700444Y-93854035D01*
X119700444Y-93854034D01*
X119612904Y-93737095D01*
X119495965Y-93649555D01*
X119359093Y-93598505D01*
X119298597Y-93592000D01*
X117754000Y-93592000D01*
X117754000Y-94746000D01*
X117246000Y-94746000D01*
X117246000Y-93592000D01*
X115701402Y-93592000D01*
X115640906Y-93598505D01*
X115504035Y-93649555D01*
X115504034Y-93649555D01*
X115387095Y-93737095D01*
X115299555Y-93854034D01*
X115299555Y-93854035D01*
X115248505Y-93990906D01*
X115242000Y-94051402D01*
X112145881Y-94051402D01*
X112340710Y-93938917D01*
X112340713Y-93938916D01*
X112367981Y-93923172D01*
X112478871Y-93838082D01*
X112478871Y-93838081D01*
X111577679Y-92936888D01*
X111609995Y-92923503D01*
X111734472Y-92840330D01*
X111840330Y-92734472D01*
X111923503Y-92609995D01*
X111936888Y-92577678D01*
X112838081Y-93478871D01*
X112838082Y-93478871D01*
X112923172Y-93367981D01*
X112923176Y-93367975D01*
X113054778Y-93140034D01*
X113054783Y-93140023D01*
X113155515Y-92896835D01*
X113223644Y-92642575D01*
X113257999Y-92381613D01*
X113258000Y-92381604D01*
X113258000Y-92118396D01*
X113257999Y-92118386D01*
X113223644Y-91857424D01*
X113155515Y-91603164D01*
X113054783Y-91359976D01*
X113054778Y-91359965D01*
X112923176Y-91132024D01*
X112923171Y-91132017D01*
X112838081Y-91021127D01*
X111936888Y-91922320D01*
X111923503Y-91890005D01*
X111840330Y-91765528D01*
X111734472Y-91659670D01*
X111609995Y-91576497D01*
X111577678Y-91563111D01*
X112478871Y-90661917D01*
X112478870Y-90661916D01*
X112367981Y-90576827D01*
X112367975Y-90576823D01*
X112140034Y-90445221D01*
X112140023Y-90445216D01*
X111896835Y-90344484D01*
X111642575Y-90276355D01*
X111381613Y-90242000D01*
X111118386Y-90242000D01*
X110857424Y-90276355D01*
X110603164Y-90344484D01*
X110359976Y-90445216D01*
X110359965Y-90445221D01*
X110132024Y-90576823D01*
X110021127Y-90661917D01*
X110922321Y-91563111D01*
X110890005Y-91576497D01*
X110765528Y-91659670D01*
X110659670Y-91765528D01*
X110576497Y-91890005D01*
X110563111Y-91922321D01*
X109661917Y-91021127D01*
X109576823Y-91132024D01*
X109445221Y-91359965D01*
X109445216Y-91359976D01*
X109344484Y-91603164D01*
X109276355Y-91857424D01*
X109242000Y-92118386D01*
X105400500Y-92118386D01*
X105400500Y-88776500D01*
X105420502Y-88708379D01*
X105474158Y-88661886D01*
X105526500Y-88650500D01*
X191473500Y-88650500D01*
X191541621Y-88670502D01*
G37*
%TD.AperFunction*%
%TD*%
M02*
