%TF.GenerationSoftware,KiCad,Pcbnew,10.0.1*%
%TF.CreationDate,2026-08-16T10:38:43+02:00*%
%TF.ProjectId,HBW-Sen-PRESS-4_Platine1,4842572d-5365-46e2-9d50-524553532d34,rev?*%
%TF.SameCoordinates,Original*%
%TF.FileFunction,Legend,Top*%
%TF.FilePolarity,Positive*%
%FSLAX46Y46*%
G04 Gerber Fmt 4.6, Leading zero omitted, Abs format (unit mm)*
G04 Created by KiCad (PCBNEW 10.0.1) date 2026-08-16 10:38:43*
%MOMM*%
%LPD*%
G01*
G04 APERTURE LIST*
%ADD10C,0.150000*%
%ADD11C,0.120000*%
G04 APERTURE END LIST*
D10*
X139476191Y-96854819D02*
X139809524Y-97854819D01*
X139809524Y-97854819D02*
X140142857Y-96854819D01*
X141000000Y-97854819D02*
X140428572Y-97854819D01*
X140714286Y-97854819D02*
X140714286Y-96854819D01*
X140714286Y-96854819D02*
X140619048Y-96997676D01*
X140619048Y-96997676D02*
X140523810Y-97092914D01*
X140523810Y-97092914D02*
X140428572Y-97140533D01*
X141428572Y-97759580D02*
X141476191Y-97807200D01*
X141476191Y-97807200D02*
X141428572Y-97854819D01*
X141428572Y-97854819D02*
X141380953Y-97807200D01*
X141380953Y-97807200D02*
X141428572Y-97759580D01*
X141428572Y-97759580D02*
X141428572Y-97854819D01*
X142428571Y-97854819D02*
X141857143Y-97854819D01*
X142142857Y-97854819D02*
X142142857Y-96854819D01*
X142142857Y-96854819D02*
X142047619Y-96997676D01*
X142047619Y-96997676D02*
X141952381Y-97092914D01*
X141952381Y-97092914D02*
X141857143Y-97140533D01*
X140021428Y-99459580D02*
X139973809Y-99507200D01*
X139973809Y-99507200D02*
X139830952Y-99554819D01*
X139830952Y-99554819D02*
X139735714Y-99554819D01*
X139735714Y-99554819D02*
X139592857Y-99507200D01*
X139592857Y-99507200D02*
X139497619Y-99411961D01*
X139497619Y-99411961D02*
X139450000Y-99316723D01*
X139450000Y-99316723D02*
X139402381Y-99126247D01*
X139402381Y-99126247D02*
X139402381Y-98983390D01*
X139402381Y-98983390D02*
X139450000Y-98792914D01*
X139450000Y-98792914D02*
X139497619Y-98697676D01*
X139497619Y-98697676D02*
X139592857Y-98602438D01*
X139592857Y-98602438D02*
X139735714Y-98554819D01*
X139735714Y-98554819D02*
X139830952Y-98554819D01*
X139830952Y-98554819D02*
X139973809Y-98602438D01*
X139973809Y-98602438D02*
X140021428Y-98650057D01*
X141021428Y-99459580D02*
X140973809Y-99507200D01*
X140973809Y-99507200D02*
X140830952Y-99554819D01*
X140830952Y-99554819D02*
X140735714Y-99554819D01*
X140735714Y-99554819D02*
X140592857Y-99507200D01*
X140592857Y-99507200D02*
X140497619Y-99411961D01*
X140497619Y-99411961D02*
X140450000Y-99316723D01*
X140450000Y-99316723D02*
X140402381Y-99126247D01*
X140402381Y-99126247D02*
X140402381Y-98983390D01*
X140402381Y-98983390D02*
X140450000Y-98792914D01*
X140450000Y-98792914D02*
X140497619Y-98697676D01*
X140497619Y-98697676D02*
X140592857Y-98602438D01*
X140592857Y-98602438D02*
X140735714Y-98554819D01*
X140735714Y-98554819D02*
X140830952Y-98554819D01*
X140830952Y-98554819D02*
X140973809Y-98602438D01*
X140973809Y-98602438D02*
X141021428Y-98650057D01*
X142545238Y-99031009D02*
X142688095Y-99078628D01*
X142688095Y-99078628D02*
X142735714Y-99126247D01*
X142735714Y-99126247D02*
X142783333Y-99221485D01*
X142783333Y-99221485D02*
X142783333Y-99364342D01*
X142783333Y-99364342D02*
X142735714Y-99459580D01*
X142735714Y-99459580D02*
X142688095Y-99507200D01*
X142688095Y-99507200D02*
X142592857Y-99554819D01*
X142592857Y-99554819D02*
X142211905Y-99554819D01*
X142211905Y-99554819D02*
X142211905Y-98554819D01*
X142211905Y-98554819D02*
X142545238Y-98554819D01*
X142545238Y-98554819D02*
X142640476Y-98602438D01*
X142640476Y-98602438D02*
X142688095Y-98650057D01*
X142688095Y-98650057D02*
X142735714Y-98745295D01*
X142735714Y-98745295D02*
X142735714Y-98840533D01*
X142735714Y-98840533D02*
X142688095Y-98935771D01*
X142688095Y-98935771D02*
X142640476Y-98983390D01*
X142640476Y-98983390D02*
X142545238Y-99031009D01*
X142545238Y-99031009D02*
X142211905Y-99031009D01*
X143402381Y-99078628D02*
X143402381Y-99554819D01*
X143069048Y-98554819D02*
X143402381Y-99078628D01*
X143402381Y-99078628D02*
X143735714Y-98554819D01*
X144069048Y-99173866D02*
X144830953Y-99173866D01*
X145307143Y-99554819D02*
X145307143Y-98554819D01*
X145307143Y-98554819D02*
X145878571Y-99554819D01*
X145878571Y-99554819D02*
X145878571Y-98554819D01*
X146926190Y-99459580D02*
X146878571Y-99507200D01*
X146878571Y-99507200D02*
X146735714Y-99554819D01*
X146735714Y-99554819D02*
X146640476Y-99554819D01*
X146640476Y-99554819D02*
X146497619Y-99507200D01*
X146497619Y-99507200D02*
X146402381Y-99411961D01*
X146402381Y-99411961D02*
X146354762Y-99316723D01*
X146354762Y-99316723D02*
X146307143Y-99126247D01*
X146307143Y-99126247D02*
X146307143Y-98983390D01*
X146307143Y-98983390D02*
X146354762Y-98792914D01*
X146354762Y-98792914D02*
X146402381Y-98697676D01*
X146402381Y-98697676D02*
X146497619Y-98602438D01*
X146497619Y-98602438D02*
X146640476Y-98554819D01*
X146640476Y-98554819D02*
X146735714Y-98554819D01*
X146735714Y-98554819D02*
X146878571Y-98602438D01*
X146878571Y-98602438D02*
X146926190Y-98650057D01*
X147354762Y-99173866D02*
X148116667Y-99173866D01*
X148545238Y-99507200D02*
X148688095Y-99554819D01*
X148688095Y-99554819D02*
X148926190Y-99554819D01*
X148926190Y-99554819D02*
X149021428Y-99507200D01*
X149021428Y-99507200D02*
X149069047Y-99459580D01*
X149069047Y-99459580D02*
X149116666Y-99364342D01*
X149116666Y-99364342D02*
X149116666Y-99269104D01*
X149116666Y-99269104D02*
X149069047Y-99173866D01*
X149069047Y-99173866D02*
X149021428Y-99126247D01*
X149021428Y-99126247D02*
X148926190Y-99078628D01*
X148926190Y-99078628D02*
X148735714Y-99031009D01*
X148735714Y-99031009D02*
X148640476Y-98983390D01*
X148640476Y-98983390D02*
X148592857Y-98935771D01*
X148592857Y-98935771D02*
X148545238Y-98840533D01*
X148545238Y-98840533D02*
X148545238Y-98745295D01*
X148545238Y-98745295D02*
X148592857Y-98650057D01*
X148592857Y-98650057D02*
X148640476Y-98602438D01*
X148640476Y-98602438D02*
X148735714Y-98554819D01*
X148735714Y-98554819D02*
X148973809Y-98554819D01*
X148973809Y-98554819D02*
X149116666Y-98602438D01*
X149497619Y-99269104D02*
X149973809Y-99269104D01*
X149402381Y-99554819D02*
X149735714Y-98554819D01*
X149735714Y-98554819D02*
X150069047Y-99554819D01*
X151069048Y-98554819D02*
X151688095Y-98554819D01*
X151688095Y-98554819D02*
X151354762Y-98935771D01*
X151354762Y-98935771D02*
X151497619Y-98935771D01*
X151497619Y-98935771D02*
X151592857Y-98983390D01*
X151592857Y-98983390D02*
X151640476Y-99031009D01*
X151640476Y-99031009D02*
X151688095Y-99126247D01*
X151688095Y-99126247D02*
X151688095Y-99364342D01*
X151688095Y-99364342D02*
X151640476Y-99459580D01*
X151640476Y-99459580D02*
X151592857Y-99507200D01*
X151592857Y-99507200D02*
X151497619Y-99554819D01*
X151497619Y-99554819D02*
X151211905Y-99554819D01*
X151211905Y-99554819D02*
X151116667Y-99507200D01*
X151116667Y-99507200D02*
X151069048Y-99459580D01*
X152116667Y-99459580D02*
X152164286Y-99507200D01*
X152164286Y-99507200D02*
X152116667Y-99554819D01*
X152116667Y-99554819D02*
X152069048Y-99507200D01*
X152069048Y-99507200D02*
X152116667Y-99459580D01*
X152116667Y-99459580D02*
X152116667Y-99554819D01*
X152783333Y-98554819D02*
X152878571Y-98554819D01*
X152878571Y-98554819D02*
X152973809Y-98602438D01*
X152973809Y-98602438D02*
X153021428Y-98650057D01*
X153021428Y-98650057D02*
X153069047Y-98745295D01*
X153069047Y-98745295D02*
X153116666Y-98935771D01*
X153116666Y-98935771D02*
X153116666Y-99173866D01*
X153116666Y-99173866D02*
X153069047Y-99364342D01*
X153069047Y-99364342D02*
X153021428Y-99459580D01*
X153021428Y-99459580D02*
X152973809Y-99507200D01*
X152973809Y-99507200D02*
X152878571Y-99554819D01*
X152878571Y-99554819D02*
X152783333Y-99554819D01*
X152783333Y-99554819D02*
X152688095Y-99507200D01*
X152688095Y-99507200D02*
X152640476Y-99459580D01*
X152640476Y-99459580D02*
X152592857Y-99364342D01*
X152592857Y-99364342D02*
X152545238Y-99173866D01*
X152545238Y-99173866D02*
X152545238Y-98935771D01*
X152545238Y-98935771D02*
X152592857Y-98745295D01*
X152592857Y-98745295D02*
X152640476Y-98650057D01*
X152640476Y-98650057D02*
X152688095Y-98602438D01*
X152688095Y-98602438D02*
X152783333Y-98554819D01*
X154259524Y-99269104D02*
X154735714Y-99269104D01*
X154164286Y-99554819D02*
X154497619Y-98554819D01*
X154497619Y-98554819D02*
X154830952Y-99554819D01*
X155021429Y-98554819D02*
X155592857Y-98554819D01*
X155307143Y-99554819D02*
X155307143Y-98554819D01*
X139528572Y-96254819D02*
X139528572Y-95254819D01*
X139528572Y-95731009D02*
X140100000Y-95731009D01*
X140100000Y-96254819D02*
X140100000Y-95254819D01*
X140909524Y-95731009D02*
X141052381Y-95778628D01*
X141052381Y-95778628D02*
X141100000Y-95826247D01*
X141100000Y-95826247D02*
X141147619Y-95921485D01*
X141147619Y-95921485D02*
X141147619Y-96064342D01*
X141147619Y-96064342D02*
X141100000Y-96159580D01*
X141100000Y-96159580D02*
X141052381Y-96207200D01*
X141052381Y-96207200D02*
X140957143Y-96254819D01*
X140957143Y-96254819D02*
X140576191Y-96254819D01*
X140576191Y-96254819D02*
X140576191Y-95254819D01*
X140576191Y-95254819D02*
X140909524Y-95254819D01*
X140909524Y-95254819D02*
X141004762Y-95302438D01*
X141004762Y-95302438D02*
X141052381Y-95350057D01*
X141052381Y-95350057D02*
X141100000Y-95445295D01*
X141100000Y-95445295D02*
X141100000Y-95540533D01*
X141100000Y-95540533D02*
X141052381Y-95635771D01*
X141052381Y-95635771D02*
X141004762Y-95683390D01*
X141004762Y-95683390D02*
X140909524Y-95731009D01*
X140909524Y-95731009D02*
X140576191Y-95731009D01*
X141480953Y-95254819D02*
X141719048Y-96254819D01*
X141719048Y-96254819D02*
X141909524Y-95540533D01*
X141909524Y-95540533D02*
X142100000Y-96254819D01*
X142100000Y-96254819D02*
X142338096Y-95254819D01*
X142719048Y-95873866D02*
X143480953Y-95873866D01*
X143909524Y-96207200D02*
X144052381Y-96254819D01*
X144052381Y-96254819D02*
X144290476Y-96254819D01*
X144290476Y-96254819D02*
X144385714Y-96207200D01*
X144385714Y-96207200D02*
X144433333Y-96159580D01*
X144433333Y-96159580D02*
X144480952Y-96064342D01*
X144480952Y-96064342D02*
X144480952Y-95969104D01*
X144480952Y-95969104D02*
X144433333Y-95873866D01*
X144433333Y-95873866D02*
X144385714Y-95826247D01*
X144385714Y-95826247D02*
X144290476Y-95778628D01*
X144290476Y-95778628D02*
X144100000Y-95731009D01*
X144100000Y-95731009D02*
X144004762Y-95683390D01*
X144004762Y-95683390D02*
X143957143Y-95635771D01*
X143957143Y-95635771D02*
X143909524Y-95540533D01*
X143909524Y-95540533D02*
X143909524Y-95445295D01*
X143909524Y-95445295D02*
X143957143Y-95350057D01*
X143957143Y-95350057D02*
X144004762Y-95302438D01*
X144004762Y-95302438D02*
X144100000Y-95254819D01*
X144100000Y-95254819D02*
X144338095Y-95254819D01*
X144338095Y-95254819D02*
X144480952Y-95302438D01*
X145290476Y-96207200D02*
X145195238Y-96254819D01*
X145195238Y-96254819D02*
X145004762Y-96254819D01*
X145004762Y-96254819D02*
X144909524Y-96207200D01*
X144909524Y-96207200D02*
X144861905Y-96111961D01*
X144861905Y-96111961D02*
X144861905Y-95731009D01*
X144861905Y-95731009D02*
X144909524Y-95635771D01*
X144909524Y-95635771D02*
X145004762Y-95588152D01*
X145004762Y-95588152D02*
X145195238Y-95588152D01*
X145195238Y-95588152D02*
X145290476Y-95635771D01*
X145290476Y-95635771D02*
X145338095Y-95731009D01*
X145338095Y-95731009D02*
X145338095Y-95826247D01*
X145338095Y-95826247D02*
X144861905Y-95921485D01*
X145766667Y-95588152D02*
X145766667Y-96254819D01*
X145766667Y-95683390D02*
X145814286Y-95635771D01*
X145814286Y-95635771D02*
X145909524Y-95588152D01*
X145909524Y-95588152D02*
X146052381Y-95588152D01*
X146052381Y-95588152D02*
X146147619Y-95635771D01*
X146147619Y-95635771D02*
X146195238Y-95731009D01*
X146195238Y-95731009D02*
X146195238Y-96254819D01*
X146671429Y-95873866D02*
X147433334Y-95873866D01*
X147909524Y-96254819D02*
X147909524Y-95254819D01*
X147909524Y-95254819D02*
X148290476Y-95254819D01*
X148290476Y-95254819D02*
X148385714Y-95302438D01*
X148385714Y-95302438D02*
X148433333Y-95350057D01*
X148433333Y-95350057D02*
X148480952Y-95445295D01*
X148480952Y-95445295D02*
X148480952Y-95588152D01*
X148480952Y-95588152D02*
X148433333Y-95683390D01*
X148433333Y-95683390D02*
X148385714Y-95731009D01*
X148385714Y-95731009D02*
X148290476Y-95778628D01*
X148290476Y-95778628D02*
X147909524Y-95778628D01*
X149480952Y-96254819D02*
X149147619Y-95778628D01*
X148909524Y-96254819D02*
X148909524Y-95254819D01*
X148909524Y-95254819D02*
X149290476Y-95254819D01*
X149290476Y-95254819D02*
X149385714Y-95302438D01*
X149385714Y-95302438D02*
X149433333Y-95350057D01*
X149433333Y-95350057D02*
X149480952Y-95445295D01*
X149480952Y-95445295D02*
X149480952Y-95588152D01*
X149480952Y-95588152D02*
X149433333Y-95683390D01*
X149433333Y-95683390D02*
X149385714Y-95731009D01*
X149385714Y-95731009D02*
X149290476Y-95778628D01*
X149290476Y-95778628D02*
X148909524Y-95778628D01*
X149909524Y-95731009D02*
X150242857Y-95731009D01*
X150385714Y-96254819D02*
X149909524Y-96254819D01*
X149909524Y-96254819D02*
X149909524Y-95254819D01*
X149909524Y-95254819D02*
X150385714Y-95254819D01*
X150766667Y-96207200D02*
X150909524Y-96254819D01*
X150909524Y-96254819D02*
X151147619Y-96254819D01*
X151147619Y-96254819D02*
X151242857Y-96207200D01*
X151242857Y-96207200D02*
X151290476Y-96159580D01*
X151290476Y-96159580D02*
X151338095Y-96064342D01*
X151338095Y-96064342D02*
X151338095Y-95969104D01*
X151338095Y-95969104D02*
X151290476Y-95873866D01*
X151290476Y-95873866D02*
X151242857Y-95826247D01*
X151242857Y-95826247D02*
X151147619Y-95778628D01*
X151147619Y-95778628D02*
X150957143Y-95731009D01*
X150957143Y-95731009D02*
X150861905Y-95683390D01*
X150861905Y-95683390D02*
X150814286Y-95635771D01*
X150814286Y-95635771D02*
X150766667Y-95540533D01*
X150766667Y-95540533D02*
X150766667Y-95445295D01*
X150766667Y-95445295D02*
X150814286Y-95350057D01*
X150814286Y-95350057D02*
X150861905Y-95302438D01*
X150861905Y-95302438D02*
X150957143Y-95254819D01*
X150957143Y-95254819D02*
X151195238Y-95254819D01*
X151195238Y-95254819D02*
X151338095Y-95302438D01*
X151719048Y-96207200D02*
X151861905Y-96254819D01*
X151861905Y-96254819D02*
X152100000Y-96254819D01*
X152100000Y-96254819D02*
X152195238Y-96207200D01*
X152195238Y-96207200D02*
X152242857Y-96159580D01*
X152242857Y-96159580D02*
X152290476Y-96064342D01*
X152290476Y-96064342D02*
X152290476Y-95969104D01*
X152290476Y-95969104D02*
X152242857Y-95873866D01*
X152242857Y-95873866D02*
X152195238Y-95826247D01*
X152195238Y-95826247D02*
X152100000Y-95778628D01*
X152100000Y-95778628D02*
X151909524Y-95731009D01*
X151909524Y-95731009D02*
X151814286Y-95683390D01*
X151814286Y-95683390D02*
X151766667Y-95635771D01*
X151766667Y-95635771D02*
X151719048Y-95540533D01*
X151719048Y-95540533D02*
X151719048Y-95445295D01*
X151719048Y-95445295D02*
X151766667Y-95350057D01*
X151766667Y-95350057D02*
X151814286Y-95302438D01*
X151814286Y-95302438D02*
X151909524Y-95254819D01*
X151909524Y-95254819D02*
X152147619Y-95254819D01*
X152147619Y-95254819D02*
X152290476Y-95302438D01*
X152719048Y-95873866D02*
X153480953Y-95873866D01*
X154385714Y-95588152D02*
X154385714Y-96254819D01*
X154147619Y-95207200D02*
X153909524Y-95921485D01*
X153909524Y-95921485D02*
X154528571Y-95921485D01*
X154909524Y-95873866D02*
X155671429Y-95873866D01*
X156147619Y-96254819D02*
X156147619Y-95254819D01*
X156147619Y-95254819D02*
X156385714Y-95254819D01*
X156385714Y-95254819D02*
X156528571Y-95302438D01*
X156528571Y-95302438D02*
X156623809Y-95397676D01*
X156623809Y-95397676D02*
X156671428Y-95492914D01*
X156671428Y-95492914D02*
X156719047Y-95683390D01*
X156719047Y-95683390D02*
X156719047Y-95826247D01*
X156719047Y-95826247D02*
X156671428Y-96016723D01*
X156671428Y-96016723D02*
X156623809Y-96111961D01*
X156623809Y-96111961D02*
X156528571Y-96207200D01*
X156528571Y-96207200D02*
X156385714Y-96254819D01*
X156385714Y-96254819D02*
X156147619Y-96254819D01*
X157719047Y-96254819D02*
X157385714Y-95778628D01*
X157147619Y-96254819D02*
X157147619Y-95254819D01*
X157147619Y-95254819D02*
X157528571Y-95254819D01*
X157528571Y-95254819D02*
X157623809Y-95302438D01*
X157623809Y-95302438D02*
X157671428Y-95350057D01*
X157671428Y-95350057D02*
X157719047Y-95445295D01*
X157719047Y-95445295D02*
X157719047Y-95588152D01*
X157719047Y-95588152D02*
X157671428Y-95683390D01*
X157671428Y-95683390D02*
X157623809Y-95731009D01*
X157623809Y-95731009D02*
X157528571Y-95778628D01*
X157528571Y-95778628D02*
X157147619Y-95778628D01*
X150604762Y-97854819D02*
X150604762Y-97188152D01*
X150604762Y-97283390D02*
X150652381Y-97235771D01*
X150652381Y-97235771D02*
X150747619Y-97188152D01*
X150747619Y-97188152D02*
X150890476Y-97188152D01*
X150890476Y-97188152D02*
X150985714Y-97235771D01*
X150985714Y-97235771D02*
X151033333Y-97331009D01*
X151033333Y-97331009D02*
X151033333Y-97854819D01*
X151033333Y-97331009D02*
X151080952Y-97235771D01*
X151080952Y-97235771D02*
X151176190Y-97188152D01*
X151176190Y-97188152D02*
X151319047Y-97188152D01*
X151319047Y-97188152D02*
X151414286Y-97235771D01*
X151414286Y-97235771D02*
X151461905Y-97331009D01*
X151461905Y-97331009D02*
X151461905Y-97854819D01*
X152366666Y-97854819D02*
X152366666Y-97331009D01*
X152366666Y-97331009D02*
X152319047Y-97235771D01*
X152319047Y-97235771D02*
X152223809Y-97188152D01*
X152223809Y-97188152D02*
X152033333Y-97188152D01*
X152033333Y-97188152D02*
X151938095Y-97235771D01*
X152366666Y-97807200D02*
X152271428Y-97854819D01*
X152271428Y-97854819D02*
X152033333Y-97854819D01*
X152033333Y-97854819D02*
X151938095Y-97807200D01*
X151938095Y-97807200D02*
X151890476Y-97711961D01*
X151890476Y-97711961D02*
X151890476Y-97616723D01*
X151890476Y-97616723D02*
X151938095Y-97521485D01*
X151938095Y-97521485D02*
X152033333Y-97473866D01*
X152033333Y-97473866D02*
X152271428Y-97473866D01*
X152271428Y-97473866D02*
X152366666Y-97426247D01*
X152747619Y-97854819D02*
X153271428Y-97188152D01*
X152747619Y-97188152D02*
X153271428Y-97854819D01*
X153557143Y-97854819D02*
X154080952Y-97188152D01*
X153557143Y-97188152D02*
X154080952Y-97854819D01*
X154366667Y-96854819D02*
X154985714Y-96854819D01*
X154985714Y-96854819D02*
X154652381Y-97235771D01*
X154652381Y-97235771D02*
X154795238Y-97235771D01*
X154795238Y-97235771D02*
X154890476Y-97283390D01*
X154890476Y-97283390D02*
X154938095Y-97331009D01*
X154938095Y-97331009D02*
X154985714Y-97426247D01*
X154985714Y-97426247D02*
X154985714Y-97664342D01*
X154985714Y-97664342D02*
X154938095Y-97759580D01*
X154938095Y-97759580D02*
X154890476Y-97807200D01*
X154890476Y-97807200D02*
X154795238Y-97854819D01*
X154795238Y-97854819D02*
X154509524Y-97854819D01*
X154509524Y-97854819D02*
X154414286Y-97807200D01*
X154414286Y-97807200D02*
X154366667Y-97759580D01*
X155938095Y-97854819D02*
X155366667Y-97854819D01*
X155652381Y-97854819D02*
X155652381Y-96854819D01*
X155652381Y-96854819D02*
X155557143Y-96997676D01*
X155557143Y-96997676D02*
X155461905Y-97092914D01*
X155461905Y-97092914D02*
X155366667Y-97140533D01*
X156557143Y-96854819D02*
X156652381Y-96854819D01*
X156652381Y-96854819D02*
X156747619Y-96902438D01*
X156747619Y-96902438D02*
X156795238Y-96950057D01*
X156795238Y-96950057D02*
X156842857Y-97045295D01*
X156842857Y-97045295D02*
X156890476Y-97235771D01*
X156890476Y-97235771D02*
X156890476Y-97473866D01*
X156890476Y-97473866D02*
X156842857Y-97664342D01*
X156842857Y-97664342D02*
X156795238Y-97759580D01*
X156795238Y-97759580D02*
X156747619Y-97807200D01*
X156747619Y-97807200D02*
X156652381Y-97854819D01*
X156652381Y-97854819D02*
X156557143Y-97854819D01*
X156557143Y-97854819D02*
X156461905Y-97807200D01*
X156461905Y-97807200D02*
X156414286Y-97759580D01*
X156414286Y-97759580D02*
X156366667Y-97664342D01*
X156366667Y-97664342D02*
X156319048Y-97473866D01*
X156319048Y-97473866D02*
X156319048Y-97235771D01*
X156319048Y-97235771D02*
X156366667Y-97045295D01*
X156366667Y-97045295D02*
X156414286Y-96950057D01*
X156414286Y-96950057D02*
X156461905Y-96902438D01*
X156461905Y-96902438D02*
X156557143Y-96854819D01*
X157795238Y-96854819D02*
X157319048Y-96854819D01*
X157319048Y-96854819D02*
X157271429Y-97331009D01*
X157271429Y-97331009D02*
X157319048Y-97283390D01*
X157319048Y-97283390D02*
X157414286Y-97235771D01*
X157414286Y-97235771D02*
X157652381Y-97235771D01*
X157652381Y-97235771D02*
X157747619Y-97283390D01*
X157747619Y-97283390D02*
X157795238Y-97331009D01*
X157795238Y-97331009D02*
X157842857Y-97426247D01*
X157842857Y-97426247D02*
X157842857Y-97664342D01*
X157842857Y-97664342D02*
X157795238Y-97759580D01*
X157795238Y-97759580D02*
X157747619Y-97807200D01*
X157747619Y-97807200D02*
X157652381Y-97854819D01*
X157652381Y-97854819D02*
X157414286Y-97854819D01*
X157414286Y-97854819D02*
X157319048Y-97807200D01*
X157319048Y-97807200D02*
X157271429Y-97759580D01*
X188204819Y-93833332D02*
X189204819Y-93499999D01*
X189204819Y-93499999D02*
X188204819Y-93166666D01*
X189109580Y-92261904D02*
X189157200Y-92309523D01*
X189157200Y-92309523D02*
X189204819Y-92452380D01*
X189204819Y-92452380D02*
X189204819Y-92547618D01*
X189204819Y-92547618D02*
X189157200Y-92690475D01*
X189157200Y-92690475D02*
X189061961Y-92785713D01*
X189061961Y-92785713D02*
X188966723Y-92833332D01*
X188966723Y-92833332D02*
X188776247Y-92880951D01*
X188776247Y-92880951D02*
X188633390Y-92880951D01*
X188633390Y-92880951D02*
X188442914Y-92833332D01*
X188442914Y-92833332D02*
X188347676Y-92785713D01*
X188347676Y-92785713D02*
X188252438Y-92690475D01*
X188252438Y-92690475D02*
X188204819Y-92547618D01*
X188204819Y-92547618D02*
X188204819Y-92452380D01*
X188204819Y-92452380D02*
X188252438Y-92309523D01*
X188252438Y-92309523D02*
X188300057Y-92261904D01*
X189109580Y-91261904D02*
X189157200Y-91309523D01*
X189157200Y-91309523D02*
X189204819Y-91452380D01*
X189204819Y-91452380D02*
X189204819Y-91547618D01*
X189204819Y-91547618D02*
X189157200Y-91690475D01*
X189157200Y-91690475D02*
X189061961Y-91785713D01*
X189061961Y-91785713D02*
X188966723Y-91833332D01*
X188966723Y-91833332D02*
X188776247Y-91880951D01*
X188776247Y-91880951D02*
X188633390Y-91880951D01*
X188633390Y-91880951D02*
X188442914Y-91833332D01*
X188442914Y-91833332D02*
X188347676Y-91785713D01*
X188347676Y-91785713D02*
X188252438Y-91690475D01*
X188252438Y-91690475D02*
X188204819Y-91547618D01*
X188204819Y-91547618D02*
X188204819Y-91452380D01*
X188204819Y-91452380D02*
X188252438Y-91309523D01*
X188252438Y-91309523D02*
X188300057Y-91261904D01*
X188252438Y-98261904D02*
X188204819Y-98357142D01*
X188204819Y-98357142D02*
X188204819Y-98499999D01*
X188204819Y-98499999D02*
X188252438Y-98642856D01*
X188252438Y-98642856D02*
X188347676Y-98738094D01*
X188347676Y-98738094D02*
X188442914Y-98785713D01*
X188442914Y-98785713D02*
X188633390Y-98833332D01*
X188633390Y-98833332D02*
X188776247Y-98833332D01*
X188776247Y-98833332D02*
X188966723Y-98785713D01*
X188966723Y-98785713D02*
X189061961Y-98738094D01*
X189061961Y-98738094D02*
X189157200Y-98642856D01*
X189157200Y-98642856D02*
X189204819Y-98499999D01*
X189204819Y-98499999D02*
X189204819Y-98404761D01*
X189204819Y-98404761D02*
X189157200Y-98261904D01*
X189157200Y-98261904D02*
X189109580Y-98214285D01*
X189109580Y-98214285D02*
X188776247Y-98214285D01*
X188776247Y-98214285D02*
X188776247Y-98404761D01*
X189204819Y-97785713D02*
X188204819Y-97785713D01*
X188204819Y-97785713D02*
X189204819Y-97214285D01*
X189204819Y-97214285D02*
X188204819Y-97214285D01*
X189204819Y-96738094D02*
X188204819Y-96738094D01*
X188204819Y-96738094D02*
X188204819Y-96499999D01*
X188204819Y-96499999D02*
X188252438Y-96357142D01*
X188252438Y-96357142D02*
X188347676Y-96261904D01*
X188347676Y-96261904D02*
X188442914Y-96214285D01*
X188442914Y-96214285D02*
X188633390Y-96166666D01*
X188633390Y-96166666D02*
X188776247Y-96166666D01*
X188776247Y-96166666D02*
X188966723Y-96214285D01*
X188966723Y-96214285D02*
X189061961Y-96261904D01*
X189061961Y-96261904D02*
X189157200Y-96357142D01*
X189157200Y-96357142D02*
X189204819Y-96499999D01*
X189204819Y-96499999D02*
X189204819Y-96738094D01*
X189157200Y-104238094D02*
X189204819Y-104095237D01*
X189204819Y-104095237D02*
X189204819Y-103857142D01*
X189204819Y-103857142D02*
X189157200Y-103761904D01*
X189157200Y-103761904D02*
X189109580Y-103714285D01*
X189109580Y-103714285D02*
X189014342Y-103666666D01*
X189014342Y-103666666D02*
X188919104Y-103666666D01*
X188919104Y-103666666D02*
X188823866Y-103714285D01*
X188823866Y-103714285D02*
X188776247Y-103761904D01*
X188776247Y-103761904D02*
X188728628Y-103857142D01*
X188728628Y-103857142D02*
X188681009Y-104047618D01*
X188681009Y-104047618D02*
X188633390Y-104142856D01*
X188633390Y-104142856D02*
X188585771Y-104190475D01*
X188585771Y-104190475D02*
X188490533Y-104238094D01*
X188490533Y-104238094D02*
X188395295Y-104238094D01*
X188395295Y-104238094D02*
X188300057Y-104190475D01*
X188300057Y-104190475D02*
X188252438Y-104142856D01*
X188252438Y-104142856D02*
X188204819Y-104047618D01*
X188204819Y-104047618D02*
X188204819Y-103809523D01*
X188204819Y-103809523D02*
X188252438Y-103666666D01*
X188681009Y-103238094D02*
X188681009Y-102904761D01*
X189204819Y-102761904D02*
X189204819Y-103238094D01*
X189204819Y-103238094D02*
X188204819Y-103238094D01*
X188204819Y-103238094D02*
X188204819Y-102761904D01*
X189204819Y-102333332D02*
X188204819Y-102333332D01*
X188204819Y-102333332D02*
X189204819Y-101761904D01*
X189204819Y-101761904D02*
X188204819Y-101761904D01*
X189204819Y-100761904D02*
X189204819Y-101333332D01*
X189204819Y-101047618D02*
X188204819Y-101047618D01*
X188204819Y-101047618D02*
X188347676Y-101142856D01*
X188347676Y-101142856D02*
X188442914Y-101238094D01*
X188442914Y-101238094D02*
X188490533Y-101333332D01*
X189157200Y-109238094D02*
X189204819Y-109095237D01*
X189204819Y-109095237D02*
X189204819Y-108857142D01*
X189204819Y-108857142D02*
X189157200Y-108761904D01*
X189157200Y-108761904D02*
X189109580Y-108714285D01*
X189109580Y-108714285D02*
X189014342Y-108666666D01*
X189014342Y-108666666D02*
X188919104Y-108666666D01*
X188919104Y-108666666D02*
X188823866Y-108714285D01*
X188823866Y-108714285D02*
X188776247Y-108761904D01*
X188776247Y-108761904D02*
X188728628Y-108857142D01*
X188728628Y-108857142D02*
X188681009Y-109047618D01*
X188681009Y-109047618D02*
X188633390Y-109142856D01*
X188633390Y-109142856D02*
X188585771Y-109190475D01*
X188585771Y-109190475D02*
X188490533Y-109238094D01*
X188490533Y-109238094D02*
X188395295Y-109238094D01*
X188395295Y-109238094D02*
X188300057Y-109190475D01*
X188300057Y-109190475D02*
X188252438Y-109142856D01*
X188252438Y-109142856D02*
X188204819Y-109047618D01*
X188204819Y-109047618D02*
X188204819Y-108809523D01*
X188204819Y-108809523D02*
X188252438Y-108666666D01*
X188681009Y-108238094D02*
X188681009Y-107904761D01*
X189204819Y-107761904D02*
X189204819Y-108238094D01*
X189204819Y-108238094D02*
X188204819Y-108238094D01*
X188204819Y-108238094D02*
X188204819Y-107761904D01*
X189204819Y-107333332D02*
X188204819Y-107333332D01*
X188204819Y-107333332D02*
X189204819Y-106761904D01*
X189204819Y-106761904D02*
X188204819Y-106761904D01*
X188300057Y-106333332D02*
X188252438Y-106285713D01*
X188252438Y-106285713D02*
X188204819Y-106190475D01*
X188204819Y-106190475D02*
X188204819Y-105952380D01*
X188204819Y-105952380D02*
X188252438Y-105857142D01*
X188252438Y-105857142D02*
X188300057Y-105809523D01*
X188300057Y-105809523D02*
X188395295Y-105761904D01*
X188395295Y-105761904D02*
X188490533Y-105761904D01*
X188490533Y-105761904D02*
X188633390Y-105809523D01*
X188633390Y-105809523D02*
X189204819Y-106380951D01*
X189204819Y-106380951D02*
X189204819Y-105761904D01*
X189157200Y-114488094D02*
X189204819Y-114345237D01*
X189204819Y-114345237D02*
X189204819Y-114107142D01*
X189204819Y-114107142D02*
X189157200Y-114011904D01*
X189157200Y-114011904D02*
X189109580Y-113964285D01*
X189109580Y-113964285D02*
X189014342Y-113916666D01*
X189014342Y-113916666D02*
X188919104Y-113916666D01*
X188919104Y-113916666D02*
X188823866Y-113964285D01*
X188823866Y-113964285D02*
X188776247Y-114011904D01*
X188776247Y-114011904D02*
X188728628Y-114107142D01*
X188728628Y-114107142D02*
X188681009Y-114297618D01*
X188681009Y-114297618D02*
X188633390Y-114392856D01*
X188633390Y-114392856D02*
X188585771Y-114440475D01*
X188585771Y-114440475D02*
X188490533Y-114488094D01*
X188490533Y-114488094D02*
X188395295Y-114488094D01*
X188395295Y-114488094D02*
X188300057Y-114440475D01*
X188300057Y-114440475D02*
X188252438Y-114392856D01*
X188252438Y-114392856D02*
X188204819Y-114297618D01*
X188204819Y-114297618D02*
X188204819Y-114059523D01*
X188204819Y-114059523D02*
X188252438Y-113916666D01*
X188681009Y-113488094D02*
X188681009Y-113154761D01*
X189204819Y-113011904D02*
X189204819Y-113488094D01*
X189204819Y-113488094D02*
X188204819Y-113488094D01*
X188204819Y-113488094D02*
X188204819Y-113011904D01*
X189204819Y-112583332D02*
X188204819Y-112583332D01*
X188204819Y-112583332D02*
X189204819Y-112011904D01*
X189204819Y-112011904D02*
X188204819Y-112011904D01*
X188204819Y-111630951D02*
X188204819Y-111011904D01*
X188204819Y-111011904D02*
X188585771Y-111345237D01*
X188585771Y-111345237D02*
X188585771Y-111202380D01*
X188585771Y-111202380D02*
X188633390Y-111107142D01*
X188633390Y-111107142D02*
X188681009Y-111059523D01*
X188681009Y-111059523D02*
X188776247Y-111011904D01*
X188776247Y-111011904D02*
X189014342Y-111011904D01*
X189014342Y-111011904D02*
X189109580Y-111059523D01*
X189109580Y-111059523D02*
X189157200Y-111107142D01*
X189157200Y-111107142D02*
X189204819Y-111202380D01*
X189204819Y-111202380D02*
X189204819Y-111488094D01*
X189204819Y-111488094D02*
X189157200Y-111583332D01*
X189157200Y-111583332D02*
X189109580Y-111630951D01*
X189157200Y-119488094D02*
X189204819Y-119345237D01*
X189204819Y-119345237D02*
X189204819Y-119107142D01*
X189204819Y-119107142D02*
X189157200Y-119011904D01*
X189157200Y-119011904D02*
X189109580Y-118964285D01*
X189109580Y-118964285D02*
X189014342Y-118916666D01*
X189014342Y-118916666D02*
X188919104Y-118916666D01*
X188919104Y-118916666D02*
X188823866Y-118964285D01*
X188823866Y-118964285D02*
X188776247Y-119011904D01*
X188776247Y-119011904D02*
X188728628Y-119107142D01*
X188728628Y-119107142D02*
X188681009Y-119297618D01*
X188681009Y-119297618D02*
X188633390Y-119392856D01*
X188633390Y-119392856D02*
X188585771Y-119440475D01*
X188585771Y-119440475D02*
X188490533Y-119488094D01*
X188490533Y-119488094D02*
X188395295Y-119488094D01*
X188395295Y-119488094D02*
X188300057Y-119440475D01*
X188300057Y-119440475D02*
X188252438Y-119392856D01*
X188252438Y-119392856D02*
X188204819Y-119297618D01*
X188204819Y-119297618D02*
X188204819Y-119059523D01*
X188204819Y-119059523D02*
X188252438Y-118916666D01*
X188681009Y-118488094D02*
X188681009Y-118154761D01*
X189204819Y-118011904D02*
X189204819Y-118488094D01*
X189204819Y-118488094D02*
X188204819Y-118488094D01*
X188204819Y-118488094D02*
X188204819Y-118011904D01*
X189204819Y-117583332D02*
X188204819Y-117583332D01*
X188204819Y-117583332D02*
X189204819Y-117011904D01*
X189204819Y-117011904D02*
X188204819Y-117011904D01*
X188538152Y-116107142D02*
X189204819Y-116107142D01*
X188157200Y-116345237D02*
X188871485Y-116583332D01*
X188871485Y-116583332D02*
X188871485Y-115964285D01*
X117985361Y-90500588D02*
X118072980Y-90325350D01*
X118072980Y-90325350D02*
X118072980Y-90062493D01*
X118072980Y-90062493D02*
X117985361Y-89799636D01*
X117985361Y-89799636D02*
X117810123Y-89624398D01*
X117810123Y-89624398D02*
X117634885Y-89536779D01*
X117634885Y-89536779D02*
X117284409Y-89449160D01*
X117284409Y-89449160D02*
X117021552Y-89449160D01*
X117021552Y-89449160D02*
X116671076Y-89536779D01*
X116671076Y-89536779D02*
X116495838Y-89624398D01*
X116495838Y-89624398D02*
X116320600Y-89799636D01*
X116320600Y-89799636D02*
X116232980Y-90062493D01*
X116232980Y-90062493D02*
X116232980Y-90237731D01*
X116232980Y-90237731D02*
X116320600Y-90500588D01*
X116320600Y-90500588D02*
X116408219Y-90588207D01*
X116408219Y-90588207D02*
X117021552Y-90588207D01*
X117021552Y-90588207D02*
X117021552Y-90237731D01*
X116232980Y-91376779D02*
X118072980Y-91376779D01*
X118072980Y-91376779D02*
X116232980Y-92428207D01*
X116232980Y-92428207D02*
X118072980Y-92428207D01*
X116232980Y-93304398D02*
X118072980Y-93304398D01*
X118072980Y-93304398D02*
X118072980Y-93742493D01*
X118072980Y-93742493D02*
X117985361Y-94005350D01*
X117985361Y-94005350D02*
X117810123Y-94180588D01*
X117810123Y-94180588D02*
X117634885Y-94268207D01*
X117634885Y-94268207D02*
X117284409Y-94355826D01*
X117284409Y-94355826D02*
X117021552Y-94355826D01*
X117021552Y-94355826D02*
X116671076Y-94268207D01*
X116671076Y-94268207D02*
X116495838Y-94180588D01*
X116495838Y-94180588D02*
X116320600Y-94005350D01*
X116320600Y-94005350D02*
X116232980Y-93742493D01*
X116232980Y-93742493D02*
X116232980Y-93304398D01*
X117196790Y-112650112D02*
X117109171Y-112912969D01*
X117109171Y-112912969D02*
X117021552Y-113000588D01*
X117021552Y-113000588D02*
X116846314Y-113088207D01*
X116846314Y-113088207D02*
X116583457Y-113088207D01*
X116583457Y-113088207D02*
X116408219Y-113000588D01*
X116408219Y-113000588D02*
X116320600Y-112912969D01*
X116320600Y-112912969D02*
X116232980Y-112737731D01*
X116232980Y-112737731D02*
X116232980Y-112036779D01*
X116232980Y-112036779D02*
X118072980Y-112036779D01*
X118072980Y-112036779D02*
X118072980Y-112650112D01*
X118072980Y-112650112D02*
X117985361Y-112825350D01*
X117985361Y-112825350D02*
X117897742Y-112912969D01*
X117897742Y-112912969D02*
X117722504Y-113000588D01*
X117722504Y-113000588D02*
X117547266Y-113000588D01*
X117547266Y-113000588D02*
X117372028Y-112912969D01*
X117372028Y-112912969D02*
X117284409Y-112825350D01*
X117284409Y-112825350D02*
X117196790Y-112650112D01*
X117196790Y-112650112D02*
X117196790Y-112036779D01*
X116758695Y-117449160D02*
X116758695Y-118325350D01*
X116232980Y-117273922D02*
X118072980Y-117887255D01*
X118072980Y-117887255D02*
X116232980Y-118500588D01*
X117907742Y-95859160D02*
X117995361Y-95946779D01*
X117995361Y-95946779D02*
X118082980Y-96122017D01*
X118082980Y-96122017D02*
X118082980Y-96560112D01*
X118082980Y-96560112D02*
X117995361Y-96735350D01*
X117995361Y-96735350D02*
X117907742Y-96822969D01*
X117907742Y-96822969D02*
X117732504Y-96910588D01*
X117732504Y-96910588D02*
X117557266Y-96910588D01*
X117557266Y-96910588D02*
X117294409Y-96822969D01*
X117294409Y-96822969D02*
X116242980Y-95771541D01*
X116242980Y-95771541D02*
X116242980Y-96910588D01*
X117469647Y-98487731D02*
X116242980Y-98487731D01*
X118170600Y-98049636D02*
X116856314Y-97611541D01*
X116856314Y-97611541D02*
X116856314Y-98750588D01*
X118082980Y-99188684D02*
X116242980Y-99802017D01*
X116242980Y-99802017D02*
X118082980Y-100415350D01*
X178934819Y-105222668D02*
X179649104Y-105222668D01*
X179649104Y-105222668D02*
X179791961Y-105270287D01*
X179791961Y-105270287D02*
X179887200Y-105365525D01*
X179887200Y-105365525D02*
X179934819Y-105508382D01*
X179934819Y-105508382D02*
X179934819Y-105603620D01*
X179030057Y-104794096D02*
X178982438Y-104746477D01*
X178982438Y-104746477D02*
X178934819Y-104651239D01*
X178934819Y-104651239D02*
X178934819Y-104413144D01*
X178934819Y-104413144D02*
X178982438Y-104317906D01*
X178982438Y-104317906D02*
X179030057Y-104270287D01*
X179030057Y-104270287D02*
X179125295Y-104222668D01*
X179125295Y-104222668D02*
X179220533Y-104222668D01*
X179220533Y-104222668D02*
X179363390Y-104270287D01*
X179363390Y-104270287D02*
X179934819Y-104841715D01*
X179934819Y-104841715D02*
X179934819Y-104222668D01*
X135309580Y-99611554D02*
X135357200Y-99659173D01*
X135357200Y-99659173D02*
X135404819Y-99802030D01*
X135404819Y-99802030D02*
X135404819Y-99897268D01*
X135404819Y-99897268D02*
X135357200Y-100040125D01*
X135357200Y-100040125D02*
X135261961Y-100135363D01*
X135261961Y-100135363D02*
X135166723Y-100182982D01*
X135166723Y-100182982D02*
X134976247Y-100230601D01*
X134976247Y-100230601D02*
X134833390Y-100230601D01*
X134833390Y-100230601D02*
X134642914Y-100182982D01*
X134642914Y-100182982D02*
X134547676Y-100135363D01*
X134547676Y-100135363D02*
X134452438Y-100040125D01*
X134452438Y-100040125D02*
X134404819Y-99897268D01*
X134404819Y-99897268D02*
X134404819Y-99802030D01*
X134404819Y-99802030D02*
X134452438Y-99659173D01*
X134452438Y-99659173D02*
X134500057Y-99611554D01*
X134404819Y-98754411D02*
X134404819Y-98944887D01*
X134404819Y-98944887D02*
X134452438Y-99040125D01*
X134452438Y-99040125D02*
X134500057Y-99087744D01*
X134500057Y-99087744D02*
X134642914Y-99182982D01*
X134642914Y-99182982D02*
X134833390Y-99230601D01*
X134833390Y-99230601D02*
X135214342Y-99230601D01*
X135214342Y-99230601D02*
X135309580Y-99182982D01*
X135309580Y-99182982D02*
X135357200Y-99135363D01*
X135357200Y-99135363D02*
X135404819Y-99040125D01*
X135404819Y-99040125D02*
X135404819Y-98849649D01*
X135404819Y-98849649D02*
X135357200Y-98754411D01*
X135357200Y-98754411D02*
X135309580Y-98706792D01*
X135309580Y-98706792D02*
X135214342Y-98659173D01*
X135214342Y-98659173D02*
X134976247Y-98659173D01*
X134976247Y-98659173D02*
X134881009Y-98706792D01*
X134881009Y-98706792D02*
X134833390Y-98754411D01*
X134833390Y-98754411D02*
X134785771Y-98849649D01*
X134785771Y-98849649D02*
X134785771Y-99040125D01*
X134785771Y-99040125D02*
X134833390Y-99135363D01*
X134833390Y-99135363D02*
X134881009Y-99182982D01*
X134881009Y-99182982D02*
X134976247Y-99230601D01*
X125609580Y-109611554D02*
X125657200Y-109659173D01*
X125657200Y-109659173D02*
X125704819Y-109802030D01*
X125704819Y-109802030D02*
X125704819Y-109897268D01*
X125704819Y-109897268D02*
X125657200Y-110040125D01*
X125657200Y-110040125D02*
X125561961Y-110135363D01*
X125561961Y-110135363D02*
X125466723Y-110182982D01*
X125466723Y-110182982D02*
X125276247Y-110230601D01*
X125276247Y-110230601D02*
X125133390Y-110230601D01*
X125133390Y-110230601D02*
X124942914Y-110182982D01*
X124942914Y-110182982D02*
X124847676Y-110135363D01*
X124847676Y-110135363D02*
X124752438Y-110040125D01*
X124752438Y-110040125D02*
X124704819Y-109897268D01*
X124704819Y-109897268D02*
X124704819Y-109802030D01*
X124704819Y-109802030D02*
X124752438Y-109659173D01*
X124752438Y-109659173D02*
X124800057Y-109611554D01*
X125704819Y-109135363D02*
X125704819Y-108944887D01*
X125704819Y-108944887D02*
X125657200Y-108849649D01*
X125657200Y-108849649D02*
X125609580Y-108802030D01*
X125609580Y-108802030D02*
X125466723Y-108706792D01*
X125466723Y-108706792D02*
X125276247Y-108659173D01*
X125276247Y-108659173D02*
X124895295Y-108659173D01*
X124895295Y-108659173D02*
X124800057Y-108706792D01*
X124800057Y-108706792D02*
X124752438Y-108754411D01*
X124752438Y-108754411D02*
X124704819Y-108849649D01*
X124704819Y-108849649D02*
X124704819Y-109040125D01*
X124704819Y-109040125D02*
X124752438Y-109135363D01*
X124752438Y-109135363D02*
X124800057Y-109182982D01*
X124800057Y-109182982D02*
X124895295Y-109230601D01*
X124895295Y-109230601D02*
X125133390Y-109230601D01*
X125133390Y-109230601D02*
X125228628Y-109182982D01*
X125228628Y-109182982D02*
X125276247Y-109135363D01*
X125276247Y-109135363D02*
X125323866Y-109040125D01*
X125323866Y-109040125D02*
X125323866Y-108849649D01*
X125323866Y-108849649D02*
X125276247Y-108754411D01*
X125276247Y-108754411D02*
X125228628Y-108706792D01*
X125228628Y-108706792D02*
X125133390Y-108659173D01*
%TO.C,J3*%
D11*
X138290000Y-118330000D02*
X138290000Y-117000000D01*
X139620000Y-118330000D02*
X138290000Y-118330000D01*
X140890000Y-115670000D02*
X158730000Y-115670000D01*
X140890000Y-118330000D02*
X140890000Y-115670000D01*
X140890000Y-118330000D02*
X158730000Y-118330000D01*
X158730000Y-118330000D02*
X158730000Y-115670000D01*
%TO.C,J5*%
X107440000Y-110130000D02*
X107440000Y-120290000D01*
X107440000Y-120290000D02*
X115060000Y-120290000D01*
X113790000Y-110130000D02*
X113790000Y-120290000D01*
X115060000Y-110130000D02*
X107440000Y-110130000D01*
X115060000Y-120290000D02*
X115060000Y-110130000D01*
%TO.C,J2*%
X180480000Y-89229335D02*
X190970000Y-89229335D01*
X180480000Y-120549335D02*
X180480000Y-89229335D01*
X182100000Y-120549335D02*
X182100000Y-89229335D01*
X189850000Y-120549335D02*
X189850000Y-89229335D01*
X190970000Y-89229335D02*
X190970000Y-117589335D01*
X190970000Y-118189335D02*
X190970000Y-120549335D01*
X190970000Y-120549335D02*
X180480000Y-120549335D01*
X191580000Y-118329335D02*
X190970000Y-117889335D01*
X191580000Y-117449335D01*
X191580000Y-118329335D01*
G36*
X191580000Y-118329335D02*
G01*
X190970000Y-117889335D01*
X191580000Y-117449335D01*
X191580000Y-118329335D01*
G37*
%TO.C,C6*%
X130160000Y-99684888D02*
X128631000Y-99684888D01*
X130160000Y-99724888D02*
X128635000Y-99724888D01*
X130160000Y-99764888D02*
X128639000Y-99764888D01*
X130160000Y-99804888D02*
X128644000Y-99804888D01*
X130160000Y-99844888D02*
X128650000Y-99844888D01*
X130160000Y-99884888D02*
X128657000Y-99884888D01*
X130160000Y-99924888D02*
X128664000Y-99924888D01*
X130160000Y-99964888D02*
X128672000Y-99964888D01*
X130160000Y-100004888D02*
X128680000Y-100004888D01*
X130160000Y-100044888D02*
X128689000Y-100044888D01*
X130160000Y-100084888D02*
X128699000Y-100084888D01*
X130160000Y-100124888D02*
X128709000Y-100124888D01*
X130160000Y-100165888D02*
X128720000Y-100165888D01*
X130160000Y-100205888D02*
X128732000Y-100205888D01*
X130160000Y-100245888D02*
X128745000Y-100245888D01*
X130160000Y-100285888D02*
X128758000Y-100285888D01*
X130160000Y-100325888D02*
X128772000Y-100325888D01*
X130160000Y-100365888D02*
X128786000Y-100365888D01*
X130160000Y-100405888D02*
X128802000Y-100405888D01*
X130160000Y-100445888D02*
X128818000Y-100445888D01*
X130160000Y-100485888D02*
X128835000Y-100485888D01*
X130160000Y-100525888D02*
X128852000Y-100525888D01*
X130160000Y-100565888D02*
X128871000Y-100565888D01*
X130160000Y-100605888D02*
X128890000Y-100605888D01*
X130160000Y-100645888D02*
X128910000Y-100645888D01*
X130160000Y-100685888D02*
X128932000Y-100685888D01*
X130160000Y-100725888D02*
X128953000Y-100725888D01*
X130160000Y-100765888D02*
X128976000Y-100765888D01*
X130160000Y-100805888D02*
X129000000Y-100805888D01*
X130160000Y-100845888D02*
X129025000Y-100845888D01*
X130160000Y-100885888D02*
X129051000Y-100885888D01*
X130160000Y-100925888D02*
X129078000Y-100925888D01*
X130160000Y-100965888D02*
X129105000Y-100965888D01*
X130160000Y-101005888D02*
X129135000Y-101005888D01*
X130160000Y-101045888D02*
X129165000Y-101045888D01*
X130160000Y-101085888D02*
X129196000Y-101085888D01*
X130160000Y-101125888D02*
X129229000Y-101125888D01*
X130160000Y-101165888D02*
X129263000Y-101165888D01*
X130160000Y-101205888D02*
X129299000Y-101205888D01*
X130160000Y-101245888D02*
X129336000Y-101245888D01*
X130160000Y-101285888D02*
X129374000Y-101285888D01*
X130160000Y-101325888D02*
X129415000Y-101325888D01*
X130160000Y-101365888D02*
X129457000Y-101365888D01*
X130160000Y-101405888D02*
X129501000Y-101405888D01*
X130160000Y-101445888D02*
X129547000Y-101445888D01*
X130160000Y-101485888D02*
X129595000Y-101485888D01*
X130160000Y-101525888D02*
X129646000Y-101525888D01*
X130160000Y-101565888D02*
X129700000Y-101565888D01*
X130160000Y-101605888D02*
X129757000Y-101605888D01*
X130160000Y-101645888D02*
X129817000Y-101645888D01*
X130160000Y-101685888D02*
X129881000Y-101685888D01*
X130160000Y-101725888D02*
X129949000Y-101725888D01*
X131484000Y-102045888D02*
X130916000Y-102045888D01*
X131718000Y-102005888D02*
X130682000Y-102005888D01*
X131877000Y-101965888D02*
X130523000Y-101965888D01*
X132005000Y-101925888D02*
X130395000Y-101925888D01*
X132115000Y-101885888D02*
X130285000Y-101885888D01*
X132211000Y-101845888D02*
X130189000Y-101845888D01*
X132298000Y-101805888D02*
X130102000Y-101805888D01*
X132378000Y-101765888D02*
X130022000Y-101765888D01*
X132451000Y-101725888D02*
X132240000Y-101725888D01*
X132519000Y-101685888D02*
X132240000Y-101685888D01*
X132583000Y-101645888D02*
X132240000Y-101645888D01*
X132643000Y-101605888D02*
X132240000Y-101605888D01*
X132675000Y-96640113D02*
X132675000Y-97140113D01*
X132700000Y-101565888D02*
X132240000Y-101565888D01*
X132754000Y-101525888D02*
X132240000Y-101525888D01*
X132805000Y-101485888D02*
X132240000Y-101485888D01*
X132853000Y-101445888D02*
X132240000Y-101445888D01*
X132899000Y-101405888D02*
X132240000Y-101405888D01*
X132925000Y-96890113D02*
X132425000Y-96890113D01*
X132943000Y-101365888D02*
X132240000Y-101365888D01*
X132985000Y-101325888D02*
X132240000Y-101325888D01*
X133026000Y-101285888D02*
X132240000Y-101285888D01*
X133064000Y-101245888D02*
X132240000Y-101245888D01*
X133101000Y-101205888D02*
X132240000Y-101205888D01*
X133137000Y-101165888D02*
X132240000Y-101165888D01*
X133171000Y-101125888D02*
X132240000Y-101125888D01*
X133204000Y-101085888D02*
X132240000Y-101085888D01*
X133235000Y-101045888D02*
X132240000Y-101045888D01*
X133265000Y-101005888D02*
X132240000Y-101005888D01*
X133295000Y-100965888D02*
X132240000Y-100965888D01*
X133322000Y-100925888D02*
X132240000Y-100925888D01*
X133349000Y-100885888D02*
X132240000Y-100885888D01*
X133375000Y-100845888D02*
X132240000Y-100845888D01*
X133400000Y-100805888D02*
X132240000Y-100805888D01*
X133424000Y-100765888D02*
X132240000Y-100765888D01*
X133447000Y-100725888D02*
X132240000Y-100725888D01*
X133468000Y-100685888D02*
X132240000Y-100685888D01*
X133490000Y-100645888D02*
X132240000Y-100645888D01*
X133510000Y-100605888D02*
X132240000Y-100605888D01*
X133529000Y-100565888D02*
X132240000Y-100565888D01*
X133548000Y-100525888D02*
X132240000Y-100525888D01*
X133565000Y-100485888D02*
X132240000Y-100485888D01*
X133582000Y-100445888D02*
X132240000Y-100445888D01*
X133598000Y-100405888D02*
X132240000Y-100405888D01*
X133614000Y-100365888D02*
X132240000Y-100365888D01*
X133628000Y-100325888D02*
X132240000Y-100325888D01*
X133642000Y-100285888D02*
X132240000Y-100285888D01*
X133655000Y-100245888D02*
X132240000Y-100245888D01*
X133668000Y-100205888D02*
X132240000Y-100205888D01*
X133680000Y-100165888D02*
X132240000Y-100165888D01*
X133691000Y-100124888D02*
X132240000Y-100124888D01*
X133701000Y-100084888D02*
X132240000Y-100084888D01*
X133711000Y-100044888D02*
X132240000Y-100044888D01*
X133720000Y-100004888D02*
X132240000Y-100004888D01*
X133728000Y-99964888D02*
X132240000Y-99964888D01*
X133736000Y-99924888D02*
X132240000Y-99924888D01*
X133743000Y-99884888D02*
X132240000Y-99884888D01*
X133750000Y-99844888D02*
X132240000Y-99844888D01*
X133756000Y-99804888D02*
X132240000Y-99804888D01*
X133761000Y-99764888D02*
X132240000Y-99764888D01*
X133765000Y-99724888D02*
X132240000Y-99724888D01*
X133769000Y-99684888D02*
X132240000Y-99684888D01*
X133773000Y-99644888D02*
X128627000Y-99644888D01*
X133776000Y-99604888D02*
X128624000Y-99604888D01*
X133778000Y-99564888D02*
X128622000Y-99564888D01*
X133779000Y-99524888D02*
X128621000Y-99524888D01*
X133780000Y-99444888D02*
X128620000Y-99444888D01*
X133780000Y-99484888D02*
X128620000Y-99484888D01*
X133820000Y-99444888D02*
G75*
G02*
X128580000Y-99444888I-2620000J0D01*
G01*
X128580000Y-99444888D02*
G75*
G02*
X133820000Y-99444888I2620000J0D01*
G01*
%TO.C,J4*%
X107440000Y-89710000D02*
X107440000Y-99870000D01*
X107440000Y-99870000D02*
X115060000Y-99870000D01*
X113790000Y-89710000D02*
X113790000Y-99870000D01*
X115060000Y-89710000D02*
X107440000Y-89710000D01*
X115060000Y-99870000D02*
X115060000Y-89710000D01*
%TO.C,C9*%
X120460000Y-109684888D02*
X118931000Y-109684888D01*
X120460000Y-109724888D02*
X118935000Y-109724888D01*
X120460000Y-109764888D02*
X118939000Y-109764888D01*
X120460000Y-109804888D02*
X118944000Y-109804888D01*
X120460000Y-109844888D02*
X118950000Y-109844888D01*
X120460000Y-109884888D02*
X118957000Y-109884888D01*
X120460000Y-109924888D02*
X118964000Y-109924888D01*
X120460000Y-109964888D02*
X118972000Y-109964888D01*
X120460000Y-110004888D02*
X118980000Y-110004888D01*
X120460000Y-110044888D02*
X118989000Y-110044888D01*
X120460000Y-110084888D02*
X118999000Y-110084888D01*
X120460000Y-110124888D02*
X119009000Y-110124888D01*
X120460000Y-110165888D02*
X119020000Y-110165888D01*
X120460000Y-110205888D02*
X119032000Y-110205888D01*
X120460000Y-110245888D02*
X119045000Y-110245888D01*
X120460000Y-110285888D02*
X119058000Y-110285888D01*
X120460000Y-110325888D02*
X119072000Y-110325888D01*
X120460000Y-110365888D02*
X119086000Y-110365888D01*
X120460000Y-110405888D02*
X119102000Y-110405888D01*
X120460000Y-110445888D02*
X119118000Y-110445888D01*
X120460000Y-110485888D02*
X119135000Y-110485888D01*
X120460000Y-110525888D02*
X119152000Y-110525888D01*
X120460000Y-110565888D02*
X119171000Y-110565888D01*
X120460000Y-110605888D02*
X119190000Y-110605888D01*
X120460000Y-110645888D02*
X119210000Y-110645888D01*
X120460000Y-110685888D02*
X119232000Y-110685888D01*
X120460000Y-110725888D02*
X119253000Y-110725888D01*
X120460000Y-110765888D02*
X119276000Y-110765888D01*
X120460000Y-110805888D02*
X119300000Y-110805888D01*
X120460000Y-110845888D02*
X119325000Y-110845888D01*
X120460000Y-110885888D02*
X119351000Y-110885888D01*
X120460000Y-110925888D02*
X119378000Y-110925888D01*
X120460000Y-110965888D02*
X119405000Y-110965888D01*
X120460000Y-111005888D02*
X119435000Y-111005888D01*
X120460000Y-111045888D02*
X119465000Y-111045888D01*
X120460000Y-111085888D02*
X119496000Y-111085888D01*
X120460000Y-111125888D02*
X119529000Y-111125888D01*
X120460000Y-111165888D02*
X119563000Y-111165888D01*
X120460000Y-111205888D02*
X119599000Y-111205888D01*
X120460000Y-111245888D02*
X119636000Y-111245888D01*
X120460000Y-111285888D02*
X119674000Y-111285888D01*
X120460000Y-111325888D02*
X119715000Y-111325888D01*
X120460000Y-111365888D02*
X119757000Y-111365888D01*
X120460000Y-111405888D02*
X119801000Y-111405888D01*
X120460000Y-111445888D02*
X119847000Y-111445888D01*
X120460000Y-111485888D02*
X119895000Y-111485888D01*
X120460000Y-111525888D02*
X119946000Y-111525888D01*
X120460000Y-111565888D02*
X120000000Y-111565888D01*
X120460000Y-111605888D02*
X120057000Y-111605888D01*
X120460000Y-111645888D02*
X120117000Y-111645888D01*
X120460000Y-111685888D02*
X120181000Y-111685888D01*
X120460000Y-111725888D02*
X120249000Y-111725888D01*
X121784000Y-112045888D02*
X121216000Y-112045888D01*
X122018000Y-112005888D02*
X120982000Y-112005888D01*
X122177000Y-111965888D02*
X120823000Y-111965888D01*
X122305000Y-111925888D02*
X120695000Y-111925888D01*
X122415000Y-111885888D02*
X120585000Y-111885888D01*
X122511000Y-111845888D02*
X120489000Y-111845888D01*
X122598000Y-111805888D02*
X120402000Y-111805888D01*
X122678000Y-111765888D02*
X120322000Y-111765888D01*
X122751000Y-111725888D02*
X122540000Y-111725888D01*
X122819000Y-111685888D02*
X122540000Y-111685888D01*
X122883000Y-111645888D02*
X122540000Y-111645888D01*
X122943000Y-111605888D02*
X122540000Y-111605888D01*
X122975000Y-106640113D02*
X122975000Y-107140113D01*
X123000000Y-111565888D02*
X122540000Y-111565888D01*
X123054000Y-111525888D02*
X122540000Y-111525888D01*
X123105000Y-111485888D02*
X122540000Y-111485888D01*
X123153000Y-111445888D02*
X122540000Y-111445888D01*
X123199000Y-111405888D02*
X122540000Y-111405888D01*
X123225000Y-106890113D02*
X122725000Y-106890113D01*
X123243000Y-111365888D02*
X122540000Y-111365888D01*
X123285000Y-111325888D02*
X122540000Y-111325888D01*
X123326000Y-111285888D02*
X122540000Y-111285888D01*
X123364000Y-111245888D02*
X122540000Y-111245888D01*
X123401000Y-111205888D02*
X122540000Y-111205888D01*
X123437000Y-111165888D02*
X122540000Y-111165888D01*
X123471000Y-111125888D02*
X122540000Y-111125888D01*
X123504000Y-111085888D02*
X122540000Y-111085888D01*
X123535000Y-111045888D02*
X122540000Y-111045888D01*
X123565000Y-111005888D02*
X122540000Y-111005888D01*
X123595000Y-110965888D02*
X122540000Y-110965888D01*
X123622000Y-110925888D02*
X122540000Y-110925888D01*
X123649000Y-110885888D02*
X122540000Y-110885888D01*
X123675000Y-110845888D02*
X122540000Y-110845888D01*
X123700000Y-110805888D02*
X122540000Y-110805888D01*
X123724000Y-110765888D02*
X122540000Y-110765888D01*
X123747000Y-110725888D02*
X122540000Y-110725888D01*
X123768000Y-110685888D02*
X122540000Y-110685888D01*
X123790000Y-110645888D02*
X122540000Y-110645888D01*
X123810000Y-110605888D02*
X122540000Y-110605888D01*
X123829000Y-110565888D02*
X122540000Y-110565888D01*
X123848000Y-110525888D02*
X122540000Y-110525888D01*
X123865000Y-110485888D02*
X122540000Y-110485888D01*
X123882000Y-110445888D02*
X122540000Y-110445888D01*
X123898000Y-110405888D02*
X122540000Y-110405888D01*
X123914000Y-110365888D02*
X122540000Y-110365888D01*
X123928000Y-110325888D02*
X122540000Y-110325888D01*
X123942000Y-110285888D02*
X122540000Y-110285888D01*
X123955000Y-110245888D02*
X122540000Y-110245888D01*
X123968000Y-110205888D02*
X122540000Y-110205888D01*
X123980000Y-110165888D02*
X122540000Y-110165888D01*
X123991000Y-110124888D02*
X122540000Y-110124888D01*
X124001000Y-110084888D02*
X122540000Y-110084888D01*
X124011000Y-110044888D02*
X122540000Y-110044888D01*
X124020000Y-110004888D02*
X122540000Y-110004888D01*
X124028000Y-109964888D02*
X122540000Y-109964888D01*
X124036000Y-109924888D02*
X122540000Y-109924888D01*
X124043000Y-109884888D02*
X122540000Y-109884888D01*
X124050000Y-109844888D02*
X122540000Y-109844888D01*
X124056000Y-109804888D02*
X122540000Y-109804888D01*
X124061000Y-109764888D02*
X122540000Y-109764888D01*
X124065000Y-109724888D02*
X122540000Y-109724888D01*
X124069000Y-109684888D02*
X122540000Y-109684888D01*
X124073000Y-109644888D02*
X118927000Y-109644888D01*
X124076000Y-109604888D02*
X118924000Y-109604888D01*
X124078000Y-109564888D02*
X118922000Y-109564888D01*
X124079000Y-109524888D02*
X118921000Y-109524888D01*
X124080000Y-109444888D02*
X118920000Y-109444888D01*
X124080000Y-109484888D02*
X118920000Y-109484888D01*
X124120000Y-109444888D02*
G75*
G02*
X118880000Y-109444888I-2620000J0D01*
G01*
X118880000Y-109444888D02*
G75*
G02*
X124120000Y-109444888I2620000J0D01*
G01*
%TO.C,J1*%
X138300000Y-94330000D02*
X138300000Y-93000000D01*
X139630000Y-94330000D02*
X138300000Y-94330000D01*
X140900000Y-91670000D02*
X158740000Y-91670000D01*
X140900000Y-94330000D02*
X140900000Y-91670000D01*
X140900000Y-94330000D02*
X158740000Y-94330000D01*
X158740000Y-94330000D02*
X158740000Y-91670000D01*
%TD*%
M02*
