%TF.GenerationSoftware,KiCad,Pcbnew,(6.0.9)*%
%TF.CreationDate,2024-04-03T02:59:22+02:00*%
%TF.ProjectId,HBW-Sen-PRESS-4_Platine2,4842572d-5365-46e2-9d50-524553532d34,rev?*%
%TF.SameCoordinates,Original*%
%TF.FileFunction,Legend,Top*%
%TF.FilePolarity,Positive*%
%FSLAX46Y46*%
G04 Gerber Fmt 4.6, Leading zero omitted, Abs format (unit mm)*
G04 Created by KiCad (PCBNEW (6.0.9)) date 2024-04-03 02:59:22*
%MOMM*%
%LPD*%
G01*
G04 APERTURE LIST*
%ADD10C,0.150000*%
%ADD11C,0.120000*%
G04 APERTURE END LIST*
D10*
%TO.C,D1*%
X162766904Y-57642380D02*
X162766904Y-56642380D01*
X163005000Y-56642380D01*
X163147857Y-56690000D01*
X163243095Y-56785238D01*
X163290714Y-56880476D01*
X163338333Y-57070952D01*
X163338333Y-57213809D01*
X163290714Y-57404285D01*
X163243095Y-57499523D01*
X163147857Y-57594761D01*
X163005000Y-57642380D01*
X162766904Y-57642380D01*
X164290714Y-57642380D02*
X163719285Y-57642380D01*
X164005000Y-57642380D02*
X164005000Y-56642380D01*
X163909761Y-56785238D01*
X163814523Y-56880476D01*
X163719285Y-56928095D01*
%TO.C,D3*%
X162766904Y-65752380D02*
X162766904Y-64752380D01*
X163005000Y-64752380D01*
X163147857Y-64800000D01*
X163243095Y-64895238D01*
X163290714Y-64990476D01*
X163338333Y-65180952D01*
X163338333Y-65323809D01*
X163290714Y-65514285D01*
X163243095Y-65609523D01*
X163147857Y-65704761D01*
X163005000Y-65752380D01*
X162766904Y-65752380D01*
X163671666Y-64752380D02*
X164290714Y-64752380D01*
X163957380Y-65133333D01*
X164100238Y-65133333D01*
X164195476Y-65180952D01*
X164243095Y-65228571D01*
X164290714Y-65323809D01*
X164290714Y-65561904D01*
X164243095Y-65657142D01*
X164195476Y-65704761D01*
X164100238Y-65752380D01*
X163814523Y-65752380D01*
X163719285Y-65704761D01*
X163671666Y-65657142D01*
%TO.C,D2*%
X162761904Y-73752380D02*
X162761904Y-72752380D01*
X163000000Y-72752380D01*
X163142857Y-72800000D01*
X163238095Y-72895238D01*
X163285714Y-72990476D01*
X163333333Y-73180952D01*
X163333333Y-73323809D01*
X163285714Y-73514285D01*
X163238095Y-73609523D01*
X163142857Y-73704761D01*
X163000000Y-73752380D01*
X162761904Y-73752380D01*
X163714285Y-72847619D02*
X163761904Y-72800000D01*
X163857142Y-72752380D01*
X164095238Y-72752380D01*
X164190476Y-72800000D01*
X164238095Y-72847619D01*
X164285714Y-72942857D01*
X164285714Y-73038095D01*
X164238095Y-73180952D01*
X163666666Y-73752380D01*
X164285714Y-73752380D01*
%TO.C,SW2*%
X136216666Y-75054761D02*
X136359523Y-75102380D01*
X136597619Y-75102380D01*
X136692857Y-75054761D01*
X136740476Y-75007142D01*
X136788095Y-74911904D01*
X136788095Y-74816666D01*
X136740476Y-74721428D01*
X136692857Y-74673809D01*
X136597619Y-74626190D01*
X136407142Y-74578571D01*
X136311904Y-74530952D01*
X136264285Y-74483333D01*
X136216666Y-74388095D01*
X136216666Y-74292857D01*
X136264285Y-74197619D01*
X136311904Y-74150000D01*
X136407142Y-74102380D01*
X136645238Y-74102380D01*
X136788095Y-74150000D01*
X137121428Y-74102380D02*
X137359523Y-75102380D01*
X137550000Y-74388095D01*
X137740476Y-75102380D01*
X137978571Y-74102380D01*
X138311904Y-74197619D02*
X138359523Y-74150000D01*
X138454761Y-74102380D01*
X138692857Y-74102380D01*
X138788095Y-74150000D01*
X138835714Y-74197619D01*
X138883333Y-74292857D01*
X138883333Y-74388095D01*
X138835714Y-74530952D01*
X138264285Y-75102380D01*
X138883333Y-75102380D01*
X132552380Y-75888095D02*
X132076190Y-76221428D01*
X132552380Y-76459523D02*
X131552380Y-76459523D01*
X131552380Y-76078571D01*
X131600000Y-75983333D01*
X131647619Y-75935714D01*
X131742857Y-75888095D01*
X131885714Y-75888095D01*
X131980952Y-75935714D01*
X132028571Y-75983333D01*
X132076190Y-76078571D01*
X132076190Y-76459523D01*
X132504761Y-75078571D02*
X132552380Y-75173809D01*
X132552380Y-75364285D01*
X132504761Y-75459523D01*
X132409523Y-75507142D01*
X132028571Y-75507142D01*
X131933333Y-75459523D01*
X131885714Y-75364285D01*
X131885714Y-75173809D01*
X131933333Y-75078571D01*
X132028571Y-75030952D01*
X132123809Y-75030952D01*
X132219047Y-75507142D01*
X132504761Y-74650000D02*
X132552380Y-74554761D01*
X132552380Y-74364285D01*
X132504761Y-74269047D01*
X132409523Y-74221428D01*
X132361904Y-74221428D01*
X132266666Y-74269047D01*
X132219047Y-74364285D01*
X132219047Y-74507142D01*
X132171428Y-74602380D01*
X132076190Y-74650000D01*
X132028571Y-74650000D01*
X131933333Y-74602380D01*
X131885714Y-74507142D01*
X131885714Y-74364285D01*
X131933333Y-74269047D01*
X132504761Y-73411904D02*
X132552380Y-73507142D01*
X132552380Y-73697619D01*
X132504761Y-73792857D01*
X132409523Y-73840476D01*
X132028571Y-73840476D01*
X131933333Y-73792857D01*
X131885714Y-73697619D01*
X131885714Y-73507142D01*
X131933333Y-73411904D01*
X132028571Y-73364285D01*
X132123809Y-73364285D01*
X132219047Y-73840476D01*
X131885714Y-73078571D02*
X131885714Y-72697619D01*
X131552380Y-72935714D02*
X132409523Y-72935714D01*
X132504761Y-72888095D01*
X132552380Y-72792857D01*
X132552380Y-72697619D01*
%TO.C,J1*%
X137840180Y-81524933D02*
X138554466Y-81524933D01*
X138697323Y-81572552D01*
X138792561Y-81667790D01*
X138840180Y-81810647D01*
X138840180Y-81905885D01*
X138840180Y-80524933D02*
X138840180Y-81096361D01*
X138840180Y-80810647D02*
X137840180Y-80810647D01*
X137983038Y-80905885D01*
X138078276Y-81001123D01*
X138125895Y-81096361D01*
%TO.C,R2*%
X157953333Y-76102380D02*
X157620000Y-75626190D01*
X157381904Y-76102380D02*
X157381904Y-75102380D01*
X157762857Y-75102380D01*
X157858095Y-75150000D01*
X157905714Y-75197619D01*
X157953333Y-75292857D01*
X157953333Y-75435714D01*
X157905714Y-75530952D01*
X157858095Y-75578571D01*
X157762857Y-75626190D01*
X157381904Y-75626190D01*
X158334285Y-75197619D02*
X158381904Y-75150000D01*
X158477142Y-75102380D01*
X158715238Y-75102380D01*
X158810476Y-75150000D01*
X158858095Y-75197619D01*
X158905714Y-75292857D01*
X158905714Y-75388095D01*
X158858095Y-75530952D01*
X158286666Y-76102380D01*
X158905714Y-76102380D01*
%TO.C,SW1*%
X136166666Y-64204761D02*
X136309523Y-64252380D01*
X136547619Y-64252380D01*
X136642857Y-64204761D01*
X136690476Y-64157142D01*
X136738095Y-64061904D01*
X136738095Y-63966666D01*
X136690476Y-63871428D01*
X136642857Y-63823809D01*
X136547619Y-63776190D01*
X136357142Y-63728571D01*
X136261904Y-63680952D01*
X136214285Y-63633333D01*
X136166666Y-63538095D01*
X136166666Y-63442857D01*
X136214285Y-63347619D01*
X136261904Y-63300000D01*
X136357142Y-63252380D01*
X136595238Y-63252380D01*
X136738095Y-63300000D01*
X137071428Y-63252380D02*
X137309523Y-64252380D01*
X137500000Y-63538095D01*
X137690476Y-64252380D01*
X137928571Y-63252380D01*
X138833333Y-64252380D02*
X138261904Y-64252380D01*
X138547619Y-64252380D02*
X138547619Y-63252380D01*
X138452380Y-63395238D01*
X138357142Y-63490476D01*
X138261904Y-63538095D01*
X131678571Y-65657142D02*
X131726190Y-65514285D01*
X131773809Y-65466666D01*
X131869047Y-65419047D01*
X132011904Y-65419047D01*
X132107142Y-65466666D01*
X132154761Y-65514285D01*
X132202380Y-65609523D01*
X132202380Y-65990476D01*
X131202380Y-65990476D01*
X131202380Y-65657142D01*
X131250000Y-65561904D01*
X131297619Y-65514285D01*
X131392857Y-65466666D01*
X131488095Y-65466666D01*
X131583333Y-65514285D01*
X131630952Y-65561904D01*
X131678571Y-65657142D01*
X131678571Y-65990476D01*
X131535714Y-64561904D02*
X132202380Y-64561904D01*
X131535714Y-64990476D02*
X132059523Y-64990476D01*
X132154761Y-64942857D01*
X132202380Y-64847619D01*
X132202380Y-64704761D01*
X132154761Y-64609523D01*
X132107142Y-64561904D01*
X131535714Y-64228571D02*
X131535714Y-63847619D01*
X131202380Y-64085714D02*
X132059523Y-64085714D01*
X132154761Y-64038095D01*
X132202380Y-63942857D01*
X132202380Y-63847619D01*
X131535714Y-63657142D02*
X131535714Y-63276190D01*
X131202380Y-63514285D02*
X132059523Y-63514285D01*
X132154761Y-63466666D01*
X132202380Y-63371428D01*
X132202380Y-63276190D01*
X132202380Y-62800000D02*
X132154761Y-62895238D01*
X132107142Y-62942857D01*
X132011904Y-62990476D01*
X131726190Y-62990476D01*
X131630952Y-62942857D01*
X131583333Y-62895238D01*
X131535714Y-62800000D01*
X131535714Y-62657142D01*
X131583333Y-62561904D01*
X131630952Y-62514285D01*
X131726190Y-62466666D01*
X132011904Y-62466666D01*
X132107142Y-62514285D01*
X132154761Y-62561904D01*
X132202380Y-62657142D01*
X132202380Y-62800000D01*
X131535714Y-62038095D02*
X132202380Y-62038095D01*
X131630952Y-62038095D02*
X131583333Y-61990476D01*
X131535714Y-61895238D01*
X131535714Y-61752380D01*
X131583333Y-61657142D01*
X131678571Y-61609523D01*
X132202380Y-61609523D01*
%TO.C,R3*%
X157923333Y-68002380D02*
X157590000Y-67526190D01*
X157351904Y-68002380D02*
X157351904Y-67002380D01*
X157732857Y-67002380D01*
X157828095Y-67050000D01*
X157875714Y-67097619D01*
X157923333Y-67192857D01*
X157923333Y-67335714D01*
X157875714Y-67430952D01*
X157828095Y-67478571D01*
X157732857Y-67526190D01*
X157351904Y-67526190D01*
X158256666Y-67002380D02*
X158875714Y-67002380D01*
X158542380Y-67383333D01*
X158685238Y-67383333D01*
X158780476Y-67430952D01*
X158828095Y-67478571D01*
X158875714Y-67573809D01*
X158875714Y-67811904D01*
X158828095Y-67907142D01*
X158780476Y-67954761D01*
X158685238Y-68002380D01*
X158399523Y-68002380D01*
X158304285Y-67954761D01*
X158256666Y-67907142D01*
%TO.C,R1*%
X157933333Y-60002380D02*
X157600000Y-59526190D01*
X157361904Y-60002380D02*
X157361904Y-59002380D01*
X157742857Y-59002380D01*
X157838095Y-59050000D01*
X157885714Y-59097619D01*
X157933333Y-59192857D01*
X157933333Y-59335714D01*
X157885714Y-59430952D01*
X157838095Y-59478571D01*
X157742857Y-59526190D01*
X157361904Y-59526190D01*
X158885714Y-60002380D02*
X158314285Y-60002380D01*
X158600000Y-60002380D02*
X158600000Y-59002380D01*
X158504761Y-59145238D01*
X158409523Y-59240476D01*
X158314285Y-59288095D01*
%TO.C,J2*%
X137400180Y-57499933D02*
X138114466Y-57499933D01*
X138257323Y-57547552D01*
X138352561Y-57642790D01*
X138400180Y-57785647D01*
X138400180Y-57880885D01*
X137495419Y-57071361D02*
X137447800Y-57023742D01*
X137400180Y-56928504D01*
X137400180Y-56690409D01*
X137447800Y-56595171D01*
X137495419Y-56547552D01*
X137590657Y-56499933D01*
X137685895Y-56499933D01*
X137828752Y-56547552D01*
X138400180Y-57118980D01*
X138400180Y-56499933D01*
D11*
%TO.C,D1*%
X166065000Y-62745000D02*
X166065000Y-59655000D01*
X166065000Y-59655170D02*
G75*
G03*
X160515000Y-61200462I-2560000J-1544830D01*
G01*
X160515000Y-61199538D02*
G75*
G03*
X166065000Y-62744830I2990000J-462D01*
G01*
X166005000Y-61200000D02*
G75*
G03*
X166005000Y-61200000I-2500000J0D01*
G01*
%TO.C,D3*%
X166065000Y-70745000D02*
X166065000Y-67655000D01*
X166065000Y-67655170D02*
G75*
G03*
X160515000Y-69200462I-2560000J-1544830D01*
G01*
X160515000Y-69199538D02*
G75*
G03*
X166065000Y-70744830I2990000J-462D01*
G01*
X166005000Y-69200000D02*
G75*
G03*
X166005000Y-69200000I-2500000J0D01*
G01*
%TO.C,D2*%
X166065000Y-78845000D02*
X166065000Y-75755000D01*
X160515000Y-77299538D02*
G75*
G03*
X166065000Y-78844830I2990000J-462D01*
G01*
X166065000Y-75755170D02*
G75*
G03*
X160515000Y-77300462I-2560000J-1544830D01*
G01*
X166005000Y-77300000D02*
G75*
G03*
X166005000Y-77300000I-2500000J0D01*
G01*
%TO.C,SW2*%
X135300000Y-77900000D02*
X139800000Y-77900000D01*
X139800000Y-71400000D02*
X135300000Y-71400000D01*
X141050000Y-75400000D02*
X141050000Y-73900000D01*
X134050000Y-73900000D02*
X134050000Y-75400000D01*
%TO.C,J1*%
X141987800Y-79861600D02*
X159827800Y-79861600D01*
X139387800Y-82521600D02*
X139387800Y-81191600D01*
X141987800Y-82521600D02*
X141987800Y-79861600D01*
X140717800Y-82521600D02*
X139387800Y-82521600D01*
X159827800Y-82521600D02*
X159827800Y-79861600D01*
X141987800Y-82521600D02*
X159827800Y-82521600D01*
%TO.C,R2*%
X157892936Y-76565000D02*
X158347064Y-76565000D01*
X157892936Y-78035000D02*
X158347064Y-78035000D01*
%TO.C,SW1*%
X139750000Y-60550000D02*
X135250000Y-60550000D01*
X134000000Y-63050000D02*
X134000000Y-64550000D01*
X135250000Y-67050000D02*
X139750000Y-67050000D01*
X141000000Y-64550000D02*
X141000000Y-63050000D01*
%TO.C,R3*%
X157862936Y-68465000D02*
X158317064Y-68465000D01*
X157862936Y-69935000D02*
X158317064Y-69935000D01*
%TO.C,R1*%
X157872936Y-60465000D02*
X158327064Y-60465000D01*
X157872936Y-61935000D02*
X158327064Y-61935000D01*
%TO.C,J2*%
X139387800Y-57166600D02*
X139387800Y-55836600D01*
X141987800Y-58496600D02*
X141987800Y-55836600D01*
X141987800Y-55836600D02*
X159827800Y-55836600D01*
X141987800Y-58496600D02*
X159827800Y-58496600D01*
X139387800Y-55836600D02*
X140717800Y-55836600D01*
X159827800Y-58496600D02*
X159827800Y-55836600D01*
%TD*%
M02*
