M48
; DRILL file {KiCad (6.0.9)} date Wed Apr  3 02:59:25 2024
; FORMAT={-:-/ absolute / inch / decimal}
; #@! TF.CreationDate,2024-04-03T02:59:25+02:00
; #@! TF.GenerationSoftware,Kicad,Pcbnew,(6.0.9)
; #@! TF.FileFunction,Plated,1,2,PTH
FMAT,2
INCH
; #@! TA.AperFunction,Plated,PTH,ComponentDrill
T1C0.0354
; #@! TA.AperFunction,Plated,PTH,ComponentDrill
T2C0.0394
; #@! TA.AperFunction,Plated,PTH,ComponentDrill
T3C0.0433
%
G90
G05
T1
X6.3872Y-2.4094
X6.3872Y-2.7244
X6.3872Y-3.0433
X6.4872Y-2.4094
X6.4872Y-2.7244
X6.4872Y-3.0433
T2
X5.5401Y-2.2507
X5.5401Y-3.1965
X5.6401Y-2.2507
X5.6401Y-3.1965
X5.7401Y-2.2507
X5.7401Y-3.1965
X5.8401Y-2.2507
X5.8401Y-3.1965
X5.9401Y-2.2507
X5.9401Y-3.1965
X6.0401Y-2.2507
X6.0401Y-3.1965
X6.1401Y-2.2507
X6.1401Y-3.1965
X6.2401Y-2.2507
X6.2401Y-3.1965
T3
X5.2854Y-2.4232
X5.2854Y-2.6004
X5.2874Y-2.8504
X5.2874Y-3.0276
X5.5413Y-2.4232
X5.5413Y-2.6004
X5.5433Y-2.8504
X5.5433Y-3.0276
T0
M30
