%TF.GenerationSoftware,KiCad,Pcbnew,(6.0.9)*%
%TF.CreationDate,2024-04-03T02:59:22+02:00*%
%TF.ProjectId,HBW-Sen-PRESS-4_Platine2,4842572d-5365-46e2-9d50-524553532d34,rev?*%
%TF.SameCoordinates,Original*%
%TF.FileFunction,Copper,L1,Top*%
%TF.FilePolarity,Positive*%
%FSLAX46Y46*%
G04 Gerber Fmt 4.6, Leading zero omitted, Abs format (unit mm)*
G04 Created by KiCad (PCBNEW (6.0.9)) date 2024-04-03 02:59:22*
%MOMM*%
%LPD*%
G01*
G04 APERTURE LIST*
G04 Aperture macros list*
%AMRoundRect*
0 Rectangle with rounded corners*
0 $1 Rounding radius*
0 $2 $3 $4 $5 $6 $7 $8 $9 X,Y pos of 4 corners*
0 Add a 4 corners polygon primitive as box body*
4,1,4,$2,$3,$4,$5,$6,$7,$8,$9,$2,$3,0*
0 Add four circle primitives for the rounded corners*
1,1,$1+$1,$2,$3*
1,1,$1+$1,$4,$5*
1,1,$1+$1,$6,$7*
1,1,$1+$1,$8,$9*
0 Add four rect primitives between the rounded corners*
20,1,$1+$1,$2,$3,$4,$5,0*
20,1,$1+$1,$4,$5,$6,$7,0*
20,1,$1+$1,$6,$7,$8,$9,0*
20,1,$1+$1,$8,$9,$2,$3,0*%
G04 Aperture macros list end*
%TA.AperFunction,ComponentPad*%
%ADD10R,1.800000X1.800000*%
%TD*%
%TA.AperFunction,ComponentPad*%
%ADD11C,1.800000*%
%TD*%
%TA.AperFunction,ComponentPad*%
%ADD12C,2.000000*%
%TD*%
%TA.AperFunction,ComponentPad*%
%ADD13O,1.700000X1.700000*%
%TD*%
%TA.AperFunction,SMDPad,CuDef*%
%ADD14RoundRect,0.250000X-0.350000X-0.450000X0.350000X-0.450000X0.350000X0.450000X-0.350000X0.450000X0*%
%TD*%
%TA.AperFunction,ComponentPad*%
%ADD15R,1.700000X1.700000*%
%TD*%
%TA.AperFunction,Conductor*%
%ADD16C,0.300000*%
%TD*%
G04 APERTURE END LIST*
D10*
%TO.P,D1,1,K*%
%TO.N,/GND*%
X164775000Y-61200000D03*
D11*
%TO.P,D1,2,A*%
%TO.N,Net-(D1-Pad2)*%
X162235000Y-61200000D03*
%TD*%
D10*
%TO.P,D3,1,K*%
%TO.N,/GND*%
X164775000Y-69200000D03*
D11*
%TO.P,D3,2,A*%
%TO.N,Net-(D3-Pad2)*%
X162235000Y-69200000D03*
%TD*%
D10*
%TO.P,D2,1,K*%
%TO.N,/GND*%
X164775000Y-77300000D03*
D11*
%TO.P,D2,2,A*%
%TO.N,Net-(D2-Pad2)*%
X162235000Y-77300000D03*
%TD*%
D12*
%TO.P,SW2,1,1*%
%TO.N,/RST*%
X134300000Y-72400000D03*
X140800000Y-72400000D03*
%TO.P,SW2,2,2*%
%TO.N,/GND*%
X134300000Y-76900000D03*
X140800000Y-76900000D03*
%TD*%
D13*
%TO.P,J1,1,Pin_1*%
%TO.N,/GND*%
X140717800Y-81191600D03*
%TO.P,J1,2,Pin_2*%
X143257800Y-81191600D03*
%TO.P,J1,3,Pin_3*%
%TO.N,/RST*%
X145797800Y-81191600D03*
%TO.P,J1,4,Pin_4*%
%TO.N,unconnected-(J1-Pad4)*%
X148337800Y-81191600D03*
%TO.P,J1,5,Pin_5*%
%TO.N,unconnected-(J1-Pad5)*%
X150877800Y-81191600D03*
%TO.P,J1,6,Pin_6*%
%TO.N,unconnected-(J1-Pad6)*%
X153417800Y-81191600D03*
%TO.P,J1,7,Pin_7*%
%TO.N,unconnected-(J1-Pad7)*%
X155957800Y-81191600D03*
%TO.P,J1,8,Pin_8*%
%TO.N,unconnected-(J1-Pad8)*%
X158497800Y-81191600D03*
%TD*%
D14*
%TO.P,R2,1*%
%TO.N,/VCC*%
X157120000Y-77300000D03*
%TO.P,R2,2*%
%TO.N,Net-(D2-Pad2)*%
X159120000Y-77300000D03*
%TD*%
D12*
%TO.P,SW1,1,1*%
%TO.N,/Button*%
X134250000Y-66050000D03*
X140750000Y-66050000D03*
%TO.P,SW1,2,2*%
%TO.N,/GND*%
X134250000Y-61550000D03*
X140750000Y-61550000D03*
%TD*%
D14*
%TO.P,R3,1*%
%TO.N,/ID_LED*%
X157090000Y-69200000D03*
%TO.P,R3,2*%
%TO.N,Net-(D3-Pad2)*%
X159090000Y-69200000D03*
%TD*%
%TO.P,R1,1*%
%TO.N,/LED*%
X157100000Y-61200000D03*
%TO.P,R1,2*%
%TO.N,Net-(D1-Pad2)*%
X159100000Y-61200000D03*
%TD*%
D15*
%TO.P,J2,1,Pin_1*%
%TO.N,/VCC*%
X140717800Y-57166600D03*
%TO.P,J2,2,Pin_2*%
X143257800Y-57166600D03*
D13*
%TO.P,J2,3,Pin_3*%
%TO.N,/Button*%
X145797800Y-57166600D03*
%TO.P,J2,4,Pin_4*%
%TO.N,/D11*%
X148337800Y-57166600D03*
%TO.P,J2,5,Pin_5*%
%TO.N,/ID_LED*%
X150877800Y-57166600D03*
%TO.P,J2,6,Pin_6*%
%TO.N,/LED*%
X153417800Y-57166600D03*
%TO.P,J2,7,Pin_7*%
%TO.N,unconnected-(J2-Pad7)*%
X155957800Y-57166600D03*
%TO.P,J2,8,Pin_8*%
%TO.N,unconnected-(J2-Pad8)*%
X158497800Y-57166600D03*
%TD*%
D16*
%TO.N,Net-(D1-Pad2)*%
X162235000Y-61200000D02*
X159100000Y-61200000D01*
%TO.N,Net-(D3-Pad2)*%
X159090000Y-69200000D02*
X162235000Y-69200000D01*
%TO.N,/Button*%
X134250000Y-66050000D02*
X140750000Y-66050000D01*
X140750000Y-66050000D02*
X145797800Y-61002200D01*
X145797800Y-61002200D02*
X145797800Y-57166600D01*
%TO.N,/RST*%
X145797800Y-77397800D02*
X145797800Y-81191600D01*
X134300000Y-72400000D02*
X140800000Y-72400000D01*
X140800000Y-72400000D02*
X145797800Y-77397800D01*
%TO.N,Net-(D2-Pad2)*%
X159120000Y-77300000D02*
X162235000Y-77300000D01*
%TO.N,/VCC*%
X148768257Y-55900000D02*
X144524400Y-55900000D01*
X157120000Y-77300000D02*
X155900000Y-76080000D01*
X144524400Y-55900000D02*
X143257800Y-57166600D01*
X149900000Y-58400000D02*
X149537800Y-58037800D01*
X151400000Y-58400000D02*
X149900000Y-58400000D01*
X155900000Y-62900000D02*
X151400000Y-58400000D01*
X149537800Y-58037800D02*
X149537800Y-56669543D01*
X155900000Y-76080000D02*
X155900000Y-62900000D01*
X140717800Y-57166600D02*
X143257800Y-57166600D01*
X149537800Y-56669543D02*
X148768257Y-55900000D01*
%TO.N,/LED*%
X157100000Y-61200000D02*
X155900000Y-61200000D01*
X153417800Y-58682200D02*
X153417800Y-57166600D01*
X153400000Y-58700000D02*
X153417800Y-58682200D01*
X155900000Y-61200000D02*
X153400000Y-58700000D01*
%TO.N,/ID_LED*%
X157090000Y-69200000D02*
X157090000Y-63378800D01*
X157090000Y-63378800D02*
X150877800Y-57166600D01*
%TD*%
%TA.AperFunction,Conductor*%
%TO.N,/GND*%
G36*
X176776421Y-53720102D02*
G01*
X176822914Y-53773758D01*
X176834300Y-53826100D01*
X176834300Y-84557100D01*
X176814298Y-84625221D01*
X176760642Y-84671714D01*
X176708300Y-84683100D01*
X120477300Y-84683100D01*
X120409179Y-84663098D01*
X120362686Y-84609442D01*
X120351300Y-84557100D01*
X120351300Y-81459566D01*
X139386057Y-81459566D01*
X139416365Y-81594046D01*
X139419445Y-81603875D01*
X139499570Y-81801203D01*
X139504213Y-81810394D01*
X139615494Y-81991988D01*
X139621577Y-82000299D01*
X139761013Y-82161267D01*
X139768380Y-82168483D01*
X139932234Y-82304516D01*
X139940681Y-82310431D01*
X140124556Y-82417879D01*
X140133842Y-82422329D01*
X140332801Y-82498303D01*
X140342699Y-82501179D01*
X140446050Y-82522206D01*
X140460099Y-82521010D01*
X140463800Y-82510665D01*
X140463800Y-82510117D01*
X140971800Y-82510117D01*
X140975864Y-82523959D01*
X140989278Y-82525993D01*
X140995984Y-82525134D01*
X141006062Y-82522992D01*
X141210055Y-82461791D01*
X141219642Y-82458033D01*
X141410895Y-82364339D01*
X141419745Y-82359064D01*
X141593128Y-82235392D01*
X141601000Y-82228739D01*
X141751852Y-82078412D01*
X141758530Y-82070565D01*
X141885822Y-81893419D01*
X141886947Y-81894227D01*
X141934469Y-81850476D01*
X142004407Y-81838261D01*
X142069846Y-81865797D01*
X142097670Y-81897628D01*
X142155490Y-81991983D01*
X142161577Y-82000299D01*
X142301013Y-82161267D01*
X142308380Y-82168483D01*
X142472234Y-82304516D01*
X142480681Y-82310431D01*
X142664556Y-82417879D01*
X142673842Y-82422329D01*
X142872801Y-82498303D01*
X142882699Y-82501179D01*
X142986050Y-82522206D01*
X143000099Y-82521010D01*
X143003800Y-82510665D01*
X143003800Y-81463715D01*
X142999325Y-81448476D01*
X142997935Y-81447271D01*
X142990252Y-81445600D01*
X140989915Y-81445600D01*
X140974676Y-81450075D01*
X140973471Y-81451465D01*
X140971800Y-81459148D01*
X140971800Y-82510117D01*
X140463800Y-82510117D01*
X140463800Y-81463715D01*
X140459325Y-81448476D01*
X140457935Y-81447271D01*
X140450252Y-81445600D01*
X139401025Y-81445600D01*
X139387494Y-81449573D01*
X139386057Y-81459566D01*
X120351300Y-81459566D01*
X120351300Y-80925783D01*
X139382189Y-80925783D01*
X139383712Y-80934207D01*
X139396092Y-80937600D01*
X140445685Y-80937600D01*
X140460924Y-80933125D01*
X140462129Y-80931735D01*
X140463800Y-80924052D01*
X140463800Y-80919485D01*
X140971800Y-80919485D01*
X140976275Y-80934724D01*
X140977665Y-80935929D01*
X140985348Y-80937600D01*
X142985685Y-80937600D01*
X143000924Y-80933125D01*
X143002129Y-80931735D01*
X143003800Y-80924052D01*
X143003800Y-79874702D01*
X142999882Y-79861358D01*
X142985606Y-79859371D01*
X142947124Y-79865260D01*
X142937088Y-79867651D01*
X142734668Y-79933812D01*
X142725159Y-79937809D01*
X142536263Y-80036142D01*
X142527538Y-80041636D01*
X142357233Y-80169505D01*
X142349526Y-80176348D01*
X142202390Y-80330317D01*
X142195904Y-80338327D01*
X142090993Y-80492121D01*
X142036082Y-80537124D01*
X141965557Y-80545295D01*
X141901810Y-80514041D01*
X141881113Y-80489557D01*
X141800227Y-80364526D01*
X141793936Y-80356357D01*
X141650606Y-80198840D01*
X141643073Y-80191815D01*
X141475939Y-80059822D01*
X141467352Y-80054117D01*
X141280917Y-79951199D01*
X141271505Y-79946969D01*
X141070759Y-79875880D01*
X141060788Y-79873246D01*
X140989637Y-79860572D01*
X140976340Y-79862032D01*
X140971800Y-79876589D01*
X140971800Y-80919485D01*
X140463800Y-80919485D01*
X140463800Y-79874702D01*
X140459882Y-79861358D01*
X140445606Y-79859371D01*
X140407124Y-79865260D01*
X140397088Y-79867651D01*
X140194668Y-79933812D01*
X140185159Y-79937809D01*
X139996263Y-80036142D01*
X139987538Y-80041636D01*
X139817233Y-80169505D01*
X139809526Y-80176348D01*
X139662390Y-80330317D01*
X139655904Y-80338327D01*
X139535898Y-80514249D01*
X139530800Y-80523223D01*
X139441138Y-80716383D01*
X139437575Y-80726070D01*
X139382189Y-80925783D01*
X120351300Y-80925783D01*
X120351300Y-78132670D01*
X133432160Y-78132670D01*
X133437887Y-78140320D01*
X133609042Y-78245205D01*
X133617837Y-78249687D01*
X133827988Y-78336734D01*
X133837373Y-78339783D01*
X134058554Y-78392885D01*
X134068301Y-78394428D01*
X134295070Y-78412275D01*
X134304930Y-78412275D01*
X134531699Y-78394428D01*
X134541446Y-78392885D01*
X134762627Y-78339783D01*
X134772012Y-78336734D01*
X134982163Y-78249687D01*
X134990958Y-78245205D01*
X135158445Y-78142568D01*
X135167400Y-78132670D01*
X139932160Y-78132670D01*
X139937887Y-78140320D01*
X140109042Y-78245205D01*
X140117837Y-78249687D01*
X140327988Y-78336734D01*
X140337373Y-78339783D01*
X140558554Y-78392885D01*
X140568301Y-78394428D01*
X140795070Y-78412275D01*
X140804930Y-78412275D01*
X141031699Y-78394428D01*
X141041446Y-78392885D01*
X141262627Y-78339783D01*
X141272012Y-78336734D01*
X141482163Y-78249687D01*
X141490958Y-78245205D01*
X141658445Y-78142568D01*
X141667907Y-78132110D01*
X141664124Y-78123334D01*
X140812812Y-77272022D01*
X140798868Y-77264408D01*
X140797035Y-77264539D01*
X140790420Y-77268790D01*
X139938920Y-78120290D01*
X139932160Y-78132670D01*
X135167400Y-78132670D01*
X135167907Y-78132110D01*
X135164124Y-78123334D01*
X134312812Y-77272022D01*
X134298868Y-77264408D01*
X134297035Y-77264539D01*
X134290420Y-77268790D01*
X133438920Y-78120290D01*
X133432160Y-78132670D01*
X120351300Y-78132670D01*
X120351300Y-76904930D01*
X132787725Y-76904930D01*
X132805572Y-77131699D01*
X132807115Y-77141446D01*
X132860217Y-77362627D01*
X132863266Y-77372012D01*
X132950313Y-77582163D01*
X132954795Y-77590958D01*
X133057432Y-77758445D01*
X133067890Y-77767907D01*
X133076666Y-77764124D01*
X133927978Y-76912812D01*
X133934356Y-76901132D01*
X134664408Y-76901132D01*
X134664539Y-76902965D01*
X134668790Y-76909580D01*
X135520290Y-77761080D01*
X135532670Y-77767840D01*
X135540320Y-77762113D01*
X135645205Y-77590958D01*
X135649687Y-77582163D01*
X135736734Y-77372012D01*
X135739783Y-77362627D01*
X135792885Y-77141446D01*
X135794428Y-77131699D01*
X135812275Y-76904930D01*
X139287725Y-76904930D01*
X139305572Y-77131699D01*
X139307115Y-77141446D01*
X139360217Y-77362627D01*
X139363266Y-77372012D01*
X139450313Y-77582163D01*
X139454795Y-77590958D01*
X139557432Y-77758445D01*
X139567890Y-77767907D01*
X139576666Y-77764124D01*
X140427978Y-76912812D01*
X140434356Y-76901132D01*
X141164408Y-76901132D01*
X141164539Y-76902965D01*
X141168790Y-76909580D01*
X142020290Y-77761080D01*
X142032670Y-77767840D01*
X142040320Y-77762113D01*
X142145205Y-77590958D01*
X142149687Y-77582163D01*
X142236734Y-77372012D01*
X142239783Y-77362627D01*
X142292885Y-77141446D01*
X142294428Y-77131699D01*
X142312275Y-76904930D01*
X142312275Y-76895070D01*
X142294428Y-76668301D01*
X142292885Y-76658554D01*
X142239783Y-76437373D01*
X142236734Y-76427988D01*
X142149687Y-76217837D01*
X142145205Y-76209042D01*
X142042568Y-76041555D01*
X142032110Y-76032093D01*
X142023334Y-76035876D01*
X141172022Y-76887188D01*
X141164408Y-76901132D01*
X140434356Y-76901132D01*
X140435592Y-76898868D01*
X140435461Y-76897035D01*
X140431210Y-76890420D01*
X139579710Y-76038920D01*
X139567330Y-76032160D01*
X139559680Y-76037887D01*
X139454795Y-76209042D01*
X139450313Y-76217837D01*
X139363266Y-76427988D01*
X139360217Y-76437373D01*
X139307115Y-76658554D01*
X139305572Y-76668301D01*
X139287725Y-76895070D01*
X139287725Y-76904930D01*
X135812275Y-76904930D01*
X135812275Y-76895070D01*
X135794428Y-76668301D01*
X135792885Y-76658554D01*
X135739783Y-76437373D01*
X135736734Y-76427988D01*
X135649687Y-76217837D01*
X135645205Y-76209042D01*
X135542568Y-76041555D01*
X135532110Y-76032093D01*
X135523334Y-76035876D01*
X134672022Y-76887188D01*
X134664408Y-76901132D01*
X133934356Y-76901132D01*
X133935592Y-76898868D01*
X133935461Y-76897035D01*
X133931210Y-76890420D01*
X133079710Y-76038920D01*
X133067330Y-76032160D01*
X133059680Y-76037887D01*
X132954795Y-76209042D01*
X132950313Y-76217837D01*
X132863266Y-76427988D01*
X132860217Y-76437373D01*
X132807115Y-76658554D01*
X132805572Y-76668301D01*
X132787725Y-76895070D01*
X132787725Y-76904930D01*
X120351300Y-76904930D01*
X120351300Y-75667890D01*
X133432093Y-75667890D01*
X133435876Y-75676666D01*
X134287188Y-76527978D01*
X134301132Y-76535592D01*
X134302965Y-76535461D01*
X134309580Y-76531210D01*
X135161080Y-75679710D01*
X135167534Y-75667890D01*
X139932093Y-75667890D01*
X139935876Y-75676666D01*
X140787188Y-76527978D01*
X140801132Y-76535592D01*
X140802965Y-76535461D01*
X140809580Y-76531210D01*
X141661080Y-75679710D01*
X141667840Y-75667330D01*
X141662113Y-75659680D01*
X141490958Y-75554795D01*
X141482163Y-75550313D01*
X141272012Y-75463266D01*
X141262627Y-75460217D01*
X141041446Y-75407115D01*
X141031699Y-75405572D01*
X140804930Y-75387725D01*
X140795070Y-75387725D01*
X140568301Y-75405572D01*
X140558554Y-75407115D01*
X140337373Y-75460217D01*
X140327988Y-75463266D01*
X140117837Y-75550313D01*
X140109042Y-75554795D01*
X139941555Y-75657432D01*
X139932093Y-75667890D01*
X135167534Y-75667890D01*
X135167840Y-75667330D01*
X135162113Y-75659680D01*
X134990958Y-75554795D01*
X134982163Y-75550313D01*
X134772012Y-75463266D01*
X134762627Y-75460217D01*
X134541446Y-75407115D01*
X134531699Y-75405572D01*
X134304930Y-75387725D01*
X134295070Y-75387725D01*
X134068301Y-75405572D01*
X134058554Y-75407115D01*
X133837373Y-75460217D01*
X133827988Y-75463266D01*
X133617837Y-75550313D01*
X133609042Y-75554795D01*
X133441555Y-75657432D01*
X133432093Y-75667890D01*
X120351300Y-75667890D01*
X120351300Y-72400000D01*
X132786835Y-72400000D01*
X132805465Y-72636711D01*
X132860895Y-72867594D01*
X132951760Y-73086963D01*
X132954346Y-73091183D01*
X133073241Y-73285202D01*
X133073245Y-73285208D01*
X133075824Y-73289416D01*
X133230031Y-73469969D01*
X133410584Y-73624176D01*
X133414792Y-73626755D01*
X133414798Y-73626759D01*
X133608817Y-73745654D01*
X133613037Y-73748240D01*
X133617607Y-73750133D01*
X133617611Y-73750135D01*
X133827833Y-73837211D01*
X133832406Y-73839105D01*
X133912609Y-73858360D01*
X134058476Y-73893380D01*
X134058482Y-73893381D01*
X134063289Y-73894535D01*
X134300000Y-73913165D01*
X134536711Y-73894535D01*
X134541518Y-73893381D01*
X134541524Y-73893380D01*
X134687391Y-73858360D01*
X134767594Y-73839105D01*
X134772167Y-73837211D01*
X134982389Y-73750135D01*
X134982393Y-73750133D01*
X134986963Y-73748240D01*
X134991183Y-73745654D01*
X135185202Y-73626759D01*
X135185208Y-73626755D01*
X135189416Y-73624176D01*
X135369969Y-73469969D01*
X135524176Y-73289416D01*
X135526758Y-73285202D01*
X135526765Y-73285193D01*
X135628814Y-73118665D01*
X135681461Y-73071034D01*
X135736246Y-73058500D01*
X139363754Y-73058500D01*
X139431875Y-73078502D01*
X139471186Y-73118665D01*
X139573235Y-73285193D01*
X139573242Y-73285202D01*
X139575824Y-73289416D01*
X139730031Y-73469969D01*
X139910584Y-73624176D01*
X139914792Y-73626755D01*
X139914798Y-73626759D01*
X140108817Y-73745654D01*
X140113037Y-73748240D01*
X140117607Y-73750133D01*
X140117611Y-73750135D01*
X140327833Y-73837211D01*
X140332406Y-73839105D01*
X140412609Y-73858360D01*
X140558476Y-73893380D01*
X140558482Y-73893381D01*
X140563289Y-73894535D01*
X140800000Y-73913165D01*
X141036711Y-73894535D01*
X141041518Y-73893381D01*
X141041524Y-73893380D01*
X141231440Y-73847785D01*
X141302348Y-73851332D01*
X141349949Y-73881209D01*
X145102395Y-77633655D01*
X145136421Y-77695967D01*
X145139300Y-77722750D01*
X145139300Y-79926305D01*
X145119298Y-79994426D01*
X145079241Y-80031172D01*
X145080370Y-80032964D01*
X145076000Y-80035716D01*
X145071407Y-80038107D01*
X144892765Y-80172235D01*
X144738429Y-80333738D01*
X144735520Y-80338003D01*
X144735514Y-80338011D01*
X144723204Y-80356057D01*
X144631004Y-80491218D01*
X144630698Y-80491666D01*
X144575787Y-80536669D01*
X144505262Y-80544840D01*
X144441515Y-80513586D01*
X144420818Y-80489102D01*
X144340226Y-80364526D01*
X144333936Y-80356357D01*
X144190606Y-80198840D01*
X144183073Y-80191815D01*
X144015939Y-80059822D01*
X144007352Y-80054117D01*
X143820917Y-79951199D01*
X143811505Y-79946969D01*
X143610759Y-79875880D01*
X143600788Y-79873246D01*
X143529637Y-79860572D01*
X143516340Y-79862032D01*
X143511800Y-79876589D01*
X143511800Y-82510117D01*
X143515864Y-82523959D01*
X143529278Y-82525993D01*
X143535984Y-82525134D01*
X143546062Y-82522992D01*
X143750055Y-82461791D01*
X143759642Y-82458033D01*
X143950895Y-82364339D01*
X143959745Y-82359064D01*
X144133128Y-82235392D01*
X144141000Y-82228739D01*
X144291852Y-82078412D01*
X144298530Y-82070565D01*
X144425822Y-81893419D01*
X144427079Y-81894322D01*
X144474173Y-81850962D01*
X144544111Y-81838745D01*
X144609551Y-81866278D01*
X144637379Y-81898111D01*
X144697787Y-81996688D01*
X144844050Y-82165538D01*
X145015926Y-82308232D01*
X145208800Y-82420938D01*
X145417492Y-82500630D01*
X145422560Y-82501661D01*
X145422563Y-82501662D01*
X145517662Y-82521010D01*
X145636397Y-82545167D01*
X145641572Y-82545357D01*
X145641574Y-82545357D01*
X145854473Y-82553164D01*
X145854477Y-82553164D01*
X145859637Y-82553353D01*
X145864757Y-82552697D01*
X145864759Y-82552697D01*
X146076088Y-82525625D01*
X146076089Y-82525625D01*
X146081216Y-82524968D01*
X146086166Y-82523483D01*
X146290229Y-82462261D01*
X146290234Y-82462259D01*
X146295184Y-82460774D01*
X146495794Y-82362496D01*
X146677660Y-82232773D01*
X146835896Y-82075089D01*
X146966253Y-81893677D01*
X146967576Y-81894628D01*
X147014445Y-81851457D01*
X147084380Y-81839225D01*
X147149826Y-81866744D01*
X147177675Y-81898594D01*
X147237787Y-81996688D01*
X147384050Y-82165538D01*
X147555926Y-82308232D01*
X147748800Y-82420938D01*
X147957492Y-82500630D01*
X147962560Y-82501661D01*
X147962563Y-82501662D01*
X148057662Y-82521010D01*
X148176397Y-82545167D01*
X148181572Y-82545357D01*
X148181574Y-82545357D01*
X148394473Y-82553164D01*
X148394477Y-82553164D01*
X148399637Y-82553353D01*
X148404757Y-82552697D01*
X148404759Y-82552697D01*
X148616088Y-82525625D01*
X148616089Y-82525625D01*
X148621216Y-82524968D01*
X148626166Y-82523483D01*
X148830229Y-82462261D01*
X148830234Y-82462259D01*
X148835184Y-82460774D01*
X149035794Y-82362496D01*
X149217660Y-82232773D01*
X149375896Y-82075089D01*
X149506253Y-81893677D01*
X149507576Y-81894628D01*
X149554445Y-81851457D01*
X149624380Y-81839225D01*
X149689826Y-81866744D01*
X149717675Y-81898594D01*
X149777787Y-81996688D01*
X149924050Y-82165538D01*
X150095926Y-82308232D01*
X150288800Y-82420938D01*
X150497492Y-82500630D01*
X150502560Y-82501661D01*
X150502563Y-82501662D01*
X150597662Y-82521010D01*
X150716397Y-82545167D01*
X150721572Y-82545357D01*
X150721574Y-82545357D01*
X150934473Y-82553164D01*
X150934477Y-82553164D01*
X150939637Y-82553353D01*
X150944757Y-82552697D01*
X150944759Y-82552697D01*
X151156088Y-82525625D01*
X151156089Y-82525625D01*
X151161216Y-82524968D01*
X151166166Y-82523483D01*
X151370229Y-82462261D01*
X151370234Y-82462259D01*
X151375184Y-82460774D01*
X151575794Y-82362496D01*
X151757660Y-82232773D01*
X151915896Y-82075089D01*
X152046253Y-81893677D01*
X152047576Y-81894628D01*
X152094445Y-81851457D01*
X152164380Y-81839225D01*
X152229826Y-81866744D01*
X152257675Y-81898594D01*
X152317787Y-81996688D01*
X152464050Y-82165538D01*
X152635926Y-82308232D01*
X152828800Y-82420938D01*
X153037492Y-82500630D01*
X153042560Y-82501661D01*
X153042563Y-82501662D01*
X153137662Y-82521010D01*
X153256397Y-82545167D01*
X153261572Y-82545357D01*
X153261574Y-82545357D01*
X153474473Y-82553164D01*
X153474477Y-82553164D01*
X153479637Y-82553353D01*
X153484757Y-82552697D01*
X153484759Y-82552697D01*
X153696088Y-82525625D01*
X153696089Y-82525625D01*
X153701216Y-82524968D01*
X153706166Y-82523483D01*
X153910229Y-82462261D01*
X153910234Y-82462259D01*
X153915184Y-82460774D01*
X154115794Y-82362496D01*
X154297660Y-82232773D01*
X154455896Y-82075089D01*
X154586253Y-81893677D01*
X154587576Y-81894628D01*
X154634445Y-81851457D01*
X154704380Y-81839225D01*
X154769826Y-81866744D01*
X154797675Y-81898594D01*
X154857787Y-81996688D01*
X155004050Y-82165538D01*
X155175926Y-82308232D01*
X155368800Y-82420938D01*
X155577492Y-82500630D01*
X155582560Y-82501661D01*
X155582563Y-82501662D01*
X155677662Y-82521010D01*
X155796397Y-82545167D01*
X155801572Y-82545357D01*
X155801574Y-82545357D01*
X156014473Y-82553164D01*
X156014477Y-82553164D01*
X156019637Y-82553353D01*
X156024757Y-82552697D01*
X156024759Y-82552697D01*
X156236088Y-82525625D01*
X156236089Y-82525625D01*
X156241216Y-82524968D01*
X156246166Y-82523483D01*
X156450229Y-82462261D01*
X156450234Y-82462259D01*
X156455184Y-82460774D01*
X156655794Y-82362496D01*
X156837660Y-82232773D01*
X156995896Y-82075089D01*
X157126253Y-81893677D01*
X157127576Y-81894628D01*
X157174445Y-81851457D01*
X157244380Y-81839225D01*
X157309826Y-81866744D01*
X157337675Y-81898594D01*
X157397787Y-81996688D01*
X157544050Y-82165538D01*
X157715926Y-82308232D01*
X157908800Y-82420938D01*
X158117492Y-82500630D01*
X158122560Y-82501661D01*
X158122563Y-82501662D01*
X158217662Y-82521010D01*
X158336397Y-82545167D01*
X158341572Y-82545357D01*
X158341574Y-82545357D01*
X158554473Y-82553164D01*
X158554477Y-82553164D01*
X158559637Y-82553353D01*
X158564757Y-82552697D01*
X158564759Y-82552697D01*
X158776088Y-82525625D01*
X158776089Y-82525625D01*
X158781216Y-82524968D01*
X158786166Y-82523483D01*
X158990229Y-82462261D01*
X158990234Y-82462259D01*
X158995184Y-82460774D01*
X159195794Y-82362496D01*
X159377660Y-82232773D01*
X159535896Y-82075089D01*
X159666253Y-81893677D01*
X159679795Y-81866278D01*
X159762936Y-81698053D01*
X159762937Y-81698051D01*
X159765230Y-81693411D01*
X159830170Y-81479669D01*
X159859329Y-81258190D01*
X159860956Y-81191600D01*
X159842652Y-80968961D01*
X159788231Y-80752302D01*
X159699154Y-80547440D01*
X159577814Y-80359877D01*
X159427470Y-80194651D01*
X159423419Y-80191452D01*
X159423415Y-80191448D01*
X159256214Y-80059400D01*
X159256210Y-80059398D01*
X159252159Y-80056198D01*
X159215828Y-80036142D01*
X159199936Y-80027369D01*
X159056589Y-79948238D01*
X159051720Y-79946514D01*
X159051716Y-79946512D01*
X158850887Y-79875395D01*
X158850883Y-79875394D01*
X158846012Y-79873669D01*
X158840919Y-79872762D01*
X158840916Y-79872761D01*
X158631173Y-79835400D01*
X158631167Y-79835399D01*
X158626084Y-79834494D01*
X158552252Y-79833592D01*
X158407881Y-79831828D01*
X158407879Y-79831828D01*
X158402711Y-79831765D01*
X158181891Y-79865555D01*
X157969556Y-79934957D01*
X157891255Y-79975718D01*
X157781287Y-80032964D01*
X157771407Y-80038107D01*
X157767274Y-80041210D01*
X157767271Y-80041212D01*
X157743047Y-80059400D01*
X157592765Y-80172235D01*
X157438429Y-80333738D01*
X157331001Y-80491221D01*
X157276093Y-80536221D01*
X157205568Y-80544392D01*
X157141821Y-80513138D01*
X157121124Y-80488654D01*
X157040622Y-80364217D01*
X157040620Y-80364214D01*
X157037814Y-80359877D01*
X156887470Y-80194651D01*
X156883419Y-80191452D01*
X156883415Y-80191448D01*
X156716214Y-80059400D01*
X156716210Y-80059398D01*
X156712159Y-80056198D01*
X156675828Y-80036142D01*
X156659936Y-80027369D01*
X156516589Y-79948238D01*
X156511720Y-79946514D01*
X156511716Y-79946512D01*
X156310887Y-79875395D01*
X156310883Y-79875394D01*
X156306012Y-79873669D01*
X156300919Y-79872762D01*
X156300916Y-79872761D01*
X156091173Y-79835400D01*
X156091167Y-79835399D01*
X156086084Y-79834494D01*
X156012252Y-79833592D01*
X155867881Y-79831828D01*
X155867879Y-79831828D01*
X155862711Y-79831765D01*
X155641891Y-79865555D01*
X155429556Y-79934957D01*
X155351255Y-79975718D01*
X155241287Y-80032964D01*
X155231407Y-80038107D01*
X155227274Y-80041210D01*
X155227271Y-80041212D01*
X155203047Y-80059400D01*
X155052765Y-80172235D01*
X154898429Y-80333738D01*
X154791001Y-80491221D01*
X154736093Y-80536221D01*
X154665568Y-80544392D01*
X154601821Y-80513138D01*
X154581124Y-80488654D01*
X154500622Y-80364217D01*
X154500620Y-80364214D01*
X154497814Y-80359877D01*
X154347470Y-80194651D01*
X154343419Y-80191452D01*
X154343415Y-80191448D01*
X154176214Y-80059400D01*
X154176210Y-80059398D01*
X154172159Y-80056198D01*
X154135828Y-80036142D01*
X154119936Y-80027369D01*
X153976589Y-79948238D01*
X153971720Y-79946514D01*
X153971716Y-79946512D01*
X153770887Y-79875395D01*
X153770883Y-79875394D01*
X153766012Y-79873669D01*
X153760919Y-79872762D01*
X153760916Y-79872761D01*
X153551173Y-79835400D01*
X153551167Y-79835399D01*
X153546084Y-79834494D01*
X153472252Y-79833592D01*
X153327881Y-79831828D01*
X153327879Y-79831828D01*
X153322711Y-79831765D01*
X153101891Y-79865555D01*
X152889556Y-79934957D01*
X152811255Y-79975718D01*
X152701287Y-80032964D01*
X152691407Y-80038107D01*
X152687274Y-80041210D01*
X152687271Y-80041212D01*
X152663047Y-80059400D01*
X152512765Y-80172235D01*
X152358429Y-80333738D01*
X152251001Y-80491221D01*
X152196093Y-80536221D01*
X152125568Y-80544392D01*
X152061821Y-80513138D01*
X152041124Y-80488654D01*
X151960622Y-80364217D01*
X151960620Y-80364214D01*
X151957814Y-80359877D01*
X151807470Y-80194651D01*
X151803419Y-80191452D01*
X151803415Y-80191448D01*
X151636214Y-80059400D01*
X151636210Y-80059398D01*
X151632159Y-80056198D01*
X151595828Y-80036142D01*
X151579936Y-80027369D01*
X151436589Y-79948238D01*
X151431720Y-79946514D01*
X151431716Y-79946512D01*
X151230887Y-79875395D01*
X151230883Y-79875394D01*
X151226012Y-79873669D01*
X151220919Y-79872762D01*
X151220916Y-79872761D01*
X151011173Y-79835400D01*
X151011167Y-79835399D01*
X151006084Y-79834494D01*
X150932252Y-79833592D01*
X150787881Y-79831828D01*
X150787879Y-79831828D01*
X150782711Y-79831765D01*
X150561891Y-79865555D01*
X150349556Y-79934957D01*
X150271255Y-79975718D01*
X150161287Y-80032964D01*
X150151407Y-80038107D01*
X150147274Y-80041210D01*
X150147271Y-80041212D01*
X150123047Y-80059400D01*
X149972765Y-80172235D01*
X149818429Y-80333738D01*
X149711001Y-80491221D01*
X149656093Y-80536221D01*
X149585568Y-80544392D01*
X149521821Y-80513138D01*
X149501124Y-80488654D01*
X149420622Y-80364217D01*
X149420620Y-80364214D01*
X149417814Y-80359877D01*
X149267470Y-80194651D01*
X149263419Y-80191452D01*
X149263415Y-80191448D01*
X149096214Y-80059400D01*
X149096210Y-80059398D01*
X149092159Y-80056198D01*
X149055828Y-80036142D01*
X149039936Y-80027369D01*
X148896589Y-79948238D01*
X148891720Y-79946514D01*
X148891716Y-79946512D01*
X148690887Y-79875395D01*
X148690883Y-79875394D01*
X148686012Y-79873669D01*
X148680919Y-79872762D01*
X148680916Y-79872761D01*
X148471173Y-79835400D01*
X148471167Y-79835399D01*
X148466084Y-79834494D01*
X148392252Y-79833592D01*
X148247881Y-79831828D01*
X148247879Y-79831828D01*
X148242711Y-79831765D01*
X148021891Y-79865555D01*
X147809556Y-79934957D01*
X147731255Y-79975718D01*
X147621287Y-80032964D01*
X147611407Y-80038107D01*
X147607274Y-80041210D01*
X147607271Y-80041212D01*
X147583047Y-80059400D01*
X147432765Y-80172235D01*
X147278429Y-80333738D01*
X147171001Y-80491221D01*
X147116093Y-80536221D01*
X147045568Y-80544392D01*
X146981821Y-80513138D01*
X146961124Y-80488654D01*
X146880622Y-80364217D01*
X146880620Y-80364214D01*
X146877814Y-80359877D01*
X146727470Y-80194651D01*
X146723419Y-80191452D01*
X146723415Y-80191448D01*
X146556212Y-80059399D01*
X146552159Y-80056198D01*
X146547641Y-80053704D01*
X146547635Y-80053700D01*
X146521405Y-80039220D01*
X146471435Y-79988787D01*
X146456300Y-79928912D01*
X146456300Y-77479860D01*
X146456859Y-77468003D01*
X146458589Y-77460263D01*
X146456362Y-77389399D01*
X146456300Y-77385441D01*
X146456300Y-77356368D01*
X146455747Y-77351989D01*
X146454814Y-77340146D01*
X146453612Y-77301889D01*
X146453612Y-77301888D01*
X146453363Y-77293969D01*
X146447379Y-77273371D01*
X146443371Y-77254018D01*
X146442932Y-77250543D01*
X146440682Y-77232736D01*
X146423675Y-77189782D01*
X146419829Y-77178547D01*
X146409158Y-77141816D01*
X146409157Y-77141813D01*
X146406945Y-77134200D01*
X146396025Y-77115735D01*
X146387334Y-77097995D01*
X146379435Y-77078044D01*
X146352282Y-77040671D01*
X146345767Y-77030752D01*
X146326293Y-76997823D01*
X146326290Y-76997819D01*
X146322253Y-76990993D01*
X146307089Y-76975829D01*
X146294248Y-76960795D01*
X146286301Y-76949857D01*
X146281641Y-76943443D01*
X146246047Y-76913997D01*
X146237268Y-76906008D01*
X142281209Y-72949949D01*
X142247183Y-72887637D01*
X142247785Y-72831440D01*
X142293380Y-72641524D01*
X142293381Y-72641518D01*
X142294535Y-72636711D01*
X142313165Y-72400000D01*
X142294535Y-72163289D01*
X142239105Y-71932406D01*
X142148240Y-71713037D01*
X142128813Y-71681335D01*
X142026759Y-71514798D01*
X142026755Y-71514792D01*
X142024176Y-71510584D01*
X141869969Y-71330031D01*
X141689416Y-71175824D01*
X141685208Y-71173245D01*
X141685202Y-71173241D01*
X141491183Y-71054346D01*
X141486963Y-71051760D01*
X141482393Y-71049867D01*
X141482389Y-71049865D01*
X141272167Y-70962789D01*
X141272165Y-70962788D01*
X141267594Y-70960895D01*
X141187391Y-70941640D01*
X141041524Y-70906620D01*
X141041518Y-70906619D01*
X141036711Y-70905465D01*
X140800000Y-70886835D01*
X140563289Y-70905465D01*
X140558482Y-70906619D01*
X140558476Y-70906620D01*
X140412609Y-70941640D01*
X140332406Y-70960895D01*
X140327835Y-70962788D01*
X140327833Y-70962789D01*
X140117611Y-71049865D01*
X140117607Y-71049867D01*
X140113037Y-71051760D01*
X140108817Y-71054346D01*
X139914798Y-71173241D01*
X139914792Y-71173245D01*
X139910584Y-71175824D01*
X139730031Y-71330031D01*
X139575824Y-71510584D01*
X139573242Y-71514797D01*
X139573235Y-71514807D01*
X139471186Y-71681335D01*
X139418539Y-71728966D01*
X139363754Y-71741500D01*
X135736246Y-71741500D01*
X135668125Y-71721498D01*
X135628814Y-71681335D01*
X135526765Y-71514807D01*
X135526758Y-71514797D01*
X135524176Y-71510584D01*
X135369969Y-71330031D01*
X135189416Y-71175824D01*
X135185208Y-71173245D01*
X135185202Y-71173241D01*
X134991183Y-71054346D01*
X134986963Y-71051760D01*
X134982393Y-71049867D01*
X134982389Y-71049865D01*
X134772167Y-70962789D01*
X134772165Y-70962788D01*
X134767594Y-70960895D01*
X134687391Y-70941640D01*
X134541524Y-70906620D01*
X134541518Y-70906619D01*
X134536711Y-70905465D01*
X134300000Y-70886835D01*
X134063289Y-70905465D01*
X134058482Y-70906619D01*
X134058476Y-70906620D01*
X133912609Y-70941640D01*
X133832406Y-70960895D01*
X133827835Y-70962788D01*
X133827833Y-70962789D01*
X133617611Y-71049865D01*
X133617607Y-71049867D01*
X133613037Y-71051760D01*
X133608817Y-71054346D01*
X133414798Y-71173241D01*
X133414792Y-71173245D01*
X133410584Y-71175824D01*
X133230031Y-71330031D01*
X133075824Y-71510584D01*
X133073245Y-71514792D01*
X133073241Y-71514798D01*
X132971187Y-71681335D01*
X132951760Y-71713037D01*
X132860895Y-71932406D01*
X132805465Y-72163289D01*
X132786835Y-72400000D01*
X120351300Y-72400000D01*
X120351300Y-66050000D01*
X132736835Y-66050000D01*
X132755465Y-66286711D01*
X132810895Y-66517594D01*
X132901760Y-66736963D01*
X132904346Y-66741183D01*
X133023241Y-66935202D01*
X133023245Y-66935208D01*
X133025824Y-66939416D01*
X133180031Y-67119969D01*
X133360584Y-67274176D01*
X133364792Y-67276755D01*
X133364798Y-67276759D01*
X133558817Y-67395654D01*
X133563037Y-67398240D01*
X133567607Y-67400133D01*
X133567611Y-67400135D01*
X133777833Y-67487211D01*
X133782406Y-67489105D01*
X133862609Y-67508360D01*
X134008476Y-67543380D01*
X134008482Y-67543381D01*
X134013289Y-67544535D01*
X134250000Y-67563165D01*
X134486711Y-67544535D01*
X134491518Y-67543381D01*
X134491524Y-67543380D01*
X134637391Y-67508360D01*
X134717594Y-67489105D01*
X134722167Y-67487211D01*
X134932389Y-67400135D01*
X134932393Y-67400133D01*
X134936963Y-67398240D01*
X134941183Y-67395654D01*
X135135202Y-67276759D01*
X135135208Y-67276755D01*
X135139416Y-67274176D01*
X135319969Y-67119969D01*
X135474176Y-66939416D01*
X135476758Y-66935202D01*
X135476765Y-66935193D01*
X135578814Y-66768665D01*
X135631461Y-66721034D01*
X135686246Y-66708500D01*
X139313754Y-66708500D01*
X139381875Y-66728502D01*
X139421186Y-66768665D01*
X139523235Y-66935193D01*
X139523242Y-66935202D01*
X139525824Y-66939416D01*
X139680031Y-67119969D01*
X139860584Y-67274176D01*
X139864792Y-67276755D01*
X139864798Y-67276759D01*
X140058817Y-67395654D01*
X140063037Y-67398240D01*
X140067607Y-67400133D01*
X140067611Y-67400135D01*
X140277833Y-67487211D01*
X140282406Y-67489105D01*
X140362609Y-67508360D01*
X140508476Y-67543380D01*
X140508482Y-67543381D01*
X140513289Y-67544535D01*
X140750000Y-67563165D01*
X140986711Y-67544535D01*
X140991518Y-67543381D01*
X140991524Y-67543380D01*
X141137391Y-67508360D01*
X141217594Y-67489105D01*
X141222167Y-67487211D01*
X141432389Y-67400135D01*
X141432393Y-67400133D01*
X141436963Y-67398240D01*
X141441183Y-67395654D01*
X141635202Y-67276759D01*
X141635208Y-67276755D01*
X141639416Y-67274176D01*
X141819969Y-67119969D01*
X141974176Y-66939416D01*
X141976755Y-66935208D01*
X141976759Y-66935202D01*
X142095654Y-66741183D01*
X142098240Y-66736963D01*
X142189105Y-66517594D01*
X142244535Y-66286711D01*
X142263165Y-66050000D01*
X142244535Y-65813289D01*
X142197785Y-65618560D01*
X142201332Y-65547652D01*
X142231209Y-65500051D01*
X146205405Y-61525855D01*
X146214185Y-61517865D01*
X146214187Y-61517863D01*
X146220880Y-61513616D01*
X146269405Y-61461942D01*
X146272159Y-61459101D01*
X146292727Y-61438533D01*
X146295447Y-61435026D01*
X146303153Y-61426004D01*
X146329346Y-61398111D01*
X146334772Y-61392333D01*
X146338590Y-61385388D01*
X146338593Y-61385384D01*
X146345100Y-61373547D01*
X146355957Y-61357018D01*
X146364246Y-61346332D01*
X146369104Y-61340069D01*
X146387459Y-61297655D01*
X146392673Y-61287012D01*
X146411104Y-61253486D01*
X146411104Y-61253485D01*
X146414924Y-61246537D01*
X146416895Y-61238860D01*
X146416897Y-61238855D01*
X146420255Y-61225774D01*
X146426661Y-61207062D01*
X146432033Y-61194648D01*
X146435180Y-61187377D01*
X146442408Y-61141741D01*
X146444812Y-61130130D01*
X146456300Y-61085388D01*
X146456300Y-61063942D01*
X146457851Y-61044232D01*
X146459966Y-61030878D01*
X146459966Y-61030877D01*
X146461206Y-61023048D01*
X146456859Y-60977059D01*
X146456300Y-60965204D01*
X146456300Y-58430561D01*
X146476302Y-58362440D01*
X146509132Y-58327982D01*
X146542538Y-58304154D01*
X146677660Y-58207773D01*
X146835896Y-58050089D01*
X146966253Y-57868677D01*
X146967576Y-57869628D01*
X147014445Y-57826457D01*
X147084380Y-57814225D01*
X147149826Y-57841744D01*
X147177675Y-57873594D01*
X147237787Y-57971688D01*
X147384050Y-58140538D01*
X147555926Y-58283232D01*
X147748800Y-58395938D01*
X147753625Y-58397780D01*
X147753626Y-58397781D01*
X147779431Y-58407635D01*
X147957492Y-58475630D01*
X147962560Y-58476661D01*
X147962563Y-58476662D01*
X148038724Y-58492157D01*
X148176397Y-58520167D01*
X148181572Y-58520357D01*
X148181574Y-58520357D01*
X148394473Y-58528164D01*
X148394477Y-58528164D01*
X148399637Y-58528353D01*
X148404757Y-58527697D01*
X148404759Y-58527697D01*
X148616088Y-58500625D01*
X148616089Y-58500625D01*
X148621216Y-58499968D01*
X148698899Y-58476662D01*
X148830231Y-58437260D01*
X148835184Y-58435774D01*
X148839824Y-58433501D01*
X148839834Y-58433497D01*
X148868114Y-58419642D01*
X148938088Y-58407635D01*
X149003445Y-58435365D01*
X149012887Y-58445067D01*
X149013347Y-58444607D01*
X149028511Y-58459771D01*
X149041351Y-58474804D01*
X149053959Y-58492157D01*
X149068222Y-58503956D01*
X149089552Y-58521602D01*
X149098332Y-58529592D01*
X149376345Y-58807605D01*
X149384335Y-58816385D01*
X149388584Y-58823080D01*
X149394362Y-58828506D01*
X149394363Y-58828507D01*
X149440257Y-58871604D01*
X149443099Y-58874359D01*
X149463667Y-58894927D01*
X149467170Y-58897644D01*
X149476195Y-58905352D01*
X149509867Y-58936972D01*
X149516818Y-58940793D01*
X149516819Y-58940794D01*
X149528658Y-58947303D01*
X149545182Y-58958157D01*
X149555865Y-58966443D01*
X149562132Y-58971304D01*
X149569407Y-58974452D01*
X149604536Y-58989654D01*
X149615181Y-58994869D01*
X149655663Y-59017124D01*
X149663337Y-59019094D01*
X149663344Y-59019097D01*
X149676426Y-59022455D01*
X149695134Y-59028860D01*
X149714823Y-59037380D01*
X149722649Y-59038619D01*
X149722651Y-59038620D01*
X149747159Y-59042501D01*
X149760459Y-59044608D01*
X149772070Y-59047012D01*
X149803107Y-59054981D01*
X149809135Y-59056529D01*
X149809136Y-59056529D01*
X149816812Y-59058500D01*
X149838258Y-59058500D01*
X149857968Y-59060051D01*
X149871322Y-59062166D01*
X149871323Y-59062166D01*
X149879152Y-59063406D01*
X149925141Y-59059059D01*
X149936996Y-59058500D01*
X151075050Y-59058500D01*
X151143171Y-59078502D01*
X151164145Y-59095405D01*
X155204595Y-63135855D01*
X155238621Y-63198167D01*
X155241500Y-63224950D01*
X155241500Y-75997944D01*
X155240941Y-76009800D01*
X155239212Y-76017537D01*
X155239461Y-76025459D01*
X155241438Y-76088369D01*
X155241500Y-76092327D01*
X155241500Y-76121432D01*
X155242056Y-76125832D01*
X155242988Y-76137664D01*
X155244438Y-76183831D01*
X155246650Y-76191444D01*
X155246650Y-76191445D01*
X155250419Y-76204416D01*
X155254430Y-76223782D01*
X155257118Y-76245064D01*
X155260034Y-76252429D01*
X155260035Y-76252433D01*
X155274126Y-76288021D01*
X155277965Y-76299231D01*
X155290855Y-76343600D01*
X155301775Y-76362065D01*
X155310466Y-76379805D01*
X155318365Y-76399756D01*
X155329322Y-76414837D01*
X155345516Y-76437126D01*
X155352033Y-76447048D01*
X155371507Y-76479977D01*
X155371510Y-76479981D01*
X155375547Y-76486807D01*
X155390711Y-76501971D01*
X155403551Y-76517004D01*
X155416159Y-76534357D01*
X155441569Y-76555378D01*
X155451752Y-76563802D01*
X155460532Y-76571792D01*
X155974595Y-77085855D01*
X156008621Y-77148167D01*
X156011500Y-77174950D01*
X156011500Y-77800400D01*
X156011837Y-77803646D01*
X156011837Y-77803650D01*
X156013563Y-77820280D01*
X156022474Y-77906166D01*
X156024655Y-77912702D01*
X156024655Y-77912704D01*
X156046607Y-77978502D01*
X156078450Y-78073946D01*
X156171522Y-78224348D01*
X156296697Y-78349305D01*
X156302927Y-78353145D01*
X156302928Y-78353146D01*
X156440674Y-78438054D01*
X156447262Y-78442115D01*
X156484376Y-78454425D01*
X156608611Y-78495632D01*
X156608613Y-78495632D01*
X156615139Y-78497797D01*
X156621975Y-78498497D01*
X156621978Y-78498498D01*
X156665031Y-78502909D01*
X156719600Y-78508500D01*
X157520400Y-78508500D01*
X157523646Y-78508163D01*
X157523650Y-78508163D01*
X157619308Y-78498238D01*
X157619312Y-78498237D01*
X157626166Y-78497526D01*
X157632702Y-78495345D01*
X157632704Y-78495345D01*
X157764806Y-78451272D01*
X157793946Y-78441550D01*
X157944348Y-78348478D01*
X158030784Y-78261891D01*
X158093066Y-78227812D01*
X158163886Y-78232815D01*
X158208975Y-78261736D01*
X158253193Y-78305877D01*
X158296697Y-78349305D01*
X158302927Y-78353145D01*
X158302928Y-78353146D01*
X158440674Y-78438054D01*
X158447262Y-78442115D01*
X158484376Y-78454425D01*
X158608611Y-78495632D01*
X158608613Y-78495632D01*
X158615139Y-78497797D01*
X158621975Y-78498497D01*
X158621978Y-78498498D01*
X158665031Y-78502909D01*
X158719600Y-78508500D01*
X159520400Y-78508500D01*
X159523646Y-78508163D01*
X159523650Y-78508163D01*
X159619308Y-78498238D01*
X159619312Y-78498237D01*
X159626166Y-78497526D01*
X159632702Y-78495345D01*
X159632704Y-78495345D01*
X159764806Y-78451272D01*
X159793946Y-78441550D01*
X159944348Y-78348478D01*
X160069305Y-78223303D01*
X160120457Y-78140320D01*
X160158275Y-78078968D01*
X160158276Y-78078966D01*
X160162115Y-78072738D01*
X160171372Y-78044830D01*
X160211803Y-77986472D01*
X160277367Y-77959236D01*
X160290964Y-77958500D01*
X160915950Y-77958500D01*
X160984071Y-77978502D01*
X161023383Y-78018665D01*
X161056519Y-78072738D01*
X161094501Y-78134719D01*
X161246147Y-78309784D01*
X161424349Y-78457730D01*
X161624322Y-78574584D01*
X161840694Y-78657209D01*
X161845760Y-78658240D01*
X161845761Y-78658240D01*
X161898846Y-78669040D01*
X162067656Y-78703385D01*
X162198324Y-78708176D01*
X162293949Y-78711683D01*
X162293953Y-78711683D01*
X162299113Y-78711872D01*
X162304233Y-78711216D01*
X162304235Y-78711216D01*
X162403668Y-78698478D01*
X162528847Y-78682442D01*
X162533795Y-78680957D01*
X162533802Y-78680956D01*
X162745747Y-78617369D01*
X162750690Y-78615886D01*
X162831236Y-78576427D01*
X162954049Y-78516262D01*
X162954052Y-78516260D01*
X162958684Y-78513991D01*
X163147243Y-78379494D01*
X163150898Y-78375852D01*
X163150906Y-78375845D01*
X163192697Y-78334199D01*
X163255068Y-78300282D01*
X163325875Y-78305470D01*
X163382637Y-78348116D01*
X163399619Y-78379218D01*
X163421677Y-78438056D01*
X163430214Y-78453649D01*
X163506715Y-78555724D01*
X163519276Y-78568285D01*
X163621351Y-78644786D01*
X163636946Y-78653324D01*
X163757394Y-78698478D01*
X163772649Y-78702105D01*
X163823514Y-78707631D01*
X163830328Y-78708000D01*
X164502885Y-78708000D01*
X164518124Y-78703525D01*
X164519329Y-78702135D01*
X164521000Y-78694452D01*
X164521000Y-78689884D01*
X165029000Y-78689884D01*
X165033475Y-78705123D01*
X165034865Y-78706328D01*
X165042548Y-78707999D01*
X165719669Y-78707999D01*
X165726490Y-78707629D01*
X165777352Y-78702105D01*
X165792604Y-78698479D01*
X165913054Y-78653324D01*
X165928649Y-78644786D01*
X166030724Y-78568285D01*
X166043285Y-78555724D01*
X166119786Y-78453649D01*
X166128324Y-78438054D01*
X166173478Y-78317606D01*
X166177105Y-78302351D01*
X166182631Y-78251486D01*
X166183000Y-78244672D01*
X166183000Y-77572115D01*
X166178525Y-77556876D01*
X166177135Y-77555671D01*
X166169452Y-77554000D01*
X165047115Y-77554000D01*
X165031876Y-77558475D01*
X165030671Y-77559865D01*
X165029000Y-77567548D01*
X165029000Y-78689884D01*
X164521000Y-78689884D01*
X164521000Y-77027885D01*
X165029000Y-77027885D01*
X165033475Y-77043124D01*
X165034865Y-77044329D01*
X165042548Y-77046000D01*
X166164884Y-77046000D01*
X166180123Y-77041525D01*
X166181328Y-77040135D01*
X166182999Y-77032452D01*
X166182999Y-76355331D01*
X166182629Y-76348510D01*
X166177105Y-76297648D01*
X166173479Y-76282396D01*
X166128324Y-76161946D01*
X166119786Y-76146351D01*
X166043285Y-76044276D01*
X166030724Y-76031715D01*
X165928649Y-75955214D01*
X165913054Y-75946676D01*
X165792606Y-75901522D01*
X165777351Y-75897895D01*
X165726486Y-75892369D01*
X165719672Y-75892000D01*
X165047115Y-75892000D01*
X165031876Y-75896475D01*
X165030671Y-75897865D01*
X165029000Y-75905548D01*
X165029000Y-77027885D01*
X164521000Y-77027885D01*
X164521000Y-75910116D01*
X164516525Y-75894877D01*
X164515135Y-75893672D01*
X164507452Y-75892001D01*
X163830331Y-75892001D01*
X163823510Y-75892371D01*
X163772648Y-75897895D01*
X163757396Y-75901521D01*
X163636946Y-75946676D01*
X163621351Y-75955214D01*
X163519276Y-76031715D01*
X163506715Y-76044276D01*
X163430214Y-76146351D01*
X163421675Y-76161948D01*
X163400934Y-76217275D01*
X163358293Y-76274040D01*
X163291731Y-76298740D01*
X163222383Y-76283533D01*
X163199388Y-76266909D01*
X163198887Y-76266358D01*
X163165527Y-76240012D01*
X163021177Y-76126011D01*
X163021172Y-76126008D01*
X163017123Y-76122810D01*
X163012607Y-76120317D01*
X163012604Y-76120315D01*
X162818879Y-76013373D01*
X162818875Y-76013371D01*
X162814355Y-76010876D01*
X162809486Y-76009152D01*
X162809482Y-76009150D01*
X162600903Y-75935288D01*
X162600899Y-75935287D01*
X162596028Y-75933562D01*
X162590935Y-75932655D01*
X162590932Y-75932654D01*
X162373095Y-75893851D01*
X162373089Y-75893850D01*
X162368006Y-75892945D01*
X162290644Y-75892000D01*
X162141581Y-75890179D01*
X162141579Y-75890179D01*
X162136411Y-75890116D01*
X161907464Y-75925150D01*
X161687314Y-75997106D01*
X161682726Y-75999494D01*
X161682722Y-75999496D01*
X161486461Y-76101663D01*
X161481872Y-76104052D01*
X161477739Y-76107155D01*
X161477736Y-76107157D01*
X161322404Y-76223784D01*
X161296655Y-76243117D01*
X161284472Y-76255866D01*
X161166022Y-76379817D01*
X161136639Y-76410564D01*
X161056569Y-76527943D01*
X161016621Y-76586504D01*
X160961710Y-76631507D01*
X160912533Y-76641500D01*
X160290857Y-76641500D01*
X160222736Y-76621498D01*
X160176243Y-76567842D01*
X160171334Y-76555378D01*
X160163870Y-76533005D01*
X160163867Y-76532998D01*
X160161550Y-76526054D01*
X160068478Y-76375652D01*
X159943303Y-76250695D01*
X159921417Y-76237204D01*
X159798968Y-76161725D01*
X159798966Y-76161724D01*
X159792738Y-76157885D01*
X159696640Y-76126011D01*
X159631389Y-76104368D01*
X159631387Y-76104368D01*
X159624861Y-76102203D01*
X159618025Y-76101503D01*
X159618022Y-76101502D01*
X159574969Y-76097091D01*
X159520400Y-76091500D01*
X158719600Y-76091500D01*
X158716354Y-76091837D01*
X158716350Y-76091837D01*
X158620692Y-76101762D01*
X158620688Y-76101763D01*
X158613834Y-76102474D01*
X158607298Y-76104655D01*
X158607296Y-76104655D01*
X158543285Y-76126011D01*
X158446054Y-76158450D01*
X158295652Y-76251522D01*
X158290479Y-76256704D01*
X158209216Y-76338109D01*
X158146934Y-76372188D01*
X158076114Y-76367185D01*
X158031025Y-76338264D01*
X157948483Y-76255866D01*
X157943303Y-76250695D01*
X157921417Y-76237204D01*
X157798968Y-76161725D01*
X157798966Y-76161724D01*
X157792738Y-76157885D01*
X157696640Y-76126011D01*
X157631389Y-76104368D01*
X157631387Y-76104368D01*
X157624861Y-76102203D01*
X157618025Y-76101503D01*
X157618022Y-76101502D01*
X157574969Y-76097091D01*
X157520400Y-76091500D01*
X156894950Y-76091500D01*
X156826829Y-76071498D01*
X156805855Y-76054595D01*
X156595405Y-75844145D01*
X156561379Y-75781833D01*
X156558500Y-75755050D01*
X156558500Y-70534240D01*
X156578502Y-70466119D01*
X156632158Y-70419626D01*
X156689600Y-70408654D01*
X156689600Y-70408500D01*
X157490400Y-70408500D01*
X157493646Y-70408163D01*
X157493650Y-70408163D01*
X157589308Y-70398238D01*
X157589312Y-70398237D01*
X157596166Y-70397526D01*
X157602702Y-70395345D01*
X157602704Y-70395345D01*
X157734806Y-70351272D01*
X157763946Y-70341550D01*
X157914348Y-70248478D01*
X158000784Y-70161891D01*
X158063066Y-70127812D01*
X158133886Y-70132815D01*
X158178975Y-70161736D01*
X158223193Y-70205877D01*
X158266697Y-70249305D01*
X158272927Y-70253145D01*
X158272928Y-70253146D01*
X158410674Y-70338054D01*
X158417262Y-70342115D01*
X158454376Y-70354425D01*
X158578611Y-70395632D01*
X158578613Y-70395632D01*
X158585139Y-70397797D01*
X158591975Y-70398497D01*
X158591978Y-70398498D01*
X158635031Y-70402909D01*
X158689600Y-70408500D01*
X159490400Y-70408500D01*
X159493646Y-70408163D01*
X159493650Y-70408163D01*
X159589308Y-70398238D01*
X159589312Y-70398237D01*
X159596166Y-70397526D01*
X159602702Y-70395345D01*
X159602704Y-70395345D01*
X159734806Y-70351272D01*
X159763946Y-70341550D01*
X159914348Y-70248478D01*
X160039305Y-70123303D01*
X160089991Y-70041075D01*
X160128275Y-69978968D01*
X160128276Y-69978966D01*
X160132115Y-69972738D01*
X160141372Y-69944830D01*
X160181803Y-69886472D01*
X160247367Y-69859236D01*
X160260964Y-69858500D01*
X160915950Y-69858500D01*
X160984071Y-69878502D01*
X161023383Y-69918665D01*
X161094501Y-70034719D01*
X161246147Y-70209784D01*
X161424349Y-70357730D01*
X161624322Y-70474584D01*
X161840694Y-70557209D01*
X161845760Y-70558240D01*
X161845761Y-70558240D01*
X161898846Y-70569040D01*
X162067656Y-70603385D01*
X162198324Y-70608176D01*
X162293949Y-70611683D01*
X162293953Y-70611683D01*
X162299113Y-70611872D01*
X162304233Y-70611216D01*
X162304235Y-70611216D01*
X162403668Y-70598478D01*
X162528847Y-70582442D01*
X162533795Y-70580957D01*
X162533802Y-70580956D01*
X162745747Y-70517369D01*
X162750690Y-70515886D01*
X162831236Y-70476427D01*
X162954049Y-70416262D01*
X162954052Y-70416260D01*
X162958684Y-70413991D01*
X163147243Y-70279494D01*
X163150898Y-70275852D01*
X163150906Y-70275845D01*
X163192697Y-70234199D01*
X163255068Y-70200282D01*
X163325875Y-70205470D01*
X163382637Y-70248116D01*
X163399619Y-70279218D01*
X163421677Y-70338056D01*
X163430214Y-70353649D01*
X163506715Y-70455724D01*
X163519276Y-70468285D01*
X163621351Y-70544786D01*
X163636946Y-70553324D01*
X163757394Y-70598478D01*
X163772649Y-70602105D01*
X163823514Y-70607631D01*
X163830328Y-70608000D01*
X164502885Y-70608000D01*
X164518124Y-70603525D01*
X164519329Y-70602135D01*
X164521000Y-70594452D01*
X164521000Y-70589884D01*
X165029000Y-70589884D01*
X165033475Y-70605123D01*
X165034865Y-70606328D01*
X165042548Y-70607999D01*
X165719669Y-70607999D01*
X165726490Y-70607629D01*
X165777352Y-70602105D01*
X165792604Y-70598479D01*
X165913054Y-70553324D01*
X165928649Y-70544786D01*
X166030724Y-70468285D01*
X166043285Y-70455724D01*
X166119786Y-70353649D01*
X166128324Y-70338054D01*
X166173478Y-70217606D01*
X166177105Y-70202351D01*
X166182631Y-70151486D01*
X166183000Y-70144672D01*
X166183000Y-69472115D01*
X166178525Y-69456876D01*
X166177135Y-69455671D01*
X166169452Y-69454000D01*
X165047115Y-69454000D01*
X165031876Y-69458475D01*
X165030671Y-69459865D01*
X165029000Y-69467548D01*
X165029000Y-70589884D01*
X164521000Y-70589884D01*
X164521000Y-68927885D01*
X165029000Y-68927885D01*
X165033475Y-68943124D01*
X165034865Y-68944329D01*
X165042548Y-68946000D01*
X166164884Y-68946000D01*
X166180123Y-68941525D01*
X166181328Y-68940135D01*
X166182999Y-68932452D01*
X166182999Y-68255331D01*
X166182629Y-68248510D01*
X166177105Y-68197648D01*
X166173479Y-68182396D01*
X166128324Y-68061946D01*
X166119786Y-68046351D01*
X166043285Y-67944276D01*
X166030724Y-67931715D01*
X165928649Y-67855214D01*
X165913054Y-67846676D01*
X165792606Y-67801522D01*
X165777351Y-67797895D01*
X165726486Y-67792369D01*
X165719672Y-67792000D01*
X165047115Y-67792000D01*
X165031876Y-67796475D01*
X165030671Y-67797865D01*
X165029000Y-67805548D01*
X165029000Y-68927885D01*
X164521000Y-68927885D01*
X164521000Y-67810116D01*
X164516525Y-67794877D01*
X164515135Y-67793672D01*
X164507452Y-67792001D01*
X163830331Y-67792001D01*
X163823510Y-67792371D01*
X163772648Y-67797895D01*
X163757396Y-67801521D01*
X163636946Y-67846676D01*
X163621351Y-67855214D01*
X163519276Y-67931715D01*
X163506715Y-67944276D01*
X163430214Y-68046351D01*
X163421675Y-68061948D01*
X163400934Y-68117275D01*
X163358293Y-68174040D01*
X163291731Y-68198740D01*
X163222383Y-68183533D01*
X163199388Y-68166909D01*
X163198887Y-68166358D01*
X163067134Y-68062306D01*
X163021177Y-68026011D01*
X163021172Y-68026008D01*
X163017123Y-68022810D01*
X163012607Y-68020317D01*
X163012604Y-68020315D01*
X162818879Y-67913373D01*
X162818875Y-67913371D01*
X162814355Y-67910876D01*
X162809486Y-67909152D01*
X162809482Y-67909150D01*
X162600903Y-67835288D01*
X162600899Y-67835287D01*
X162596028Y-67833562D01*
X162590935Y-67832655D01*
X162590932Y-67832654D01*
X162373095Y-67793851D01*
X162373089Y-67793850D01*
X162368006Y-67792945D01*
X162290644Y-67792000D01*
X162141581Y-67790179D01*
X162141579Y-67790179D01*
X162136411Y-67790116D01*
X161907464Y-67825150D01*
X161687314Y-67897106D01*
X161682726Y-67899494D01*
X161682722Y-67899496D01*
X161486461Y-68001663D01*
X161481872Y-68004052D01*
X161477739Y-68007155D01*
X161477736Y-68007157D01*
X161404285Y-68062306D01*
X161296655Y-68143117D01*
X161136639Y-68310564D01*
X161133725Y-68314836D01*
X161133724Y-68314837D01*
X161016621Y-68486504D01*
X160961710Y-68531507D01*
X160912533Y-68541500D01*
X160260857Y-68541500D01*
X160192736Y-68521498D01*
X160146243Y-68467842D01*
X160141334Y-68455378D01*
X160133870Y-68433005D01*
X160133867Y-68432998D01*
X160131550Y-68426054D01*
X160038478Y-68275652D01*
X159913303Y-68150695D01*
X159859086Y-68117275D01*
X159768968Y-68061725D01*
X159768966Y-68061724D01*
X159762738Y-68057885D01*
X159656990Y-68022810D01*
X159601389Y-68004368D01*
X159601387Y-68004368D01*
X159594861Y-68002203D01*
X159588025Y-68001503D01*
X159588022Y-68001502D01*
X159544969Y-67997091D01*
X159490400Y-67991500D01*
X158689600Y-67991500D01*
X158686354Y-67991837D01*
X158686350Y-67991837D01*
X158590692Y-68001762D01*
X158590688Y-68001763D01*
X158583834Y-68002474D01*
X158577298Y-68004655D01*
X158577296Y-68004655D01*
X158513285Y-68026011D01*
X158416054Y-68058450D01*
X158265652Y-68151522D01*
X158260479Y-68156704D01*
X158179216Y-68238109D01*
X158116934Y-68272188D01*
X158046114Y-68267185D01*
X158001025Y-68238264D01*
X157918483Y-68155866D01*
X157913303Y-68150695D01*
X157808383Y-68086021D01*
X157760891Y-68033250D01*
X157748500Y-67978762D01*
X157748500Y-63460856D01*
X157749059Y-63449000D01*
X157749059Y-63448997D01*
X157750788Y-63441263D01*
X157748562Y-63370431D01*
X157748500Y-63366473D01*
X157748500Y-63337368D01*
X157747944Y-63332968D01*
X157747012Y-63321130D01*
X157745811Y-63282894D01*
X157745562Y-63274969D01*
X157739580Y-63254379D01*
X157735570Y-63235016D01*
X157733875Y-63221596D01*
X157733875Y-63221595D01*
X157732882Y-63213736D01*
X157729966Y-63206371D01*
X157729965Y-63206367D01*
X157715876Y-63170782D01*
X157712031Y-63159553D01*
X157701356Y-63122810D01*
X157699145Y-63115199D01*
X157688230Y-63096743D01*
X157679531Y-63078987D01*
X157679182Y-63078107D01*
X157671635Y-63059044D01*
X157644480Y-63021668D01*
X157637965Y-63011749D01*
X157618492Y-62978823D01*
X157618489Y-62978819D01*
X157614452Y-62971993D01*
X157599291Y-62956832D01*
X157586449Y-62941797D01*
X157573841Y-62924443D01*
X157538241Y-62894992D01*
X157529462Y-62887003D01*
X157266054Y-62623595D01*
X157232028Y-62561283D01*
X157237093Y-62490468D01*
X157279640Y-62433632D01*
X157346160Y-62408821D01*
X157355149Y-62408500D01*
X157500400Y-62408500D01*
X157503646Y-62408163D01*
X157503650Y-62408163D01*
X157599308Y-62398238D01*
X157599312Y-62398237D01*
X157606166Y-62397526D01*
X157612702Y-62395345D01*
X157612704Y-62395345D01*
X157744806Y-62351272D01*
X157773946Y-62341550D01*
X157924348Y-62248478D01*
X158010784Y-62161891D01*
X158073066Y-62127812D01*
X158143886Y-62132815D01*
X158188975Y-62161736D01*
X158233193Y-62205877D01*
X158276697Y-62249305D01*
X158282927Y-62253145D01*
X158282928Y-62253146D01*
X158420674Y-62338054D01*
X158427262Y-62342115D01*
X158464376Y-62354425D01*
X158588611Y-62395632D01*
X158588613Y-62395632D01*
X158595139Y-62397797D01*
X158601975Y-62398497D01*
X158601978Y-62398498D01*
X158645031Y-62402909D01*
X158699600Y-62408500D01*
X159500400Y-62408500D01*
X159503646Y-62408163D01*
X159503650Y-62408163D01*
X159599308Y-62398238D01*
X159599312Y-62398237D01*
X159606166Y-62397526D01*
X159612702Y-62395345D01*
X159612704Y-62395345D01*
X159744806Y-62351272D01*
X159773946Y-62341550D01*
X159924348Y-62248478D01*
X160049305Y-62123303D01*
X160099991Y-62041075D01*
X160138275Y-61978968D01*
X160138276Y-61978966D01*
X160142115Y-61972738D01*
X160151372Y-61944830D01*
X160191803Y-61886472D01*
X160257367Y-61859236D01*
X160270964Y-61858500D01*
X160915950Y-61858500D01*
X160984071Y-61878502D01*
X161023383Y-61918665D01*
X161094501Y-62034719D01*
X161246147Y-62209784D01*
X161424349Y-62357730D01*
X161624322Y-62474584D01*
X161840694Y-62557209D01*
X161845760Y-62558240D01*
X161845761Y-62558240D01*
X161860718Y-62561283D01*
X162067656Y-62603385D01*
X162198324Y-62608176D01*
X162293949Y-62611683D01*
X162293953Y-62611683D01*
X162299113Y-62611872D01*
X162304233Y-62611216D01*
X162304235Y-62611216D01*
X162403668Y-62598478D01*
X162528847Y-62582442D01*
X162533795Y-62580957D01*
X162533802Y-62580956D01*
X162745747Y-62517369D01*
X162750690Y-62515886D01*
X162831236Y-62476427D01*
X162954049Y-62416262D01*
X162954052Y-62416260D01*
X162958684Y-62413991D01*
X163147243Y-62279494D01*
X163150898Y-62275852D01*
X163150906Y-62275845D01*
X163192697Y-62234199D01*
X163255068Y-62200282D01*
X163325875Y-62205470D01*
X163382637Y-62248116D01*
X163399619Y-62279218D01*
X163421677Y-62338056D01*
X163430214Y-62353649D01*
X163506715Y-62455724D01*
X163519276Y-62468285D01*
X163621351Y-62544786D01*
X163636946Y-62553324D01*
X163757394Y-62598478D01*
X163772649Y-62602105D01*
X163823514Y-62607631D01*
X163830328Y-62608000D01*
X164502885Y-62608000D01*
X164518124Y-62603525D01*
X164519329Y-62602135D01*
X164521000Y-62594452D01*
X164521000Y-62589884D01*
X165029000Y-62589884D01*
X165033475Y-62605123D01*
X165034865Y-62606328D01*
X165042548Y-62607999D01*
X165719669Y-62607999D01*
X165726490Y-62607629D01*
X165777352Y-62602105D01*
X165792604Y-62598479D01*
X165913054Y-62553324D01*
X165928649Y-62544786D01*
X166030724Y-62468285D01*
X166043285Y-62455724D01*
X166119786Y-62353649D01*
X166128324Y-62338054D01*
X166173478Y-62217606D01*
X166177105Y-62202351D01*
X166182631Y-62151486D01*
X166183000Y-62144672D01*
X166183000Y-61472115D01*
X166178525Y-61456876D01*
X166177135Y-61455671D01*
X166169452Y-61454000D01*
X165047115Y-61454000D01*
X165031876Y-61458475D01*
X165030671Y-61459865D01*
X165029000Y-61467548D01*
X165029000Y-62589884D01*
X164521000Y-62589884D01*
X164521000Y-60927885D01*
X165029000Y-60927885D01*
X165033475Y-60943124D01*
X165034865Y-60944329D01*
X165042548Y-60946000D01*
X166164884Y-60946000D01*
X166180123Y-60941525D01*
X166181328Y-60940135D01*
X166182999Y-60932452D01*
X166182999Y-60255331D01*
X166182629Y-60248510D01*
X166177105Y-60197648D01*
X166173479Y-60182396D01*
X166128324Y-60061946D01*
X166119786Y-60046351D01*
X166043285Y-59944276D01*
X166030724Y-59931715D01*
X165928649Y-59855214D01*
X165913054Y-59846676D01*
X165792606Y-59801522D01*
X165777351Y-59797895D01*
X165726486Y-59792369D01*
X165719672Y-59792000D01*
X165047115Y-59792000D01*
X165031876Y-59796475D01*
X165030671Y-59797865D01*
X165029000Y-59805548D01*
X165029000Y-60927885D01*
X164521000Y-60927885D01*
X164521000Y-59810116D01*
X164516525Y-59794877D01*
X164515135Y-59793672D01*
X164507452Y-59792001D01*
X163830331Y-59792001D01*
X163823510Y-59792371D01*
X163772648Y-59797895D01*
X163757396Y-59801521D01*
X163636946Y-59846676D01*
X163621351Y-59855214D01*
X163519276Y-59931715D01*
X163506715Y-59944276D01*
X163430214Y-60046351D01*
X163421675Y-60061948D01*
X163400934Y-60117275D01*
X163358293Y-60174040D01*
X163291731Y-60198740D01*
X163222383Y-60183533D01*
X163199388Y-60166909D01*
X163198887Y-60166358D01*
X163067134Y-60062306D01*
X163021177Y-60026011D01*
X163021172Y-60026008D01*
X163017123Y-60022810D01*
X163012607Y-60020317D01*
X163012604Y-60020315D01*
X162818879Y-59913373D01*
X162818875Y-59913371D01*
X162814355Y-59910876D01*
X162809486Y-59909152D01*
X162809482Y-59909150D01*
X162600903Y-59835288D01*
X162600899Y-59835287D01*
X162596028Y-59833562D01*
X162590935Y-59832655D01*
X162590932Y-59832654D01*
X162373095Y-59793851D01*
X162373089Y-59793850D01*
X162368006Y-59792945D01*
X162290644Y-59792000D01*
X162141581Y-59790179D01*
X162141579Y-59790179D01*
X162136411Y-59790116D01*
X161907464Y-59825150D01*
X161687314Y-59897106D01*
X161682726Y-59899494D01*
X161682722Y-59899496D01*
X161486461Y-60001663D01*
X161481872Y-60004052D01*
X161477739Y-60007155D01*
X161477736Y-60007157D01*
X161331073Y-60117275D01*
X161296655Y-60143117D01*
X161293084Y-60146854D01*
X161293083Y-60146855D01*
X161155167Y-60291176D01*
X161136639Y-60310564D01*
X161133725Y-60314836D01*
X161133724Y-60314837D01*
X161016621Y-60486504D01*
X160961710Y-60531507D01*
X160912533Y-60541500D01*
X160270857Y-60541500D01*
X160202736Y-60521498D01*
X160156243Y-60467842D01*
X160151334Y-60455378D01*
X160143870Y-60433005D01*
X160143867Y-60432998D01*
X160141550Y-60426054D01*
X160048478Y-60275652D01*
X159923303Y-60150695D01*
X159857636Y-60110217D01*
X159778968Y-60061725D01*
X159778966Y-60061724D01*
X159772738Y-60057885D01*
X159666990Y-60022810D01*
X159611389Y-60004368D01*
X159611387Y-60004368D01*
X159604861Y-60002203D01*
X159598025Y-60001503D01*
X159598022Y-60001502D01*
X159554969Y-59997091D01*
X159500400Y-59991500D01*
X158699600Y-59991500D01*
X158696354Y-59991837D01*
X158696350Y-59991837D01*
X158600692Y-60001762D01*
X158600688Y-60001763D01*
X158593834Y-60002474D01*
X158587298Y-60004655D01*
X158587296Y-60004655D01*
X158523285Y-60026011D01*
X158426054Y-60058450D01*
X158275652Y-60151522D01*
X158270479Y-60156704D01*
X158189216Y-60238109D01*
X158126934Y-60272188D01*
X158056114Y-60267185D01*
X158011025Y-60238264D01*
X157928483Y-60155866D01*
X157923303Y-60150695D01*
X157857636Y-60110217D01*
X157778968Y-60061725D01*
X157778966Y-60061724D01*
X157772738Y-60057885D01*
X157666990Y-60022810D01*
X157611389Y-60004368D01*
X157611387Y-60004368D01*
X157604861Y-60002203D01*
X157598025Y-60001503D01*
X157598022Y-60001502D01*
X157554969Y-59997091D01*
X157500400Y-59991500D01*
X156699600Y-59991500D01*
X156696354Y-59991837D01*
X156696350Y-59991837D01*
X156600692Y-60001762D01*
X156600688Y-60001763D01*
X156593834Y-60002474D01*
X156587298Y-60004655D01*
X156587296Y-60004655D01*
X156523285Y-60026011D01*
X156426054Y-60058450D01*
X156275652Y-60151522D01*
X156150695Y-60276697D01*
X156146855Y-60282927D01*
X156146854Y-60282928D01*
X156141770Y-60291176D01*
X156088998Y-60338669D01*
X156018926Y-60350093D01*
X155953802Y-60321819D01*
X155945415Y-60314155D01*
X154135216Y-58503956D01*
X154101190Y-58441644D01*
X154106255Y-58370829D01*
X154151143Y-58312282D01*
X154162538Y-58304154D01*
X154297660Y-58207773D01*
X154455896Y-58050089D01*
X154586253Y-57868677D01*
X154587576Y-57869628D01*
X154634445Y-57826457D01*
X154704380Y-57814225D01*
X154769826Y-57841744D01*
X154797675Y-57873594D01*
X154857787Y-57971688D01*
X155004050Y-58140538D01*
X155175926Y-58283232D01*
X155368800Y-58395938D01*
X155373625Y-58397780D01*
X155373626Y-58397781D01*
X155399431Y-58407635D01*
X155577492Y-58475630D01*
X155582560Y-58476661D01*
X155582563Y-58476662D01*
X155658724Y-58492157D01*
X155796397Y-58520167D01*
X155801572Y-58520357D01*
X155801574Y-58520357D01*
X156014473Y-58528164D01*
X156014477Y-58528164D01*
X156019637Y-58528353D01*
X156024757Y-58527697D01*
X156024759Y-58527697D01*
X156236088Y-58500625D01*
X156236089Y-58500625D01*
X156241216Y-58499968D01*
X156250409Y-58497210D01*
X156450229Y-58437261D01*
X156450234Y-58437259D01*
X156455184Y-58435774D01*
X156655794Y-58337496D01*
X156837660Y-58207773D01*
X156995896Y-58050089D01*
X157126253Y-57868677D01*
X157127576Y-57869628D01*
X157174445Y-57826457D01*
X157244380Y-57814225D01*
X157309826Y-57841744D01*
X157337675Y-57873594D01*
X157397787Y-57971688D01*
X157544050Y-58140538D01*
X157715926Y-58283232D01*
X157908800Y-58395938D01*
X157913625Y-58397780D01*
X157913626Y-58397781D01*
X157939431Y-58407635D01*
X158117492Y-58475630D01*
X158122560Y-58476661D01*
X158122563Y-58476662D01*
X158198724Y-58492157D01*
X158336397Y-58520167D01*
X158341572Y-58520357D01*
X158341574Y-58520357D01*
X158554473Y-58528164D01*
X158554477Y-58528164D01*
X158559637Y-58528353D01*
X158564757Y-58527697D01*
X158564759Y-58527697D01*
X158776088Y-58500625D01*
X158776089Y-58500625D01*
X158781216Y-58499968D01*
X158790409Y-58497210D01*
X158990229Y-58437261D01*
X158990234Y-58437259D01*
X158995184Y-58435774D01*
X159195794Y-58337496D01*
X159377660Y-58207773D01*
X159535896Y-58050089D01*
X159666253Y-57868677D01*
X159687120Y-57826457D01*
X159762936Y-57673053D01*
X159762937Y-57673051D01*
X159765230Y-57668411D01*
X159830170Y-57454669D01*
X159859329Y-57233190D01*
X159860956Y-57166600D01*
X159842652Y-56943961D01*
X159788231Y-56727302D01*
X159699154Y-56522440D01*
X159577814Y-56334877D01*
X159427470Y-56169651D01*
X159423419Y-56166452D01*
X159423415Y-56166448D01*
X159256214Y-56034400D01*
X159256210Y-56034398D01*
X159252159Y-56031198D01*
X159056589Y-55923238D01*
X159051720Y-55921514D01*
X159051716Y-55921512D01*
X158850887Y-55850395D01*
X158850883Y-55850394D01*
X158846012Y-55848669D01*
X158840919Y-55847762D01*
X158840916Y-55847761D01*
X158631173Y-55810400D01*
X158631167Y-55810399D01*
X158626084Y-55809494D01*
X158552252Y-55808592D01*
X158407881Y-55806828D01*
X158407879Y-55806828D01*
X158402711Y-55806765D01*
X158181891Y-55840555D01*
X157969556Y-55909957D01*
X157771407Y-56013107D01*
X157767274Y-56016210D01*
X157767271Y-56016212D01*
X157652140Y-56102655D01*
X157592765Y-56147235D01*
X157438429Y-56308738D01*
X157331001Y-56466221D01*
X157276093Y-56511221D01*
X157205568Y-56519392D01*
X157141821Y-56488138D01*
X157121124Y-56463654D01*
X157040622Y-56339217D01*
X157040620Y-56339214D01*
X157037814Y-56334877D01*
X156887470Y-56169651D01*
X156883419Y-56166452D01*
X156883415Y-56166448D01*
X156716214Y-56034400D01*
X156716210Y-56034398D01*
X156712159Y-56031198D01*
X156516589Y-55923238D01*
X156511720Y-55921514D01*
X156511716Y-55921512D01*
X156310887Y-55850395D01*
X156310883Y-55850394D01*
X156306012Y-55848669D01*
X156300919Y-55847762D01*
X156300916Y-55847761D01*
X156091173Y-55810400D01*
X156091167Y-55810399D01*
X156086084Y-55809494D01*
X156012252Y-55808592D01*
X155867881Y-55806828D01*
X155867879Y-55806828D01*
X155862711Y-55806765D01*
X155641891Y-55840555D01*
X155429556Y-55909957D01*
X155231407Y-56013107D01*
X155227274Y-56016210D01*
X155227271Y-56016212D01*
X155112140Y-56102655D01*
X155052765Y-56147235D01*
X154898429Y-56308738D01*
X154791001Y-56466221D01*
X154736093Y-56511221D01*
X154665568Y-56519392D01*
X154601821Y-56488138D01*
X154581124Y-56463654D01*
X154500622Y-56339217D01*
X154500620Y-56339214D01*
X154497814Y-56334877D01*
X154347470Y-56169651D01*
X154343419Y-56166452D01*
X154343415Y-56166448D01*
X154176214Y-56034400D01*
X154176210Y-56034398D01*
X154172159Y-56031198D01*
X153976589Y-55923238D01*
X153971720Y-55921514D01*
X153971716Y-55921512D01*
X153770887Y-55850395D01*
X153770883Y-55850394D01*
X153766012Y-55848669D01*
X153760919Y-55847762D01*
X153760916Y-55847761D01*
X153551173Y-55810400D01*
X153551167Y-55810399D01*
X153546084Y-55809494D01*
X153472252Y-55808592D01*
X153327881Y-55806828D01*
X153327879Y-55806828D01*
X153322711Y-55806765D01*
X153101891Y-55840555D01*
X152889556Y-55909957D01*
X152691407Y-56013107D01*
X152687274Y-56016210D01*
X152687271Y-56016212D01*
X152572140Y-56102655D01*
X152512765Y-56147235D01*
X152358429Y-56308738D01*
X152251001Y-56466221D01*
X152196093Y-56511221D01*
X152125568Y-56519392D01*
X152061821Y-56488138D01*
X152041124Y-56463654D01*
X151960622Y-56339217D01*
X151960620Y-56339214D01*
X151957814Y-56334877D01*
X151807470Y-56169651D01*
X151803419Y-56166452D01*
X151803415Y-56166448D01*
X151636214Y-56034400D01*
X151636210Y-56034398D01*
X151632159Y-56031198D01*
X151436589Y-55923238D01*
X151431720Y-55921514D01*
X151431716Y-55921512D01*
X151230887Y-55850395D01*
X151230883Y-55850394D01*
X151226012Y-55848669D01*
X151220919Y-55847762D01*
X151220916Y-55847761D01*
X151011173Y-55810400D01*
X151011167Y-55810399D01*
X151006084Y-55809494D01*
X150932252Y-55808592D01*
X150787881Y-55806828D01*
X150787879Y-55806828D01*
X150782711Y-55806765D01*
X150561891Y-55840555D01*
X150349556Y-55909957D01*
X150151407Y-56013107D01*
X150147273Y-56016211D01*
X150045341Y-56092743D01*
X149978857Y-56117648D01*
X149909461Y-56102655D01*
X149880594Y-56081077D01*
X149291912Y-55492395D01*
X149283922Y-55483615D01*
X149283920Y-55483613D01*
X149279673Y-55476920D01*
X149262222Y-55460532D01*
X149228000Y-55428396D01*
X149225158Y-55425641D01*
X149204590Y-55405073D01*
X149201083Y-55402353D01*
X149192061Y-55394647D01*
X149187870Y-55390711D01*
X149158390Y-55363028D01*
X149151438Y-55359206D01*
X149139599Y-55352697D01*
X149123075Y-55341843D01*
X149112389Y-55333555D01*
X149106125Y-55328696D01*
X149098853Y-55325549D01*
X149098851Y-55325548D01*
X149063722Y-55310346D01*
X149053062Y-55305124D01*
X149019541Y-55286695D01*
X149019539Y-55286694D01*
X149012594Y-55282876D01*
X148991816Y-55277541D01*
X148973126Y-55271142D01*
X148953433Y-55262620D01*
X148907809Y-55255394D01*
X148896186Y-55252987D01*
X148861918Y-55244189D01*
X148851445Y-55241500D01*
X148829998Y-55241500D01*
X148810288Y-55239949D01*
X148789105Y-55236594D01*
X148743116Y-55240941D01*
X148731261Y-55241500D01*
X144606459Y-55241500D01*
X144594603Y-55240941D01*
X144586863Y-55239211D01*
X144578937Y-55239460D01*
X144578936Y-55239460D01*
X144516011Y-55241438D01*
X144512053Y-55241500D01*
X144482968Y-55241500D01*
X144479037Y-55241997D01*
X144479030Y-55241997D01*
X144478579Y-55242054D01*
X144466743Y-55242986D01*
X144420569Y-55244438D01*
X144399979Y-55250420D01*
X144380618Y-55254430D01*
X144373630Y-55255312D01*
X144367196Y-55256125D01*
X144367195Y-55256125D01*
X144359336Y-55257118D01*
X144351971Y-55260034D01*
X144351967Y-55260035D01*
X144316379Y-55274126D01*
X144305169Y-55277965D01*
X144260800Y-55290855D01*
X144242335Y-55301775D01*
X144224595Y-55310466D01*
X144204644Y-55318365D01*
X144167274Y-55345516D01*
X144157352Y-55352033D01*
X144124423Y-55371507D01*
X144124419Y-55371510D01*
X144117593Y-55375547D01*
X144102429Y-55390711D01*
X144087396Y-55403551D01*
X144070043Y-55416159D01*
X144059920Y-55428396D01*
X144040598Y-55451752D01*
X144032608Y-55460532D01*
X143721945Y-55771195D01*
X143659633Y-55805221D01*
X143632850Y-55808100D01*
X142359666Y-55808100D01*
X142297484Y-55814855D01*
X142161095Y-55865985D01*
X142063365Y-55939230D01*
X141996859Y-55964078D01*
X141927476Y-55949025D01*
X141912235Y-55939230D01*
X141814505Y-55865985D01*
X141678116Y-55814855D01*
X141615934Y-55808100D01*
X139819666Y-55808100D01*
X139757484Y-55814855D01*
X139621095Y-55865985D01*
X139504539Y-55953339D01*
X139417185Y-56069895D01*
X139366055Y-56206284D01*
X139359300Y-56268466D01*
X139359300Y-58064734D01*
X139366055Y-58126916D01*
X139417185Y-58263305D01*
X139504539Y-58379861D01*
X139621095Y-58467215D01*
X139757484Y-58518345D01*
X139819666Y-58525100D01*
X141615934Y-58525100D01*
X141678116Y-58518345D01*
X141814505Y-58467215D01*
X141912236Y-58393970D01*
X141978741Y-58369122D01*
X142048124Y-58384175D01*
X142063362Y-58393968D01*
X142161095Y-58467215D01*
X142297484Y-58518345D01*
X142359666Y-58525100D01*
X144155934Y-58525100D01*
X144218116Y-58518345D01*
X144354505Y-58467215D01*
X144471061Y-58379861D01*
X144558415Y-58263305D01*
X144580599Y-58204129D01*
X144602398Y-58145982D01*
X144645040Y-58089218D01*
X144711602Y-58064518D01*
X144780950Y-58079726D01*
X144815617Y-58107714D01*
X144844050Y-58140538D01*
X145015926Y-58283232D01*
X145020383Y-58285836D01*
X145020388Y-58285840D01*
X145076870Y-58318845D01*
X145125594Y-58370483D01*
X145139300Y-58427633D01*
X145139300Y-60677251D01*
X145119298Y-60745372D01*
X145102395Y-60766346D01*
X141299949Y-64568791D01*
X141237637Y-64602817D01*
X141181440Y-64602215D01*
X140991524Y-64556620D01*
X140991518Y-64556619D01*
X140986711Y-64555465D01*
X140750000Y-64536835D01*
X140513289Y-64555465D01*
X140508482Y-64556619D01*
X140508476Y-64556620D01*
X140362609Y-64591640D01*
X140282406Y-64610895D01*
X140277835Y-64612788D01*
X140277833Y-64612789D01*
X140067611Y-64699865D01*
X140067607Y-64699867D01*
X140063037Y-64701760D01*
X140058817Y-64704346D01*
X139864798Y-64823241D01*
X139864792Y-64823245D01*
X139860584Y-64825824D01*
X139680031Y-64980031D01*
X139525824Y-65160584D01*
X139523242Y-65164797D01*
X139523235Y-65164807D01*
X139421186Y-65331335D01*
X139368539Y-65378966D01*
X139313754Y-65391500D01*
X135686246Y-65391500D01*
X135618125Y-65371498D01*
X135578814Y-65331335D01*
X135476765Y-65164807D01*
X135476758Y-65164797D01*
X135474176Y-65160584D01*
X135319969Y-64980031D01*
X135139416Y-64825824D01*
X135135208Y-64823245D01*
X135135202Y-64823241D01*
X134941183Y-64704346D01*
X134936963Y-64701760D01*
X134932393Y-64699867D01*
X134932389Y-64699865D01*
X134722167Y-64612789D01*
X134722165Y-64612788D01*
X134717594Y-64610895D01*
X134637391Y-64591640D01*
X134491524Y-64556620D01*
X134491518Y-64556619D01*
X134486711Y-64555465D01*
X134250000Y-64536835D01*
X134013289Y-64555465D01*
X134008482Y-64556619D01*
X134008476Y-64556620D01*
X133862609Y-64591640D01*
X133782406Y-64610895D01*
X133777835Y-64612788D01*
X133777833Y-64612789D01*
X133567611Y-64699865D01*
X133567607Y-64699867D01*
X133563037Y-64701760D01*
X133558817Y-64704346D01*
X133364798Y-64823241D01*
X133364792Y-64823245D01*
X133360584Y-64825824D01*
X133180031Y-64980031D01*
X133025824Y-65160584D01*
X133023245Y-65164792D01*
X133023241Y-65164798D01*
X132921187Y-65331335D01*
X132901760Y-65363037D01*
X132810895Y-65582406D01*
X132755465Y-65813289D01*
X132736835Y-66050000D01*
X120351300Y-66050000D01*
X120351300Y-62782670D01*
X133382160Y-62782670D01*
X133387887Y-62790320D01*
X133559042Y-62895205D01*
X133567837Y-62899687D01*
X133777988Y-62986734D01*
X133787373Y-62989783D01*
X134008554Y-63042885D01*
X134018301Y-63044428D01*
X134245070Y-63062275D01*
X134254930Y-63062275D01*
X134481699Y-63044428D01*
X134491446Y-63042885D01*
X134712627Y-62989783D01*
X134722012Y-62986734D01*
X134932163Y-62899687D01*
X134940958Y-62895205D01*
X135108445Y-62792568D01*
X135117400Y-62782670D01*
X139882160Y-62782670D01*
X139887887Y-62790320D01*
X140059042Y-62895205D01*
X140067837Y-62899687D01*
X140277988Y-62986734D01*
X140287373Y-62989783D01*
X140508554Y-63042885D01*
X140518301Y-63044428D01*
X140745070Y-63062275D01*
X140754930Y-63062275D01*
X140981699Y-63044428D01*
X140991446Y-63042885D01*
X141212627Y-62989783D01*
X141222012Y-62986734D01*
X141432163Y-62899687D01*
X141440958Y-62895205D01*
X141608445Y-62792568D01*
X141617907Y-62782110D01*
X141614124Y-62773334D01*
X140762812Y-61922022D01*
X140748868Y-61914408D01*
X140747035Y-61914539D01*
X140740420Y-61918790D01*
X139888920Y-62770290D01*
X139882160Y-62782670D01*
X135117400Y-62782670D01*
X135117907Y-62782110D01*
X135114124Y-62773334D01*
X134262812Y-61922022D01*
X134248868Y-61914408D01*
X134247035Y-61914539D01*
X134240420Y-61918790D01*
X133388920Y-62770290D01*
X133382160Y-62782670D01*
X120351300Y-62782670D01*
X120351300Y-61554930D01*
X132737725Y-61554930D01*
X132755572Y-61781699D01*
X132757115Y-61791446D01*
X132810217Y-62012627D01*
X132813266Y-62022012D01*
X132900313Y-62232163D01*
X132904795Y-62240958D01*
X133007432Y-62408445D01*
X133017890Y-62417907D01*
X133026666Y-62414124D01*
X133877978Y-61562812D01*
X133884356Y-61551132D01*
X134614408Y-61551132D01*
X134614539Y-61552965D01*
X134618790Y-61559580D01*
X135470290Y-62411080D01*
X135482670Y-62417840D01*
X135490320Y-62412113D01*
X135595205Y-62240958D01*
X135599687Y-62232163D01*
X135686734Y-62022012D01*
X135689783Y-62012627D01*
X135742885Y-61791446D01*
X135744428Y-61781699D01*
X135762275Y-61554930D01*
X139237725Y-61554930D01*
X139255572Y-61781699D01*
X139257115Y-61791446D01*
X139310217Y-62012627D01*
X139313266Y-62022012D01*
X139400313Y-62232163D01*
X139404795Y-62240958D01*
X139507432Y-62408445D01*
X139517890Y-62417907D01*
X139526666Y-62414124D01*
X140377978Y-61562812D01*
X140384356Y-61551132D01*
X141114408Y-61551132D01*
X141114539Y-61552965D01*
X141118790Y-61559580D01*
X141970290Y-62411080D01*
X141982670Y-62417840D01*
X141990320Y-62412113D01*
X142095205Y-62240958D01*
X142099687Y-62232163D01*
X142186734Y-62022012D01*
X142189783Y-62012627D01*
X142242885Y-61791446D01*
X142244428Y-61781699D01*
X142262275Y-61554930D01*
X142262275Y-61545070D01*
X142244428Y-61318301D01*
X142242885Y-61308554D01*
X142189783Y-61087373D01*
X142186734Y-61077988D01*
X142099687Y-60867837D01*
X142095205Y-60859042D01*
X141992568Y-60691555D01*
X141982110Y-60682093D01*
X141973334Y-60685876D01*
X141122022Y-61537188D01*
X141114408Y-61551132D01*
X140384356Y-61551132D01*
X140385592Y-61548868D01*
X140385461Y-61547035D01*
X140381210Y-61540420D01*
X139529710Y-60688920D01*
X139517330Y-60682160D01*
X139509680Y-60687887D01*
X139404795Y-60859042D01*
X139400313Y-60867837D01*
X139313266Y-61077988D01*
X139310217Y-61087373D01*
X139257115Y-61308554D01*
X139255572Y-61318301D01*
X139237725Y-61545070D01*
X139237725Y-61554930D01*
X135762275Y-61554930D01*
X135762275Y-61545070D01*
X135744428Y-61318301D01*
X135742885Y-61308554D01*
X135689783Y-61087373D01*
X135686734Y-61077988D01*
X135599687Y-60867837D01*
X135595205Y-60859042D01*
X135492568Y-60691555D01*
X135482110Y-60682093D01*
X135473334Y-60685876D01*
X134622022Y-61537188D01*
X134614408Y-61551132D01*
X133884356Y-61551132D01*
X133885592Y-61548868D01*
X133885461Y-61547035D01*
X133881210Y-61540420D01*
X133029710Y-60688920D01*
X133017330Y-60682160D01*
X133009680Y-60687887D01*
X132904795Y-60859042D01*
X132900313Y-60867837D01*
X132813266Y-61077988D01*
X132810217Y-61087373D01*
X132757115Y-61308554D01*
X132755572Y-61318301D01*
X132737725Y-61545070D01*
X132737725Y-61554930D01*
X120351300Y-61554930D01*
X120351300Y-60317890D01*
X133382093Y-60317890D01*
X133385876Y-60326666D01*
X134237188Y-61177978D01*
X134251132Y-61185592D01*
X134252965Y-61185461D01*
X134259580Y-61181210D01*
X135111080Y-60329710D01*
X135117534Y-60317890D01*
X139882093Y-60317890D01*
X139885876Y-60326666D01*
X140737188Y-61177978D01*
X140751132Y-61185592D01*
X140752965Y-61185461D01*
X140759580Y-61181210D01*
X141611080Y-60329710D01*
X141617840Y-60317330D01*
X141612113Y-60309680D01*
X141440958Y-60204795D01*
X141432163Y-60200313D01*
X141222012Y-60113266D01*
X141212627Y-60110217D01*
X140991446Y-60057115D01*
X140981699Y-60055572D01*
X140754930Y-60037725D01*
X140745070Y-60037725D01*
X140518301Y-60055572D01*
X140508554Y-60057115D01*
X140287373Y-60110217D01*
X140277988Y-60113266D01*
X140067837Y-60200313D01*
X140059042Y-60204795D01*
X139891555Y-60307432D01*
X139882093Y-60317890D01*
X135117534Y-60317890D01*
X135117840Y-60317330D01*
X135112113Y-60309680D01*
X134940958Y-60204795D01*
X134932163Y-60200313D01*
X134722012Y-60113266D01*
X134712627Y-60110217D01*
X134491446Y-60057115D01*
X134481699Y-60055572D01*
X134254930Y-60037725D01*
X134245070Y-60037725D01*
X134018301Y-60055572D01*
X134008554Y-60057115D01*
X133787373Y-60110217D01*
X133777988Y-60113266D01*
X133567837Y-60200313D01*
X133559042Y-60204795D01*
X133391555Y-60307432D01*
X133382093Y-60317890D01*
X120351300Y-60317890D01*
X120351300Y-53826100D01*
X120371302Y-53757979D01*
X120424958Y-53711486D01*
X120477300Y-53700100D01*
X176708300Y-53700100D01*
X176776421Y-53720102D01*
G37*
%TD.AperFunction*%
%TD*%
M02*
